<?xml version="1.0" encoding="UTF-8"?>
<svg version="1.1" viewBox="0 0 1600 200" width="1280" height="1280" xmlns="http://www.w3.org/2000/svg">
<path transform="translate(1194,1)" d="m0 0c27.9-0.348 55.9-0.615 83.8-0.777 13-0.0773 25.9-0.183 38.9-0.354 11.3-0.15 22.6-0.246 33.9-0.28 5.99-0.0195 12-0.0652 18-0.175 5.64-0.102 11.3-0.133 16.9-0.111 2.06-0.00411 4.13-0.0337 6.19-0.0915 16.4-0.436 16.4-0.436 22.3 5.1 2.9 3.12 5.4 6.45 7.76 9.98 1.4 2.05 2.97 3.88 4.66 5.7 7.85 8.97 15.7 17.9 23.2 27.2 2.72 3.31 5.51 6.56 8.31 9.81 4.42 5.13 8.75 10.3 13 15.6 2.61 3.19 5.28 6.31 7.98 9.42 4.15-1.56 6.47-4.6 9.19-7.94 0.725-0.874 0.725-0.874 1.46-1.77 1.46-1.76 2.9-3.53 4.35-5.3 0.77-0.94 1.54-1.88 2.33-2.85 1.46-1.78 2.91-3.56 4.36-5.35 3.91-4.75 7.9-9.44 11.9-14.1 1.44-1.7 2.88-3.41 4.32-5.11 5.66-6.71 11.3-13.4 17.2-19.9 4.64-5.1 9.06-10.3 13.3-15.7 1.53-1.93 1.53-1.93 2.53-2.93 1.47-0.093 2.95-0.117 4.43-0.114 0.941 7.55e-5 1.88 1.51e-4 2.85 2.29e-4 1.02 0.00516 2.05 0.0103 3.1 0.0156 1.04 0.00141 2.08 0.00283 3.16 0.00429 3.34 0.00562 6.68 0.0182 10 0.0309 2.26 0.00501 4.52 0.00958 6.78 0.0137 5.55 0.0111 11.1 0.0278 16.7 0.0488 0 4.5 0 4.5-2.53 7.29-0.54 0.607-1.08 1.21-1.64 1.84-0.585 0.639-1.17 1.28-1.77 1.94-1.21 1.35-2.41 2.7-3.61 4.06-0.592 0.662-1.18 1.32-1.8 2.01-2.16 2.45-4.23 4.96-6.28 7.5-3.24 4-6.54 7.95-9.88 11.9-3.35 3.95-6.67 7.92-9.94 11.9-3.96 4.86-8.02 9.62-12.1 14.4-3.06 3.56-6.06 7.16-9.01 10.8-3.62 4.46-7.45 8.69-11.4 12.9-3.74 4.04-7.23 8.24-10.7 12.5-3.4 4.16-6.9 8.21-10.4 12.3-4.6 5.32-6.28 8.3-6.3 15.3-0.01 0.771-0.0201 1.54-0.0304 2.34-0.0309 2.55-0.0479 5.1-0.0648 7.65-0.0187 1.77-0.0383 3.53-0.0587 5.3-0.0514 4.65-0.091 9.3-0.128 14-0.047 5.58-0.109 11.2-0.168 16.7-0.0883 8.48-0.158 17-0.231 25.4h-38c0.101-8.31 0.101-8.31 0.203-16.8 0.0157-3.54 0.0279-7.07 0.0273-10.6-5.28e-4 -5.6 0.0113-11.2 0.102-16.8 0.0725-4.52 0.085-9.04 0.0582-13.6-5.53e-5 -1.71 0.0205-3.43 0.0632-5.14 0.23-9.82-0.52-16.4-7.26-23.9-1.55-1.61-3.12-3.18-4.73-4.72-2.18-2.17-4.06-4.55-5.97-6.96-6.99-8.6-14.2-17-21.7-25.2-3.98-4.34-7.74-8.82-11.4-13.4-3.13-3.85-6.34-7.63-9.56-11.4-2.04-2.4-4.04-4.81-5.94-7.32-1.75-2.43-1.75-2.43-4.86-3.18h-77c-0.33 52.5-0.66 105-1 159h-38c-0.33-52.5-0.66-105-1-159h-75c-1.32-0.33-2.64-0.66-4-1v-38z" fill="#000002"/>
<path transform="translate(586 .609)" d="m0 0c2.69 0.00748 5.37 0.0134 8.06 0.0172 6.29 0.0123 12.6 0.045 18.9 0.0854 7.18 0.0451 14.4 0.0668 21.5 0.0868 14.7 0.0415 29.5 0.115 44.2 0.201v38c-3.27 0.0198-6.55 0.0396-9.92 0.0601-10.9 0.0672-21.7 0.145-32.6 0.227-6.59 0.0497-13.2 0.0961-19.8 0.134-6.37 0.0371-12.7 0.0836-19.1 0.136-2.42 0.0184-4.83 0.0336-7.25 0.0453-35.1-0.0155-35.1-0.0155-65 16.8-0.763 0.846-1.53 1.69-2.31 2.56-0.53 0.526-1.06 1.05-1.61 1.59-6.16 6.41-8.04 11.7-12.4 20.4h170v38h-170c7.03 14.1 12.7 24.1 26 32 0.757 0.46 1.51 0.92 2.29 1.39 16 8.85 33.4 8.21 51.1 8.21 2.62 0.015 5.25 0.0317 7.87 0.0501 6.15 0.0402 12.3 0.0608 18.5 0.074 7.02 0.016 14 0.0544 21.1 0.0946 14.4 0.082 28.8 0.133 43.2 0.172v38c-15.4 0.0907-30.9 0.164-46.3 0.207-7.18 0.0205-14.4 0.0484-21.5 0.0945-6.26 0.0402-12.5 0.0658-18.8 0.0746-3.31 0.00516-6.62 0.0192-9.92 0.0466-30.5 0.242-61.3-4.92-84.2-27.1-0.745-0.767-1.49-1.53-2.26-2.32l-2.51-2.48c-17.3-17.9-26.1-42-25.9-66.8l0.0251-3.85c0.433-24.2 9.61-45.6 25.4-63.9 0.67-0.802 1.34-1.6 2.03-2.43 23.5-25.9 58.5-30.2 91.3-30z" fill="#000002"/>
<path transform="translate(242,1)" d="m0 0c24.9-0.103 49.8-0.206 75.4-0.312 7.83-0.0455 15.7-0.091 23.7-0.138 9.64-0.0226 9.64-0.0226 14.2-0.0268 3.13-0.00462 6.26-0.0232 9.39-0.0507 25.5-0.214 47.2 0.644 67 19 10.3 10.2 15.5 23.6 15.8 38-0.00636 0.95-0.0127 1.9-0.0193 2.88-0.00572 1-0.0114 2.01-0.0173 3.04-0.367 15.3-6.73 27.8-17.2 38.9-12.5 11.9-27.8 16.4-44.7 17.3-0.736 0.0432-1.47 0.0864-2.23 0.131-1.8 0.105-3.6 0.206-5.39 0.307 0.392 0.389 0.783 0.778 1.19 1.18 9.52 9.46 19 18.9 28.5 28.4 4.6 4.58 9.2 9.16 13.8 13.7 4.44 4.41 8.88 8.83 13.3 13.2 1.69 1.69 3.39 3.37 5.09 5.06 2.37 2.35 4.74 4.71 7.1 7.07 0.711 0.7 1.42 1.4 2.15 2.12 0.639 0.644 1.28 1.29 1.94 1.95 0.56 0.558 1.12 1.12 1.7 1.69 1.19 1.56 1.19 1.56 1.19 4.56-49.6 3.63-49.6 3.63-59.6-4.21-4.18-3.9-7.59-8.22-10.5-13.2-2.24-3.07-4.79-5.24-7.68-7.68-4.03-3.5-7.75-7.32-11.5-11.1-0.86-0.859-1.72-1.72-2.61-2.6-1.81-1.81-3.61-3.61-5.42-5.42-2.75-2.75-5.5-5.5-8.25-8.24-1.76-1.76-3.53-3.53-5.29-5.29-0.814-0.812-1.63-1.62-2.47-2.46-3.5-3.51-6.92-7.04-10.2-10.8-4.15-4.82-8.66-9.24-13.2-13.7-1.85-1.83-3.69-3.67-5.54-5.5-2.89-2.87-5.78-5.73-8.68-8.59-2.81-2.78-5.61-5.56-8.41-8.35-0.875-0.861-1.75-1.72-2.65-2.61-0.798-0.795-1.6-1.59-2.42-2.41-1.06-1.05-1.06-1.05-2.14-2.12-1.51-1.74-1.51-1.74-1.51-3.74 0.544-0.00147 1.09-0.00293 1.65-0.00444 13.3-0.0371 26.5-0.0964 39.8-0.179 6.41-0.0395 12.8-0.0717 19.2-0.0871 6.19-0.0152 12.4-0.0496 18.6-0.0973 2.36-0.0148 4.72-0.0227 7.08-0.0236 3.31-0.00237 6.62-0.0295 9.93-0.0622 0.972 0.00503 1.94 0.0101 2.94 0.0152 7.59-0.116 12.6-2.11 18.6-6.75 3.65-4.69 5.59-9.87 5.19-15.9-1.13-6.09-4.31-10.6-9.12-14.4-26.9-14.6-104-3.56-121-3.56v159h-37v-198z" fill="#000002"/>
<path transform="translate(113 .886)" d="m0 0c1.12-1.46e-4 2.25-2.92e-4 3.4-4.43e-4 3.67 6.9e-4 7.34 0.00844 11 0.0163 2.56 0.00187 5.12 0.00329 7.68 0.00429 6.02 0.00341 12 0.0113 18.1 0.0213 6.87 0.0112 13.7 0.0167 20.6 0.0217 14.1 0.0104 28.2 0.0287 42.3 0.0503v38c-3.67 0.0501-7.35 0.1-11.1 0.152-12.2 0.167-24.3 0.344-36.5 0.527-7.37 0.11-14.7 0.217-22.1 0.316-6.42 0.0861-12.8 0.179-19.3 0.279-3.4 0.0529-6.8 0.103-10.2 0.144-3.8 0.0485-7.61 0.109-11.4 0.171-1.67 0.0173-1.67 0.0173-3.38 0.0349-16.3 0.305-29.4 4.98-42 15.4l-1.96 1.58c-11 9.85-16.9 25.7-18.3 40-0.545 12.5 3.38 25.1 10.3 35.4l1.71 2.58c10.3 14.1 26.5 21.4 43.3 24.4 4.2 0.384 8.37 0.438 12.6 0.432 1.18 0.0102 2.36 0.0204 3.58 0.0309 3.86 0.0299 7.72 0.0394 11.6 0.0485 2.69 0.0152 5.39 0.0349 8.08 0.0544 6.34 0.0434 12.7 0.0721 19 0.0953 7.22 0.0272 14.4 0.0711 21.7 0.116 14.8 0.0925 29.7 0.162 44.5 0.222v38c-15.8 0.068-31.6 0.123-47.3 0.155-7.33 0.0154-14.7 0.0364-22 0.0709-6.39 0.0301-12.8 0.0493-19.2 0.0559-3.38 0.00388-6.76 0.0129-10.1 0.0349-26.8 0.156-26.8 0.156-39.4-3.32-1.17-0.288-1.17-0.288-2.37-0.582-9.7-2.46-18.3-6.4-26.9-11.4-1.54-0.898-3.09-1.77-4.64-2.63-20.8-12.2-34-34.4-40-57.3-5.83-23.1-3.05-45.6 7-67l1.33-2.88c4.12-8.17 9.8-15.2 15.7-22.1 0.585-0.703 1.17-1.41 1.77-2.13 12-13.2 32.2-21.9 49.2-25.9 0.882-0.213 1.76-0.425 2.67-0.645 10.3-2.27 20.8-2.51 31.2-2.47z" fill="#000002"/>
<path transform="translate(813,1)" d="m0 0c3.63 1.21 3.85 1.98 5.64 5.23 0.496 0.886 0.991 1.77 1.5 2.68 0.511 0.935 1.02 1.87 1.55 2.83 3.3 5.96 6.65 11.8 10.2 17.6 4.01 6.47 7.82 13.1 11.6 19.7 0.692 1.22 1.38 2.43 2.08 3.65 1.43 2.51 2.86 5.03 4.29 7.54 6.02 10.6 12.1 21.2 18.1 31.8 0.334 0.584 0.668 1.17 1.01 1.77 9.68 16.9 9.68 16.9 19.8 33.6 4.92 7.99 9.49 16.2 14.2 24.3 3 5.22 6.01 10.4 9.02 15.7 1.89 3.27 3.77 6.54 5.66 9.81 2.01 3.49 4.03 6.98 6.06 10.5 0.74 1.28 1.48 2.55 2.22 3.83 0.607 1.04 1.21 2.08 1.84 3.16 1.22 2.34 1.22 2.34 1.22 4.34h-151c0.895-4.47 1.73-6.63 3.98-10.4 0.606-1.03 1.21-2.05 1.84-3.11 0.955-1.59 0.955-1.59 1.93-3.22 1.25-2.1 2.49-4.2 3.73-6.3 0.554-0.927 1.11-1.85 1.68-2.81 2.34-4.01 4.58-8.08 6.84-12.1 21.1-0.33 42.2-0.66 64-1-7.56-14.3-7.56-14.3-15.6-28.3-3.91-6.64-7.8-13.3-11.6-20-0.351-0.616-0.701-1.23-1.06-1.87-1.7-2.98-3.39-5.96-5.08-8.95-1.88-3.3-3.77-6.6-5.68-9.88-0.35-0.602-0.7-1.2-1.06-1.83-1.07-1.82-2.14-3.63-3.23-5.44-0.639-1.07-1.28-2.15-1.94-3.26-1.6-2.74-1.6-2.74-4.77-3.47-0.274 0.727-0.549 1.45-0.832 2.2-1.12 2.68-2.39 5.06-3.86 7.55-0.543 0.922-1.09 1.84-1.64 2.79-0.589 0.995-1.18 1.99-1.79 3.01-5.33 9.07-10.6 18.2-15.8 27.3-1.35 2.36-2.7 4.73-4.05 7.09-0.5 0.877-0.5 0.877-1.01 1.77-22.3 39.1-22.3 39.1-29.3 50.2-1.4 2.48-2.47 4.82-3.55 7.44-2.09 4.72-4.16 9.21-8.17 12.6-6.98 2.7-14.8 1.6-22.1 1.06-2.03-0.0854-4.05-0.163-6.08-0.232-4.94-0.186-9.87-0.479-14.8-0.83 0.589-3.98 1.82-6.81 3.85-10.3 0.596-1.02 1.19-2.05 1.81-3.1 0.973-1.65 0.973-1.65 1.97-3.33 0.678-1.16 1.36-2.32 2.03-3.48 1.41-2.41 2.82-4.82 4.23-7.23 2.65-4.52 5.26-9.06 7.87-13.6 7.73-13.4 15.6-26.8 23.5-40.1 5.94-10 11.7-20.1 17.5-30.2 5.25-9.2 10.6-18.4 15.9-27.5 3.18-5.44 6.33-10.9 9.45-16.4 0.352-0.618 0.705-1.24 1.07-1.87 1.7-2.99 3.41-5.99 5.1-8.99 6.18-10.9 12.6-21.5 19.7-31.9z" fill="#000002"/>
<path transform="translate(948,1)" d="m0 0c5.25-0.0246 10.5-0.0428 15.8-0.0549 1.79-0.00504 3.58-0.0119 5.36-0.0205 2.56-0.0121 5.13-0.0178 7.69-0.0222 0.804-0.00516 1.61-0.0103 2.44-0.0156 1.92-1.96e-4 3.84 0.0513 5.75 0.113 1 1 1 1 1.12 3.61-0.00138 1.76-0.00138 1.76-0.00279 3.55 8.54e-4 0.65 0.00171 1.3 0.00259 1.97 0.00166 2.19-0.00387 4.39-0.00932 6.58-2.82e-4 1.57-1.24e-4 3.13 4.43e-4 4.7 2.88e-4 4.27-0.00561 8.53-0.0126 12.8-0.00623 4.45-0.00684 8.91-0.00803 13.4-0.00311 8.44-0.0113 16.9-0.0213 25.3-0.0132 11.4-0.0187 22.8-0.0245 34.2-0.00942 18-0.0293 35.9-0.0475 53.9h128v38c-19.3 0.0904-38.6 0.164-57.9 0.207-8.96 0.0206-17.9 0.0487-26.9 0.0945-7.81 0.0399-15.6 0.0657-23.4 0.0746-4.13 0.00521-8.27 0.0174-12.4 0.0466-3.89 0.0272-7.79 0.0355-11.7 0.0295-1.43 0.0011-2.85 9e-3 -4.28 0.0244-9.1 0.0935-15.6-0.239-22.7-6.44-0.808-0.976-0.808-0.976-1.63-1.97-0.554-0.648-1.11-1.3-1.68-1.96-3.24-4.7-3.73-8.98-3.69-14.6-0.00171-0.743-0.00342-1.49-0.00518-2.25-0.00329-2.49 0.0077-4.97 0.0186-7.46 5.64e-4 -1.78 2.47e-4 -3.57-8.85e-4 -5.35-5.74e-4 -4.84 0.0112-9.68 0.0251-14.5 0.0125-5.06 0.0137-10.1 0.0161-15.2 0.00622-9.58 0.0226-19.2 0.0427-28.7 0.0224-10.9 0.0334-21.8 0.0434-32.7 0.0209-22.4 0.0561-44.9 0.101-67.3z" fill="#000002"/>
<path transform="translate(1144 .861)" d="m0 0c0.779 0.00202 1.56 0.00405 2.36 0.00613 0.795-9.57e-4 1.59-0.00191 2.41-0.0029 1.68-6.82e-4 3.37 0.00117 5.05 0.00534 2.59 0.00535 5.18 5.49e-5 7.76-0.00635 1.63 6.61e-4 3.27 0.00194 4.9 0.00391 0.779-0.00202 1.56-0.00405 2.36-0.00613 5.46 0.024 5.46 0.024 6.58 1.14 0.0978 2.54 0.13 5.06 0.12 7.6 8.54e-4 0.805 0.00171 1.61 0.00259 2.44 0.00166 2.72-0.00387 5.44-0.00932 8.16-2.82e-4 1.94-1.24e-4 3.88 4.43e-4 5.82 2.88e-4 5.29-0.00561 10.6-0.0126 15.9-0.00623 5.52-0.00684 11-0.00803 16.6-0.00311 10.5-0.0113 20.9-0.0213 31.4-0.0112 11.9-0.0167 23.8-0.0217 35.7-0.0105 24.5-0.0288 49-0.0503 73.5h-38c-0.0225-25.7-0.041-51.3-0.0518-77-0.00516-11.9-0.0122-23.8-0.0236-35.8-0.00994-10.4-0.0164-20.8-0.0186-31.1-0.00131-5.5-0.0044-11-0.0116-16.5-0.00676-5.17-0.00889-10.3-0.00738-15.5-2.76e-4 -1.9-0.00228-3.81-0.0061-5.71-0.00493-2.59-0.00379-5.18-0.00105-7.76-0.00291-0.764-0.00583-1.53-0.00883-2.31 0.0183-6.31 0.416-6.4 6.71-6.42z" fill="#000002"/>
</svg>
