<?xml version="1.0" encoding="UTF-8"?>
<svg version="1.1" viewBox="0 0 1600 200" width="1280" height="1280" xmlns="http://www.w3.org/2000/svg">
<path transform="translate(1192)" d="m0 0c28.3-0.28 56.5-0.492 84.8-0.622 13.1-0.0619 26.2-0.146 39.4-0.284 11.4-0.12 22.9-0.197 34.3-0.224 6.05-0.0156 12.1-0.0523 18.2-0.14 5.7-0.0816 11.4-0.107 17.1-0.0885 2.09-0.00329 4.18-0.0271 6.27-0.0732 16.6-0.348 16.6-0.348 21.4 3.99 2.64 2.88 4.62 6.09 6.63 9.44 1.48 1.91 2.97 3.81 4.5 5.69 0.629 0.808 1.26 1.62 1.91 2.45 1.47 1.96 1.47 1.96 3.59 2.86 0.619 1.11 0.619 1.11 1.25 2.25 2.11 3.32 4.74 5.25 7.75 7.75 0.685 1.32 1.35 2.66 2 4 0.962 1.24 1.96 2.45 3 3.62l1.56 1.79c1.11 1.23 2.27 2.42 3.44 3.59 1.68 1.99 3.34 3.99 5 6 0.825 0.99 1.65 1.98 2.5 3 0.825 0.99 1.65 1.98 2.5 3 1.21 1.42 1.21 1.42 2.44 2.88 1.9 2.27 3.68 4.61 5.44 7 2.18 2.92 4.41 5.77 6.75 8.56 0.824 0.988 0.824 0.988 1.66 2 1.9 1.74 3.19 2.18 5.71 2.57l1.56-2c1.78-2.19 3.58-4.32 5.44-6.44 7.74-8.8 15.3-17.7 22.7-26.8 4.35-5.31 8.82-10.5 13.3-15.8 1.98-2.33 3.96-4.67 5.94-7 0.673-0.792 0.673-0.792 1.36-1.6 2.62-3.09 5.18-6.23 7.7-9.4 0.66-0.784 1.32-1.57 2-2.38 2.34-3.08 4.14-6.24 6-9.62h50c0.66 1.32 1.32 2.64 2 4-1.08 1.07-1.08 1.07-2.18 2.15-2.74 2.74-5.39 5.56-8.01 8.41-1.29 1.39-1.29 1.39-2.61 2.82-1.87 2.22-2.94 4.07-4.21 6.62-1.49 0.99-1.49 0.99-3 2-0.289 0.598-0.577 1.2-0.875 1.81-1.53 2.97-3.74 4.86-6.12 7.19-0.906 1.1-1.8 2.2-2.69 3.31-0.763 0.887-1.53 1.77-2.31 2.69h-2c-0.66 1.65-1.32 3.3-2 5h-2c-0.272 0.568-0.544 1.14-0.824 1.72-3.38 6.54-7.87 14.8-15.2 17.3-0.165 0.66-0.33 1.32-0.5 2-0.165 0.66-0.33 1.32-0.5 2-1.49 0.495-1.49 0.495-3 1-0.371 1.05-0.371 1.05-0.75 2.12-1.55 3.56-3.72 5.46-6.5 8.09-1.63 1.66-2.83 3.25-4.06 5.22-0.557 0.846-1.11 1.69-1.69 2.56h-2c-0.268 0.572-0.536 1.14-0.812 1.73-1.23 2.34-2.61 4.39-4.19 6.52l-1.56 2.14c-0.712 0.797-0.712 0.797-1.44 1.61h-2c-0.24 0.547-0.48 1.09-0.727 1.66-1.58 2.91-3.54 5.29-5.65 7.84-0.771 0.938-1.54 1.88-2.34 2.84-2.29 2.66-2.29 2.66-4.52 4.5-4.8 5.83-2.89 16.7-2.85 23.9 0.0129 2.31 0.0193 4.62 0.0241 6.92 0.0114 4.89 0.0306 9.78 0.051 14.7 0.0236 5.69 0.044 11.4 0.0559 17.1 0.00648 2.27 0.019 4.55 0.0317 6.82 0.00363 1.39 0.00698 2.78 0.01 4.17 0.00786 1.82 0.00786 1.82 0.0159 3.68-0.114 2.96-0.114 2.96-1.11 5.96h-40c0.0831-8.54 0.0831-8.54 0.168-17.3 0.0106-3.63 0.018-7.26 0.0137-10.9-0.00648-5.75-0.00157-11.5 0.0754-17.3 0.0614-4.64 0.0682-9.28 0.0388-13.9-0.00189-1.76 0.0151-3.52 0.0524-5.28 0.208-10.5-0.601-17.4-8.08-25.2-1.42-1.4-2.84-2.78-4.27-4.17-1.66-1.92-3.23-3.89-4.81-5.88-2.53-3.12-5.09-6.18-7.75-9.19-2.44-2.94-2.44-2.94-2.44-4.94h-2c-1.41-1.36-1.41-1.36-3.06-3.31-0.621-0.731-1.24-1.46-1.88-2.21-3.71-4.47-7.4-8.96-11.1-13.5-0.753-0.919-1.51-1.84-2.28-2.79-0.712-0.875-1.42-1.75-2.16-2.65-0.957-1.17-0.957-1.17-1.93-2.37-1.49-2-2.6-3.92-3.63-6.19h-2c-1.58-1.76-3.09-3.58-4.56-5.44l-2.44-3.06c-0.659-0.826-1.32-1.65-2-2.5-1.95-1.95-5.7-1.18-8.37-1.21-0.771-0.0099-1.54-0.0198-2.34-0.03-2.56-0.0317-5.12-0.0564-7.68-0.0811-1.77-0.0206-3.54-0.0416-5.31-0.063-4.67-0.0553-9.33-0.105-14-0.153-4.76-0.0502-9.52-0.106-14.3-0.161-9.34-0.108-18.7-0.209-28-0.307 0.00524 0.959 0.0105 1.92 0.0159 2.91 0.0181 3.55 0.0296 7.1 0.0391 10.7 0.00503 1.54 0.0119 3.08 0.0205 4.62 0.0121 2.21 0.0178 4.42 0.0222 6.63 0.00516 0.69 0.0103 1.38 0.0156 2.09 5.75e-4 4.88 5.75e-4 4.88-1.11 7.11-0.0907 1.64-0.118 3.29-0.114 4.93 7.05e-5 1.04 1.41e-4 2.09 2.14e-4 3.16 0.00517 1.15 0.0103 2.3 0.0157 3.48 0.00146 1.21 0.00292 2.41 0.00443 3.66 0.00381 2.63 0.00944 5.25 0.0181 7.88 0.0135 4.15 0.0194 8.3 0.0241 12.5 0.0111 8.81 0.0306 17.6 0.051 26.4 0.022 9.51 0.0426 19 0.0534 28.5 0.00499 4.13 0.0149 8.26 0.0284 12.4 0.00919 3.17 0.012 6.33 0.0158 9.5 0.00517 1.15 0.0103 2.3 0.0157 3.48 7.05e-5 1.04 1.41e-4 2.09 2.14e-4 3.16 0.00222 0.91 0.00444 1.82 0.00673 2.76-0.12 2.18-0.12 2.18-1.12 4.18h-39v-160h-78c-2.56-3.84-2.25-6.95-2.2-11.4 0.00283-0.817 0.00566-1.63 0.00858-2.48 0.0112-2.61 0.0363-5.22 0.0617-7.82 0.01-1.77 0.0192-3.54 0.0273-5.31 0.022-4.34 0.0566-8.67 0.0977-13zm268 121 1 2z" fill="#FBFCFE"/>
<path transform="translate(549)" d="m0 0c0.495 0.99 0.495 0.99 1 2 0.908-0.325 1.82-0.651 2.75-0.986 5.35-1.51 10.7-1.28 16.2-1.24 1.19-2.92e-4 2.38-5.84e-4 3.61-8.85e-4 3.25 0.00115 6.49 0.0111 9.74 0.0251 3.4 0.0125 6.8 0.0137 10.2 0.0161 6.43 0.0062 12.9 0.0226 19.3 0.0427 7.33 0.0224 14.7 0.0334 22 0.0434 15.1 0.0209 30.1 0.056 45.2 0.101 1.64 3.29 0.997 6.91 0.879 10.5-0.0236 0.841-0.0472 1.68-0.0715 2.55-0.0767 2.69-0.161 5.38-0.245 8.07-0.0532 1.82-0.106 3.64-0.158 5.46-0.129 4.47-0.265 8.94-0.404 13.4-0.614 0.00331-1.23 0.00662-1.86 0.01-15 0.0814-30 0.174-44.9 0.277-7.25 0.05-14.5 0.0965-21.7 0.134-6.32 0.0331-12.6 0.073-19 0.121-3.34 0.0251-6.69 0.0459-10 0.0606-3.74 0.0169-7.48 0.046-11.2 0.0778-1.1 0.00216-2.19 0.00432-3.32 0.00655-8.41 0.091-16.5 1.01-24.3 4.25-0.791 0.318-1.58 0.637-2.4 0.965-2.31 1.14-4.17 2.55-6.23 4.1-1.49 0.495-1.49 0.495-3 1-0.66 0.99-1.32 1.98-2 3-0.598 0.268-1.2 0.536-1.81 0.812-6.95 3.77-11.9 13.5-15.3 20.3-0.357 0.72-0.715 1.44-1.08 2.18-0.271 0.548-0.542 1.1-0.821 1.66 1.29 0.00497 1.29 0.00497 2.6 0.01 20.9 0.0811 41.7 0.173 62.6 0.277 10.1 0.0502 20.2 0.0966 30.3 0.134 8.79 0.0329 17.6 0.0727 26.4 0.121 4.66 0.0253 9.32 0.0471 14 0.0606 4.38 0.0128 8.76 0.0348 13.1 0.064 1.61 0.0091 3.22 0.0148 4.84 0.0168 2.19 0.0033 4.39 0.0187 6.58 0.0373 1.84 0.0083 1.84 0.0083 3.73 0.0168 2.85 0.262 2.85 0.262 4.85 2.26 0.188 2.79 0.256 5.47 0.23 8.25-4.58e-4 0.816-9.16e-4 1.63-0.00139 2.47-0.00302 1.73-0.0109 3.45-0.0233 5.18-0.0183 2.65-0.0205 5.3-0.0203 7.95-0.00491 1.67-0.0107 3.35-0.0176 5.02-0.00111 0.798-0.00223 1.6-0.00337 2.42-0.0485 5.59-0.0485 5.59-1.16 6.7-2.16 0.109-4.33 0.147-6.5 0.158-0.687 0.00494-1.37 0.00988-2.08 0.015-2.32 0.0154-4.64 0.0238-6.96 0.0321-1.66 0.00957-3.31 0.0196-4.97 0.03-4.51 0.0271-9.02 0.0481-13.5 0.068-4.71 0.0218-9.41 0.0492-14.1 0.0761-8.92 0.05-17.8 0.0949-26.8 0.138-10.1 0.0493-20.3 0.104-30.4 0.16-20.9 0.114-41.8 0.221-62.7 0.323 0.882 2.88 0.882 2.88 2 5 1 2 1 2 2 5 0.99 0.99 0.99 0.99 2 2 5 5 5 5 7.38 7.44 0.866 0.846 1.73 1.69 2.62 2.56 0.683 0.694 0.683 0.694 1.38 1.4 11.7 11 27.5 15.1 43.1 15 1.19 0.0102 2.38 0.0204 3.61 0.0309 3.23 0.0248 6.46 0.0368 9.69 0.0429 3.39 0.00945 6.78 0.0357 10.2 0.06 6.4 0.0435 12.8 0.0721 19.2 0.0953 7.3 0.0272 14.6 0.0711 21.9 0.116 15 0.0926 30 0.164 45 0.222-0.247 0.877-0.247 0.877-0.5 1.77-0.764 3.4-0.485 6.78-0.344 10.2 0.026 0.769 0.052 1.54 0.0787 2.33 0.083 2.45 0.173 4.9 0.265 7.35 0.12 3.23 0.234 6.47 0.344 9.7 0.0302 0.748 0.0603 1.5 0.0914 2.27 0.0604 1.78 0.068 3.56 0.0648 5.35-1.62 1.62-3.4 1.14-5.64 1.16-1.5 0.0151-1.5 0.0151-3.04 0.0304-1.11 0.00583-2.22 0.0117-3.36 0.0177-1.74 0.0147-1.74 0.0147-3.52 0.0296-3.88 0.0301-7.75 0.0517-11.6 0.0702-0.662 0.0033-1.32 0.00659-2.01 0.00999-6.27 0.0309-12.5 0.0575-18.8 0.0744-7.97 0.0217-15.9 0.0633-23.9 0.133-5.62 0.0478-11.2 0.0716-16.9 0.0788-3.35 0.00489-6.69 0.0225-10 0.0597-32.7 0.344-62.2-7.5-86.2-30.7-0.754-0.708-1.51-1.42-2.29-2.14-1.71-1.86-1.71-1.86-1.71-3.86h-2c-1.55-1.94-1.55-1.94-3.31-4.56-2.14-3.17-4.31-6.27-6.62-9.31-2.06-3.12-2.06-3.12-2.06-7.12-0.66-0.33-1.32-0.66-2-1-2.44-4.46-4.14-8.99-5-14-0.315-0.624-0.63-1.25-0.954-1.89-3.7-7.47-3.35-15.9-3.3-24-0.00773-1.12-0.0155-2.23-0.0234-3.38 0.016-6.81 0.66-13.1 2.27-19.7 0.246-1.11 0.492-2.21 0.746-3.36 3.35-13.7 9.89-25.3 18.3-36.6 0.567-0.785 1.13-1.57 1.72-2.38 3.85-5.17 8.01-9.85 13.3-13.6h2v-2c0.964-0.543 1.93-1.09 2.92-1.64 1.28-0.723 2.55-1.45 3.83-2.17 0.634-0.356 1.27-0.713 1.92-1.08 2.59-1.47 5.06-2.9 7.43-4.71 6.39-4.71 14.9-6.87 22.5-8.72 2.31-0.658 4.27-1.53 6.38-2.68zm-82 113 1 2z" fill="#FBFCFE"/>
<path transform="translate(240)" d="m0 0c38.2-0.0928 38.2-0.0928 77.2-0.188 8.04-0.0273 16.1-0.0546 24.3-0.0828 9.85-0.0135 9.85-0.0135 14.5-0.0161 3.21-0.00278 6.42-0.014 9.63-0.0304 4.11-0.0207 8.21-0.0267 12.3-0.0225 1.5-8.83e-4 3-0.00675 4.5-0.0184 12-0.089 22.4 1.87 33.5 6.36v2c0.889 0.25 1.78 0.5 2.7 0.758 12.4 4.67 19.9 18.7 25.3 30.1 5.68 12.8 5.44 27.9 0.961 41.1-6.39 16.5-17.3 27.9-33.2 35.3-4.16 1.78-8.38 2.92-12.8 3.78-1.11 0.227-2.23 0.454-3.38 0.688-5.54 0.478-11.1 0.388-16.6 0.312 3.98 3.99 7.99 7.96 12 11.9 6.96 6.86 13.9 13.7 20.8 20.6 4.19 4.16 8.39 8.32 12.6 12.5 4.08 4.01 8.14 8.04 12.2 12.1 1.55 1.54 3.1 3.07 4.66 4.59 2.17 2.13 4.32 4.27 6.47 6.43 0.65 0.629 1.3 1.26 1.97 1.91 1.59 1.62 3.03 3.1 4.26 5.01-0.11 2.93-0.11 2.93-1 5-7.28 0.203-14.6 0.343-21.8 0.439-2.47 0.0402-4.95 0.0947-7.42 0.164-3.56 0.0973-7.12 0.142-10.7 0.178-1.1 0.0413-2.2 0.0826-3.34 0.125-7.56 0.00439-7.56 0.00439-10.9-2.61-1.77-2.02-3.31-4.09-4.83-6.3-1.22-1.3-2.46-2.59-3.72-3.85-0.934-0.936-0.934-0.936-1.89-1.89-0.625-0.621-1.25-1.24-1.89-1.88-0.625-0.629-1.25-1.26-1.89-1.91-3.63-3.62-7.34-7.01-11.3-10.2-0.627-0.618-0.627-0.618-1.27-1.25v-2c-0.557-0.227-1.11-0.454-1.69-0.688-2.97-1.69-4.96-3.84-7.31-6.31-2.61-2.63-5.24-5.24-7.89-7.82-0.973-0.954-1.95-1.91-2.92-2.86-0.502-0.485-1-0.971-1.52-1.47-1.26-1.24-2.47-2.54-3.67-3.84v-2h-2v-2h-2c-1.43-1.45-1.43-1.45-3.09-3.46-3.94-4.63-8.14-8.92-12.4-13.2-0.795-0.796-1.59-1.59-2.41-2.41-1.67-1.67-3.34-3.34-5.01-5.01-2.54-2.54-5.08-5.08-7.62-7.63-1.63-1.63-3.26-3.26-4.89-4.89-0.751-0.753-1.5-1.51-2.28-2.28-3.81-3.79-7.67-7.44-11.8-10.9-1.97-1.68-3.73-3.49-5.45-5.42-0.598-0.654-1.2-1.31-1.81-1.98-0.588-0.907-0.588-0.907-1.19-1.83 0.495-1.48 0.495-1.48 1-3 0.548-5.45e-4 1.1-0.00109 1.66-0.00165 13.4-0.015 26.7-0.0579 40.1-0.13 6.47-0.0343 12.9-0.0594 19.4-0.0635 6.24-0.00429 12.5-0.0328 18.7-0.0779 2.38-0.013 4.76-0.0173 7.14-0.0127 3.34 0.00491 6.68-0.0212 10-0.0544 0.978 0.00863 1.96 0.0173 2.96 0.0261 6.64-0.11 11.7-1.56 17-5.69 3.87-4.6 4.29-8.84 4.23-14.8-0.537-5.2-2.35-9.87-5.23-14.2-2.05-1.19-2.05-1.19-4-2v-2l-118-1c0.0116 11.5 0.0232 22.9 0.0352 34.7 0.00511 7.24 0.00996 14.5 0.0137 21.7 0.00594 11.5 0.0129 23 0.0266 34.5 0.00995 8.38 0.0164 16.8 0.0186 25.1 0.00131 4.44 0.00439 8.88 0.0116 13.3 0.00676 4.17 0.00889 8.35 0.00738 12.5 2.76e-4 1.54 0.00228 3.07 0.0061 4.61 0.00493 2.09 0.00379 4.18 0.00105 6.27 9.22e-4 1.17 0.00184 2.34 0.00279 3.55-0.123 2.61-0.123 2.61-1.12 3.61h-39v-200z" fill="#FAFBFD"/>
<path transform="translate(85)" d="m0 0c0.495 0.99 0.495 0.99 1 2 0.581-0.142 1.16-0.283 1.76-0.43 6.87-1.54 13.4-1.84 20.4-1.8 1.76-4.38e-4 1.76-4.38e-4 3.55-8.85e-4 3.84 0.00138 7.68 0.0169 11.5 0.0326 2.68 0.00373 5.35 0.00668 8.03 0.00858 6.3 0.00619 12.6 0.0226 18.9 0.0427 7.18 0.0224 14.4 0.0334 21.5 0.0434 14.8 0.0208 29.5 0.056 44.3 0.101 1.11 3.33 1.13 5.85 1.13 9.36 0.00129 1.26 0.00258 2.53 0.00391 3.83-0.00209 0.658-0.00419 1.32-0.00635 2-0.00531 1.99 4.52e-4 3.97 0.00635 5.96l-0.00391 3.85c-0.00113 1.15-0.00226 2.31-0.00342 3.5-0.143 3.9-0.626 7.65-1.13 11.5-0.601 0.00423-1.2 0.00846-1.82 0.0128-14.7 0.104-29.4 0.212-44.1 0.327-7.1 0.0551-14.2 0.109-21.3 0.158-6.2 0.0431-12.4 0.0895-18.6 0.14-3.28 0.0264-6.55 0.0507-9.83 0.0722-3.67 0.0243-7.34 0.0543-11 0.0856-1.07 0.00576-2.13 0.0115-3.23 0.0174-5.38 0.0517-10.8 0.212-16.1 0.513-1.56 0.0842-1.56 0.0842-3.14 0.17-3.24 0.565-5.17 1.7-7.9 3.5-1.64 0.681-1.64 0.681-3.31 1.38-6.54 2.74-11.9 6.41-16.7 11.6-0.846 0.825-1.69 1.65-2.56 2.5-11.7 12-15.8 26.8-15.8 43.3 0.18 9.99 2.23 18.2 8.38 26.2l1 2.06c0.91 2.02 0.91 2.02 2.62 3.5 1.38 1.44 1.38 1.44 1.38 4.44 0.639 0.268 1.28 0.536 1.94 0.812 2.06 1.19 2.06 1.19 3.06 4.19 1.33 0.365 2.66 0.691 4 1 1.72 1.06 3.4 2.17 5.06 3.31 11.9 7.71 24.2 9.98 38.2 10 1.19 0.01 2.38 0.0201 3.61 0.0304 3.24 0.0254 6.48 0.0424 9.72 0.0554 3.4 0.0157 6.79 0.0425 10.2 0.068 6.42 0.0466 12.8 0.0835 19.3 0.117 7.31 0.0383 14.6 0.0877 21.9 0.138 15 0.103 30.1 0.192 45.1 0.273v3c0.162 0.743 0.325 1.49 0.492 2.25 0.608 3.29 0.638 6.39 0.641 9.73 9.57e-4 0.654 0.00191 1.31 0.0029 1.98 6.77e-4 1.37-0.00114 2.75-0.00534 4.12-0.00538 2.11-2.63e-5 4.21 0.00635 6.32-6.6e-4 1.34-0.00194 2.68-0.00391 4.01-0.00113 1.21-0.00226 2.43-0.00342 3.68-0.129 2.9-0.129 2.9-1.13 4.9-16 0.141-32.1 0.246-48.1 0.311-7.45 0.0307-14.9 0.0725-22.4 0.142-6.51 0.0604-13 0.0987-19.5 0.112-3.44 0.00772-6.87 0.0254-10.3 0.0698-30.2 0.346-56.3-6.45-80.7-24.6v-2c-0.562-0.228-1.12-0.456-1.7-0.691-9.97-5.68-18.4-19.3-23.3-29.3l-2-3c-0.125-2.69-0.125-2.69 0-5h-2c-0.702-1.89-1.39-3.79-2.06-5.69l-1.16-3.2c-0.801-3.21-0.701-4.98 0.223-8.11l-2-1c-1.07-5.95-1.16-11.8-1.12-17.9 0.00411-0.883 0.00822-1.77 0.0125-2.68 0.138-16 0.138-16 3.26-23.4 0.795-1.91 1.51-3.85 2.22-5.79 8.58-23 23.4-41.8 44.6-54.2 0.556-0.332 1.11-0.664 1.68-1.01 9.73-5.74 19.4-9.15 30.3-12 0.99-0.33 1.98-0.66 3-1z" fill="#F9FAFC"/>
<path transform="translate(810)" d="m0 0c3 0 3 0 6 1 1.43 2.19 1.43 2.19 2.88 5 0.785 1.5 0.785 1.5 1.59 3.03 0.508 0.981 1.02 1.96 1.54 2.97 0.826 1.52 1.66 3.05 2.5 4.56 0.398 0.719 0.797 1.44 1.21 2.18 1.44 2.52 2.96 4.98 4.48 7.45 2.15 3.53 3.59 6.85 4.81 10.8 0.66 0.33 1.32 0.66 2 1 1.01 1.57 1.01 1.57 2.12 3.69 2.31 4.28 4.66 8.52 7.06 12.8 0.345 0.615 0.69 1.23 1.05 1.86 1.43 2.52 2.71 4.64 4.77 6.7 1.27 2.32 2.16 4.48 3 7 0.66 0.66 1.32 1.32 2 2 1.33 2.4 2.62 4.81 3.88 7.25 2.47 4.79 5.13 9.26 8.12 13.8 0.33 0.99 0.66 1.98 1 3 0.66 0.66 1.32 1.32 2 2 0.667 1.67 1.33 3.33 2 5 0.66 0.66 1.32 1.32 2 2 0.889 1.52 1.74 3.07 2.56 4.62 3.01 5.62 6.13 11.2 9.28 16.7 2.17 3.83 4.23 7.7 6.16 11.7h2c0.103 0.536 0.206 1.07 0.312 1.62 0.868 3 2.24 5.61 3.69 8.38h2c0.103 0.784 0.206 1.57 0.312 2.38 0.463 2.96 0.463 2.96 3.69 4.62 0.333 1.67 0.667 3.33 1 5 0.99 0.66 1.98 1.32 3 2 0.384 1.32 0.712 2.66 1 4 0.749 1.48 1.54 2.94 2.38 4.38 1.52 2.67 2.96 5.3 4.31 8.06 1.19 2.64 1.19 2.64 3.31 4.56 0.707 1.65 1.38 3.32 2 5h2c0.506 1.44 1 2.87 1.5 4.31 0.418 1.2 0.418 1.2 0.844 2.43 0.656 2.26 0.656 2.26 0.656 5.26h-150c-1-4-1-4 0.703-7.44 0.837-1.38 1.69-2.75 2.55-4.12 0.819-1.33 1.64-2.67 2.45-4 0.515-0.773 1.03-1.55 1.56-2.34 1.5-2.66 2.44-5.01 3.44-7.88 2.18-5.58 4.41-10.5 9.3-14.2 9.36-2.99 19.8-1.88 29.5-1.3 3.67 0.196 7.33 0.281 11 0.377 7.17 0.203 14.3 0.526 21.5 0.928-0.454-1.27-0.913-2.54-1.38-3.8-0.255-0.706-0.51-1.41-0.773-2.14-1.23-2.96-3.03-5.43-4.85-8.06l-3-6c-0.821-1.34-1.66-2.67-2.5-4-1.43-2.25-2.7-4.41-3.88-6.81-2.07-4.07-4.58-7.8-7.1-11.6-1.37-2.32-1.93-4.01-2.52-6.59-0.66-0.66-1.32-1.32-2-2-2-3-2-3-2-6h-2c-0.364-0.678-0.727-1.36-1.1-2.05-3.09-5.72-6.28-11.3-9.7-16.9-1.2-2.09-1.2-2.09-2.2-5.09-1.49-0.495-1.49-0.495-3-1-0.247 0.675-0.495 1.35-0.75 2.05-1.5 3.55-3.34 6.86-5.25 10.2-0.396 0.699-0.792 1.4-1.2 2.12-3.67 6.45-7.44 12.8-11.2 19.2-6.78 11.5-13.4 23.1-20 34.7-5.89 10.5-12 20.8-18.1 31.1-2.84 4.79-5.65 9.59-8.46 14.4-1.63 2.78-3.28 5.51-5.07 8.19-1.87 0.361-1.87 0.361-4.17 0.341-1.29-3.4e-4 -1.29-3.4e-4 -2.61-6.87e-4 -0.93-0.0155-1.86-0.031-2.82-0.0469-0.952-0.00424-1.9-0.00849-2.88-0.0129-3.05-0.0168-6.09-0.0545-9.14-0.0926-2.06-0.015-4.12-0.0287-6.19-0.041-5.06-0.0331-10.1-0.0849-15.2-0.146-1.09-3.77-1.09-3.77-0.294-5.86 0.39-0.641 0.779-1.28 1.18-1.94 0.437-0.735 0.875-1.47 1.33-2.23 0.73-1.19 0.73-1.19 1.48-2.4 1.03-1.73 2.06-3.45 3.09-5.18 0.536-0.892 1.07-1.78 1.62-2.7 2.51-4.21 4.93-8.48 7.35-12.7 20.2-35.4 20.2-35.4 27.1-46.5 3.05-4.91 5.97-9.89 8.92-14.9 0.564-0.949 1.13-1.9 1.71-2.88 2.66-4.5 5.16-9 7.48-13.7 1.88-3.4 3.82-6.76 5.75-10.1 0.539-0.94 1.08-1.88 1.63-2.85 2.75-4.79 5.51-9.57 8.31-14.3 2.55-4.35 5.03-8.73 7.5-13.1 3.61-6.43 7.23-12.8 10.9-19.2 0.509-0.895 1.02-1.79 1.54-2.71 3.47-6.07 7.08-12 10.9-17.9 1.6-2.83 2.6-5.58 3.52-8.69z" fill="#F9FAFC"/>
<path transform="translate(947)" d="m0 0c5.38-0.074 10.7-0.129 16.1-0.165 1.83-0.0151 3.66-0.0356 5.49-0.0615 2.63-0.0363 5.25-0.0534 7.88-0.0667 0.821-0.0155 1.64-0.031 2.49-0.0469 2.3-6.87e-4 2.3-6.87e-4 6.02 0.34 2.37 3.55 2.26 5.07 2.28 9.28 0.0112 1.32 0.0223 2.63 0.0338 3.99 0.00237 1.46 0.00454 2.93 0.00655 4.39 0.0093 1.54 0.0195 3.07 0.0304 4.61 0.0273 4.18 0.0425 8.35 0.0554 12.5 0.0156 4.36 0.0424 8.73 0.068 13.1 0.0468 8.27 0.0836 16.5 0.117 24.8 0.0382 9.41 0.0876 18.8 0.138 28.2 0.103 19.4 0.193 38.7 0.273 58.1 0.648 0.00423 1.3 0.00846 1.96 0.0128 15.8 0.103 31.5 0.212 47.3 0.327 7.62 0.0553 15.2 0.109 22.9 0.158 6.64 0.0428 13.3 0.0891 19.9 0.14 3.52 0.0266 7.03 0.0515 10.6 0.0722 3.92 0.0232 7.84 0.054 11.8 0.0856 1.76 0.00863 1.76 0.00863 3.56 0.0174 1.06 0.00979 2.12 0.0196 3.22 0.0297 0.928 0.00645 1.86 0.0129 2.81 0.0196 2.09 0.139 2.09 0.139 3.09 1.14 0.103 2.99 0.141 5.95 0.125 8.94-0.00399 1.33-0.00399 1.33-0.00806 2.69-0.0433 6.19-0.228 12.4-0.554 18.6-0.0587 1.16-0.0587 1.16-0.119 2.34-0.318 5.35-0.318 5.35-1.44 6.47-1.9 0.11-3.81 0.149-5.72 0.161-1.24 0.01-2.48 0.0201-3.76 0.0304-1.39 0.00603-2.78 0.0119-4.17 0.0177-1.45 0.00953-2.91 0.0194-4.36 0.0296-4.79 0.0315-9.58 0.0517-14.4 0.0702-1.22 0.00495-1.22 0.00495-2.47 0.00999-7.68 0.0308-15.4 0.0575-23.1 0.0744-9.83 0.0219-19.7 0.0638-29.5 0.133-6.91 0.0473-13.8 0.0715-20.7 0.0788-4.13 0.00495-8.25 0.0199-12.4 0.0597-3.89 0.037-7.77 0.0452-11.7 0.032-1.42 5.37e-5 -2.84 0.0103-4.27 0.0318-8.83 0.126-14.9-0.6-21.6-6.73-1.84-1.93-3.39-3.87-5-6-0.531-0.401-1.06-0.801-1.61-1.21-2.17-2.79-1.79-5.78-1.75-9.17-0.00256-0.758-0.00513-1.52-0.00777-2.3-0.00495-2.55 0.0116-5.09 0.028-7.64 8.46e-4 -1.82 3.72e-4 -3.65-0.00133-5.47-8.63e-4 -4.96 0.0168-9.91 0.0377-14.9 0.0187-5.18 0.0205-10.4 0.0241-15.5 0.00933-9.81 0.034-19.6 0.064-29.4 0.0335-11.2 0.05-22.3 0.0651-33.5 0.0314-23 0.0842-45.9 0.151-68.9zm166 162v16h1v-16h-1z" fill="#F9FAFC"/>
<path transform="translate(1136)" d="m0 0h38c1.74 1.74 1.13 3.99 1.13 6.31-0.00223 0.767-0.00446 1.53-0.00676 2.32 0.00156 0.809 0.00312 1.62 0.00473 2.45 0.00401 2.73 8.19e-4 5.46-0.00232 8.19 0.00135 1.95 0.00313 3.9 0.00531 5.85 0.00458 5.31 0.00278 10.6-3.79e-4 15.9-0.00252 5.54-1.86e-4 11.1 0.00139 16.6 0.00182 9.31-5.85e-4 18.6-0.00534 27.9-0.00544 10.8-0.00368 21.6 0.00183 32.3 0.00453 9.24 0.00518 18.5 0.00256 27.7-0.00156 5.53-0.00176 11.1 0.00154 16.6 0.00288 5.19 9.05e-4 10.4-0.00489 15.6-0.00133 1.91-9.33e-4 3.82 0.00126 5.74 0.00271 2.6-6.67e-4 5.2-0.00568 7.8 0.00223 0.767 0.00446 1.53 0.00676 2.32-0.0196 5.19-0.0196 5.19-1.13 6.31h-38v-200z" fill="#FCFDFF"/>
<path transform="translate(531,149)" d="m0 0c4.34 1.69 8.51 3.65 12.7 5.68 8.93 3.56 17.2 4.76 26.8 4.75 1.19 0.0102 2.38 0.0204 3.61 0.0309 3.23 0.0248 6.46 0.0368 9.69 0.0429 3.39 0.00945 6.78 0.0357 10.2 0.06 6.4 0.0435 12.8 0.0721 19.2 0.0953 7.3 0.0272 14.6 0.0711 21.9 0.116 15 0.0926 30 0.164 45 0.222v3c-15.2-0.0139-30.4-0.0565-45.6-0.132-7.06-0.0345-14.1-0.06-21.2-0.0635-6.83-0.00339-13.7-0.033-20.5-0.0779-2.59-0.0129-5.18-0.0173-7.78-0.0127-18.6 0.0252-37.2-0.495-52.9-11.7-0.33-0.66-0.66-1.32-1-2z" fill="#000102"/>
<path transform="translate(1312,74)" d="m0 0h1v96h-1v-96z" fill="#000202"/>
</svg>
