<?xml version="1.0" encoding="UTF-8"?>
<svg version="1.1" viewBox="0 0 1600 832" width="1280" height="1280" xmlns="http://www.w3.org/2000/svg">
<path transform="translate(268 22.9)" d="m0 0c1.52-0.00423 1.52-0.00423 3.08-0.00854 1.12 0.00202 2.24 0.00405 3.39 0.00613 1.18-0.00175 2.35-0.0035 3.56-0.00531 3.23-0.00365 6.46-0.00279 9.69 3.79e-4 3.38 0.00253 6.75 1.85e-4 10.1-0.00139 5.67-0.00182 11.3 5.82e-4 17 0.00534 6.56 0.00544 13.1 0.00368 19.7-0.00183 5.63-0.00454 11.3-0.00518 16.9-0.00256 3.36 0.00156 6.73 0.00176 10.1-0.00154 3.75-0.00253 7.5 0.00132 11.2 0.0069 1.12-0.00202 2.24-0.00405 3.39-0.00613 1.53 0.00423 1.53 0.00423 3.09 0.00854 1.33 5.66e-4 1.33 5.66e-4 2.69 0.00114 2.25 0.126 2.25 0.126 5.25 1.13 2.03 0.0933 4.06 0.125 6.09 0.125 1.93 0.00376 1.93 0.00376 3.89 0.00759 1.44-0.00228 2.87-0.00465 4.31-0.00709 1.52 0.00104 3.05 0.00252 4.57 0.0044 4.22 0.00392 8.43 0.00155 12.6-0.00178 4.57-0.00252 9.15 7.18e-4 13.7 0.00324 8.03 0.00362 16.1 0.0035 24.1 9.53e-4 11.9-0.00377 23.9-0.00185 35.8 0.00121 21.3 0.00528 42.6 0.00481 63.9 0.00192 18.7-0.00251 37.3-0.00317 56-0.00198 1.85 1.15e-4 1.85 1.15e-4 3.74 2.31e-4 5.02 3.11e-4 10 6.3e-4 15 9.6e-4 46.4 0.00302 92.8 4.38e-4 139-0.00487 42.5-0.00486 85.1-0.00463 128 2.31e-4 47 0.00535 94 0.00748 141 0.00439 5.01-3.21e-4 10-6.34e-4 15-9.43e-4 1.23-7.91e-5 2.47-1.58e-4 3.74-2.4e-4 18.6-0.00114 37.3 1.96e-4 55.9 0.00272 21.2 0.00285 42.4 0.00215 63.6-0.00328 11.9-0.00294 23.7-0.00312 35.6 6.46e-4 7.92 0.00223 15.8 8.62e-4 23.8-0.0035 4.52-0.00239 9.04-0.00317 13.6 4.06e-4 4.11 0.00322 8.21 0.00188 12.3-0.00318 1.48-0.00101 2.96-3.28e-4 4.44 0.00221 2 0.00319 4.01-3.47e-4 6.01-0.00424 1.67-1.02e-4 1.67-1.02e-4 3.37-2.05e-4 2.78-0.117 5.26-0.547 7.97-1.13 2.84-0.0979 5.66-0.147 8.5-0.145 0.845-0.00336 1.69-0.00672 2.56-0.0102 2.79-0.00948 5.57-0.0115 8.36-0.0125 1.94-0.00321 3.89-0.00658 5.83-0.0101 4.08-0.00598 8.15-0.00784 12.2-0.00725 5.21 1.01e-4 10.4-0.0135 15.6-0.0308 4.02-0.0112 8.03-0.0131 12.1-0.0126 1.92-0.00118 3.84-0.00557 5.76-0.0133 2.69-0.00987 5.38-0.0069 8.08-8.95e-4 1.17-0.00843 1.17-0.00843 2.37-0.017 13 0.0731 13 0.0731 17.4 3.71 1.24 1.55 1.24 1.55 1.24 3.55 0.594 0.0146 1.19 0.0292 1.8 0.0442 2.73 0.0752 5.47 0.172 8.2 0.268 0.935 0.0226 1.87 0.0451 2.83 0.0684 7.36 0.283 12.8 1.87 19.3 5.24 3.07 1.47 5.59 1.95 8.94 2.44 12.5 2.48 24.5 8.8 34.9 15.9 1.09 0.433 2.19 0.866 3.31 1.31 3.98 1.61 6.97 4.17 10.3 6.85 3.91 2.99 8.16 5.36 12.4 7.84 7.66 4.85 14.6 10 20.3 17.1 1.71 2.01 1.71 2.01 4.12 3.8 6.31 5.11 11.3 12.1 15.4 19.1 1.88 3.13 3.98 6.1 6.06 9.1 1.14 1.88 1.14 1.88 1.14 3.88h2c1.87 2.19 3.63 4.39 5.38 6.69 0.966 1.25 1.93 2.51 2.9 3.76 0.466 0.612 0.932 1.22 1.41 1.85 1.11 1.43 2.26 2.82 3.43 4.2 2.32 3.08 3.97 6.36 5.63 9.81 0.702 1.43 1.4 2.86 2.11 4.3 0.355 0.729 0.71 1.46 1.08 2.21 1.35 2.76 2.74 5.51 4.13 8.26 1.34 2.65 2.65 5.31 3.96 7.97 0.962 1.93 1.94 3.85 2.93 5.77 3.8 7.58 6.03 14.4 7.15 22.8 0.653 3.51 0.653 3.51 3.42 5.93 3.5 4.08 3.17 8.15 3.1 13.3 0.00577 0.998 0.0115 2 0.0175 3.02 0.0133 3.36-0.00923 6.72-0.0314 10.1 0.00218 2.43 0.00656 4.85 0.0129 7.28 0.00886 5.28 0.00216 10.6-0.0182 15.8-0.0302 7.86-0.0317 15.7-0.0273 23.6 0.00657 13.2-0.0101 26.4-0.0401 39.6-0.0296 13.1-0.0488 26.2-0.0543 39.3-3.44e-4 0.813-6.87e-4 1.63-0.00104 2.46-0.00169 4.13-0.0032 8.26-0.00463 12.4-0.0105 29.3-0.0442 58.5-0.0915 87.8-0.0459 28.4-0.0813 56.9-0.103 85.3-6.58e-4 0.876-0.00132 1.75-0.00199 2.66-0.00659 8.8-0.013 17.6-0.0192 26.4-0.0127 17.9-0.0268 35.9-0.0418 53.8-6.86e-4 0.824-0.00137 1.65-0.00208 2.5-0.046 55-0.125 110-0.21 165-1.59 0.00107-1.59 0.00107-3.22 0.00216-36.4 0.0244-72.7 0.049-109 0.0738-1.1 7.48e-4 -1.1 7.48e-4 -2.22 0.00151-78.5 0.0535-157 0.108-235 0.166-1.74 0.00128-3.48 0.00257-5.23 0.00385-36.6 0.027-73.1 0.0541-110 0.0815-18.4 0.0138-36.7 0.0275-55.1 0.0412-2.77 0.00207-5.54 0.00413-8.31 0.0062-42.7 0.0318-85.4 0.0628-128 0.0913-0.918 6.14e-4 -1.84 0.00123-2.78 0.00186-14.8 0.00989-29.6 0.0197-44.4 0.0295-42.6 0.0282-85.2 0.057-128 0.0893-1.31 9.94e-4 -1.31 9.94e-4 -2.65 0.00201-19.2 0.0145-38.5 0.0294-57.7 0.0444-7.74 0.00606-15.5 0.0121-23.2 0.0181-0.847 6.58e-4 -1.69 0.00132-2.57 2e-3 -27.3 0.0212-54.6 0.0393-81.9 0.0557-27.5 0.0165-55 0.0361-82.5 0.0601-3.8 0.0033-7.59 0.00657-11.4 0.00982-0.744 6.38e-4 -1.49 0.00128-2.25 0.00193-11.8 0.01-23.6 0.0167-35.4 0.022-11.6 0.00525-23.2 0.0141-34.8 0.0266-6.21 0.00658-12.4 0.0115-18.6 0.0122-5.64 6e-4 -11.3 0.00572-16.9 0.0146-2.04 0.00238-4.07 0.00306-6.11 0.00191-2.75-0.00132-5.5 0.00343-8.25 0.00976-0.794-0.00185-1.59-0.0037-2.41-0.0056-3.82 0.0154-7.34 0.27-11.1 1.14-1.98 0.089-3.97 0.128-5.95 0.129-1.76 0.00473-1.76 0.00473-3.56 0.00955-1.26-0.00202-2.52-0.00405-3.81-0.00613-1.3 9.57e-4 -2.6 0.00191-3.93 0.0029-2.74 0.00147-5.48-6.58e-4 -8.22-0.00534-3.51-0.00571-7.03-0.0024-10.5 0.00357-3.35 0.00448-6.7 0.00135-10.1-0.00113-1.9 0.00304-1.9 0.00304-3.83 0.00613-1.16-0.00315-2.33-0.0063-3.53-0.00955-1.03-7.96e-4 -2.06-0.00159-3.12-0.00241-2.45-0.127-2.45-0.127-4.45-1.13-2.1-0.0899-4.21-0.115-6.31-0.11-1.34-5.43e-4 -2.68-0.00113-4.03-0.00175-0.712 0.00143-1.42 0.00286-2.16 0.00433-3.77 0.00351-7.53-0.0223-11.3-0.0429-4.8-0.0243-9.59-0.04-14.4-0.0247-3.87 0.0117-7.75-0.00571-11.6-0.0424-1.48-0.00862-2.95-0.00652-4.43 0.0065-2.07 0.0169-4.13-0.00328-6.2-0.0319-1.18-0.00143-2.35-0.00285-3.56-0.00432-3.01-0.753-3.01-0.753-5.3-3.74-0.566-0.995-1.13-1.99-1.71-3.02-3.82-1.91-8.85-0.987-13.1-0.873-5.06 0.071-9.16-0.368-13.9-2.13-0.619-0.66-1.24-1.32-1.88-2-2.36-2.23-3.21-2.35-6.31-2.88-4.77-0.862-7.8-2.95-11.7-5.75-2.86-1.86-5.84-2.49-9.12-3.38-1.96-1.05-3.78-2.23-5.63-3.45-2.91-1.91-5.89-3.69-8.87-5.49-7.68-4.75-14.1-9.19-19.9-16.2-3.05-3.41-5.95-5.07-10.3-6.46-12-4.65-20.2-16-26-27-2.17-3.77-4.8-7.19-7.38-10.7-4.16-5.66-8.02-11.3-11-17.7l-1.19-2.38c-0.402-0.804-0.402-0.804-0.812-1.62h-2c-2.97-3.32-4.84-7.32-6.88-11.2-2.16-4.12-4.31-8.18-6.88-12.1-2.77-4.29-4.45-8.92-6.25-13.7-0.34-0.804-0.681-1.61-1.03-2.44-2.33-5.51-3.9-10.9-5.16-16.8-0.685-2.8-0.685-2.8-2.27-5.12-4.71-8.11-3.86-17.6-3.84-26.6-0.13-6.98-0.915-9.74-5.7-15-2.52-7.42-2.29-15.4-2.27-23.1-0.00453-1.29-0.00906-2.58-0.0137-3.91-0.0122-3.56-0.012-7.11-0.00961-10.7 4.1e-4 -3.85-0.0106-7.69-0.0201-11.5-0.0166-7.52-0.0221-15-0.0232-22.6-9.52e-4 -6.11-0.00507-12.2-0.0114-18.3-0.0176-17.3-0.0268-34.7-0.0253-52 7.99e-5 -0.934 1.6e-4 -1.87 2.42e-4 -2.83 8.18e-5 -0.935 1.64e-4 -1.87 2.48e-4 -2.83 8.14e-4 -15.2-0.0184-30.3-0.0465-45.5-0.0287-15.6-0.0425-31.2-0.0408-46.7 6.64e-4 -8.75-0.00484-17.5-0.0264-26.2-0.0182-7.44-0.0226-14.9-0.00898-22.3 0.00654-3.8 0.00661-7.59-0.0107-11.4-0.0186-4.11-0.0062-8.23 0.00926-12.3-0.0154-1.8-0.0154-1.8-0.0312-3.64 0.0524-6.28 0.242-10.2 4.53-15 0.569-0.478 1.14-0.956 1.72-1.45 2.1-2.56 1.66-5.15 1.68-8.39 0.0108-0.675 0.0217-1.35 0.0328-2.05 0.0342-2.16 0.0498-4.33 0.0609-6.49 0.136-25.9 0.136-25.9 7.5-34.6 0.747-2.3 0.747-2.3 1-4.69 0.939-5.5 2.79-10.2 5-15.3 0.719-1.73 0.719-1.73 1.45-3.5 2.53-6.07 5.18-11.9 8.55-17.5 0.841-1.7 1.67-3.41 2.5-5.12 2.33-4.69 4.62-8.46 8.86-11.7 2.85-2.4 4.71-4.85 6.82-7.91 3.61-5.21 3.61-5.21 5.81-6.31 0.663-1.54 1.26-3.11 1.81-4.69 2.69-6.96 6.92-11.2 12.6-15.9 1.8-1.51 1.8-1.51 3.62-3.93 1.72-2.15 3.27-3.64 5.38-5.38 2.45-2.04 4.54-4.1 6.56-6.56 3.3-3.99 7.1-7.25 11.1-10.6 0.804-0.722 1.61-1.44 2.44-2.19 2.36-1.67 4.41-2.65 7.06-3.75 4.11-1.74 6.36-3.85 9.5-7.06 5.38-3.78 11-7.14 16.9-9.96 3.57-1.75 7.02-3.73 10.5-5.67 2.61-1.37 2.61-1.37 5.01-2.3 2.8-1.07 2.8-1.07 5.92-3.07 3.74-2.19 7.41-3.11 11.6-4 5.87-1.34 10.8-3.07 16.1-6 6.16-2.63 12.3-2.33 18.9-2.3 2.45-0.0566 4.69-0.131 7.08-0.697 0.49-0.824 0.98-1.65 1.48-2.5 0.75-1.24 0.75-1.24 1.52-2.5 3.33-0.791 6.65-0.745 10.1-0.75 1.82-0.0331 3.65-0.0694 5.47-0.109 0.808-0.00483 1.62-0.00967 2.45-0.0146 3.13-0.195 5.53-1.25 8.83-1.25zm1098 2.13 4 1z" fill="#FCFCFC"/>
<path transform="translate(1318 286)" d="m0 0c0.736-0.00235 1.47-0.00469 2.23-0.00711 21.8 0.0285 42.8 4.8 62.8 13.5 1.56 0.654 1.56 0.654 3.14 1.32 13.8 6.61 25.1 20.5 30.4 34.7 1.27 3.63 2.39 7.29 3.44 11 0.177 0.624 0.355 1.25 0.538 1.89 3.62 16.5 0.534 36.9-8.35 51.3-5.95 7.7-13.2 13.9-21 19.7-2.3 1.98-2.3 1.98-3.25 4.57 0.0841 3.68 1.63 5.09 4 7.88 3.86 4.76 6.81 9.63 9.5 15.1 0.494 1.01 0.494 1.01 0.998 2.04 4.79 10 5.76 18.2 5.81 29.2 0.0309 1.68 0.0309 1.68 0.0625 3.4 0.0439 9.45-1.37 17.6-5.88 25.9-1.91 3.56-2.77 6.43-3.25 10.4-2.38 14.7-19.9 29.2-31.2 37.7-5.96 3.81-12.6 6.48-19.1 9.12-1.56 0.639-3.11 1.32-4.65 2.01-6.67 2.81-13.3 3.5-20.5 4.06-0.781 0.0628-1.56 0.126-2.37 0.19-1.04 0.0718-1.04 0.0718-2.1 0.145-2.37 0.287-2.37 0.287-4.94 1.35-4.28 1.29-8.26 1.39-12.7 1.48-1.36 0.0362-1.36 0.0362-2.74 0.0731-1.92 0.0482-3.83 0.0916-5.75 0.131-2.88 0.061-5.75 0.144-8.62 0.23-11.4 0.289-22.3-0.174-33.5-1.92-1.09-0.167-2.18-0.334-3.31-0.506-13.4-2.21-25-5.49-36.7-12.5-0.865-0.505-1.73-1.01-2.62-1.53-5.03-3.14-9.32-6.97-13.6-11-0.908-0.806-1.82-1.61-2.75-2.44-0.915-0.858-0.915-0.858-1.85-1.73-5.99-5.21-10.4-6.3-18.2-6.28-1.02-0.0274-2.05-0.0547-3.1-0.0829-3.24-0.0822-6.48-0.12-9.72-0.151-3.26-0.0529-6.52-0.115-9.78-0.194-2.02-0.0468-4.04-0.0775-6.07-0.0905-0.912-0.0172-1.82-0.0344-2.76-0.0522-0.801-0.00775-1.6-0.0155-2.43-0.0235-2.61-0.488-3.45-1.33-5.08-3.39-4.78-9.3-7.89-19.3-11-29.3-0.754-2.45-1.52-4.9-2.28-7.35-2.38-7.63-4.74-15.3-7.09-22.9-0.986-3.2-1.98-6.4-2.97-9.6-0.691-2.24-1.37-4.48-2.05-6.72-0.426-1.38-0.852-2.75-1.28-4.13-0.545-1.78-0.545-1.78-1.1-3.6-1.42-3.79-3.19-6.95-5.27-10.4-0.99 0.33-1.98 0.66-3 1-0.158 0.929-0.158 0.929-0.32 1.88-0.49 2.85-0.992 5.71-1.49 8.56-0.166 0.974-0.331 1.95-0.502 2.95-0.79 4.46-1.64 8.73-3.17 13-2.08 5.88-2.94 12-3.95 18.1-1.58 9.21-3.34 18.3-5.58 27.4-1.95 7.98-3.41 16.1-4.98 24.1-3.55 1.11-6.8 1.09-10.5 1.02-0.644-0.00961-1.29-0.0192-1.95-0.0291-2.12-0.0329-4.24-0.0733-6.36-0.114-1.47-0.0243-2.95-0.0482-4.42-0.0715-3.87-0.0627-7.75-0.132-11.6-0.202-3.95-0.0708-7.91-0.136-11.9-0.201-7.76-0.129-15.5-0.264-23.3-0.404-1.33-3.99-0.197-6.9 0.875-10.8 1.26-4.72 2.41-9.35 3.12-14.2-4.38 1.27-8.11 3.07-12.1 5.27-11.8 6.58-24 11.6-36.9 15.7-0.891 0.288-1.78 0.576-2.7 0.873-15.7 4.78-31.8 4.59-48 4.63-1.1 0.00476-2.2 0.00953-3.33 0.0144-11.6 0.019-22.7 0.0346-33.9-3.51-1.27-0.365-2.53-0.73-3.84-1.11-13.5-4.71-24.4-11.5-35.2-20.9-0.718-0.585-1.44-1.17-2.18-1.77-14.6-12.1-22.7-29.7-25.8-48.2-0.251-4.75-0.246-9.5-0.25-14.2-6.75e-4 -0.676-0.00135-1.35-0.00204-2.05 0.0168-10.6 0.631-20.4 3.25-30.7 0.161-0.666 0.322-1.33 0.488-2.02 5.35-21.8 15.9-42.9 30.5-60 1.12-1.32 1.12-1.32 2.27-2.67 5.72-6.52 11.8-12.1 18.7-17.3 0.766-0.593 1.53-1.19 2.32-1.8 19.5-14.4 42-21.6 65.7-25.2 1.25-0.193 2.5-0.387 3.78-0.586 29.2-3.45 61 0.273 85.4 17.9 2.7 2.17 5.3 4.4 7.86 6.73 0.965 0.878 0.965 0.878 1.95 1.77 4.16 3.98 7.67 8.41 11.2 13 1.81 2.14 3.59 3.66 5.89 5.23-0.0348-0.548-0.0696-1.1-0.105-1.66-0.347-10.2 0.884-20.9 6.48-29.6 1.93-2.05 2.93-2.38 5.7-2.71 1.61-0.0393 3.23-0.0355 4.84 0.00342 1.31-0.0157 1.31-0.0157 2.65-0.0317 1.86-0.0175 3.72-0.0172 5.59-3.97e-4 2.81 0.0239 5.61-0.00175 8.42-0.0431 4.66-0.0613 9.32-0.0736 14-0.063 2.87 0.00546 5.74-4.07e-5 8.61-0.00635 1.85 6.59e-4 3.7 0.00194 5.55 0.00391 1.27-0.00304 1.27-0.00304 2.57-0.00613 9.41 0.0373 9.41 0.0373 12.7 1.14 2.57 3.91 3.85 8.26 5.27 12.7 0.201 0.628 0.403 1.26 0.611 1.9 0.649 2.03 1.29 4.06 1.93 6.08 0.449 1.41 0.899 2.81 1.35 4.22 2.15 6.72 4.27 13.5 6.38 20.2 2.71 8.67 5.6 17.3 8.7 25.8 0.801 2.22 1.58 4.44 2.37 6.66 0.527 1.46 1.05 2.93 1.58 4.39 0.238 0.681 0.476 1.36 0.721 2.06 1.3 3.54 1.86 4.84 5.09 7h3c3.54-10.5 5.83-21.1 8-31.9 0.354-1.75 0.709-3.49 1.06-5.24 1.84-9.07 3.56-18.1 5.12-27.3 4.1-23.5 4.1-23.5 8.35-26.7 3.69-1.25 7.36-1.1 11.2-1.06 1.27 6.87e-4 1.27 6.87e-4 2.57 0.00139 1.79 0.00302 3.58 0.0109 5.37 0.0233 2.73 0.0182 5.47 0.0205 8.2 0.0203 1.74 0.00492 3.49 0.0107 5.23 0.0176 0.815 0.00111 1.63 0.00223 2.47 0.00337 3.93 0.0327 7.57 0.198 11.4 1.16 0.383-0.905 0.383-0.905 0.773-1.83 6.42-11.4 30.2-18.5 42.2-22.2 5.94-1.6 12-2.87 18-4 1.31-0.265 1.31-0.265 2.65-0.535 8.43-1.58 16.8-1.95 25.3-1.96z"/>
<path transform="translate(322 314)" d="m0 0c1.27 0.0299 2.54 0.0598 3.85 0.0906 15.9 0.593 34.5 4.68 45.9 16.8 1.18 1.38 2.34 2.77 3.49 4.18 1.92 2.16 3.98 3.51 6.57 4.77-0.0232-0.629-0.0464-1.26-0.0703-1.91-0.121-5.75 0.277-10.6 2.07-16.1 2.96-1.48 5.96-1.13 9.2-1.11 1.11-2.19e-4 1.11-2.19e-4 2.25-4.43e-4 2.46 6.98e-4 4.91 0.00848 7.37 0.0163 1.7 0.00186 3.4 0.00329 5.1 0.00429 4.48 0.00382 8.96 0.0136 13.4 0.0247 4.57 0.0102 9.14 0.0148 13.7 0.0198 8.97 0.0107 17.9 0.0278 26.9 0.0488 1.57 3.14 1.15 6.49 1.15 9.94 0.00368 0.83 0.00735 1.66 0.0111 2.51 0.0111 2.8 0.0149 5.6 0.0187 8.39 0.00626 2 0.0129 4 0.0199 6 0.0211 6.6 0.0314 13.2 0.0414 19.8 0.00405 2.28 0.00817 4.56 0.0124 6.83 0.0191 10.7 0.0333 21.5 0.0416 32.2 0.00972 12.3 0.0359 24.6 0.0765 37 0.0304 9.55 0.045 19.1 0.0483 28.7 0.00233 5.69 0.011 11.4 0.0365 17.1 0.349 82.4 0.349 82.4-18.5 114-0.481 0.839-0.962 1.68-1.46 2.54-14.4 23.5-38.3 36.6-64.4 43.1-44.3 10.3-89.8 3.54-129-19.6-4.9-3.08-9.84-6.22-14.2-10v-2h-2c-2.55-2.47-4.73-5.28-7-8-0.669-0.771-1.34-1.54-2.03-2.34-8.54-10.1-13.8-21.6-16-34.7 0.277-2.88 0.277-2.88 1-5 3.1-1.55 6.4-1.23 9.81-1.29 0.807-0.0178 1.61-0.0356 2.44-0.054 7.45-0.155 14.9-0.242 22.4-0.31 5-0.0462 10-0.114 15-0.233 4.84-0.115 9.68-0.175 14.5-0.198 1.84-0.0178 3.68-0.0545 5.52-0.111 14.5-0.423 14.5-0.423 19.1 3.58 2.1 2.94 2.1 2.94 3.66 5.86 4.2 7.43 13.7 11.4 21.6 13.8 3.79 0.527 7.49 0.574 11.3 0.5 1.51-0.0181 1.51-0.0181 3.05-0.0366 11.2-0.298 21.4-2.32 29.6-10.5 11.1-11.8 13.3-27 13.1-42.5-0.00902-1.3-0.018-2.6-0.0273-3.94-0.0234-3.19-0.0563-6.37-0.0977-9.56-3.16 1.85-5.81 3.64-8.44 6.19-20.3 17.9-46.2 19.1-72 17.7-28-2.22-51.1-15-69.6-35.9-21.2-25.6-28.1-58.9-25.1-91.5 3.47-31.7 20.2-61.7 44.1-82.5 4.41-3.46 9.11-6.28 14-9 0.576-0.324 1.15-0.649 1.75-0.983 8.42-4.69 16.9-7.92 26.3-10 1.04-0.237 2.09-0.474 3.16-0.719 8.99-1.6 17.9-1.34 27-1.09z"/>
<path transform="translate(729 173)" d="m0 0c1.11 0.00444 2.23 0.00888 3.38 0.0135 1.89 2.27e-4 1.89 2.27e-4 3.82 4.58e-4 1.38 0.0102 2.76 0.0206 4.14 0.0313 1.41 0.00373 2.82 0.00658 4.23 0.00858 3.71 0.00764 7.42 0.0273 11.1 0.0494 3.79 0.0204 7.57 0.0296 11.4 0.0397 7.43 0.0215 14.9 0.0556 22.3 0.0977 1.49 2.97 1.15 6.01 1.16 9.27 0.00494 0.76 0.00988 1.52 0.015 2.3 0.0154 2.57 0.0238 5.13 0.0321 7.7 0.00958 1.84 0.0196 3.69 0.03 5.53 0.0272 5.06 0.0482 10.1 0.068 15.2 0.0221 5.38 0.0496 10.8 0.0764 16.2 0.0507 10.4 0.0957 20.8 0.138 31.2 0.0343 8.38 0.0705 16.8 0.108 25.2 0.254 57.2 0.475 114 0.496 172 0.00163 4.25 0.00458 8.49 0.0087 12.7 0.00702 7.24 0.00857 14.5 0.00357 21.7-0.00102 2.33-5.16e-4 4.66 0.00176 6.99 0.0102 12.5-0.208 25-1.14 37.4-8.46 0.0231-16.9 0.0409-25.4 0.0518-3.93 0.00523-7.85 0.0123-11.8 0.0236-3.79 0.0108-7.57 0.0168-11.4 0.0194-1.45 0.00185-2.9 0.00547-4.34 0.0109-2.02 0.00721-4.04 0.00768-6.06 0.0078-1.73 0.00333-1.73 0.00333-3.49 0.00673-2.59-0.12-2.59-0.12-3.59-1.12-0.11-2.41-0.155-4.79-0.158-7.2-0.00494-0.765-0.00988-1.53-0.015-2.32-0.0155-2.59-0.0238-5.18-0.0321-7.77-0.00958-1.86-0.0196-3.71-0.03-5.57-0.0272-5.09-0.0482-10.2-0.068-15.3-0.0221-5.42-0.0496-10.8-0.0764-16.2-0.0507-10.5-0.0956-20.9-0.138-31.4-0.0343-8.42-0.0705-16.8-0.108-25.2-0.249-56.4-0.474-113-0.497-169-0.00205-3.9-0.00579-7.8-0.00991-11.7-0.00582-6.03-0.00605-12.1-0.00154-18.1 0.00101-2.12 5.36e-4 -4.25-0.00176-6.37-0.00995-11 0.137-22 0.519-33 0.0303-1.04 0.0607-2.08 0.0919-3.15 0.0381-0.959 0.0761-1.92 0.115-2.9 0.0306-0.85 0.0612-1.7 0.0927-2.58 0.509-3.33 1.69-4.01 4.95-4.31z"/>
<path transform="translate(614,322)" d="m0 0c0.452 2.99 0.662 5.74 0.75 8.75 0.036 0.953 0.072 1.91 0.109 2.89 0.528 19.1-0.326 38.3-0.859 57.4-1.43-0.149-2.86-0.3-4.28-0.453-0.795-0.0841-1.59-0.168-2.41-0.255-3.08-0.39-6.04-1.11-9.06-1.85-12.1-2.65-22.5-2.4-33.4 3.75-10.8 7.3-17.8 20.5-20.3 33.2-0.617 4.1-0.901 8.15-1.08 12.3-0.0408 0.921-0.0815 1.84-0.124 2.79-0.673 17.1-0.701 34.3-0.874 51.5-0.0509 4.98-0.106 9.96-0.161 14.9-0.106 9.71-0.208 19.4-0.307 29.1-8.59 0.0231-17.2 0.0409-25.8 0.0518-3.99 0.00523-7.97 0.0123-12 0.0236-3.84 0.0108-7.69 0.0168-11.5 0.0194-1.47 0.00185-2.94 0.00547-4.41 0.0109-2.05 0.00721-4.1 0.00826-6.16 0.0078-1.17 0.00222-2.34 0.00444-3.55 0.00673-2.63-0.12-2.63-0.12-3.63-1.12-0.102-2.7-0.139-5.38-0.134-8.08-0.00227-0.857-0.00453-1.71-0.00687-2.6-0.00637-2.89-0.00551-5.79-0.00469-8.68-0.00299-2.07-0.00639-4.13-0.0102-6.2-0.00886-5.63-0.0112-11.3-0.0118-16.9-9.47e-4 -4.69-0.00462-9.38-0.00817-14.1-0.00815-11.1-0.0106-22.1-0.00987-33.2 6.01e-4 -11.4-0.00995-22.9-0.0257-34.3-0.0131-9.79-0.0184-19.6-0.0178-29.4 2.56e-4 -5.86-0.00263-11.7-0.0132-17.6-0.00964-5.51-0.00979-11-0.00248-16.5 0.00105-2.03-0.00135-4.05-0.00736-6.08-0.00765-2.76-0.00312-5.51 0.00463-8.27-0.00514-0.811-0.0103-1.62-0.0156-2.46 0.0346-5.52 0.0346-5.52 2.26-7.75 2.67-0.278 2.67-0.278 6.1-0.319 1.28-0.0199 2.56-0.0397 3.88-0.0602 1.4-0.0119 2.81-0.0235 4.21-0.035 1.43-0.0187 2.86-0.0383 4.3-0.0587 3.77-0.0514 7.54-0.091 11.3-0.128 3.85-0.04 7.69-0.0911 11.5-0.141 7.55-0.0969 15.1-0.181 22.7-0.258 1.21 2.42 1.3 4.31 1.54 7.01 0.087 0.986 0.174 1.97 0.264 2.99 0.087 1.03 0.174 2.07 0.264 3.13 0.136 1.56 0.136 1.56 0.275 3.15 0.224 2.57 0.445 5.15 0.662 7.72 1.67 0.0603 3.33 0.0563 5 0 1.44-1.39 1.44-1.39 2.5-3.38 7.26-10.6 19.4-17.8 31.8-20.3 6.3-1.14 12.6-1.74 19-2.12 0.818-0.0531 1.64-0.106 2.48-0.161 5.84-0.273 5.84-0.273 9.21 1.97z"/>
<path transform="translate(646 326)" d="m0 0c0.657-0.00686 1.31-0.0137 1.99-0.0208 2.17-0.0183 4.34-0.0144 6.52-0.00874 1.51-0.00456 3.02-0.00987 4.53-0.0159 3.17-0.00894 6.33-0.0065 9.5 0.00343 4.06 0.0115 8.11-0.00871 12.2-0.0379 3.12-0.0184 6.24-0.0181 9.36-0.0124 1.5 1.53e-4 2.99-0.0059 4.49-0.0183 2.09-0.0149 4.18-0.00425 6.28 0.0129 1.79 2.49e-4 1.79 2.49e-4 3.61 5.04e-4 3.82 0.629 4.75 1.4 7.04 4.5 0.384 2.88 0.524 5.38 0.481 8.26 0.00342 0.841 0.00684 1.68 0.0104 2.55 0.0066 2.82-0.0154 5.64-0.0373 8.46-0.00113 2.02-4.95e-4 4.04 0.00177 6.06 0.00115 5.49-0.0224 11-0.0503 16.5-0.025 5.73-0.0274 11.5-0.0321 17.2-0.0124 10.9-0.0453 21.7-0.0854 32.6-0.0447 12.4-0.0667 24.7-0.0868 37.1-0.0418 25.4-0.112 50.9-0.201 76.3-9.5 0.0231-19 0.0409-28.5 0.0518-4.41 0.00523-8.82 0.0123-13.2 0.0236-4.25 0.0108-8.51 0.0168-12.8 0.0194-1.63 0.00185-3.25 0.00547-4.88 0.0109-2.27 0.00721-4.54 0.00826-6.81 0.0078-1.29 0.00222-2.59 0.00444-3.92 0.00673-2.89-0.12-2.89-0.12-3.89-1.12-0.117-2.64-0.168-5.25-0.178-7.88-0.00705-0.836-0.0141-1.67-0.0214-2.53-0.0225-2.82-0.0378-5.65-0.0531-8.47-0.0145-2.01-0.0294-4.03-0.0446-6.04-0.04-5.49-0.0733-11-0.105-16.5-0.0197-3.43-0.0405-6.85-0.0618-10.3-0.066-10.7-0.128-21.4-0.184-32.1-0.065-12.4-0.143-24.8-0.233-37.1-0.0683-9.56-0.125-19.1-0.173-28.7-0.029-5.71-0.0629-11.4-0.109-17.1-0.0427-5.37-0.0713-10.7-0.0887-16.1-0.00888-1.98-0.0229-3.95-0.0425-5.93-0.0258-2.69-0.0332-5.38-0.0358-8.07-0.0119-0.788-0.0239-1.58-0.0362-2.39 0.0226-5.24 0.0226-5.24 1.7-7.73 2.67-1.63 5.09-1.41 8.18-1.42z"/>
<path transform="translate(942 368)" d="m0 0c1.65-0.03 1.65-0.03 3.33-0.0605 9.52 0.00564 19 1.8 26 8.62 10.4 12 11.9 23.7 12 39 0.0141 1.1 0.0282 2.19 0.0427 3.32-0.101 17-6.79 31.5-18.4 43.7-11.6 11.1-26.3 15.1-42 15.9-0.759 0.0412-1.52 0.0825-2.3 0.125-11.9 0.337-19.6-2.4-28.7-10.1-0.672-0.536-1.34-1.07-2.04-1.62-7.17-6.3-11.6-16.5-12.2-25.9-0.556-20.7 5.84-40.2 20.2-55.5 12.3-12.7 26.7-17.5 44-17.4z" fill="#FDFDFD"/>
<path transform="translate(364 388)" d="m0 0c11.1 8.8 19.5 21.7 21.1 36 0.138 2.61 0.171 5.19 0.14 7.8-0.00975 0.92-0.0195 1.84-0.0295 2.79-0.365 14-6 24.5-15.2 34.8-6.96 6.55-15.9 8.72-25.2 8.99-0.699 0.0205-1.4 0.0409-2.12 0.062-16 0.403-28.5 0.132-41.1-11-9.76-10.1-15.2-23.5-15.1-37.4 0.339-13.7 6.88-25.8 15.9-35.9 16.6-15.5 42.6-19.5 61.7-6.14z" fill="#FDFDFD"/>
<path transform="translate(1328,363)" d="m0 0c3.92 3.18 5.69 6.26 6.57 11.2 0.26 5.1 0.342 8.53-2.76 12.7-1.63 1.01-1.63 1.01-3.81 2.06-1.04 0.522-2.08 1.04-3.15 1.58-7.38 3.55-12.8 5.5-21 5.73-0.682 0.0208-1.36 0.0416-2.07 0.063-2.17 0.0651-4.34 0.124-6.51 0.183-1.48 0.0432-2.95 0.0868-4.43 0.131-3.61 0.107-7.22 0.208-10.8 0.307-0.956 2.18-1.91 4.37-2.86 6.55-0.267 0.608-0.534 1.22-0.808 1.84-7 16.2-7.12 32.2-7.34 49.6 1.64 0.0595 1.64 0.0595 3.32 0.12 4.07 0.152 8.14 0.33 12.2 0.515 1.76 0.0764 3.52 0.146 5.28 0.209 2.54 0.0917 5.07 0.208 7.6 0.328 0.784 0.0231 1.57 0.0462 2.37 0.07 4.95 0.266 7.58 1.11 11.2 4.76 4.58 5.57 7.09 11.1 6.64 18.3-1.19 4.94-4.13 8.12-7.64 11.7-0.637 0.663-1.27 1.33-1.93 2.01-7.13 6.85-14.9 8.52-24.6 8.43-0.799 0.02-1.6 0.04-2.42 0.0605-7.08-0.00577-12.2-1.98-17.5-6.68-0.632-0.744-1.26-1.49-1.91-2.25-0.971-1.11-0.971-1.11-1.96-2.25-2.9-4.04-3.91-7.68-4.08-12.6-0.058-1.46-0.058-1.46-0.117-2.96-0.0309-1.01-0.0619-2.01-0.0938-3.05-0.058-1.54-0.058-1.54-0.117-3.11-0.094-2.53-0.18-5.05-0.258-7.58-0.863 0.0105-1.73 0.0209-2.61 0.0317-3.2 0.0341-6.41 0.0592-9.61 0.0781-1.39 0.0101-2.77 0.0237-4.16 0.041-1.99 0.0243-3.99 0.0345-5.98 0.0444-1.8 0.0157-1.8 0.0157-3.63 0.0317-3-0.227-3-0.227-6-2.23-2.56-12.9 3.14-28.9 6.23-41.4 1.53-6.29 2.58-12.5 3.22-18.9 0.64-3.13 1.29-4.46 3.55-6.71 2.8-0.408 2.8-0.408 6.2-0.281 1.25 0.0361 2.5 0.0722 3.79 0.109 0.658 0.0284 1.32 0.0567 2 0.0859 3.31 0.141 6.63 0.213 9.95 0.305 2.65 0.0913 5.3 0.185 7.95 0.281 1.38 0.0484 2.76 0.0966 4.14 0.145 3.33 0.116 6.65 0.235 9.98 0.355-0.33-0.33-0.66-0.66-1-1-0.562-8.54 3.06-14.3 8-21 0.643-0.875 1.29-1.75 1.95-2.65 2.07-2.37 3.78-3.64 6.55-5.1 0.753-0.407 1.51-0.815 2.28-1.23 8.34-3.82 22.3-3.89 30.2 0.984z" fill="#FDFDFD"/>
<path transform="translate(710,249)" d="m0 0c1.27 2.54 1.13 4.32 1.13 7.17 0.00315 1.08 0.0063 2.16 0.00955 3.27-0.00304 1.75-0.00304 1.75-0.00613 3.54 9.57e-4 1.19 0.00191 2.39 0.0029 3.62 6.81e-4 2.53-0.00117 5.05-0.00534 7.58-0.00535 3.88-5.13e-5 7.76 0.00635 11.6-6.61e-4 2.45-0.00194 4.9-0.00391 7.35 0.00202 1.17 0.00405 2.34 0.00613 3.54-0.00473 1.61-0.00473 1.61-0.00955 3.26-7.96e-4 0.951-0.00159 1.9-0.00241 2.88-0.127 2.16-0.127 2.16-1.13 3.16-2.3 0.0997-4.59 0.128-6.89 0.129-0.72 0.00175-1.44 0.0035-2.18 0.00531-2.39 0.00442-4.78 0.00148-7.18-0.00189-1.66 6.73e-4 -3.31 0.00164-4.97 0.0029-3.47 0.00148-6.95-6.77e-4 -10.4-0.00534-4.46-0.0057-8.93-0.00242-13.4 0.00357-3.42 0.00361-6.84 0.00247-10.3-1.28e-4 -1.65-6.69e-4 -3.29 1.59e-4 -4.94 0.00248-2.3 0.00253-4.59-0.00131-6.89-0.0069-1.96-0.00119-1.96-0.00119-3.97-0.00241-2.92-0.127-2.92-0.127-3.92-1.13-0.104-1.65-0.139-3.3-0.145-4.95-0.00638-1.05-0.0128-2.11-0.0193-3.2-0.00111-1.15-0.00223-2.3-0.00337-3.48-0.00333-1.17-0.00666-2.34-0.0101-3.55-0.00507-2.48-0.00741-4.96-0.00725-7.44-0.00219-3.81-0.0203-7.62-0.0393-11.4-0.00293-2.4-0.00492-4.81-0.00586-7.21-0.00719-1.15-0.0144-2.29-0.0218-3.47 0.00308-1.06 0.00615-2.12 0.00932-3.21-0.00143-0.934-0.00285-1.87-0.00432-2.83 0.247-2.25 0.247-2.25 2.25-4.25 1.94-0.278 1.94-0.278 4.34-0.319 1.36-0.0298 1.36-0.0298 2.74-0.0602 0.986-0.0116 1.97-0.0231 2.99-0.035 1.03-0.0194 2.06-0.0387 3.11-0.0587 3.31-0.0599 6.63-0.106 9.94-0.152 2.15-0.0382 4.3-0.0773 6.45-0.117 14.5-0.255 29-0.306 43.4-0.258z"/>
<path transform="translate(206,791)" d="m0 0 4 1z"/>
<path transform="translate(354,799)" d="m0 0 2 1z"/>
<path transform="translate(202,791)" d="m0 0 2 1z"/>
</svg>
