<?xml version="1.0" encoding="UTF-8"?>
<svg version="1.1" viewBox="0 0 1600 552" width="1280" height="1280" xmlns="http://www.w3.org/2000/svg">
<path transform="translate(396 86.8)" d="m0 0c3.45 3 6.86 6.04 10.2 9.12 2.03 1.83 4.08 3.62 6.16 5.38 2.49 2.13 4.94 4.24 7.12 6.69v2c0.596 0.262 1.19 0.523 1.8 0.793 29.3 16.1 47.7 70.9 56.3 99.9 5.81 20.8 8.27 41.9 8.12 63.5-0.0184 2.7-0.0205 5.4-0.0203 8.09-0.0229 11.3-0.355 22.3-2.55 33.4-0.477 2.45-0.905 4.89-1.3 7.36-1.84 10.7-4.76 21-8.21 31.3-0.411 1.23-0.821 2.47-1.24 3.74-2.15 6.31-4.45 12.6-6.95 18.7-0.696 1.73-0.696 1.73-1.41 3.5-1.52 2.65-1.52 2.65-3.71 3.53-0.6 0.0382-1.2 0.0764-1.82 0.116 0.214 0.723 0.428 1.45 0.648 2.19 0.663 5.29-2.97 9.43-5.65 13.8-0.643 1.07-1.29 2.13-1.95 3.23-9.2 14.8-19.9 28.3-32.1 40.8-0.579 0.6-1.16 1.2-1.75 1.82-1.78 1.84-3.57 3.67-5.37 5.5-0.557 0.57-1.11 1.14-1.69 1.73-1.36 1.36-2.77 2.67-4.19 3.96h-2v2c-44.5 42.1-109 62.8-169 62.1-25.4-0.8-49.9-5.4-74-13.1-1.02-0.326-1.02-0.326-2.05-0.658-4.75-1.56-9.35-3.39-13.9-5.34-1.3-0.551-1.3-0.551-2.64-1.11-13.6-5.84-26-12.9-38.2-21-0.942-0.622-0.942-0.622-1.9-1.26-8.43-5.6-15.9-11.7-23.2-18.6-1.38-1.21-2.77-2.41-4.16-3.61-13.2-11.5-25.2-24.3-35.1-38.8-1.11-1.62-2.23-3.22-3.38-4.81-4.78-6.63-8.84-13.5-12.7-20.7-0.323-0.599-0.646-1.2-0.978-1.82-8.86-16.6-15.8-34.2-19.9-52.5-0.634-2.74-0.634-2.74-2.34-4.6-1.73-2.49-1.85-3.75-1.85-6.75-0.0127-1.39-0.0127-1.39-0.0256-2.8 0.00607-1.01 0.0121-2.02 0.0184-3.05-0.00526-1.07-0.0105-2.13-0.0159-3.23-0.0132-3.53-0.00446-7.06 0.00568-10.6-0.00202-2.45-0.00493-4.9-0.0087-7.35-0.00443-5.14 0.00201-10.3 0.016-15.4 0.0171-6.59 0.00725-13.2-0.0107-19.8-0.0108-5.06-0.00739-10.1 3.83e-4 -15.2 2e-3 -2.43-4.63e-4 -4.86-0.00744-7.29-0.00761-3.39 0.00398-6.79 0.0207-10.2-0.00607-1.01-0.0121-2.02-0.0184-3.05 0.00846-0.925 0.0169-1.85 0.0256-2.8 0.00113-0.802 0.00226-1.6 0.00343-2.43 0.471-2.74 1.65-4.06 3.38-6.2 0.951-2.53 1.8-5.02 2.6-7.6 0.49-1.53 0.98-3.06 1.47-4.59 0.253-0.797 0.506-1.59 0.767-2.41 4.46-14 9.09-27.5 16.2-40.4 0.421-0.78 0.842-1.56 1.28-2.36 5.71-10.5 12-20.4 19.3-29.8 1.45-1.88 2.89-3.77 4.32-5.67 0.961-1.25 1.92-2.51 2.89-3.76 0.432-0.568 0.864-1.14 1.31-1.72 2.98-3.81 6.15-6.63 9.88-9.65 1.12-1.24 2.21-2.5 3.25-3.81 1.45-1.83 1.45-1.83 2.75-3.19h2l1-3c1.6-1.61 1.6-1.61 3.62-3.31 0.652-0.553 1.3-1.11 1.98-1.68 0.791-0.664 1.58-1.33 2.4-2.01 0.524-0.456 1.05-0.912 1.59-1.38 21.8-18.9 47.3-33.9 74.4-43.6l2.89-1.05c12.7-4.57 25.3-8.37 38.7-10.5 2.44-0.403 4.86-0.854 7.29-1.31 66.8-11.6 140 9.38 192 52.7zm-254 4.19-3.03 1.56c-27.2 14.4-51 36.5-69 61.4-0.609 0.84-0.609 0.84-1.23 1.7-31.4 43.8-44.6 99.8-35.8 153 1.57 9.29 3.34 18.5 6.06 27.5 0.294 0.994 0.588 1.99 0.891 3.01 13.1 41.7 40.6 82.4 77.1 107 1.11 0.757 1.11 0.757 2.24 1.53 23.3 15.7 48.1 28.4 75.8 34.5l2.5 0.585c28.2 6.38 61.4 6.39 89.5-0.585 0.86-0.204 1.72-0.407 2.61-0.617 38.7-9.37 73.3-29.3 101-57.4 0.9-0.853 1.8-1.71 2.73-2.59 7.82-7.47 14.1-15.5 20.3-24.4 0.654-0.927 0.654-0.927 1.32-1.87 6.55-9.28 11.9-18.8 16.7-29.1 0.348-0.742 0.697-1.48 1.06-2.25 9.42-20.2 15.5-41.6 17.9-63.8 0.111-0.918 0.222-1.84 0.336-2.78 5.67-54.6-11.2-108-44.3-151-3.47-4.2-7.22-8.09-11-12-1.07-1.26-2.14-2.53-3.19-3.81-2.62-3.1-5.54-5.69-8.63-8.31-2.35-2.02-4.6-4.13-6.87-6.25-5.72-5.14-11.9-9.45-18.3-13.6-0.66-0.431-1.32-0.861-2-1.31-65.2-42.2-146-45.5-215-9.69z" fill="#000100"/>
<path transform="translate(256 78.1)" d="m0 0c1.04 0.0997 1.04 0.0997 2.1 0.201 40.9 3.97 40.9 3.97 47.6 10.7 0.0994 1.6 0.128 3.21 0.13 4.82 0.00362 1.05 0.00725 2.1 0.011 3.18-0.00107 1.17-0.00214 2.34-0.00324 3.54 0.00282 1.23 0.00564 2.46 0.00855 3.73 0.00692 3.43 0.00937 6.86 0.0101 10.3 0.00183 3.69 0.00944 7.39 0.0165 11.1 0.0115 6.41 0.0198 12.8 0.0261 19.2 0.0103 10.1 0.0309 20.3 0.0531 30.4 0.00748 3.47 0.0149 6.93 0.0223 10.4 0.00185 0.866 0.0037 1.73 0.00561 2.62 0.0209 9.87 0.0398 19.7 0.0576 29.6 0.00164 0.902 0.00328 1.8 0.00496 2.73 0.0262 14.6 0.0449 29.2 0.0616 43.8 0.0174 15 0.0463 30 0.0849 45 0.0234 9.25 0.0374 18.5 0.0393 27.7 0.00211 6.34 0.0151 12.7 0.0365 19 0.012 3.66 0.0192 7.31 0.0133 11-0.00632 3.97 0.0106 7.95 0.0295 11.9-0.00829 1.71-0.00829 1.71-0.0168 3.46 0.0882 10.8 1.67 23 9.06 31.3 10.2 9.71 23.3 12.2 36.8 13.8 1.11 0.134 2.23 0.268 3.37 0.406 2.73 0.328 5.46 0.651 8.19 0.969-0.66 0.33-1.32 0.66-2 1 0.33 1.32 0.66 2.64 1 4-8.89 8.17-19.4 13.5-30 19-0.624 0.334-1.25 0.668-1.89 1.01-9.07 4.82-18.7 8.07-28.4 11.4-0.65 0.224-1.3 0.447-1.97 0.677-7.56 2.58-14.7 4.68-22.7 4.95-1.29-2.59-1.13-4.46-1.14-7.35-0.00545-1.14-0.0109-2.27-0.0165-3.44-0.00104-1.25-0.00208-2.51-0.00316-3.8-0.0078-2.02-0.0156-4.04-0.0236-6.06-0.00772-2.18-0.0131-4.35-0.018-6.53-0.0107-4.54-0.0309-9.09-0.0531-13.6-0.0619-12.9-0.116-25.9-0.149-38.8-0.0184-7.13-0.0475-14.3-0.088-21.4-0.021-3.77-0.0365-7.54-0.0388-11.3-0.00217-3.56-0.0183-7.12-0.0444-10.7-0.0105-1.91-0.00647-3.81-0.00182-5.72-0.0948-9.98-0.584-21.4-7.43-29.3-11.2-9.79-25.1-10.2-39.3-9.29-8.58 0.92-17 3.63-23.4 9.57-8.73 11.6-6.49 30.1-6.3 43.7h31c-0.118-9.32-0.118-9.32-0.27-18.6-0.00749-1.17-0.015-2.33-0.0227-3.53-0.0157-1.19-0.0314-2.38-0.0476-3.6 0.376-3.56 1.15-5.42 3.34-8.23 3.31-1.06 5.13-1.34 8.38-0.0625 0.536 0.351 1.07 0.701 1.62 1.06-0.33 1.65-0.66 3.3-1 5h1v41c-3.81 0.762-6.95 1.06-10.8 1.09-9.88 0.175-19.3 2.22-26.7 9.3-2.86 3.18-4.23 5.77-4.8 9.99l-0.391 2.65c-0.119 0.982-0.237 1.96-0.359 2.98-0.169 1.2-0.338 2.39-0.512 3.62-0.557 4.47-0.65 8.88-0.656 13.4-0.00333 0.841-0.00666 1.68-0.0101 2.55-0.00504 1.77-0.00741 3.54-0.00725 5.32-0.00217 2.66-0.0203 5.32-0.0393 7.98-0.23 19.8-0.23 19.8 6.22 38.1v4c-5.98 0.323-11-0.812-16.7-2.5-0.904-0.262-1.81-0.524-2.74-0.794-25.5-7.62-25.5-7.62-29.6-11.7-0.0868-2.1-0.101-4.2-0.089-6.3 0.00252-0.666 0.00505-1.33 0.00765-2.02 0.00978-2.25 0.0268-4.49 0.0438-6.74 0.0085-1.6 0.0166-3.21 0.0242-4.81 0.0223-4.37 0.0509-8.74 0.081-13.1 0.0306-4.56 0.0563-9.13 0.0827-13.7 0.0452-7.66 0.0947-15.3 0.147-23 0.06-8.87 0.113-17.7 0.162-26.6 0.0422-7.6 0.0883-15.2 0.138-22.8 0.0295-4.55 0.0576-9.1 0.0823-13.6 0.0234-4.27 0.0516-8.55 0.0837-12.8 0.011-1.57 0.0203-3.15 0.0278-4.72 0.0105-2.14 0.027-4.28 0.0451-6.42 0.00775-1.2 0.0155-2.4 0.0235-3.64 0.141-2.67 0.141-2.67 1.14-3.67 2.01-0.205 4.03-0.348 6.05-0.465 1.26-0.078 2.51-0.156 3.8-0.236 2.64-0.157 5.28-0.309 7.91-0.461 16.5-1.03 31.8-3.44 44-15.6 7.89-11.4 9.55-21.6 9.52-35.2 0.00435-1.4 0.00954-2.8 0.0155-4.2 0.0133-3.79 0.014-7.57 0.0114-11.4-0.00107-3.17 0.00382-6.34 0.00861-9.51 0.0111-7.49 0.0115-15 0.00549-22.5-0.00603-7.7 0.00626-15.4 0.0276-23.1 0.0177-6.63 0.0236-13.3 0.0204-19.9-0.0018-3.95 7.34e-4 -7.9 0.0147-11.9 0.0127-3.72 0.0105-7.44-0.00241-11.2-0.00345-2 0.00774-3.99 0.0196-5.99-0.0578-10-1.26-19.7-6.33-28.5-0.483-0.866-0.967-1.73-1.46-2.62-1.54-2.47-1.54-2.47-3.79-4.5-1.81-1.88-1.81-1.88-1.81-4.88 1.75-0.319 3.5-0.63 5.25-0.938 0.975-0.174 1.95-0.348 2.95-0.527 10.6-1.49 20.5-1.47 31.1-0.41zm-14.3 279v9h1v-9h-1z" fill="#000100"/>
<path transform="translate(525 103)" d="m0 0c0.744 0.0036 1.49 0.00719 2.26 0.0109 0.78-1.46e-4 1.56-2.92e-4 2.36-4.43e-4 2.59 6.99e-4 5.18 0.00849 7.78 0.0163 1.79 0.00186 3.58 0.00329 5.38 0.00429 4.73 0.00383 9.45 0.0137 14.2 0.0247 4.82 0.0102 9.64 0.0148 14.5 0.0198 9.46 0.0107 18.9 0.0278 28.4 0.0488v2c0.678 0.0864 1.36 0.173 2.05 0.262 10.5 1.58 20 5.51 26.9 13.7 4.08 6.45 6.57 12.4 7 20 0.33 0.33 0.66 0.66 1 1 0.0887 2.95 0.115 5.87 0.0977 8.81-0.00141 0.884-0.00283 1.77-0.00429 2.68-0.00562 2.84-0.0182 5.67-0.0309 8.51-0.00501 1.91-0.00958 3.83-0.0137 5.74-0.0111 4.75-0.0288 9.51-0.0488 14.3 0 2.21 0.00674 4.42 0.0111 6.63 0.0184 9.48 0.0316 19 0.0407 28.4 0.00523 5.25 0.0123 10.5 0.0236 15.7 0.0108 5.07 0.0168 10.1 0.0194 15.2 0.00185 1.94 0.00547 3.87 0.0109 5.81 0.00721 2.7 0.00826 5.4 0.0078 8.1 0.0036 0.808 0.00719 1.62 0.0109 2.45-0.0104 5.52-0.0104 5.52-1.12 6.63 0.033 1.63 0.102 3.25 0.188 4.88 0.0535 10.3-4 18.8-11.2 26.1-13 11.3-27.7 11.7-44 11-2-0.198-2-0.198-3 1.03-2.65 0.455-5.32 0.702-8 1v-2h-3c0.00911 1.2 0.00911 1.2 0.0184 2.42 0.147 19.4 0.289 38.8 0.425 58.2 0.0657 9.37 0.133 18.7 0.205 28.1 0.0627 8.17 0.122 16.3 0.177 24.5 0.0292 4.33 0.0603 8.66 0.0955 13 0.0331 4.07 0.0614 8.14 0.0862 12.2 0.00994 1.5 0.0216 3 0.0351 4.49 0.0181 2.04 0.0295 4.07 0.0405 6.11 0.0083 1.14 0.0166 2.28 0.0251 3.46-0.107 2.54-0.107 2.54-1.11 3.54-2.95 0.185-5.87 0.309-8.82 0.387-1.34 0.0383-1.34 0.0383-2.7 0.0773-1.89 0.0521-3.79 0.102-5.68 0.148-2.88 0.0741-5.77 0.165-8.65 0.257-1.84 0.0486-3.68 0.0961-5.52 0.143-1.29 0.0436-1.29 0.0436-2.6 0.0881-1.23 0.0254-1.23 0.0254-2.48 0.0513-0.71 0.0192-1.42 0.0384-2.15 0.0582-3.27-0.286-6.25-1.28-9.39-2.21-0.0229-46.1-0.0405-92.2-0.0511-138-0.00125-5.44-0.00255-10.9-0.00387-16.3-2.62e-4 -1.08-5.25e-4 -2.16-7.95e-4 -3.28-0.00436-17.5-0.0122-35.1-0.0214-52.6-0.00934-18-0.0149-36-0.0169-54-0.00138-11.1-0.00573-22.2-0.0138-33.3-0.00527-7.61-0.00689-15.2-0.00558-22.8 6.44e-4 -4.4-3.77e-4 -8.79-0.0057-13.2-0.00483-4.02-0.00513-8.04-0.00169-12.1 4.26e-4 -1.46-8.7e-4 -2.92-0.00398-4.38-0.00396-1.97-0.00127-3.94 0.00184-5.92-3.8e-4 -1.1-7.59e-4 -2.2-0.00115-3.33 0.227-4.47 2.39-3.56 6.33-3.57zm44.8 30.1v1h12v-1h-12zm-2 4c-0.317 2.57-0.437 4.9-0.432 7.48-0.0153 1.16-0.0153 1.16-0.0309 2.35-0.0304 2.6-0.0395 5.19-0.0485 7.79-0.0169 1.83-0.0351 3.66-0.0545 5.49-0.0482 4.91-0.0777 9.82-0.104 14.7-0.0294 5.04-0.0754 10.1-0.119 15.1-0.24 29-0.348 58-0.211 87 3.35 1.12 5.98 1.17 9.5 1.19 1.14 0.0142 2.29 0.0284 3.47 0.043 3.21 0.00502 3.21 0.00502 6.03-2.23 0.448-2.52 0.448-2.52 0.361-5.52 0.00412-1.17 0.00825-2.34 0.0125-3.55-0.0108-1.29-0.0216-2.59-0.0327-3.92-8.46e-4 -1.37-3.72e-4 -2.74 0.00133-4.11 8.63e-4 -3.73-0.0168-7.45-0.0377-11.2-0.0187-3.89-0.0205-7.78-0.0241-11.7-0.00934-7.37-0.034-14.7-0.064-22.1-0.0335-8.39-0.05-16.8-0.0651-25.2-0.0314-17.3-0.0842-34.5-0.151-51.8-3.56-1.5-6.24-2.27-10.1-2.25-0.848-0.00516-1.7-0.0103-2.57-0.0156-2.58 0.12-2.58 0.12-5.3 2.27zm-2-1v15h1v-15h-1zm0 18 1 2zm0 4 1 2zm0 7 1 2zm0 5 1 2zm0 9 1 2zm0 42 1 4z" fill="#000100"/>
<path transform="translate(964,111)" d="m0 0c13.9 0.33 27.7 0.66 42 1-0.33 9.57-0.66 19.1-1 29h2v2h60c-0.33 0.99-0.66 1.98-1 3-0.148 1.77-0.248 3.55-0.316 5.32-0.0419 1.03-0.0838 2.06-0.127 3.12-0.0393 1.07-0.0786 2.14-0.119 3.25-0.0648 1.63-0.0648 1.63-0.131 3.28-0.106 2.68-0.208 5.35-0.307 8.03h2c0.0269 1.48 0.0463 2.96 0.0625 4.44 0.0116 0.824 0.0232 1.65 0.0352 2.5-0.0977 2.07-0.0977 2.07-1.1 3.07-10.1 1.26-20.3 1.16-30.4 1.13-2.47-0.00546-4.94 3.52e-5 -7.42 0.00635-1.57-6.59e-4 -3.15-0.00194-4.72-0.00391-1.11 0.00304-1.11 0.00304-2.24 0.00613-5.13-0.0239-5.13-0.0239-6.24-1.14v1c-7.75 0.125-7.75 0.125-10-1 0.162 0.528 0.323 1.06 0.49 1.6 0.633 2.98 0.651 5.76 0.668 8.8 0.00979 1.32 0.0196 2.64 0.0297 3.99 0.0059 1.46 0.0117 2.92 0.0174 4.38 0.00958 1.54 0.0196 3.08 0.03 4.61 0.027 4.17 0.0481 8.35 0.068 12.5 0.0219 4.36 0.0493 8.72 0.0761 13.1 0.0499 8.26 0.0949 16.5 0.138 24.8 0.0494 9.4 0.104 18.8 0.16 28.2 0.114 19.3 0.221 38.7 0.323 58 1.61 0.764 1.61 0.764 3.26 1.54 0.907 0.43 0.907 0.43 1.83 0.868 3.32 1.02 5.83-0.116 8.91-1.41 1.32-2.65 1.12-4.61 1.11-7.58-0.00152-1.19-0.00303-2.37-0.00459-3.59-0.00674-1.31-0.0135-2.62-0.0204-3.96-0.00355-1.39-0.00664-2.77-0.00929-4.16-0.00656-2.99-0.0161-5.98-0.0279-8.97-0.0183-4.72-0.0279-9.44-0.0359-14.2-0.0242-13.4-0.0601-26.9-0.105-40.3-0.0245-7.41-0.0419-14.8-0.0516-22.2-0.00656-4.7-0.0221-9.4-0.0443-14.1-0.0117-2.92-0.0151-5.84-0.0161-8.76-0.00318-2.01-0.0164-4.01-0.0298-6.02 0.0013-1.19 0.00261-2.37 0.00395-3.59-0.00471-1.55-0.00471-1.55-0.00952-3.14 0.243-2.44 0.243-2.44 2.24-4.44 4.09-1.34 8.23-1.13 12.5-1.1 0.816 0.00141 1.63 0.00283 2.47 0.00429 2.6 0.00559 5.2 0.0181 7.79 0.0309 1.76 0.00502 3.53 0.00958 5.29 0.0137 4.32 0.011 8.64 0.0283 13 0.0488 0.934 3.01 1.04 3.87 0 7h2c-0.00222 0.62-0.00444 1.24-0.00673 1.88-0.0221 6.44-0.0372 12.9-0.0482 19.3-0.00503 2.4-0.0119 4.81-0.0205 7.21-0.0121 3.45-0.0178 6.91-0.0222 10.4-0.00516 1.08-0.0103 2.16-0.0156 3.27-1.13e-4 1.5-1.13e-4 1.5-2.29e-4 3.03-0.00222 0.882-0.00444 1.76-0.00673 2.67 0.029 2.43 0.029 2.43 1.12 5.26-0.938 2.19-0.938 2.19-2 4h2c0.0247 5.34 0.0429 10.7 0.0549 16 0.00503 1.82 0.0118 3.63 0.0205 5.45 0.0121 2.61 0.0178 5.22 0.0222 7.83 0.00516 0.811 0.0103 1.62 0.0156 2.46 5.77e-4 5.81 5.77e-4 5.81-0.683 8.43-0.142 0.599-0.284 1.2-0.43 1.82 0.33 0.33 0.66 0.66 1 1 0.1 1.97 0.131 3.94 0.133 5.91 0.00129 1.22 0.00258 2.44 0.00391 3.7-0.00387 1.29-0.00773 2.57-0.0117 3.9 0.00387 1.26 0.00773 2.51 0.0117 3.8-0.00697 6.65-0.234 13.1-1.14 19.7h-3v6h2c-2.26 9.48-5.88 17.2-14 23-7.17 3.4-15 6.29-23 7-0.33-0.33-0.66-0.66-1-1-0.99 0.66-1.98 1.32-3 2h-2v-2c-0.684 0.0512-1.37 0.102-2.07 0.155-18.1 1.27-34 1.67-48.7-10.5-8.76-10.8-9.63-23.3-9.53-36.7 8.48e-4 -1.6 3.68e-4 -3.2-0.00133-4.79-8.56e-4 -4.31 0.0167-8.62 0.0377-12.9 0.0188-4.51 0.0205-9.03 0.0241-13.5 0.0093-8.53 0.0339-17.1 0.064-25.6 0.0336-9.72 0.05-19.4 0.0651-29.2 0.0313-20 0.084-40 0.151-60-0.615 0.0116-1.23 0.0232-1.86 0.0352-0.808 0.00902-1.62 0.018-2.45 0.0273-0.801 0.0116-1.6 0.0232-2.43 0.0352-2.26-0.0977-2.26-0.0977-5.26-1.1-1.52-3.57-1.11-7.58-1.1-11.4 0.00141-0.705 0.00283-1.41 0.00429-2.14 0.00558-2.24 0.0181-4.48 0.0309-6.72 0.00502-1.52 0.00958-3.05 0.0137-4.57 0.011-3.73 0.0283-7.45 0.0488-11.2 6.43-0.495 6.43-0.495 13-1-0.0174-2.85-0.0174-2.85-0.0352-5.77-0.00938-2.49-0.0185-4.99-0.0273-7.48-0.00838-1.25-0.0168-2.51-0.0254-3.8-0.00322-1.21-0.00645-2.41-0.00977-3.65-0.00524-1.11-0.0105-2.22-0.0159-3.36 0.114-2.93 0.114-2.93 1.11-6.93zm40 6 1 2zm0 66v9h1v-9h-1zm0 138v15h1v-15h-1zm1 15 1 3z" fill="#000100"/>
<path transform="translate(1428,111)" d="m0 0c3.89-0.0251 7.78-0.0431 11.7-0.0549 1.96-0.00737 3.92-0.0201 5.87-0.033 8.2-0.0209 16.3 0.321 24.5 1.09v4c0.132 1.86 0.265 3.72 0.406 5.59 0.495 6.66 0.525 12.8-0.406 19.4 1.76 1.76 4.24 1.17 6.62 1.21 1.2 0.0199 2.4 0.0399 3.64 0.0604 1.31 0.0167 2.61 0.0334 3.96 0.0506 1.34 0.0206 2.69 0.0416 4.03 0.063 3.54 0.0553 7.09 0.105 10.6 0.153 3.61 0.0502 7.23 0.106 10.8 0.161 7.09 0.108 14.2 0.209 21.3 0.307l-2 1v35c-4.42 0.736-7.98 1.11-12.4 1.06-1.06-0.00902-2.12-0.018-3.21-0.0273-1.19-0.0174-1.19-0.0174-2.41-0.0352v-1c-3.81-0.0289-7.62-0.0468-11.4-0.0625-1.09-0.00838-2.18-0.0168-3.3-0.0254-1.55-0.00483-1.55-0.00483-3.13-0.00977-1.44-0.00786-1.44-0.00786-2.9-0.0159-2.2-0.137-2.2-0.137-3.22 1.11-1.34 0.0863-2.69 0.107-4.04 0.0977-0.809-0.00322-1.62-0.00645-2.45-0.00977-0.85-0.00838-1.7-0.0168-2.58-0.0254-0.854-0.00451-1.71-0.00902-2.59-0.0137-2.12-0.0118-4.23-0.0298-6.35-0.0488 0.99 0.495 0.99 0.495 2 1-0.33 52.1-0.66 104-1 158 6.57 3.28 7.42 3.62 14 2 2.24-2.21 2.94-3.57 3.38-6.71 0.00331-1.04 0.00662-2.08 0.01-3.16 0.0166-1.8 0.0166-1.8 0.0336-3.63-0.00451-1.97-0.00451-1.97-0.00911-3.98 0.00738-1.4 0.0161-2.8 0.026-4.19 0.0233-3.79 0.0285-7.59 0.0307-11.4 0.00566-3.97 0.0289-7.93 0.0506-11.9 0.0385-7.51 0.0627-15 0.0811-22.5 0.0334-13.5 0.091-26.9 0.154-40.4 0.0215-4.73 0.0368-9.46 0.0468-14.2 7e-3 -2.93 0.0179-5.87 0.0296-8.8 0.00676-2.02 0.00848-4.04 0.0101-6.06 0.00545-1.19 0.0109-2.38 0.0165-3.61 0.00256-1.04 0.00511-2.08 0.00775-3.15 0.13-2.33 0.13-2.33 1.13-3.33 1.52-0.0998 3.04-0.131 4.57-0.133 1.43-0.00302 1.43-0.00302 2.89-0.0061 1.54 0.00689 1.54 0.00689 3.11 0.0139 1.55 0.00399 1.55 0.00399 3.14 0.00806 23.3 0.143 23.3 0.143 27.3 2.12v149h-3c0.289 0.969 0.578 1.94 0.875 2.94 0.654 4.62-1.4 7.31-4.07 10.9-6.61 7.86-15.5 12.8-25.8 14.1-3.49 0.0888-6.97 0.0599-10.5 0.00391-3.16-0.0035-6.2 0.174-9.34 0.496-14.2 1.43-28.7-0.332-40.2-9.5-7.19-6.89-11.2-14.5-11.6-24.5-0.0503-2.98-0.0379-5.95-0.0202-8.92-0.00847-1.65-0.0191-3.29-0.0318-4.94-0.028-4.44-0.0257-8.89-0.0177-13.3 0.00314-4.65-0.0219-9.31-0.044-14-0.0374-8.8-0.0496-17.6-0.0526-26.4-0.0047-10-0.0376-20-0.0729-30.1-0.0719-20.6-0.108-41.2-0.122-61.8-0.93 0.0274-0.93 0.0274-1.88 0.0553-0.812 0.0142-1.62 0.0284-2.46 0.043-1.21 0.0274-1.21 0.0274-2.44 0.0553-2.22-0.154-2.22-0.154-4.75-1.73-1.96-3.25-1.94-5.49-1.89-9.28 0.00329-0.653 0.00658-1.31 0.00996-1.98 0.0157-2.08 0.0597-4.16 0.103-6.24 0.0115-1.4 0.0213-2.8 0.0293-4.21 0.102-10.2 0.102-10.2 1.28-13.7 6.43-0.495 6.43-0.495 13-1-0.0174-2.85-0.0174-2.85-0.0352-5.77-0.00938-2.49-0.0185-4.99-0.0273-7.48-0.00838-1.25-0.0168-2.51-0.0254-3.8-0.00322-1.21-0.00645-2.41-0.00977-3.65-0.00524-1.11-0.0105-2.22-0.0159-3.36 0.0969-2.5 0.381-4.55 1.11-6.93zm100 86v14h1v-14h-1zm-60 137 1 2zm-12 36 4 1zm10 2v1h7v-1h-7z" fill="#000100"/>
<path transform="translate(925,145)" d="m0 0c6.15 4.38 9.97 10.5 11.4 18 0.935 9 0.759 18 0.74 27.1-2.82e-4 1.92-1.23e-4 3.85 4.43e-4 5.77 2.86e-4 5.2-0.00558 10.4-0.0126 15.6-0.00627 5.44-0.00684 10.9-0.00803 16.3-0.0031 10.3-0.0113 20.6-0.0213 30.9-0.0112 11.7-0.0167 23.4-0.0217 35.2-0.0104 24.1-0.028 48.2-0.0503 72.3-0.66 0.33-1.32 0.66-2 1h3v4c-6.14 2.05-13.3 1.31-19.7 1.35-1.85 0.0166-3.7 0.0439-5.55 0.082-2.67 0.0546-5.34 0.0766-8.01 0.0913-0.828 0.0227-1.66 0.0453-2.51 0.0687-2.34-0.00864-2.34-0.00864-6.21-0.592-3.35-3.98-3.43-7.91-3.39-12.9-0.00785-1.18-0.00785-1.18-0.0159-2.39-0.014-2.64-0.00666-5.28 5e-4 -7.93-0.00574-1.9-0.0128-3.79-0.0211-5.69-0.0151-4.08-0.0209-8.16-0.0195-12.2 0.00203-6.45-0.0175-12.9-0.0402-19.3-0.041-12.5-0.0596-25-0.0762-37.6-0.0224-15.9-0.0558-31.9-0.107-47.8-0.0199-6.41-0.0295-12.8-0.031-19.2-0.00275-3.99-0.0136-7.97-0.0265-12-0.00429-1.85-0.00513-3.7-0.00233-5.55 0.00339-2.52-0.00536-5.05-0.0171-7.57 0.00398-0.736 0.00796-1.47 0.0121-2.23-0.0305-3.68-0.24-6.42-2.27-9.54-1.46 0.256-2.92 0.53-4.38 0.812-0.812 0.151-1.62 0.302-2.46 0.457-2.52 0.606-2.52 0.606-4.16 3.73-0.201 2.62-0.285 5.14-0.278 7.76-0.00579 0.799-0.0116 1.6-0.0176 2.42-0.017 2.69-0.0199 5.37-0.0228 8.06-0.00929 1.92-0.0195 3.84-0.0304 5.76-0.0274 5.22-0.0425 10.4-0.0554 15.7-0.0156 5.46-0.0424 10.9-0.068 16.4-0.0468 10.3-0.0836 20.7-0.117 31-0.0382 11.8-0.0876 23.5-0.138 35.3-0.103 24.2-0.193 48.4-0.273 72.6-4.57 1.99-8.55 2.31-13.5 2.3-1.21 0.00643-1.21 0.00643-2.45 0.013-1.7 0.00572-3.4 0.00626-5.1 0.00191-2.6-0.00317-5.2 0.0204-7.81 0.0457-1.65 0.00227-3.31 0.00298-4.96 0.00195-1.17 0.0138-1.17 0.0138-2.36 0.0279-5.39-0.0464-5.39-0.0464-7.56-1.67-2.3-3.06-1.7-6.92-1.66-10.6-0.00327-0.92-0.00654-1.84-0.00991-2.79-0.00731-3.1 0.0069-6.19 0.021-9.29-7.9e-4 -2.21-0.00289-4.43-0.0062-6.64-0.00515-6.02 0.00842-12 0.0255-18.1 0.015-6.29 0.0139-12.6 0.0147-18.9 0.0037-10.6 0.0186-21.1 0.0412-31.7 0.0233-10.9 0.0374-21.8 0.041-32.6 2.23e-4 -0.67 4.46e-4 -1.34 6.75e-4 -2.03 4.43e-4 -1.35 8.85e-4 -2.7 0.00133-4.05 2.2e-4 -0.666 4.39e-4 -1.33 6.65e-4 -2.02 2.16e-4 -0.664 4.32e-4 -1.33 6.55e-4 -2.01 0.00392-11 0.0166-22 0.0297-32.9 0.0041-3.76 0.00703-7.51 0.0098-11.3 0.00488-5.89 0.0151-11.8 0.0294-17.7 0.00453-2.17 0.00736-4.34 0.00841-6.5 0.00174-2.95 0.0096-5.9 0.0191-8.85-8.66e-4 -0.868-0.00173-1.74-0.00263-2.63 0.0289-5.9 0.0289-5.9 1.14-8.13 5.93-0.0988 11.9-0.171 17.8-0.22 2.02-0.0201 4.03-0.0474 6.05-0.082 2.9-0.0485 5.79-0.0712 8.69-0.0889 0.903-0.0206 1.81-0.0413 2.74-0.0626 6.27-0.00225 6.27-0.00225 8.84 2.48 0.299 0.652 0.599 1.3 0.907 1.98 2.33-0.401 3.67-0.64 5.3-2.4 11.2-10.5 29.1-5.03 40.7 1.4zm10 26v23h1v-23h-1zm-60 4v19h1v-19h-1zm60 20v87h1v-87h-1zm-60 1v14h1v-14h-1zm0 21 1 2zm0 6v9h1v-9h-1zm0 11 1 3zm0 5v12h1v-12h-1zm0 13v53h1v-53h-1zm60 31v28h1v-28h-1zm-60 25 1 3zm0 5v24h1v-24h-1zm60 2v29h1v-29h-1zm-60 28 1 2zm0 6 1 3zm0 6v13h1v-13h-1z" fill="#010201"/>
<path transform="translate(1389,149)" d="m0 0c6.85 6.06 11.1 13.9 12 23-0.99 0.495-0.99 0.495-2 1-0.33 0.99-0.66 1.98-1 3h3c0.0468 21.3 0.082 42.7 0.104 64 0.0103 9.91 0.0243 19.8 0.0473 29.7 0.02 8.64 0.0328 17.3 0.0373 25.9 0.0026 4.57 0.00869 9.14 0.0233 13.7 0.0136 4.31 0.0177 8.62 0.0148 12.9 5.47e-4 1.58 0.00449 3.15 0.0122 4.73 0.0669 14.4-0.799 25.4-10.7 36.6-6.74 6.14-16.6 9.1-25.6 9.46-0.639-0.0412-1.28-0.0825-1.94-0.125v1h-28c-0.33-0.66-0.66-1.32-1-2-1.09 0.0825-2.19 0.165-3.31 0.25-10.7-0.0379-19.2-5.77-26.5-13.1-11.2-16.3-8.62-40.7-8.52-59.5 0.0153-3.78 0.0139-7.56 0.0147-11.3 0.00367-6.33 0.0185-12.7 0.0412-19 0.0289-8.09 0.0392-16.2 0.0437-24.3 4e-3 -7.01 0.0165-14 0.0303-21 0.00407-2.23 0.00701-4.46 0.0098-6.69 0.00587-4.17 0.0206-8.35 0.0363-12.5 0.00112-1.22 0.00224-2.43 0.00339-3.68 0.194-39.2 0.194-39.2 11.2-50.2 5.1-4.28 10.6-7.18 17-9 0.914-0.278 1.83-0.557 2.77-0.844 19.9-5.2 45.1-4.6 62.2 7.84zm-44 22c-0.66 1.32-1.32 2.64-2 4h-4v59h2c-0.163 0.571-0.325 1.14-0.493 1.73-0.511 2.29-0.629 4.26-0.623 6.6-1.86e-4 0.858-3.73e-4 1.72-5.65e-4 2.6 0.00509 0.933 0.0102 1.87 0.0154 2.83 0.00158 0.989 0.00315 1.98 0.00478 3 0.00749 3.27 0.0235 6.54 0.0416 9.81 0.00571 1.12 0.0114 2.23 0.0173 3.38 0.0315 5.9 0.0705 11.8 0.115 17.7 0.0438 6.11 0.0596 12.2 0.0692 18.3 0.0128 4.69 0.0475 9.38 0.0881 14.1 0.0155 2.25 0.0226 4.5 0.0211 6.76-1.79e-4 3.15 0.0307 6.29 0.0691 9.44-0.00705 0.933-0.0141 1.87-0.0214 2.83 0.066 5.27 0.066 5.27 3.05 9.5 3.26 1.75 4.99 2.03 8.65 1.42 2.99-1.22 2.99-1.22 5-4 1.84-8.15 1.11-17 1.05-25.3-0.00688-1.52-0.0133-3.05-0.0194-4.57-0.0178-4.11-0.0424-8.22-0.0688-12.3-0.0216-3.43-0.0402-6.87-0.0589-10.3-0.0444-8.1-0.0946-16.2-0.148-24.3-0.0553-8.35-0.0992-16.7-0.138-25.1-0.0337-7.18-0.075-14.4-0.122-21.5-0.0281-4.29-0.0532-8.57-0.0707-12.9-0.0167-4.02-0.0428-8.05-0.0763-12.1-0.0107-1.48-0.018-2.95-0.0217-4.43-0.00555-2.01-0.0244-4.03-0.044-6.04-0.00683-1.13-0.0137-2.25-0.0207-3.42-0.0653-2.98-0.0653-2.98-2.26-5.76-3.47-1.16-6.36-1.07-10-1zm-6 67v100h1v-100h-1z" fill="#000201"/>
<path transform="translate(738 142)" d="m0 0c7.23 3.47 12.3 7.89 15.6 15.3 2.55 8.45 3.43 16.5 3.34 25.3 6.57e-4 1.73 6.57e-4 1.73 0.00133 3.49-0.00207 3.76-0.0253 7.52-0.0489 11.3-0.0056 2.63-0.00987 5.25-0.0129 7.88-0.00927 6.18-0.0338 12.4-0.064 18.5-0.0337 7.04-0.0501 14.1-0.0651 21.1-0.0312 14.5-0.0839 28.9-0.151 43.4-3.17 1.59-6.59 1.12-10.1 1.1-0.796-0.00141-1.59-0.00283-2.41-0.00429-2.55-0.00561-5.09-0.0182-7.64-0.0309-1.73-0.00501-3.45-0.00958-5.18-0.0137-4.23-0.011-8.47-0.0283-12.7-0.0488v-2c-1.98-0.33-3.96-0.66-6-1-0.925-2.78-1.12-4.4-1.11-7.26 1.06e-4 -1.3 1.06e-4 -1.3 2.14e-4 -2.63 0.00775-1.43 0.00775-1.43 0.0157-2.88 0.00146-1 0.00292-2.01 0.00443-3.04 0.00381-2.18 0.00993-4.36 0.0181-6.55 0.0127-3.46 0.0193-6.91 0.0241-10.4 0.0134-8.59 0.0375-17.2 0.0614-25.8 0.0197-7.25 0.0354-14.5 0.0456-21.7 0.00647-3.4 0.019-6.8 0.0317-10.2 0.00363-2.09 0.00699-4.19 0.01-6.28 0.00775-1.41 0.00775-1.41 0.0157-2.86 3.94e-4 -4.92-0.274-9.58-1.11-14.4-1.22-0.0412-2.43-0.0825-3.69-0.125-1.03-0.0348-1.03-0.0348-2.07-0.0703-2.69 0.234-4.76 1.16-7.24 2.2 0.00222 1.18 0.00444 2.35 0.00673 3.56 0.0204 11.1 0.0353 22.3 0.0451 33.4 0.00519 5.73 0.0122 11.5 0.0236 17.2 0.011 5.54 0.0169 11.1 0.0194 16.6 0.00183 2.1 0.0054 4.2 0.0109 6.3 0.0315 12.7-0.263 25.2-1.11 37.9v1 81c-5.62 0.168-11.2 0.328-16.9 0.482-1.91 0.0534-3.83 0.109-5.74 0.166-2.75 0.0821-5.5 0.157-8.25 0.231-1.28 0.0406-1.28 0.0406-2.59 0.0819-0.801 0.0201-1.6 0.0402-2.43 0.0609-1.05 0.03-1.05 0.03-2.13 0.0606-2.12-0.0873-3.95-0.542-6-1.08-0.173-28.5-0.336-56.9-0.484-85.4-0.0175-3.36-0.0351-6.72-0.0528-10.1-0.00527-1-0.00527-1-0.0107-2.03-0.0571-10.8-0.121-21.7-0.188-32.5-0.0685-11.1-0.129-22.2-0.183-33.3-0.0305-6.24-0.0646-12.5-0.107-18.7-0.0399-5.87-0.0704-11.7-0.0935-17.6-0.0102-2.16-0.0239-4.31-0.0412-6.47-0.0232-2.94-0.0339-5.88-0.0415-8.82-0.00972-0.857-0.0194-1.71-0.0294-2.6 0.00271-4.3 0.229-7.59 2.23-11.5 5.94-0.074 11.9-0.129 17.8-0.165 2.02-0.0151 4.05-0.0356 6.07-0.0615 2.9-0.0363 5.81-0.0534 8.71-0.0667 0.908-0.0155 1.82-0.031 2.75-0.0469 0.841-2.27e-4 1.68-4.53e-4 2.55-6.87e-4 1.11-0.00999 1.11-0.00999 2.25-0.0202 0.606 0.119 1.21 0.238 1.83 0.361 0.66 0.99 1.32 1.98 2 3 3.7-0.564 6.15-1.59 9.31-3.56 9.53-4.89 21.4-3.46 31.1 0.305zm-43.4 35.3v5h1v-5h-1zm0 6 1 3zm0 4v80h1v-80h-1z" fill="#000101"/>
<path transform="translate(359,116)" d="m0 0c9.53 6.18 9.53 6.18 13.4 9.84 0.706 0.671 1.41 1.34 2.14 2.03 0.704 0.681 1.41 1.36 2.13 2.06 1.07 1.02 1.07 1.02 2.16 2.05 2.08 1.99 4.15 4 6.22 6.01 0.626 0.607 1.25 1.21 1.9 1.84 3.72 3.66 7.15 7.42 10.4 11.5 0.694 0.89 0.694 0.89 1.4 1.8 11.4 14.9 20.7 31 27.8 48.4 0.342 0.845 0.685 1.69 1.04 2.56 3.52 8.98 3.52 8.98 3.52 13.9 0.602 1.38 1.21 2.75 1.81 4.12 6.42 15.9 6.37 32.7 5.75 49.6-0.0534 1.59-0.106 3.18-0.158 4.76-0.128 3.85-0.264 7.7-0.404 11.5 0.66 0.33 1.32 0.66 2 1-0.99 8.25-1.98 16.5-3 25h-3v5c0.66 0.33 1.32 0.66 2 1h-3c0.227 0.928 0.454 1.86 0.688 2.81 0.103 1.05 0.206 2.1 0.312 3.19l-3 3c0.305 2 0.641 4 1 6-0.806 3.23-1.27 4.55-4.12 6.31-0.928 0.34-0.928 0.34-1.88 0.688v4c0.66 0.33 1.32 0.66 2 1-1.79 4.11-3.58 8.21-5.38 12.3-0.508 1.17-1.02 2.33-1.54 3.54-0.49 1.12-0.98 2.24-1.48 3.39-0.45 1.03-0.901 2.06-1.36 3.13-1.24 2.64-1.24 2.64-3.24 5.64-1.83 0.361-1.83 0.361-4.08 0.341-0.841-2.27e-4 -1.68-4.53e-4 -2.55-6.87e-4 -0.908-0.0155-1.82-0.031-2.75-0.0469-0.929-0.00424-1.86-0.00849-2.82-0.0129-2.98-0.0168-5.95-0.0545-8.93-0.0926-2.01-0.015-4.03-0.0287-6.04-0.041-4.94-0.0331-9.89-0.0849-14.8-0.146v-1c-3.63-0.33-7.26-0.66-11-1v2h-3c-0.132-18.9-0.262-37.9-0.391-56.8-0.06-8.8-0.12-17.6-0.182-26.4-0.0535-7.68-0.106-15.4-0.158-23.1-0.0275-4.06-0.0552-8.11-0.0838-12.2-0.186-26.4-0.317-52.8 0.0336-79.2 0.0226-1.8 0.045-3.6 0.0673-5.4 0.0576-4.62 0.117-9.25 0.178-13.9 0.0616-4.76 0.121-9.52 0.181-14.3 0.117-9.26 0.235-18.5 0.355-27.8zm71 103 1 3z" fill="#000100"/>
<path transform="translate(1210 102)" d="m0 0c1.29 0.00616 1.29 0.00616 2.61 0.0125 1.46 0.00193 1.46 0.00193 2.94 0.00391 1.04 0.0129 2.09 0.0258 3.17 0.0391 1.06 0.00645 2.13 0.0129 3.22 0.0195 10.3 0.098 20.6 0.566 31 1.17 2.59 3.88 2.29 7.97 2.28 12.5 0.00869 1.29 0.00869 1.29 0.0176 2.61 0.017 2.89 0.0199 5.78 0.0228 8.67 0.0093 2.07 0.0195 4.14 0.0304 6.21 0.0273 5.62 0.0425 11.2 0.0554 16.9 0.0156 5.88 0.0424 11.8 0.068 17.6 0.0468 11.1 0.0836 22.3 0.117 33.4 0.0382 12.7 0.0876 25.3 0.138 38 0.103 26.1 0.193 52.1 0.273 78.2 1.31 0.0376 1.31 0.0376 2.65 0.0759 3.23 0.0949 6.46 0.194 9.69 0.296 1.4 0.0434 2.8 0.0851 4.2 0.125 2.01 0.0576 4.02 0.122 6.02 0.186 1.81 0.055 1.81 0.055 3.67 0.111 2.78 0.205 2.78 0.205 3.78 1.21 0.0875 1.34 0.107 2.68 0.0977 4.01-0.0033 0.851-0.00661 1.7-0.01 2.58-0.0083 0.926-0.0166 1.85-0.0251 2.81-0.00568 1.42-0.00568 1.42-0.0115 2.87-0.0164 4.06-0.0445 8.13-0.0715 12.2-0.018 2.96-0.0302 5.92-0.042 8.88-0.0083 0.922-0.0166 1.84-0.0251 2.79-0.0033 0.857-0.00661 1.71-0.01 2.6-0.00786 1.13-0.00786 1.13-0.0159 2.29 0.0387 2.2 0.0387 2.2 1.11 4.99-1.32 0.33-2.64 0.66-4 1 0.66 0.33 1.32 0.66 2 1-3 1-3 1-6 0v3c-5.83 1.94-12.5 1.35-18.6 1.41-1.71 0.0214-3.43 0.0552-5.14 0.103-13.8 0.376-26.9-0.951-38-9.95-3.24-3.24-5.91-6.66-8.31-10.6v-3h-2c-0.739-7.07-1.15-14-1.13-21.2-0.00227-0.959-0.00453-1.92-0.00687-2.91-0.00628-3.18-0.00551-6.36-0.00469-9.54-3e-3 -2.29-0.0064-4.59-0.0102-6.88-0.0088-6.2-0.0112-12.4-0.0118-18.6-7.12e-4 -3.88-0.00285-7.75-0.0055-11.6-0.00876-12.8-0.0134-25.6-0.0127-38.5 5.99e-5 -1.03 5.99e-5 -1.03 1.21e-4 -2.09 6.13e-5 -1.04 6.13e-5 -1.04 1.24e-4 -2.09 4.08e-4 -11.2-0.00919-22.4-0.0233-33.6-0.0143-11.5-0.0211-23-0.0204-34.6 2.56e-4 -6.47-0.00263-12.9-0.0132-19.4-0.00964-6.07-0.00979-12.1-0.00248-18.2 0.00105-2.23-0.00135-4.47-0.00736-6.7-0.00765-3.04-0.00312-6.07 0.00463-9.11-0.00514-0.893-0.0103-1.79-0.0156-2.71 0.0458-8.05 0.0458-8.05 4.36-8.55zm41.9 5.24v14h1v-14h-1zm0 17 1 2zm0 4 1 2zm0 4 1 3zm0 5v16h1v-16h-1zm0 19 1 2zm0 12 1 2zm0 7 1 4zm1 16v25h1v-25h-1zm-1 25 1 2zm1 2v54h1v-54h-1zm-1 54 1 2zm0 8 1 3zm0 12v6h1v-6h-1zm0 10v14h1v-14h-1z" fill="#000100"/>
<path transform="translate(1137 182)" d="m0 0c1.59 0.0141 1.59 0.0141 3.22 0.0286 12 0.23 23.2 2.03 32.2 10.5 5.86 6.26 7.99 11.2 7.99 19.9 0.00241 0.682 0.00483 1.36 0.00732 2.07 0.00561 2.27-0.00301 4.55-0.0116 6.82 0.00107 1.63 0.00301 3.27 0.00575 4.9 0.00484 4.43-0.00279 8.86-0.013 13.3-0.00879 4.63-0.00702 9.27-0.00664 13.9-9.36e-4 7.77-0.00961 15.5-0.0233 23.3-0.0158 9-0.021 18-0.0203 27 6.09e-4 8.65-0.00449 17.3-0.0128 26-0.00354 3.69-0.00536 7.37-0.00589 11.1-1e-3 4.33-0.00708 8.67-0.0172 13-0.00293 1.59-0.00415 3.19-0.00357 4.78 4.87e-4 2.17-0.00513 4.33-0.0124 6.5-0.00168 1.22-0.00335 2.43-0.00508 3.68-0.129 2.7-0.129 2.7-1.13 3.7-4.57 0.416-9.16 0.518-13.8 0.688l-3.91 0.182c-1.86 0.0706-1.86 0.0706-3.77 0.143-1.14 0.046-2.28 0.092-3.46 0.139-4.14-0.2-6.92-1.38-10.4-3.59-3.43-0.701-3.85-0.0489-6.69 1.81-6.14 3.7-12.1 3.68-19.1 2.62-8.17-2.62-13.8-6.54-18-14-0.398-0.663-0.797-1.33-1.21-2.01-4.74-8.55-3.95-18.2-3.96-27.7-0.00333-1.31-0.00666-2.62-0.0101-3.97-0.00596-2.76-0.00784-5.51-0.00725-8.27 1.02e-4 -3.52-0.0136-7.05-0.0308-10.6-0.0138-3.38-0.0132-6.76-0.0144-10.1-0.00719-1.26-0.0144-2.52-0.0218-3.82 0.00308-1.18 0.00615-2.35 0.00932-3.56-0.00143-1.03-0.00285-2.06-0.00432-3.12 0.26-2.97 1.04-5.11 2.25-7.83 0.322-1.49 0.615-2.99 0.875-4.5 1.35-6.16 4.31-9.06 9.38-12.6 9.61-6.11 18.3-6.94 29.6-6.89 0.693 0.00141 1.39 0.00282 2.1 0.00427 1.7 0.00366 3.39 0.00926 5.09 0.0153 0.0247-6.21 0.0429-12.4 0.0549-18.6 0.00503-2.11 0.0119-4.23 0.0205-6.34 0.0121-3.04 0.0178-6.07 0.0222-9.11 0.00516-0.947 0.0103-1.89 0.0156-2.87 7.55e-5 -0.881 1.51e-4 -1.76 2.29e-4 -2.67 0.00222-0.775 0.00444-1.55 0.00673-2.35-0.0442-2.24-0.0442-2.24-1.12-5.03h-10c-0.0198 0.797-0.0396 1.59-0.0601 2.42-0.0953 3.61-0.205 7.22-0.315 10.8-0.0309 1.25-0.0619 2.51-0.0938 3.8-0.0387 1.21-0.0773 2.41-0.117 3.65-0.0314 1.11-0.0628 2.22-0.0952 3.36-0.307 2.82-0.862 4.53-2.32 6.93h2c-0.33 1.65-0.66 3.3-1 5-4.81 0.0494-9.61 0.0857-14.4 0.11-1.64 0.0101-3.27 0.0237-4.91 0.041-2.35 0.0242-4.7 0.0356-7.04 0.0444-1.1 0.0155-1.1 0.0155-2.22 0.0313-1.81 4.01e-4 -3.61-0.104-5.41-0.227-2.8-2.8-2.34-5.49-2.37-9.25-0.00903-0.726-0.0181-1.45-0.0274-2.2-0.0145-1.54-0.0234-3.09-0.0271-4.63-0.0118-2.33-0.0608-4.65-0.112-6.97-0.116-10.7 1.78-18.1 7.66-27.3 9.74-9.1 21.7-12.2 34.7-12.1zm-4.81 100c-0.154 7.57-0.303 15.1-0.443 22.7-0.0654 3.52-0.133 7.03-0.205 10.5-0.0832 4.05-0.157 8.1-0.231 12.1-0.027 1.25-0.0541 2.51-0.0819 3.8-0.217 8.46-0.217 8.46 0.961 16.8 2.68 2.31 4.29 2.95 7.81 3.19 1.08-0.0928 1.08-0.0928 2.19-0.188 1.91-3.17 2.16-5.11 1.62-8.75-0.111-0.799-0.222-1.6-0.336-2.42-0.143-0.905-0.143-0.905-0.289-1.83h2c0.0463-7.25 0.0819-14.5 0.104-21.7 0.0104-3.37 0.0246-6.73 0.0473-10.1 0.0242-3.87 0.0356-7.74 0.0444-11.6 0.0103-1.21 0.0206-2.42 0.0313-3.66 2.27e-4 -1.68 2.27e-4 -1.68 4.58e-4 -3.4 0.00444-0.988 0.00888-1.98 0.0135-2.99-0.0674-2.74-0.0674-2.74-2.24-5.49-4.4-0.733-7.17 0.999-11 3zm12 57 1 2z" fill="#000100"/>
<path transform="translate(104,131)" d="m0 0c0.99 0.495 0.99 0.495 2 1 0.0457 36.5 0.081 73.1 0.102 110 0.0025 4.31 0.00509 8.62 0.00773 12.9 5.25e-4 0.858 0.00105 1.72 0.00159 2.6 0.00871 13.9 0.0245 27.8 0.0429 41.7 0.0187 14.3 0.0298 28.5 0.0339 42.8 0.00275 8.8 0.0114 17.6 0.0277 26.4 0.0105 6.03 0.0138 12.1 0.0112 18.1-0.00129 3.48 7.41e-4 6.97 0.0114 10.5 0.00987 3.77 0.00759 7.54 0.0021 11.3 0.00583 1.11 0.0117 2.22 0.0177 3.37-0.00398 1-0.00796 2.01-0.0121 3.04 0.00114 1.31 0.00114 1.31 0.0023 2.64-0.248 2.09-0.248 2.09-2.25 4.09-5.55-4.61-10.4-9.46-15-15-0.654-0.742-1.31-1.48-1.98-2.25-30.4-35.4-45.3-82-45.1-128-0.00387-1.15-0.00773-2.3-0.0117-3.49l0.00391-3.35c0.00113-0.992 0.00226-1.98 0.00342-3.01 0.116-2.38 0.451-4.38 1.13-6.65h-2v-3h2l-0.0625-3.94c-0.0215-1.35-0.00898-2.71 0.0625-4.06l1-1c0.284-1.38 0.517-2.78 0.727-4.17 4.1-25.7 12.7-51.1 27.3-72.8 0.769-1.21 1.54-2.42 2.3-3.63 8.4-13.2 18.5-24.6 29.7-35.4z" fill="#000100"/>
<path transform="translate(785 202)" d="m0 0c1.25 6.87e-4 1.25 6.87e-4 2.52 0.00139 1.75 0.00301 3.5 0.0109 5.25 0.0233 2.69 0.0183 5.37 0.0205 8.06 0.0203 1.7 0.00491 3.4 0.0107 5.11 0.0176 0.805 0.00111 1.61 0.00223 2.44 0.00337 5.66 0.0485 5.66 0.0485 7.89 1.16v168h-44c-1.99-1.99-1.28-5.91-1.35-8.65-0.0232-0.768-0.0463-1.54-0.0702-2.33-0.0477-1.63-0.0929-3.26-0.136-4.89-0.0669-2.49-0.145-4.99-0.224-7.48-0.0449-1.58-0.0892-3.16-0.133-4.74-0.0239-0.747-0.0478-1.49-0.0724-2.26-0.0771-3.19-0.0301-5.6 0.986-8.65h-2c0.163-0.542 0.326-1.08 0.494-1.64 0.591-2.75 0.618-5.24 0.604-8.06-0.00326-1.16-0.00653-2.32-0.00989-3.51-0.00834-1.26-0.0167-2.53-0.0253-3.83-0.00477-1.34-0.00894-2.68-0.0126-4.03-0.00829-2.87-0.019-5.75-0.0316-8.62-0.0323-7.58-0.0445-15.2-0.0496-22.7-5.49e-4 -0.771-0.0011-1.54-0.00166-2.33-0.00627-16.3 0.218-32.6 0.533-48.9 0.024-1.24 0.048-2.49 0.0728-3.77 0.134-6.85 0.276-13.7 0.427-20.5 4.61-2.32 8.7-2.28 13.7-2.23zm-14.7 127 1 2z" fill="#000100"/>
<path transform="translate(168 103)" d="m0 0c1.02 0.157 2.04 0.315 3.1 0.477 3.37 1.07 4.74 2.06 6.84 4.9 0.854 3.97 1.13 7.77 1.13 11.8 0.00426 1.14 0.00853 2.28 0.0129 3.45-4.53e-4 1.24-9.06e-4 2.47-0.00137 3.75 0.00336 1.31 0.00672 2.63 0.0102 3.98 0.00881 3.59 0.0112 7.18 0.0118 10.8 7.12e-4 2.24 0.00285 4.48 0.0055 6.73 0.00924 7.82 0.0133 15.6 0.0125 23.5-6.02e-4 7.29 0.00998 14.6 0.0257 21.9 0.0131 6.27 0.0184 12.5 0.0178 18.8-2.55e-4 3.74 0.00261 7.48 0.0132 11.2 0.0115 4.17 0.00694 8.33 8.95e-4 12.5 0.00562 1.24 0.0112 2.48 0.017 3.76-0.00419 1.13-0.00839 2.26-0.0127 3.43 5.45e-4 0.985 0.00109 1.97 0.00165 2.98-0.249 2.46-0.249 2.46-2.25 5.46 0.33 0.99 0.66 1.98 1 3-2.05 2.25-3.01 3-6 4-2.21 0.0945-4.42 0.13-6.62 0.125-1.17 0.00258-2.34 0.00516-3.54 0.00781-2.84-0.133-2.84-0.133-3.84-1.13-0.162-2.34-0.259-4.65-0.314-6.99-0.0207-0.747-0.0413-1.49-0.0626-2.26-0.0671-2.54-0.125-5.08-0.182-7.62-0.0211-0.891-0.0421-1.78-0.0638-2.7-0.59-25.5-0.491-51.1-0.446-76.6 0.0104-6.55 0.0148-13.1 0.0198-19.6 0.0106-12.7 0.0273-25.4 0.0488-38.2 4.15-1.8 6.56-2.14 11.1-1.38zm8.94 11.4v5h1v-5h-1zm0 6v25h1v-25h-1zm0 27v9h1v-9h-1zm0 13v6h1v-6h-1zm0 7v9h1v-9h-1zm0 11v16h1v-16h-1zm0 28v19h1v-19h-1zm0 23v19h1v-19h-1z" fill="#040707"/>
<path transform="translate(1124,402)" d="m0 0c2.27-0.135 4.54-0.232 6.81-0.312 1.9-0.087 1.9-0.087 3.83-0.176 3.36 0.488 3.36 0.488 5.26 2.61 1.21 3.17 1.6 5.81 1.78 9.19 0.0986 1.6 0.0986 1.6 0.199 3.24 0.0374 0.808 0.0748 1.62 0.113 2.45h5c1.65-3.66 2.31-6.75 2.56-10.8 0.337-5.15 0.337-5.15 1.44-6.25 2.7-0.0732 5.37-0.0924 8.06-0.0625 0.759 0.00451 1.52 0.00902 2.3 0.0137 1.88 0.0118 3.76 0.0298 5.64 0.0488 0.813 3.56 1.13 6.86 1.13 10.5 0.00315 1.08 0.0063 2.16 0.00955 3.27-0.00202 1.15-0.00405 2.3-0.00613 3.49 9.57e-4 1.19 0.00191 2.38 0.0029 3.6 6.8e-4 2.51-0.00116 5.02-0.00534 7.52-0.00537 3.86-3.78e-5 7.71 0.00635 11.6-6.6e-4 2.43-0.00194 4.87-0.00391 7.3 0.00202 1.16 0.00405 2.32 0.00613 3.52-0.00473 1.6-0.00473 1.6-0.00955 3.23-7.96e-4 0.942-0.00159 1.88-0.00241 2.85-0.127 2.14-0.127 2.14-1.13 3.14-1.85 0.0723-3.71 0.0838-5.56 0.0625-1.01-0.00902-2.02-0.018-3.07-0.0273-1.17-0.0174-1.17-0.0174-2.37-0.0352-0.936-3.16-1.11-5.97-1.06-9.25 0.00902-0.892 0.018-1.78 0.0273-2.7 0.0116-0.675 0.0232-1.35 0.0352-2.05h-3c0.0116 0.927 0.0232 1.85 0.0352 2.81 0.00902 1.2 0.018 2.4 0.0273 3.63 0.0116 1.19 0.0232 2.39 0.0352 3.62-0.0977 2.94-0.0977 2.94-1.1 3.94-1.85 0.0723-3.71 0.0838-5.56 0.0625-1.01-0.00902-2.02-0.018-3.07-0.0273-1.17-0.0174-1.17-0.0174-2.37-0.0352-1.52-3.04-1.37-6.28-1.56-9.62-0.0432-0.706-0.0864-1.41-0.131-2.14-0.106-1.74-0.207-3.49-0.307-5.23-2.36 1.91-2.36 1.91-2.16 5.22 0.0322 1.27 0.0645 2.53 0.0977 3.84 0.054 2.31 0.083 4.62 0.0625 6.94-1 1-1 1-3.5 1.1-1.01-0.0116-2.02-0.0232-3.06-0.0352-1.01-0.00902-2.02-0.018-3.07-0.0273-1.17-0.0174-1.17-0.0174-2.37-0.0352-1.12-5.4-1.14-10.6-1.13-16.1-9.57e-4 -0.969-0.00191-1.94-0.0029-2.94-6.79e-4 -2.04 0.00115-4.09 0.00534-6.13 0.00534-3.11 5.34e-5 -6.21-0.00635-9.32 6.61e-4 -1.99 0.00194-3.99 0.00391-5.98-0.00202-0.919-0.00405-1.84-0.00613-2.78 0.0202-5.65 0.422-11.1 1.14-16.7z" fill="#000101"/>
<path transform="translate(740,401)" d="m0 0c2 2 2 2 2.25 4.44-0.00143 1.02-0.00285 2.05-0.00432 3.1 0.00461 1.74 0.00461 1.74 0.00932 3.51-0.00719 1.26-0.0144 2.51-0.0218 3.8-4.58e-4 1.28-9.16e-4 2.56-0.00139 3.89-0.00156 2.71-0.00986 5.43-0.0233 8.14-0.017 3.49-0.0208 6.97-0.0201 10.5-3.37e-4 3.32-0.00917 6.63-0.0178 9.95-0.00111 1.26-0.00223 2.51-0.00337 3.81-0.00638 1.15-0.0128 2.31-0.0193 3.5-0.00572 1.53-0.00572 1.53-0.0116 3.1-0.134 2.31-0.134 2.31-1.13 3.31-3.67 0.143-7.33 0.0422-11 0-0.33-4.62-0.66-9.24-1-14-1.49-0.495-1.49-0.495-3-1 0.0232 0.664 0.0464 1.33 0.0703 2.01 0.179 8.77 0.179 8.77-2.07 13h-9c-1.26-2.91-2-4.8-2-8-1.32-0.33-2.64-0.66-4-1 0.0206 1.3 0.0412 2.6 0.0625 3.94 0.0215 1.35 0.00898 2.71-0.0625 4.06-1 1-1 1-3.29 1.1-1.37-0.0174-1.37-0.0174-2.78-0.0352-0.919-0.00902-1.84-0.018-2.79-0.0273-0.71-0.0116-1.42-0.0232-2.15-0.0352-0.154-7.4-0.302-14.8-0.443-22.2-0.0657-3.43-0.133-6.87-0.205-10.3-0.0826-3.95-0.157-7.89-0.231-11.8-0.027-1.24-0.0541-2.47-0.0819-3.75-0.0201-1.14-0.0402-2.28-0.0609-3.46-0.02-1.01-0.04-2.02-0.0606-3.06 0.0823-2.4 0.0823-2.4 1.08-4.4 2.04-0.484 2.04-0.484 4.62-0.75 0.838-0.098 1.68-0.196 2.54-0.297 2.84 0.0469 2.84 0.0469 9.84 2.05 0.495 8.42 0.495 8.42 1 17 3.47-0.495 3.47-0.495 7-1 0.049-0.88 0.098-1.76 0.148-2.67 0.0748-1.16 0.15-2.32 0.227-3.52 0.0696-1.15 0.139-2.3 0.211-3.48 0.389-3.13 1.1-5.48 2.41-8.33 2.29-0.221 4.58-0.427 6.88-0.625 1.28-0.116 2.55-0.232 3.87-0.352 1.08-0.00773 2.15-0.0155 3.26-0.0234z" fill="#000100"/>
<path transform="translate(799,401)" d="m0 0c1.98 0.14 3.96 0.287 5.94 0.438 1.1 0.0812 2.2 0.162 3.34 0.246 2.72 0.316 2.72 0.316 3.72 1.32 0.099 1.81 0.128 3.61 0.129 5.42 0.00315 1.16 0.0063 2.32 0.00955 3.51-0.00202 1.26-0.00405 2.52-0.00613 3.82 9.57e-4 1.28 0.00191 2.57 0.0029 3.89 0.00148 2.72-6.76e-4 5.44-0.00534 8.16-0.0057 3.49-0.00242 6.99 0.00357 10.5 0.00447 3.32 0.00135 6.64-0.00113 9.97 0.00202 1.26 0.00405 2.52 0.00613 3.82-0.00473 1.74-0.00473 1.74-0.00955 3.51-7.96e-4 1.03-0.00159 2.05-0.00241 3.11-0.127 2.32-0.127 2.32-1.13 3.32-2.7 0.0732-5.37 0.0924-8.06 0.0625-1.14-0.00677-1.14-0.00677-2.3-0.0137-1.88-0.0118-3.76-0.0298-5.64-0.0488-1.35-2.7-1.34-5.12-1.56-8.12-0.0838-1.1-0.168-2.19-0.254-3.32-0.0606-0.843-0.121-1.69-0.184-2.55h-2c-0.33 4.62-0.66 9.24-1 14h-11c-0.829-3.31-1.13-5.61-1.13-8.95-0.00315-0.981-0.0063-1.96-0.00955-2.97 0.00202-1.05 0.00405-2.11 0.00613-3.19-9.57e-4 -1.09-0.00191-2.18-0.0029-3.3-6.8e-4 -2.3 0.00116-4.61 0.00534-6.91 0.00534-3.52 5.51e-5 -7.04-0.00635-10.6 6.61e-4 -2.24 0.00194-4.48 0.00391-6.72-0.00202-1.05-0.00405-2.1-0.00613-3.18 0.0155-4.84 0.116-9.44 1.14-14.2 2.4-0.0814 4.79-0.141 7.19-0.188 0.674-0.0251 1.35-0.0503 2.04-0.0762 4.48-0.0656 7.17 0.596 10.8 3.26v-4z" fill="#000100"/>
<path transform="translate(771,143)" d="m0 0h45v43l-4 1v-1h-40c-0.902-2.71-1.12-4.24-1.11-7.01 1.21e-4 -0.812 2.42e-4 -1.62 3.66e-4 -2.46 0.00512-0.848 0.0102-1.7 0.0155-2.57 0.00101-0.783 0.00201-1.57 0.00305-2.37 0.00523-2.92 0.0192-5.85 0.0321-8.77 0.0206-6.54 0.0412-13.1 0.0625-19.8z" fill="#000100"/>
<path transform="translate(1397 402)" d="m0 0c0.76-0.0374 1.52-0.0748 2.3-0.113 4.35-0.0681 5.88 0.0684 9.37 2.95 0.666 0.838 1.33 1.68 2.02 2.54 0.33 0.33 0.66 0.66 1 1 0.0935 1.69 0.117 3.38 0.114 5.07-7.55e-5 1.08-1.51e-4 2.16-2.29e-4 3.28-0.00516 1.18-0.0103 2.35-0.0156 3.56-0.00141 1.2-0.00283 2.39-0.00429 3.63-0.00562 3.84-0.0182 7.68-0.0309 11.5-0.00501 2.6-0.00958 5.19-0.0137 7.79-0.0111 6.38-0.0278 12.8-0.0488 19.1-1.92 0.0542-3.83 0.0929-5.75 0.125-1.07 0.0232-2.13 0.0464-3.23 0.0703-2.94-0.19-4.54-0.669-7.02-2.2-0.33 0.66-0.66 1.32-1 2-1.81 0.0269-3.62 0.0463-5.44 0.0625-1.01 0.0116-2.02 0.0232-3.06 0.0352-2.5-0.0977-2.5-0.0977-3.5-1.1-0.114-1.63-0.16-3.27-0.177-4.9-0.0128-1.04-0.0257-2.09-0.0389-3.17-0.00739-1.14-0.0148-2.28-0.0224-3.45-0.00807-1.16-0.0161-2.33-0.0245-3.52-0.0139-2.47-0.0246-4.94-0.0324-7.4-0.0172-3.78-0.0611-7.55-0.105-11.3-0.0101-2.39-0.0186-4.79-0.0254-7.18-0.0175-1.13-0.035-2.26-0.0531-3.43 0.0217-7.85 0.0217-7.85 2.38-11.8 3.88-3.35 7.49-3.09 12.4-3.18z" fill="#000100"/>
<path transform="translate(1290 402)" d="m0 0c0.931 0.0226 1.86 0.0451 2.82 0.0684 2.29 0.0587 4.58 0.141 6.87 0.244 0.474 0.969 0.949 1.94 1.44 2.94 1.26 2.87 1.26 2.87 2.56 4.06 0.152 1.95 0.222 3.92 0.25 5.88 0.0258 1.07 0.0516 2.14 0.0781 3.24-0.367 3.23-0.922 3.87-3.33 5.88v2c0.99 0.66 1.98 1.32 3 2 0.608 4.24 0.515 8.52 0.501 12.8-9.72e-4 2.12 0.0406 4.24 0.085 6.37 0.00521 1.35 0.0079 2.7 0.00781 4.04 0.00709 1.23 0.0142 2.46 0.0215 3.72-0.615 3.06-0.615 3.06-3.09 4.92-0.833 0.376-1.67 0.751-2.53 1.14-0.33 0.33-0.66 0.66-1 1-2.93 0.208-5.81 0.325-8.75 0.375-0.812 0.0374-1.62 0.0748-2.46 0.113-4.2 0.0616-6.25-0.132-9.83-2.52-2.43-3.69-2.67-6.63-2.52-10.9-0.011-0.69-0.0219-1.38-0.0332-2.09 0.0752-5.29 1.44-7.96 4.6-12-1.32-0.33-2.64-0.66-4-1-0.145-4.4-0.234-8.79-0.312-13.2-0.0419-1.25-0.0838-2.49-0.127-3.78-0.121-9.04-0.121-9.04 2.31-13.4 4.52-2.4 8.4-2.2 13.4-1.97z" fill="#000100"/>
<path transform="translate(1321 401)" d="m0 0c0.728 0.0058 1.46 0.0116 2.21 0.0176 0.746 0.0367 1.49 0.0735 2.26 0.111 0.746 0.00193 1.49 0.00387 2.26 0.00586 4.52 0.108 7.57 0.684 11.2 3.56 1.23 2.46 1.15 4.1 1.18 6.85 0.0128 1.01 0.0257 2.02 0.0389 3.05 0.00739 1.09 0.0148 2.19 0.0224 3.31 0.00807 1.12 0.0161 2.24 0.0245 3.39 0.0138 2.37 0.0246 4.74 0.0324 7.12 0.0172 3.63 0.0611 7.26 0.105 10.9 0.0101 2.3 0.0186 4.6 0.0254 6.91 0.0175 1.09 0.035 2.18 0.0531 3.3-0.00293 1.01-0.00585 2.03-0.00887 3.07 0.0088 1.34 0.0088 1.34 0.0178 2.7-0.646 3.18-2 4.38-4.49 6.4-3.3 0.814-6.61 0.649-10 0.625-0.902 0.0322-1.8 0.0645-2.73 0.0977-1.31 0.00193-1.31 0.00193-2.64 0.00391-0.791 0.00596-1.58 0.0119-2.4 0.0181-2.75-0.921-3.99-2.28-5.46-4.76-1.6-4.13-1.35-8.48-1.33-12.9-0.0062-1.04-0.0124-2.09-0.0188-3.16-0.00709-2.2-0.00395-4.4 0.00877-6.6 0.0139-3.36-0.0202-6.71-0.0583-10.1-9.51e-4 -2.14 9.08e-4 -4.28 0.00586-6.42-0.0199-1.5-0.0199-1.5-0.0402-3.03 0.0597-4.48 0.155-7.84 2.96-11.5 3.57-3.11 3.57-3.11 6.74-3.05z" fill="#000100"/>
<path transform="translate(1433 401)" d="m0 0c0.694 0.0148 1.39 0.0296 2.1 0.0449 3.97 0.147 7.33 0.62 10.8 2.52 2.53 3.79 2.22 6.81 2.12 11.2-0.00902 0.75-0.018 1.5-0.0273 2.27-0.0235 1.85-0.0594 3.69-0.0977 5.54-1.65 0.33-3.3 0.66-5 1v3c1.65 0.33 3.3 0.66 5 1 0.124 4.2 0.214 8.4 0.275 12.6 0.0251 1.43 0.0592 2.86 0.103 4.28 0.0608 2.06 0.089 4.11 0.111 6.17 0.0262 1.24 0.0524 2.47 0.0793 3.75-0.568 3.21-0.568 3.21-2.83 5.6-5.97 3.5-14.1 2.74-20.7 1.61-2.76-1.19-3.74-1.99-5.29-4.52-1.55-5.38-1.61-11-0.715-16.5 1.47-1.73 1.47-1.73 3-3 0.33-0.99 0.66-1.98 1-3-1.32-0.66-2.64-1.32-4-2-0.175-3.85-0.281-7.71-0.375-11.6-0.0503-1.09-0.101-2.17-0.152-3.29-0.0938-5.14-0.12-9.16 3.05-13.4 3.45-3.33 6.9-3.65 11.5-3.32z" fill="#000100"/>
<path transform="translate(865 401)" d="m0 0c1.2-0.0358 1.2-0.0358 2.42-0.0723 0.778 0.00193 1.56 0.00387 2.36 0.00586 1.05-0.00109 1.05-0.00109 2.13-0.0022 3.64 1.07 4.95 2.54 7.16 5.63 0.732 3.84 0.677 7.61 0.629 11.5 0.00241 1.12 0.00482 2.23 0.00731 3.38-9.78e-4 2.35-0.0144 4.71-0.0393 7.06-0.0343 3.61-0.0206 7.21-0.00122 10.8-0.0069 2.29-0.0166 4.58-0.0293 6.87 0.00496 1.08 0.00992 2.16 0.015 3.27-0.0158 1-0.0317 2.01-0.048 3.04-0.0062 0.882-0.0124 1.76-0.0188 2.67-0.681 3.15-2.05 4.37-4.51 6.38-2.13 0.518-2.13 0.518-4.41 0.531-1.24 0.00773-1.24 0.00773-2.5 0.0156-0.855-0.0155-1.71-0.0309-2.59-0.0469-0.855 0.0155-1.71 0.0309-2.59 0.0469-3.87-0.0241-6.19-0.0582-9.44-2.27-2.7-4.19-2.6-8.61-2.6-13.5-0.00226-1.2-0.00451-2.4-0.00684-3.64 0.00483-1.27 0.00967-2.54 0.0146-3.85 0.00483-1.3 0.00967-2.59 0.0146-3.93 0.0236-3.8 0.062-7.59 0.11-11.4 0.0189-1.51 0.0189-1.51 0.0381-3.05 0.0441-2.5 0.119-5.01 0.212-7.51 0.014-0.712 0.028-1.42 0.0425-2.16 0.152-3.05 0.592-5.09 2.2-7.71 3.75-2.35 7.11-2.19 11.4-2.13z" fill="#000100"/>
<path transform="translate(1211,402)" d="m0 0h23c5.65 6.59 6.97 8.28 6.69 16.1 0.0148 0.785 0.0296 1.57 0.0449 2.38-0.0619 4.32-0.175 5.92-3.28 9.13-0.811 0.78-1.62 1.56-2.46 2.36-0.854 7.28 0.862 14.8 3.28 21.7 0.719 2.28 0.719 2.28 1.72 8.28h-29v-60z" fill="#000100"/>
<path transform="translate(1511,402)" d="m0 0c3.62-0.0289 7.25-0.0468 10.9-0.0625 1.55-0.0126 1.55-0.0126 3.13-0.0254 0.986-0.00322 1.97-0.00645 2.99-0.00977 1.37-0.00786 1.37-0.00786 2.76-0.0159 2.25 0.114 2.25 0.114 4.25 1.11 2.46 5.37 2.31 10.7 2.3 16.4 0.00429 0.998 0.00857 2 0.013 3.03 0.00573 2.1 0.00626 4.21 0.00191 6.31-0.00316 3.21 0.0203 6.42 0.0457 9.64 0.00227 2.05 0.00298 4.1 0.00195 6.15 0.00921 0.956 0.0184 1.91 0.0279 2.9-0.0363 5.25-0.39 9.03-3.39 13.5-2.44 1.22-4.03 1.13-6.75 1.13-0.937 0.00129-1.87 0.00258-2.84 0.00391-0.98-0.00387-1.96-0.00773-2.97-0.0117-1.48 0.0058-1.48 0.0058-2.98 0.0117-0.935-0.00129-1.87-0.00258-2.83-0.00391-0.862-0.00113-1.72-0.00226-2.61-0.00342-2.01-0.129-2.01-0.129-3.01-1.13-0.0987-1.63-0.128-3.26-0.129-4.88-0.00315-1.04-0.0063-2.08-0.00955-3.16 0.00202-1.14 0.00405-2.27 0.00613-3.44-9.57e-4 -1.16-0.00191-2.32-0.0029-3.52-6.82e-4 -2.46 0.00118-4.93 0.00534-7.39 0.00532-3.76 6.92e-5 -7.53-0.00635-11.3 6.61e-4 -2.39 0.00194-4.78 0.00391-7.17-0.00202-1.13-0.00405-2.25-0.00613-3.41 0.015-5.02 0.0578-9.81 1.14-14.7z" fill="#000100"/>
<path transform="translate(1348,402)" d="m0 0c3.75-0.116 7.5-0.187 11.2-0.25 1.06-0.0335 2.13-0.067 3.22-0.102 1.02-0.0129 2.05-0.0258 3.11-0.0391 1.41-0.0314 1.41-0.0314 2.86-0.0635 3.34 0.592 4.48 1.83 6.57 4.45 2.47 7.41 1.2 16.4 0 24-0.99 0.33-1.98 0.66-3 1 0.114 2.25 0.242 4.5 0.375 6.75 0.0696 1.25 0.139 2.51 0.211 3.8 0.383 3.19 0.981 4.69 2.41 7.45 0.449 2.98 0.449 2.98 0.688 6.19 0.0864 1.07 0.173 2.13 0.262 3.23 0.0168 0.852 0.0335 1.7 0.0508 2.58-1 1-1 1-3.47 1.13-1.5-0.00387-1.5-0.00387-3.03-0.00781-1 0.00258-2 0.00516-3.03 0.00781-2.47-0.133-2.47-0.133-3.47-1.13-0.281-2.32-0.448-4.64-0.621-6.97-0.125-0.67-0.25-1.34-0.379-2.03-0.66-0.33-1.32-0.66-2-1v11c-1.98 0.0269-3.96 0.0463-5.94 0.0625-1.1 0.0116-2.2 0.0232-3.34 0.0352-2.72-0.0977-2.72-0.0977-3.72-1.1-0.0986-1.59-0.128-3.18-0.129-4.78-0.00315-1.02-0.0063-2.04-0.00955-3.09 0.00202-1.11 0.00405-2.22 0.00613-3.36-9.57e-4 -1.14-0.00191-2.27-0.0029-3.44-6.82e-4 -2.41 0.00118-4.83 0.00534-7.24 0.00532-3.68 7.22e-5 -7.36-0.00635-11 6.61e-4 -2.34 0.00194-4.68 0.00391-7.03-0.00202-1.1-0.00405-2.2-0.00613-3.33 0.0162-5.34 0.198-10.4 1.14-15.7z" fill="#000100"/>
<path transform="translate(667 402)" d="m0 0c16.5 0.0412 16.5 0.0412 19.6 3.13 1.07 3.12 1.12 6.04 1.11 9.32-7.55e-5 1.06-1.51e-4 2.12-2.29e-4 3.21-0.00516 1.14-0.0103 2.28-0.0156 3.45-0.00141 1.17-0.00283 2.34-0.00429 3.55-0.0056 3.74-0.0181 7.48-0.0309 11.2-0.00502 2.54-0.00958 5.07-0.0137 7.61-0.011 6.21-0.0283 12.4-0.0488 18.6h-11c-0.495-1.49-0.495-1.49-1-3h-4v3h-11c-0.0743-7.28-0.129-14.6-0.165-21.8-0.0151-2.47-0.0355-4.95-0.0615-7.42-0.0365-3.56-0.0534-7.12-0.0667-10.7-0.0155-1.1-0.031-2.2-0.0469-3.34-0.00131-6.04 0.413-10.4 3.34-15.7 1-1 1-1 3.44-1.13zm3.56 55.1 1 2z" fill="#000100"/>
<path transform="translate(1065 402)" d="m0 0c1.22-0.00258 2.44-0.00516 3.7-0.00781 3.05 0.133 3.05 0.133 5.05 1.13 3.5 6.17 3.41 11.8 3.33 18.8-0.00187 1.12-0.00375 2.24-0.00568 3.39-0.0067 2.36-0.0206 4.71-0.0412 7.06-0.0313 3.62-0.041 7.24-0.0469 10.9-0.00916 2.29-0.0195 4.58-0.0312 6.87-0.00425 1.09-0.0085 2.18-0.0129 3.3-0.00961 0.998-0.0192 2-0.0291 3.03-0.00683 0.883-0.0137 1.77-0.0207 2.67-0.14 2.01-0.14 2.01-1.14 3.01-2.21 0.203-2.21 0.203-4.94 0.25-0.896 0.0258-1.79 0.0516-2.71 0.0781-0.775-0.108-1.55-0.217-2.35-0.328-0.66-0.99-1.32-1.98-2-3-0.99-0.33-1.98-0.66-3-1-0.33 1.32-0.66 2.64-1 4h-10c-0.0494-7.6-0.0857-15.2-0.11-22.8-0.0101-2.58-0.0237-5.17-0.041-7.75-0.0243-3.72-0.0356-7.43-0.0444-11.1-0.0103-1.16-0.0206-2.31-0.0313-3.5-1.51e-4 -1.08-3.02e-4 -2.16-4.58e-4 -3.27-0.00444-0.948-0.00888-1.9-0.0135-2.87 0.265-2.93 0.88-5.05 2.24-7.65 4.32-1.3 8.76-1.13 13.2-1.12zm-5.25 54.1 1 2z" fill="#000100"/>
<path transform="translate(994 402)" d="m0 0c0.719 0.0187 1.44 0.0374 2.18 0.0566 2.09 0.111 2.09 0.111 5.57 0.756 2.18 3.08 2.24 5.81 2.23 9.5-1.51e-4 1.1-3.02e-4 2.2-4.58e-4 3.34-0.0103 1.18-0.0206 2.36-0.0313 3.58-0.00283 1.22-0.00566 2.43-0.00858 3.68-0.0112 3.88-0.0363 7.76-0.0617 11.6-0.01 2.63-0.0192 5.26-0.0273 7.89-0.0221 6.45-0.0566 12.9-0.0977 19.4h-10c-0.33-0.99-0.66-1.98-1-3h-3c-0.66 0.99-1.32 1.98-2 3-2.6 0.293-2.6 0.293-5.62 0.188-1.5-0.0406-1.5-0.0406-3.04-0.082-0.771-0.0348-1.54-0.0696-2.34-0.105-0.0762-7.44-0.129-14.9-0.165-22.3-0.0151-2.53-0.0355-5.06-0.0615-7.59-0.0364-3.64-0.0534-7.28-0.0667-10.9-0.0155-1.13-0.031-2.26-0.0469-3.42-0.00216-10.1-0.00216-10.1 3.34-14.8 4.57-1.52 9.48-1.07 14.2-0.812zm-6.25 54.8 1 2z" fill="#000100"/>
<path transform="translate(1176,402)" d="m0 0h25c0.99 2.97 1.98 5.94 3 9 0.33 0.66 0.66 1.32 1 2 0.245 4.22 0.185 8.46 0.188 12.7 0.0122 1.17 0.0245 2.34 0.0371 3.55 0.0125 7.37-0.341 13.1-3.72 19.7-3.84 3.17-7.71 2.47-12.5 2.06 0.0116 0.71 0.0232 1.42 0.0352 2.15 0.0135 1.38 0.0135 1.38 0.0273 2.79 0.0116 0.917 0.0232 1.83 0.0352 2.78-0.0977 2.29-0.0977 2.29-1.1 3.29-2 0.0987-4 0.13-6 0.125-1.09 0.00258-2.19 0.00516-3.31 0.00781-2.69-0.133-2.69-0.133-3.69-1.13-0.0989-1.77-0.128-3.54-0.129-5.31-0.00315-1.13-0.0063-2.27-0.00955-3.44 0.00202-1.24 0.00405-2.47 0.00613-3.74-9.57e-4 -1.26-0.00191-2.52-0.0029-3.82-6.82e-4 -2.67 6.77e-4 -5.34 0.00534-8.01 0.00569-3.42 0.00242-6.85-0.00357-10.3-0.00448-3.26-0.00134-6.52 0.00113-9.78-0.00202-1.23-0.00405-2.47-0.00613-3.74 0.00315-1.14 0.0063-2.28 0.00955-3.45 7.96e-4 -1.01 0.00159-2.01 0.00241-3.05 0.127-2.4 0.127-2.4 1.13-4.4z" fill="#000100"/>
<path transform="translate(1017 402)" d="m0 0c19.3 0.0451 19.3 0.0451 22.4 3.13 1.23 4.25 1.15 8.55 1.12 12.9 0.0058 1.04 0.0058 1.04 0.0117 2.09-0.00774 4.09-0.109 8.01-1.14 12-0.99 0.66-1.98 1.32-3 2 0.217 0.681 0.433 1.36 0.656 2.06 2.53 8.79 2.65 16.9 2.34 25.9-1.44 0.0813-2.87 0.139-4.31 0.188-1.2 0.0522-1.2 0.0522-2.43 0.105-2.79-0.361-3.42-1.25-5.26-3.29-0.99-0.33-1.98-0.66-3-1-0.33 1.32-0.66 2.64-1 4-1.48 0.0269-2.96 0.0463-4.44 0.0625-0.824 0.0116-1.65 0.0232-2.5 0.0352-2.07-0.0977-2.07-0.0977-3.07-1.1-0.099-1.81-0.128-3.61-0.129-5.42-0.00315-1.16-0.0063-2.32-0.00955-3.51 0.00202-1.26 0.00405-2.52 0.00613-3.82-0.00144-1.93-0.00144-1.93-0.0029-3.89-0.00148-2.72 6.76e-4 -5.44 0.00534-8.16 0.0057-3.49 0.00242-6.99-0.00357-10.5-0.00447-3.32-0.00135-6.64 0.00113-9.97-0.00202-1.26-0.00405-2.52-0.00613-3.82 0.00315-1.16 0.0063-2.32 0.00955-3.51 0.00119-1.54 0.00119-1.54 0.00241-3.11 0.18-3.29 0.406-3.28 3.72-3.45zm6.41 54.1 1 2z" fill="#000100"/>
<path transform="translate(1499,403)" d="m0 0c3.54 7.09 2.1 18.8 1.16 26.4-0.166 2.74 0.262 4.91 0.844 7.59 0.197 3.67 0.103 7.33 0 11-0.0425 1.64-0.0425 1.64-0.0859 3.31-0.0541 1.07-0.108 2.14-0.164 3.25-0.0696 1.49-0.0696 1.49-0.141 3-0.609 2.43-0.609 2.43-2.16 3.76-3.48 0.959-6.87 0.965-10.5 0.926-1.07 0.0116-1.07 0.0116-2.16 0.0234-7.03-0.0262-7.03-0.0262-9.84-2.27-1.99-3.69-2.48-7.36-2.88-11.5-0.121-1.1-0.242-2.21-0.367-3.34 0.299-3.89 1.59-5.39 4.24-8.16-0.712-0.619-0.712-0.619-1.44-1.25-1.83-2.04-2.48-3-2.56-5.75 1.94-2.75 1.94-2.75 4-5-0.487-0.365-0.975-0.73-1.48-1.11-3.21-3.99-1.93-10-1.52-14.9 0.938-3.75 0.938-3.75 3-6 7.08-1.71 14.8-1.23 22 0z" fill="#000100"/>
<path transform="translate(954 402)" d="m0 0c1-0.0541 2.01-0.108 3.04-0.164 7.25-0.135 7.25-0.135 9.99 2.15 2.98 4.07 4.36 7.89 4.34 12.9 0.00387 1.14 0.00387 1.14 0.00781 2.31-0.133 2.25-0.133 2.25-0.766 4.16-0.574 2.24-0.574 2.24 0.645 4.86 1.21 3.96 0.685 6.98-0.199 10.9-0.19 0.995-0.19 0.995-0.385 2.01-0.758 3.6-1.42 6.07-4.43 8.3-3.2 1.99-6.29 2.49-10 3-0.33 3.3-0.66 6.6-1 10-1.98 0.0269-3.96 0.0463-5.94 0.0625-1.1 0.0116-2.2 0.0232-3.34 0.0352-2.72-0.0977-2.72-0.0977-3.72-1.1-0.099-1.81-0.128-3.61-0.129-5.42-0.00315-1.16-0.0063-2.32-0.00955-3.51 0.00202-1.26 0.00405-2.52 0.00613-3.82-0.00144-1.93-0.00144-1.93-0.0029-3.89-0.00148-2.72 6.76e-4 -5.44 0.00534-8.16 0.0057-3.49 0.00242-6.99-0.00357-10.5-0.00447-3.32-0.00135-6.64 0.00113-9.97-0.00202-1.26-0.00405-2.52-0.00613-3.82 0.00315-1.16 0.0063-2.32 0.00955-3.51 0.00119-1.54 0.00119-1.54 0.00241-3.11 0.303-5.53 7.58-3.72 11.9-3.82z" fill="#000100"/>
<path transform="translate(907 402)" d="m0 0c0.684 0.0522 1.37 0.104 2.07 0.158 1.66 0.128 3.33 0.265 4.99 0.404 1.63 4.32 2.32 8.01 2.38 12.6 0.0284 1.11 0.0567 2.21 0.0859 3.35-0.552 3.62-1.66 4.76-4.46 7.02l4 2c0.0583 4.37 0.0937 8.75 0.125 13.1 0.0168 1.24 0.0335 2.48 0.0508 3.75 0.00645 1.2 0.0129 2.4 0.0195 3.63 0.0105 1.1 0.0209 2.2 0.0317 3.33-0.244 3.4-0.848 6.04-2.23 9.16-3.82 1.27-7.45 1.26-11.4 1.31-0.764 0.029-1.53 0.058-2.31 0.0879-3.52 0.0399-5.67-0.0657-8.76-1.86-2.22-3.79-1.99-7.17-1.86-11.5 0.00129-0.799 0.00258-1.6 0.00391-2.42 0.0642-4.31 0.391-7.72 2.37-11.6h-2c-0.058-4.58-0.0936-9.17-0.125-13.8-0.0168-1.3-0.0335-2.6-0.0508-3.95-0.00645-1.25-0.0129-2.5-0.0195-3.79-0.0105-1.15-0.0209-2.3-0.0317-3.49 0.222-2.96 0.501-4.63 2.23-7.02 5.04-1.25 9.79-0.972 14.9-0.562z" fill="#000100"/>
<path transform="translate(1253 401)" d="m0 0c1.63 0.0239 3.27 0.0744 4.9 0.148 0.828 0.0142 1.66 0.0284 2.51 0.043 6.06 0.148 6.06 0.148 8.43 1.33-0.33 2.31-0.66 4.62-1 7-5.75 2-5.75 2-8 2v13h6c1.94 1.06 1.94 1.06 3 3-0.312 3.69-0.312 3.69-1 7-2.31 0.66-4.62 1.32-7 2v15c1.11 0.371 2.23 0.743 3.38 1.12 3.24 1.35 3.52 1.64 5.06 5.06 0.186 0.928 0.371 1.86 0.562 2.81-2.44 1.22-4.03 1.13-6.75 1.13-0.937 0.00129-1.87 0.00258-2.84 0.00391-0.98-0.00387-1.96-0.00773-2.97-0.0117-1.48 0.0058-1.48 0.0058-2.98 0.0117-0.935-0.00129-1.87-0.00258-2.83-0.00391-0.862-0.00113-1.72-0.00226-2.61-0.00342-2.01-0.129-2.01-0.129-3.01-1.13-0.0997-1.9-0.131-3.81-0.133-5.71-0.00129-1.16-0.00258-2.32-0.00391-3.52 0.0058-1.83 0.0058-1.83 0.0117-3.71-0.0058-1.83-0.0058-1.83-0.0117-3.69 0.00129-1.16 0.00258-2.32 0.00391-3.52 0.00113-1.07 0.00226-2.14 0.00342-3.25 0.129-2.6 0.129-2.6 1.13-4.6 0.159-1.92 0.159-1.92 0.125-4 0.00258-0.701 0.00516-1.4 0.00781-2.12-0.019-1.97-0.019-1.97-1.13-3.88-0.151-2.62-0.231-5.19-0.25-7.81-0.0206-0.712-0.0412-1.42-0.0625-2.16-0.0238-3.21 0.288-5.95 1.26-9.02 2.37-2.33 3.01-2.36 6.21-2.54z" fill="#000100"/>
<path transform="translate(750,402)" d="m0 0h20c0.959 3.84 0.919 5.32 0 9-1.98 0.66-3.96 1.32-6 2-0.33 3.96-0.66 7.92-1 12h6c1 1 1 1 1.1 3.29-0.0116 0.917-0.0232 1.83-0.0352 2.78-0.00902 0.919-0.018 1.84-0.0273 2.79-0.0116 0.71-0.0232 1.42-0.0352 2.15-2.97 0.495-2.97 0.495-6 1v15c1.98 0.66 3.96 1.32 6 2 0.381 2.33 0.713 4.66 1 7-0.33 0.33-0.66 0.66-1 1h-20v-60z" fill="#000100"/>
<path transform="translate(820,400)" d="m0 0 2 1c1.65 0.14 3.31 0.226 4.97 0.281 1.47 0.0561 1.47 0.0561 2.97 0.113 2.08 0.0704 4.16 0.141 6.24 0.211 1.47 0.0561 1.47 0.0561 2.97 0.113 0.904 0.0303 1.81 0.0606 2.74 0.0918 2.1 0.189 2.1 0.189 3.1 1.19-0.0972 2.92-0.198 5.23-1 8-0.846 0.763-1.69 1.53-2.56 2.31-3.33 3.67-2.85 6.27-2.61 11.1 0.058 0.865 0.116 1.73 0.176 2.62 0 3.62-0.211 7.14-0.5 10.8-0.139 1.76-0.139 1.76-0.281 3.55-0.0722 0.892-0.144 1.78-0.219 2.7h2v2h-2c0.141 1.63 0.288 3.25 0.438 4.88 0.0812 0.905 0.162 1.81 0.246 2.74 0.186 2.39 0.186 2.39 1.32 4.38-0.938 2-0.938 2-3 4-3.75 0.529-7.57 0.716-11-1v-49c-2.97-0.495-2.97-0.495-6-1-0.195-1.46-0.381-2.92-0.562-4.38-0.104-0.812-0.209-1.62-0.316-2.46-0.121-2.16-0.121-2.16 0.879-4.16z" fill="#000100"/>
<path transform="translate(1106 402)" d="m0 0c1.09 0.00258 2.19 0.00516 3.31 0.00781 1.09-0.00258 2.19-0.00516 3.31-0.00781 2.69 0.133 2.69 0.133 3.69 1.13 0.0938 1.84 0.117 3.69 0.114 5.53-7.55e-5 1.18-1.51e-4 2.36-2.29e-4 3.58-0.00516 1.29-0.0103 2.57-0.0156 3.9-0.00141 1.31-0.00283 2.62-0.00429 3.96-0.00382 3.48-0.0137 6.97-0.0247 10.5-0.0102 3.55-0.0148 7.1-0.0198 10.7-0.0107 6.97-0.0278 13.9-0.0488 20.9-2.15 0.0269-4.29 0.0463-6.44 0.0625-1.19 0.0116-2.39 0.0232-3.62 0.0352-2.94-0.0977-2.94-0.0977-3.94-1.1-0.099-1.81-0.128-3.61-0.129-5.42-0.00315-1.16-0.0063-2.32-0.00955-3.51 0.00202-1.26 0.00405-2.52 0.00613-3.82-0.00144-1.93-0.00144-1.93-0.0029-3.89-0.00148-2.72 6.76e-4 -5.44 0.00534-8.16 0.0057-3.49 0.00242-6.99-0.00357-10.5-0.00447-3.32-0.00135-6.64 0.00113-9.97-0.00202-1.26-0.00405-2.52-0.00613-3.82 0.00315-1.16 0.0063-2.32 0.00955-3.51 0.00119-1.54 0.00119-1.54 0.00241-3.11 0.183-3.35 0.438-3.28 3.81-3.45z" fill="#000100"/>
<path transform="translate(586,402)" d="m0 0h20c1 5 1 5 0.5 7.19-2.3 2.78-5.07 3.05-8.5 3.81v14c2.64 0.33 5.28 0.66 8 1 0.625 1.81 0.625 1.81 1 4-0.66 0.99-1.32 1.98-2 3-2.64 0.33-5.28 0.66-8 1v26h-10c-1-1-1-1-1.12-3.36 0.00222-1.05 0.00444-2.09 0.00673-3.17 7.55e-5 -1.18 1.51e-4 -2.36 2.29e-4 -3.58 0.00516-1.29 0.0103-2.57 0.0156-3.9 0.00141-1.31 0.00283-2.62 0.00429-3.96 0.00382-3.48 0.0137-6.97 0.0247-10.5 0.0102-3.55 0.0148-7.1 0.0198-10.7 0.0107-6.97 0.0283-13.9 0.0488-20.9z" fill="#000100"/>
<path transform="translate(635,402)" d="m0 0c1.65-0.0269 3.29-0.0463 4.94-0.0625 0.917-0.0116 1.83-0.0232 2.78-0.0352 2.29 0.0977 2.29 0.0977 3.29 1.1 0.0933 1.57 0.117 3.14 0.114 4.7-7.55e-5 1-1.51e-4 2-2.29e-4 3.03-0.00516 1.09-0.0103 2.18-0.0156 3.3-0.00141 1.11-0.00283 2.22-0.00429 3.36-0.00562 3.56-0.0182 7.11-0.0309 10.7-0.00501 2.4-0.00958 4.81-0.0137 7.21-0.0111 5.91-0.0278 11.8-0.0488 17.7 0.953 0.138 1.91 0.276 2.89 0.418 3.26 0.609 4.24 0.926 6.11 3.58 0.75 2.12 0.75 2.12 1 4-1 1-1 1-3.04 1.11-1.31-0.00786-1.31-0.00786-2.65-0.0159-0.944-0.00322-1.89-0.00645-2.86-0.00977-0.993-0.00838-1.99-0.0168-3.01-0.0254-0.997-0.00451-1.99-0.00902-3.02-0.0137-2.47-0.0118-4.94-0.0283-7.42-0.0488-0.0231-7.53-0.0409-15.1-0.0518-22.6-0.00522-3.5-0.0123-6.99-0.0236-10.5-0.0129-4.02-0.0178-8.03-0.0222-12-0.00516-1.26-0.0103-2.52-0.0156-3.81-7.55e-5 -1.16-1.51e-4 -2.32-2.29e-4 -3.52-0.00222-1.03-0.00444-2.05-0.00673-3.11 0.12-2.44 0.12-2.44 1.12-4.44z" fill="#000100"/>
<path transform="translate(239 390)" d="m0 0c2.44 0.5 2.44 0.5 4.07 2.14 1.77 3.06 1.69 5.11 1.62 8.63-0.0213 1.83-0.0213 1.83-0.043 3.69-0.0296 1.27-0.0593 2.54-0.0898 3.85-0.0436 2.51-0.0828 5.01-0.117 7.52-0.0243 1.11-0.0487 2.22-0.0737 3.37 0.07 3.51 0.548 6.84 1.07 10.3-0.0571 2.42-0.182 4.84-0.375 7.25-0.0902 1.2-0.18 2.4-0.273 3.64-0.352 3.11-0.352 3.11-1.35 6.11 0.0927 2.07 0.0927 2.07 0.438 4.19 0.186 1.26 0.371 2.52 0.562 3.81-2.69 1.69-2.69 1.69-6 3-2.99-1.26-4.54-2.07-6-5-0.111-1.83-0.159-3.66-0.177-5.49-0.0128-1.15-0.0257-2.3-0.0389-3.48-0.00739-1.25-0.0148-2.49-0.0224-3.78-0.00807-1.28-0.0161-2.55-0.0245-3.86-0.0139-2.7-0.0249-5.4-0.0324-8.11-0.0111-3.46-0.0455-6.92-0.0852-10.4-0.0324-3.3-0.0369-6.6-0.0454-9.9-0.0263-1.86-0.0263-1.86-0.0531-3.76 0.00293-1.15 0.00585-2.31 0.00887-3.5-0.00587-1.02-0.0117-2.03-0.0178-3.08 0.763-4.18 2.89-6.36 7.05-7.17z" fill="#010303"/>
<path transform="translate(615,402)" d="m0 0c7.88 0 7.88 0 11 1 1.43 12.3 0.894 24.5 0.562 36.8-0.0533 2.16-0.106 4.31-0.158 6.47-0.128 5.24-0.264 10.5-0.404 15.7h-11v-60z" fill="#000100"/>
<path transform="translate(1471,181)" d="m0 0c-0.33 51.2-0.66 102-1 155-0.33-0.66-0.66-1.32-1-2h-2c-0.07-19.5-0.123-39-0.155-58.5-0.0155-9.06-0.0366-18.1-0.0709-27.2-0.0299-7.89-0.0492-15.8-0.0559-23.7-0.00392-4.18-0.0131-8.36-0.0349-12.5-0.0203-3.93-0.0267-7.86-0.0221-11.8-8.27e-4 -1.45-0.00682-2.89-0.0183-4.34-0.0149-1.97-0.00956-3.94-0.00315-5.91-0.00277-1.1-0.00553-2.21-0.00838-3.34 0.369-2.71 0.369-2.71 1.83-4.59 1.54-1.12 1.54-1.12 2.54-1.12z" fill="#34454B"/>
<path transform="translate(1520 194)" d="m0 0c0.727 0.0431 1.45 0.0862 2.2 0.131 5.08 0.355 5.08 0.355 7.36 1.49v146h-1c-0.0251-0.873-0.0501-1.75-0.0759-2.65-0.0949-3.23-0.194-6.46-0.296-9.69-0.0434-1.4-0.0851-2.8-0.125-4.2-0.0576-2.01-0.122-4.02-0.186-6.02-0.055-1.81-0.055-1.81-0.111-3.67 0.105-2.68 0.105-2.68-1.21-3.78-0.0953-3.14-0.126-6.25-0.114-9.39-1.46e-4 -0.985-2.92e-4 -1.97-4.43e-4 -2.99 7e-4 -3.27 0.00849-6.55 0.0163-9.82 0.00186-2.26 0.00329-4.53 0.00429-6.79 0.00383-5.97 0.0137-11.9 0.0247-17.9 0.0102-6.09 0.0148-12.2 0.0198-18.3 0.0107-12 0.0278-23.9 0.0488-35.9h2c-0.33-4.29-0.66-8.58-1-13h-38c1.32-0.33 2.64-0.66 4-1v-2c8.85-0.72 17.6-1.16 26.4-0.625z" fill="#34454B"/>
<path transform="translate(876,175)" d="m0 0h2v193h-2c-1.26-17.2-1.15-34.4-1.13-51.6 0.00257-4.23 1.74e-4 -8.47-0.00139-12.7-0.00181-7.1 5.5e-4 -14.2 0.00534-21.3 0.00544-8.16 0.00368-16.3-0.00183-24.5-0.00457-7.06-0.00516-14.1-0.00256-21.2 0.00154-4.19 0.00181-8.39-0.00154-12.6-0.0231-33.3-0.0231-33.3 1.14-49.1z" fill="#34454B"/>
<path transform="translate(1e3 183)" d="m0 0h1c0.33 51.5 0.66 103 1 156-2.45-3.68-2.23-6.44-2.12-10.7 0.00902-0.702 0.018-1.4 0.0273-2.13 0.0235-1.73 0.0594-3.46 0.0977-5.19h-2v-129h2v-9z" fill="#34454B"/>
<path transform="translate(198,290)" d="m0 0c-4.23 4.23-11.4 4.12-17 5h-21v162c-0.99-0.33-1.98-0.66-3-1 0.107-21.2 0.22-42.5 0.339-63.7 0.0554-9.86 0.109-19.7 0.158-29.6 0.0428-8.59 0.0891-17.2 0.14-25.8 0.0266-4.55 0.0515-9.1 0.0722-13.7 0.0195-4.28 0.0437-8.56 0.0714-12.8 0.00939-1.58 0.0171-3.15 0.0229-4.73 0.00823-2.14 0.0225-4.28 0.0384-6.42 0.00645-1.2 0.0129-2.4 0.0196-3.64 0.139-2.67 0.139-2.67 1.14-3.67 2.02-0.23 4.06-0.396 6.09-0.535 1.26-0.087 2.52-0.174 3.82-0.264 0.663-0.0433 1.33-0.0865 2.01-0.131 1.98-0.13 3.96-0.269 5.95-0.408 7.06-0.476 14.1-0.803 21.1-0.662z" fill="#050C0E"/>
<path transform="translate(1253,107)" d="m0 0h2v212c-2.41-3.62-2.45-6.48-2.62-10.7-0.0372-0.772-0.0744-1.54-0.113-2.34-0.298-6.99-0.365-14-0.387-21-0.00467-1.06-0.00935-2.11-0.0142-3.2 0.00209-0.985 0.00419-1.97 0.00635-2.99 0.00113-0.88 0.00226-1.76 0.00342-2.67 0.129-2.14 0.129-2.14 1.13-4.14 0.0855-1.66 0.107-3.31 0.0977-4.97-0.0033-1.04-0.00661-2.08-0.01-3.15-0.0083-1.14-0.0166-2.27-0.0251-3.44-0.00379-1.18-0.00757-2.36-0.0115-3.58-0.0163-5.05-0.0438-10.1-0.0715-15.2-0.085-16.9 0.171-33.8 1.02-50.7h-2c-0.0233-8.89-0.041-17.8-0.0518-26.7-0.00519-4.13-0.0122-8.25-0.0236-12.4-0.011-3.99-0.0169-7.99-0.0194-12-0.00183-1.51-0.00539-3.02-0.0109-4.54-0.033-9.53 0.28-18.9 1.11-28.4z" fill="#34454B"/>
<path transform="translate(587,141)" d="m0 0h1c1.02 11.3 1.15 22.5 1.13 33.9 6.76e-4 1.91 0.00165 3.82 0.0029 5.72 0.00147 3.99-6.4e-4 7.98-0.00534 12-0.00564 5.02-0.00236 10 0.00345 15.1 0.0209 21.5-0.0921 42.9-1.13 64.4h-1c-1.24-22.5-1.15-45-1.13-67.5 0.00575-5.39 0.00237-10.8-0.00357-16.2-0.00362-4.2-0.00246-8.39 1.28e-4 -12.6 6.61e-4 -1.99-1.31e-4 -3.97-0.00248-5.96-0.0183-19.7-0.0183-19.7 1.14-28.8z" fill="#34454B"/>
<path transform="translate(1065,201)" d="m0 0h2c-0.00222 0.62-0.00444 1.24-0.00673 1.88-0.0221 6.44-0.0372 12.9-0.0482 19.3-0.00503 2.4-0.0119 4.81-0.0205 7.21-0.0121 3.45-0.0178 6.91-0.0222 10.4-0.00516 1.08-0.0103 2.16-0.0156 3.27-7.55e-5 1-1.51e-4 2-2.29e-4 3.03-0.00222 0.882-0.00444 1.76-0.00673 2.67 0.029 2.43 0.029 2.43 1.12 5.26-0.938 2.19-0.938 2.19-2 4h2c0.0247 5.34 0.0429 10.7 0.0549 16 0.00503 1.82 0.0118 3.63 0.0205 5.45 0.0121 2.61 0.0178 5.22 0.0222 7.83 0.00516 0.811 0.0103 1.62 0.0156 2.46 5.77e-4 5.81 5.77e-4 5.81-0.683 8.43-0.142 0.599-0.284 1.2-0.43 1.82 0.33 0.33 0.66 0.66 1 1 0.1 1.97 0.131 3.94 0.133 5.91 0.00129 1.22 0.00258 2.44 0.00391 3.7-0.00387 1.29-0.00773 2.57-0.0117 3.9 0.00387 1.26 0.00773 2.51 0.0117 3.8-0.00697 6.65-0.234 13.1-1.14 19.7h-2v-137z" fill="#060D0F"/>
<path transform="translate(1062,411)" d="m0 0c2.45 1.86 2.97 2.85 3.55 5.93 0.067 1.12 0.134 2.24 0.203 3.39 0.116 1.66 0.116 1.66 0.234 3.36 0.0156 3.32 0.0156 3.32-0.531 6.43-0.612 2.82-0.612 2.82 0.0261 5.27 0.523 2.64 0.555 4.81 0.4 7.49-0.0483 0.886-0.0967 1.77-0.146 2.69-0.0561 0.912-0.112 1.82-0.17 2.76-0.0783 1.4-0.0783 1.4-0.158 2.82-0.129 2.29-0.264 4.58-0.404 6.87h-4c-1.19-2.38-1.19-3.99-1.28-6.65-0.0374-0.923-0.0748-1.85-0.113-2.8-0.0348-0.967-0.0696-1.93-0.105-2.93-0.0691-1.9-0.142-3.81-0.219-5.71-0.0303-0.846-0.0606-1.69-0.0918-2.56-0.18-2.23-0.636-4.19-1.19-6.35-0.257-2.85-0.276-5.7-0.312-8.56-0.029-0.768-0.058-1.54-0.0879-2.33-0.0254-2.24-0.0254-2.24 0.4-6.11 2.02-2.03 2.02-2.03 4-3z" fill="#050C0E"/>
<path transform="translate(776,202)" d="m0 0c5.38-0.0247 10.8-0.0428 16.1-0.0549 1.83-0.00504 3.66-0.0119 5.49-0.0205 2.63-0.0121 5.25-0.0178 7.88-0.0222 0.821-0.00516 1.64-0.0103 2.49-0.0156 5.79-5.75e-4 5.79-5.75e-4 8.02 1.11v168h-1c-0.747-21-1.15-41.9-1.13-62.9 0.00261-3.61 1.65e-4 -7.21-0.00139-10.8-0.00179-6.01 5.1e-4 -12 0.00534-18 0.00551-6.94 0.00362-13.9-0.00183-20.8-0.00453-6.02-0.00519-12-0.00256-18 0.00155-3.57 0.00178-7.14-0.00154-10.7-0.00341-3.94 0.00131-7.89 0.0069-11.8-0.00202-1.18-0.00405-2.35-0.00613-3.56 0.00282-1.07 0.00564-2.13 0.00854-3.23 3.77e-4 -0.929 7.54e-4 -1.86 0.00114-2.81 0.126-2.22 0.126-2.22 1.13-4.22-1.11 0.0355-2.22 0.0711-3.36 0.108-4.11 0.13-8.22 0.253-12.3 0.375-1.78 0.0534-3.56 0.109-5.34 0.166-2.56 0.0818-5.11 0.157-7.67 0.231-0.799 0.027-1.6 0.0541-2.42 0.0819-5.64 0.153-5.64 0.153-7.87-0.961v-2z" fill="#060D0F"/>
<path transform="translate(1521,411)" d="m0 0c3.88 0.875 3.88 0.875 5 2 0.0887 2.96 0.115 5.89 0.0977 8.85-0.00141 0.886-0.00283 1.77-0.00429 2.69-0.00562 2.84-0.0182 5.69-0.0309 8.53-0.00501 1.92-0.00958 3.85-0.0137 5.77-0.0111 4.72-0.0283 9.45-0.0488 14.2-1.98-0.33-3.96-0.66-6-1-0.0247-5.52-0.0428-11-0.0549-16.6-0.00504-1.88-0.0119-3.76-0.0205-5.63-0.0121-2.7-0.0178-5.39-0.0222-8.09-0.00516-0.843-0.0103-1.69-0.0156-2.55-5.75e-4 -5.95-5.75e-4 -5.95 1.11-8.17z" fill="#34454B"/>
<path transform="translate(896 434)" d="m0 0c3.56 0.562 3.56 0.562 5.94 2.19 3.4 4.96 2.68 9.68 1.62 15.4-0.309 1.34-0.629 2.68-1 4-6.88-0.875-6.88-0.875-8-2-0.0406-1.67-0.0427-3.33 0-5-1.65 0.33-3.3 0.66-5 1-0.241-4.6-0.434-8.72 1.06-13.1 1.94-1.88 1.94-1.88 5.38-2.44z" fill="#050B0D"/>
<path transform="translate(1392,359)" d="m0 0v3c-7.16 7.16-17 10.7-27.1 11.1-0.639-0.0412-1.28-0.0825-1.94-0.125v1h-28c-0.33-0.66-0.66-1.32-1-2h-2v-2c1.47 0.00786 1.47 0.00786 2.97 0.0159 3.64 0.0181 7.28 0.0296 10.9 0.0391 1.57 0.00502 3.15 0.0118 4.72 0.0205 2.26 0.0122 4.53 0.0178 6.79 0.0222 0.701 0.00516 1.4 0.0103 2.12 0.0156 3.32 3.79e-4 6.31-0.105 9.48-1.11 1.33-0.333 2.67-0.667 4-1-1.32-0.99-2.64-1.98-4-3 0.33-0.66 0.66-1.32 1-2-0.66-0.33-1.32-0.66-2-1 0.66-0.66 1.32-1.32 2-2 3.62 0.375 3.62 0.375 7 1-0.33 1.32-0.66 2.64-1 4 4.07 0.499 7.57 0.887 11.2-1.34 1.71-1.49 3.31-3 4.84-4.66z" fill="#0E1619"/>
<path transform="translate(232,327)" d="m0 0h1c0.103 7.95 0.0531 15.9-0.375 23.8-0.0309 0.687-0.0617 1.37-0.0935 2.08-0.295 4.87-0.295 4.87-2.53 7.11-2.98 0.227-2.98 0.227-6.76 0.195-0.663-0.00283-1.33-0.00566-2.01-0.00858-2.12-0.0112-4.24-0.0363-6.36-0.0617-1.44-0.01-2.87-0.0192-4.31-0.0273-3.52-0.0221-7.04-0.0566-10.6-0.0977-1.41-3.19-2.25-5.71-2.2-9.21 0.00645-0.751 0.0129-1.5 0.0195-2.28 0.0168-0.769 0.0335-1.54 0.0508-2.33 0.00902-0.788 0.018-1.58 0.0273-2.39 0.0234-1.93 0.0593-3.87 0.0977-5.8h1c0.33 6.27 0.66 12.5 1 19h31c-0.0396-9.5-0.0396-9.5-0.0901-19-0.0025-1.18-5e-3 -2.35-0.00757-3.56-0.00524-1.21-0.0105-2.42-0.0159-3.67 0.114-2.78 0.114-2.78 1.11-3.78z" fill="#050B0C"/>
<path transform="translate(158,388)" d="m0 0h2v69c-0.99-0.33-1.98-0.66-3-1-0.0722-15.3 0.147-30.5 0.5-45.8 0.0484-2.17 0.0966-4.34 0.145-6.51 0.116-5.23 0.235-10.5 0.355-15.7z" fill="#060D0F"/>
<path transform="translate(1323,413)" d="m0 0c1.32 0.33 2.64 0.66 4 1v38c-1.48 0.495-1.48 0.495-3 1-1.64-3.28-1.12-6.91-1.1-10.5 0.00141-0.841 0.00283-1.68 0.00429-2.55 0.00561-2.69 0.0182-5.38 0.0309-8.07 0.00501-1.82 0.00958-3.64 0.0137-5.46 0.011-4.47 0.0283-8.94 0.0488-13.4z" fill="#34454B"/>
<path transform="translate(568,312)" d="m0 0h1v152h-1v-152z" fill="#34454B"/>
<path transform="translate(1338,139)" d="m0 0c11.7-0.487 23.1-0.852 34.5 2.19 0.745 0.196 1.49 0.392 2.26 0.594 7.2 2.13 13.5 5.66 18.2 11.5 0.866 1.05 0.866 1.05 1.75 2.11 0.412 0.519 0.825 1.04 1.25 1.57-0.33 0.66-0.66 1.32-1 2-0.41-0.494-0.82-0.987-1.24-1.5-0.539-0.641-1.08-1.28-1.63-1.94-0.534-0.638-1.07-1.28-1.62-1.93-1.43-1.74-1.43-1.74-3.51-2.63v-2c-0.592-0.193-1.18-0.387-1.79-0.586-6.85-2.26-6.85-2.26-9.77-3.54-5.86-2.1-12.3-2.02-18.4-1.97-0.721 0.00141-1.44 0.00283-2.19 0.00429-2.27 0.00553-4.54 0.0181-6.81 0.0309-1.55 0.00502-3.11 0.00958-4.66 0.0137-3.78 0.0109-7.56 0.0282-11.3 0.0488 0.33-0.66 0.66-1.32 1-2h5v-2z" fill="#04090A"/>
<path transform="translate(696,174)" d="m0 0c2.63 2.63 2.24 4.5 2.26 8.08-0.00562 0.853-0.0112 1.71-0.017 2.58 0.0019 0.898 0.0038 1.8 0.00575 2.72 0.00372 2.99-0.00703 5.97-0.0182 8.96-0.00119 2.08-0.00164 4.17-0.00139 6.25-0.00157 4.39-0.00987 8.77-0.0233 13.2-0.0168 5.57-0.0208 11.1-0.0201 16.7-2.75e-4 4.32-0.00581 8.63-0.013 12.9-0.00315 2.05-0.00514 4.1-0.00589 6.15-0.00956 12.5-0.323 24.9-1.17 37.4h-1c-0.794-14.8-1.15-29.5-1.13-44.2-6.76e-4 -2.03-0.00165-4.06-0.0029-6.09-0.00146-4.2 6.13e-4 -8.39 0.00534-12.6 0.00577-5.39 0.00236-10.8-0.00357-16.2-0.0036-4.16-0.00247-8.33 1.28e-4 -12.5 6.68e-4 -1.99-1.53e-4 -3.98-0.00248-5.97-0.00252-2.75 0.0013-5.51 0.0069-8.26-0.00202-0.822-0.00405-1.64-0.00613-2.49 0.0212-5.6 0.0212-5.6 1.14-6.72z" fill="#34454B"/>
<path transform="translate(956,411)" d="m0 0 2 1v30c-5-3-5-3-5.6-5.17 0.0135-0.826 0.0269-1.65 0.0408-2.5 0.00709-0.911 0.0142-1.82 0.0215-2.76 0.0329-0.949 0.0657-1.9 0.0996-2.88 0.0058-0.938 0.0116-1.88 0.0176-2.84 0.205-11.6 0.205-11.6 3.42-14.8z" fill="#34454B"/>
<path transform="translate(1028,194)" d="m0 0h37c0.495 1.98 0.495 1.98 1 4h-26v-2h-13c0.33-0.66 0.66-1.32 1-2z" fill="#0B1214"/>
<path transform="translate(316,416)" d="m0 0c4.82 1.84 9.3 4.18 13.9 6.56 7.31 3.35 14.6 4.14 22.6 5.06 1.11 0.134 2.23 0.268 3.37 0.406 2.73 0.328 5.46 0.651 8.19 0.969-0.66 0.33-1.32 0.66-2 1 0.495 1.98 0.495 1.98 1 4-0.99 0.66-1.98 1.32-3 2v-4c-2.23-1.12-3.71-1.22-6.18-1.39-9.51-0.751-18-1.6-26.8-5.61-0.886-0.34-1.77-0.681-2.68-1.03-2.43-1.02-3.56-2.05-5.32-3.97-0.99-0.66-1.98-1.32-3-2v-2z" fill="#04090A"/>
<path transform="translate(658 142)" d="m0 0c1.77 1.59e-4 3.54 0.00586 5.32 0.0159 0.931 0.00141 1.86 0.00283 2.82 0.00429 2.99 0.00562 5.97 0.0182 8.96 0.0309 2.02 0.00501 4.04 0.00958 6.06 0.0137 4.96 0.0111 9.92 0.0283 14.9 0.0488 0.289 0.804 0.577 1.61 0.875 2.44 0.858 2.7 0.858 2.7 3.12 3.56-3 0-3 0-4.66-1.48-3.45-2.24-6.85-1.89-10.8-1.81-0.816 0.00424-1.63 0.00849-2.47 0.0129-2.6 0.0168-5.2 0.0544-7.79 0.0926-1.76 0.0151-3.53 0.0287-5.29 0.041-4.32 0.033-8.64 0.0848-13 0.146-0.66 2.31-1.32 4.62-2 7h-1c-0.0269-1.48-0.0463-2.96-0.0625-4.44-0.0116-0.824-0.0232-1.65-0.0352-2.5 0.178-3.77 1.1-3.07 5.07-3.18z" fill="#090F10"/>
<path transform="translate(863,415)" d="m0 0h3c0.0494 5.09 0.0857 10.2 0.11 15.3 0.0101 1.73 0.0237 3.46 0.041 5.2 0.0242 2.49 0.0356 4.97 0.0444 7.46 0.0103 0.777 0.0206 1.55 0.0313 2.35 4e-4 1.91-0.104 3.81-0.227 5.72-0.66 0.66-1.32 1.32-2 2-1.23-3.7-1.12-7.1-1.1-10.9 0.00141-0.773 0.00283-1.55 0.00429-2.34 0.00559-2.47 0.0181-4.93 0.0309-7.4 0.00502-1.67 0.00958-3.35 0.0137-5.02 0.011-4.1 0.0283-8.2 0.0488-12.3z" fill="#34454B"/>
<path transform="translate(1062,435)" d="m0 0c2.04 1.67 2.93 2.52 3.34 5.18-0.0157 0.822-0.0314 1.64-0.0476 2.49-0.00967 0.893-0.0193 1.79-0.0293 2.71-0.0251 0.929-0.0503 1.86-0.0762 2.81-0.0135 0.94-0.0271 1.88-0.041 2.85-0.0354 2.32-0.0847 4.64-0.146 6.96h-4c-1.77-3.54-1.18-7.61-1.19-11.5-0.0184-1.32-0.0184-1.32-0.0371-2.67-0.00193-0.842-0.00387-1.68-0.00586-2.55-0.00411-0.773-0.00822-1.55-0.0125-2.34 0.243-1.94 0.243-1.94 2.24-3.94z" fill="#34454B"/>
<path transform="translate(674,436)" d="m0 0 2 1c1.19 7.03 1.24 14 0 21-1.32 0.33-2.64 0.66-4 1-1.77-3.54-0.895-7.62-0.688-11.5 0.0354-0.88 0.0709-1.76 0.107-2.67 0.0432-0.842 0.0864-1.68 0.131-2.55 0.0378-0.773 0.0756-1.55 0.115-2.34 0.335-1.94 0.335-1.94 2.33-3.94z" fill="#34454B"/>
<path transform="translate(1526,195)" d="m0 0c-0.33 0.99-0.66 1.98-1 3h-35c1.32-0.33 2.64-0.66 4-1v-2c10.8-0.86 21.2-1.02 32 0z" fill="#263438"/>
<path transform="translate(895,435)" d="m0 0c3.31 0.125 3.31 0.125 7 1 2.84 3.94 3.51 7.21 3 12-1 2.88-1 2.88-2 5h-2c-2.27-3.4-2.37-5.17-2.62-9.19-0.0748-1.09-0.15-2.17-0.227-3.29-0.049-0.831-0.098-1.66-0.148-2.52-1.32-0.33-2.64-0.66-4-1 0.33-0.66 0.66-1.32 1-2z" fill="#34454B"/>
<path transform="translate(1524,338)" d="m0 0c0.625 2.38 0.625 2.38 1 5-0.66 0.66-1.32 1.32-2 2h-2c-0.66 3.3-1.32 6.6-2 10-1.65 0.33-3.3 0.66-5 1-0.441-5.58 0.766-10.9 3-16 3-2 3-2 7-2z" fill="#060D0F"/>
<path transform="translate(1480,436)" d="m0 0h7c1.75 5.24 2.28 9.47 2 15-0.33 0.66-0.66 1.32-1 2h-2v-2h-2c-0.121-0.782-0.242-1.56-0.367-2.37-0.251-1.52-0.251-1.52-0.508-3.07-0.162-1.01-0.325-2.02-0.492-3.06-0.209-0.826-0.418-1.65-0.633-2.5-0.66-0.33-1.32-0.66-2-1v-3z" fill="#34454B"/>
<path transform="translate(900,412)" d="m0 0h3c1.96 5.74 1.96 5.74 2.38 8.25 0.478 1.96 0.478 1.96 2.62 2.81 0.66 0.309 1.32 0.619 2 0.938 0.33 0.99 0.66 1.98 1 3-1.63-0.114-3.25-0.242-4.88-0.375-0.905-0.0696-1.81-0.139-2.74-0.211-2.38-0.414-2.38-0.414-4.38-2.41-0.23-2.06-0.23-2.06-0.188-4.44 0.00645-0.782 0.0129-1.56 0.0195-2.37 0.168-2.19 0.168-2.19 1.17-5.19z" fill="#34454B"/>
<path transform="translate(1065,300)" d="m0 0c0.99 0.33 1.98 0.66 3 1 0.0293 4.48 0.0469 8.96 0.0625 13.4 0.00838 1.26 0.0168 2.52 0.0254 3.82 0.0174 6.67-0.174 13.1-1.09 19.7h-2v-38z" fill="#070F11"/>
<path transform="translate(1487,412)" d="m0 0c0.66 0.33 1.32 0.66 2 1 0.414 2.72 0.414 2.72 0.625 6.06 0.0748 1.1 0.15 2.21 0.227 3.35 0.049 0.855 0.098 1.71 0.148 2.59-5.29 2.22-5.29 2.22-8.88 1.12-0.701-0.371-1.4-0.743-2.12-1.12 0.99-0.66 1.98-1.32 3-2 0.685-2.12 0.685-2.12 1-4.5 0.375-2.41 0.375-2.41 1-4.5 0.99-0.66 1.98-1.32 3-2z" fill="#34454B"/>
<path transform="translate(1424,435)" d="m0 0h9c2.34 4.67 3.16 7.1 2.56 12.2-0.102 0.901-0.204 1.8-0.309 2.73-0.0838 0.687-0.168 1.37-0.254 2.08-0.99 0.33-1.98 0.66-3 1-1.35-2.7-1.34-5.12-1.56-8.12-0.0838-1.1-0.168-2.19-0.254-3.32-0.0606-0.843-0.121-1.69-0.184-2.55-1.98-0.66-3.96-1.32-6-2v-2z" fill="#34454B"/>
<path transform="translate(408,169)" d="m0 0c4.16 3.79 6.74 7.58 9.31 12.6 0.38 0.726 0.759 1.45 1.15 2.2 11.5 22.6 11.5 22.6 11.5 29.2h-2c-0.232-0.631-0.464-1.26-0.703-1.91-1.05-2.84-2.11-5.69-3.17-8.53-0.547-1.49-0.547-1.49-1.11-3.01-0.532-1.42-0.532-1.42-1.07-2.86-0.325-0.875-0.649-1.75-0.984-2.65-0.784-2.21-0.784-2.21-2.96-3.04-0.852-2.29-0.852-2.29-1.62-5.06-0.391-1.38-0.391-1.38-0.789-2.79-0.193-0.71-0.387-1.42-0.586-2.15h-2c-0.99-2.97-1.98-5.94-3-9h-2v-3z" fill="#060C0E"/>
<path transform="translate(776,202)" d="m0 0c5.38-0.0247 10.8-0.0428 16.1-0.0549 1.83-0.00504 3.66-0.0119 5.49-0.0205 2.63-0.0121 5.25-0.0178 7.88-0.0222 0.821-0.00516 1.64-0.0103 2.49-0.0156 5.79-5.75e-4 5.79-5.75e-4 8.02 1.11-0.33 0.99-0.66 1.98-1 3v-2c-1.11 0.0355-2.22 0.0711-3.36 0.108-4.11 0.13-8.22 0.253-12.3 0.375-1.78 0.0534-3.56 0.109-5.34 0.166-2.56 0.0818-5.11 0.157-7.67 0.231-0.799 0.027-1.6 0.0541-2.42 0.0819-5.64 0.153-5.64 0.153-7.87-0.961v-2z" fill="#030708"/>
<path transform="translate(989,437)" d="m0 0c0.99 0.33 1.98 0.66 3 1v21h-3c-1.17-2.33-1.13-3.72-1.13-6.32-0.00129-0.846-0.00258-1.69-0.00391-2.56 0.00387-0.885 0.00773-1.77 0.0117-2.68-0.00387-0.889-0.00773-1.78-0.0117-2.69 0.00129-0.845 0.00258-1.69 0.00391-2.56 0.00113-0.778 0.00226-1.56 0.00342-2.36 0.129-1.83 0.129-1.83 1.13-2.83z" fill="#34454B"/>
<path transform="translate(1396,437)" d="m0 0c1.48 0.99 1.48 0.99 3 2 0.341 1.97 0.341 1.97 0.293 4.35-0.00967 0.851-0.0193 1.7-0.0293 2.58-0.0251 0.889-0.0503 1.78-0.0762 2.7-0.0135 0.897-0.0271 1.79-0.041 2.72-0.0354 2.22-0.0848 4.44-0.146 6.66h-4c-0.0289-3.31-0.0468-6.62-0.0625-9.94-0.00838-0.946-0.0168-1.89-0.0254-2.87-0.00322-0.899-0.00645-1.8-0.00977-2.72-0.00524-0.833-0.0105-1.67-0.0159-2.52 0.114-1.95 0.114-1.95 1.11-2.95z" fill="#34454B"/>
<path transform="translate(1467,114)" d="m0 0c1.48 0.99 1.48 0.99 3 2 0.419 2.61 0.653 5 0.75 7.62 0.036 0.722 0.072 1.44 0.109 2.19 0.202 4.85 0.0371 9.41-0.859 14.2h-2c-1.3-2.61-1.11-4.53-1.1-7.45 0.00322-1.08 0.00645-2.15 0.00977-3.26 0.00838-1.13 0.0168-2.26 0.0254-3.42 0.00451-1.14 0.00902-2.27 0.0137-3.44 0.0118-2.81 0.0283-5.62 0.0488-8.43z" fill="#34454B"/>
<path transform="translate(1144,251)" d="m0 0h2c-0.33 1.98-0.66 3.96-1 6-3.31 0.973-6.42 1.19-9.86 1.32-1.12 0.0419-2.23 0.0838-3.38 0.127-1.16 0.0393-2.32 0.0786-3.51 0.119-1.17 0.0432-2.35 0.0864-3.56 0.131-2.9 0.106-5.79 0.208-8.69 0.307 7.34-6.07 18.9-4.11 28-4v-4z" fill="#050A0B"/>
<path transform="translate(1187,413)" d="m0 0c0.99 0.33 1.98 0.66 3 1v26c-0.99-0.66-1.98-1.32-3-2-0.341-2.52-0.341-2.52-0.293-5.66 0.00967-1.12 0.0193-2.24 0.0293-3.4 0.0251-1.18 0.0503-2.35 0.0762-3.56 0.0135-1.18 0.0271-2.37 0.041-3.59 0.0354-2.93 0.0849-5.86 0.146-8.79z" fill="#34454B"/>
<path transform="translate(1288,435)" d="m0 0c2.85 4.55 3.32 9.8 2.56 15-0.186 0.66-0.371 1.32-0.562 2-0.99-0.33-1.98-0.66-3-1-0.33-3.63-0.66-7.26-1-11-2.47-0.99-2.47-0.99-5-2-0.33-0.66-0.66-1.32-1-2 2.71-1.35 5.01-1.07 8-1z" fill="#34454B"/>
<path transform="translate(1328,143)" d="m0 0c-2.58 1.4-5.19 2.45-7.94 3.44-5.8 2.16-9.88 4.92-14.1 9.56-0.33 0.99-0.66 1.98-1 3h-2c-0.66 2.31-1.32 4.62-2 7h-1c0.147-6.93 3.13-11.2 8-16 6.9-4.93 11.6-7.13 20-7z" fill="#050B0C"/>
<path transform="translate(398,416)" d="m0 0c0.66 0.33 1.32 0.66 2 1-1.12 1.34-2.24 2.67-3.38 4-0.94 1.11-0.94 1.11-1.9 2.25-0.57 0.577-1.14 1.15-1.73 1.75h-2c-0.66 1.32-1.32 2.64-2 4h-2c-0.219 0.565-0.438 1.13-0.664 1.71-1.76 3.02-3.99 4.73-6.71 6.91-1.43 1.16-1.43 1.16-2.9 2.35-2.22 1.64-4.21 2.92-6.73 4.02 1.5-3.73 3.59-5.52 6.75-7.94 0.898-0.7 1.8-1.4 2.72-2.12 1.25-0.961 1.25-0.961 2.53-1.94 4.3-3.32 7.88-6.99 11.4-11.1 1.47-1.7 3-3.3 4.61-4.87z" fill="#04090A"/>
<path transform="translate(1062,411)" d="m0 0c1.49 1.14 1.49 1.14 3 3 0.293 2.7 0.293 2.7 0.188 5.69-0.0271 0.994-0.0541 1.99-0.082 3.01-0.0348 0.759-0.0696 1.52-0.105 2.3h-4c-2.19-3.29-2.22-3.85-1.75-7.56 0.0877-0.785 0.175-1.57 0.266-2.38 0.484-2.06 0.484-2.06 2.48-4.06z" fill="#34454B"/>
<path transform="translate(725 139)" d="m0 0c8.66 0.84 16.1 3.66 22.9 9.12 1.84 2.26 3.4 4.56 5 7-0.33 0.66-0.66 1.32-1 2-0.531-0.626-1.06-1.25-1.61-1.9-0.706-0.817-1.41-1.63-2.14-2.48-1.04-1.22-1.04-1.22-2.11-2.46-2-2.02-3.54-3.1-6.14-4.16v-2c-6.32-1.2-12.6-2.28-19-3 2-2 2-2 4.07-2.12z" fill="#04090A"/>
<path transform="translate(1519,440)" d="m0 0h1v12c2.31 0.33 4.62 0.66 7 1-1.37 3.16-1.99 3.99-5 6-2.19-0.375-2.19-0.375-4-1-1.2-6.5-0.584-11.6 1-18z" fill="#050C0E"/>
<path transform="translate(1299,169)" d="m0 0h1v30h-3c-0.0589-3.31-0.0939-6.62-0.125-9.94-0.0168-0.926-0.0335-1.85-0.0508-2.81-0.0426-6.07 0.644-11.4 2.18-17.3z" fill="#0B1316"/>
<path transform="translate(242,416)" d="m0 0h1c1.86 9.25 2.04 17.6 1 27h-3c-0.0947-9.07-0.145-18 1-27z" fill="#2F3F44"/>
<path transform="translate(1024,411)" d="m0 0c1.32 0.66 2.64 1.32 4 2v13h-3v-2h-2c-0.027-1.79-0.0464-3.58-0.0625-5.38-0.0116-0.998-0.0232-2-0.0352-3.02 0.0977-2.6 0.0977-2.6 1.1-4.6z" fill="#34454B"/>
<path transform="translate(1125,182)" d="m0 0c3.85-0.0585 7.71-0.0938 11.6-0.125 1.09-0.0168 2.17-0.0335 3.29-0.0508 5.75-0.0349 10.8 0.02 16.1 2.18 0.495 0.99 0.495 0.99 1 2h-6v-2h-27c0.33-0.66 0.66-1.32 1-2z" fill="#030808"/>
<path transform="translate(263,79)" d="m0 0v1h-39v-1c13.3-2.29 25.6-1.65 39 0z" fill="#050C0E"/>
<path transform="translate(1432,413)" d="m0 0c3.68 2.45 3.46 3.9 4.33 8.02 1.03 3.02 3.04 4.32 5.67 5.98-1.65-0.14-3.29-0.287-4.94-0.438-1.37-0.122-1.37-0.122-2.78-0.246-2.29-0.316-2.29-0.316-3.29-1.32-0.0985-1.64-0.13-3.29-0.125-4.94-0.00258-0.896-0.00516-1.79-0.00781-2.71 0.133-2.35 0.133-2.35 1.13-4.35z" fill="#34454B"/>
<path transform="translate(898,419)" d="m0 0h1c0.66 1.98 1.32 3.96 2 6 3.63 0.33 7.26 0.66 11 1 0.33 0.99 0.66 1.98 1 3-3.95 1.97-8.71 1.57-13 1-2.25-2.12-2.25-2.12-3-5 0.312-3.31 0.312-3.31 1-6z" fill="#050C0D"/>
<path transform="translate(1287,413)" d="m0 0c3 1 3 1 4 3 0.0402 2.33 0.0432 4.67 0 7h2v2l4 1c-4.53 1.03-5.64 1.18-10-1v-12z" fill="#34454B"/>
<path transform="translate(1478,435)" d="m0 0c1.6-0.0542 3.21-0.0929 4.81-0.125 0.893-0.0232 1.79-0.0464 2.71-0.0703 2.48 0.195 2.48 0.195 5.48 2.2 0.188 3.62 0.188 3.62 0 7-0.99-0.33-1.98-0.66-3-1-0.33-1.98-0.66-3.96-1-6-2.31-0.33-4.62-0.66-7-1v3c0.99 0.33 1.98 0.66 3 1v6l-3-3c-0.866-0.681-0.866-0.681-1.75-1.38-1.25-1.62-1.25-1.62-0.938-4.31 0.227-0.763 0.454-1.53 0.688-2.31z" fill="#050C0E"/>
<path transform="translate(1340,176)" d="m0 0h1v57h-1v-57z" fill="#34454B"/>
<path transform="translate(1284,324)" d="m0 0h1c0.0376 1.7 0.0376 1.7 0.0759 3.44 0.0941 4.21 0.194 8.42 0.296 12.6 0.0433 1.82 0.085 3.65 0.125 5.47 0.0578 2.62 0.121 5.24 0.186 7.86 0.0167 0.816 0.0334 1.63 0.0506 2.47 0.0859 3.28 0.223 6.01 1.27 9.13h-3c-1.67-3.34-0.996-7.07-0.879-10.7 0.0236-0.863 0.0472-1.73 0.0715-2.61 0.0767-2.76 0.161-5.52 0.245-8.28 0.0532-1.87 0.106-3.74 0.158-5.61 0.129-4.59 0.265-9.18 0.404-13.8z" fill="#304046"/>
<path transform="translate(316,416)" d="m0 0c3.77 1.44 7.3 3.14 10.9 5 4.35 2.2 8.37 3.92 13.1 5-0.99 0.66-1.98 1.32-3 2-2.47-0.533-4.64-1.16-7-2-0.703-0.232-1.41-0.464-2.13-0.703-3.78-1.31-6.09-2.38-8.87-5.3-0.99-0.66-1.98-1.32-3-2v-2z" fill="#030809"/>
<path transform="translate(815,144)" d="m0 0h1v42c-1.98 0.495-1.98 0.495-4 1 0.493-1.7 0.493-1.7 0.996-3.44 1.14-4.59 1.19-8.86 1.07-13.6-0.124-8.72 0.266-17.3 0.938-26z" fill="#060E10"/>
<path transform="translate(1297,221)" d="m0 0h2c0.0289 3.31 0.0468 6.62 0.0625 9.94 0.00838 0.946 0.0168 1.89 0.0254 2.87 0.00322 0.899 0.00645 1.8 0.00977 2.72 0.00524 0.833 0.0105 1.67 0.0159 2.52-0.114 1.95-0.114 1.95-1.11 2.95-0.0406 1.67-0.0427 3.33 0 5-0.66-0.33-1.32-0.66-2-1 0.33-8.25 0.66-16.5 1-25z" fill="#0B1315"/>
<path transform="translate(568,225)" d="m0 0h1v51h-1v-51z" fill="#34454B"/>
<path transform="translate(673,412)" d="m0 0h2c1.38 2.76 1.1 5.05 1.06 8.12-0.00902 1.1-0.018 2.19-0.0273 3.32-0.0116 0.843-0.0232 1.69-0.0352 2.55-1.32-0.66-2.64-1.32-4-2-0.027-1.62-0.0464-3.25-0.0625-4.88-0.0116-0.905-0.0232-1.81-0.0352-2.74 0.0977-2.38 0.0977-2.38 1.1-4.38z" fill="#34454B"/>
<path transform="translate(415,357)" d="m0 0v7c-2.31 0.33-4.62 0.66-7 1v-6c4.75-2 4.75-2 7-2z" fill="#060D0F"/>
<path transform="translate(1023,314)" d="m0 0h1v28c-0.99 0.33-1.98 0.66-3 1v2h-6c0.66-0.66 1.32-1.32 2-2h3c1.68-3.69 2.28-6.69 2.41-10.7 0.0387-1.07 0.0773-2.13 0.117-3.23 0.0464-1.65 0.0464-1.65 0.0938-3.34 0.0387-1.12 0.0773-2.24 0.117-3.4 0.094-2.76 0.18-5.52 0.258-8.29z" fill="#070E0F"/>
<path transform="translate(707,438)" d="m0 0h2c1.92 4.98 2.55 9.73 3 15h-3c-2.03-3.35-2.22-5.87-2.12-9.75 0.0271-1.48 0.0271-1.48 0.0547-2.98 0.0232-0.748 0.0464-1.5 0.0703-2.27z" fill="#34454B"/>
<path transform="translate(243,329)" d="m0 0h1v37h-1v-9h-2v-4h2v-24z" fill="#34454B"/>
<path transform="translate(1095,208)" d="m0 0c0.99 0.33 1.98 0.66 3 1-0.153 1.05-0.307 2.1-0.465 3.19-0.74 5.92-0.89 11.9-1.1 17.8-0.0432 1.16-0.0864 2.31-0.131 3.5-0.105 2.83-0.207 5.66-0.307 8.5h-1v-34z" fill="#050C0E"/>
<path transform="translate(1224,412)" d="m0 0c0.99 0.33 1.98 0.66 3 1v11c-0.99 0.33-1.98 0.66-3 1-0.947-2.84-1.13-4.68-1.12-7.62-0.00258-0.797-0.00516-1.59-0.00781-2.41 0.133-1.96 0.133-1.96 1.13-2.96z" fill="#34454B"/>
<path transform="translate(1430,425)" d="m0 0c5.94 0.99 5.94 0.99 12 2 0.33-0.66 0.66-1.32 1-2v4c-3.67 1.18-7.17 1.07-11 1-0.66-1.65-1.32-3.3-2-5z" fill="#060D0F"/>
<path transform="translate(989,413)" d="m0 0h2c1.26 2.52 1.1 4.31 1.06 7.12-0.00902 0.91-0.018 1.82-0.0273 2.76-0.0116 0.699-0.0232 1.4-0.0352 2.12-1.32-0.66-2.64-1.32-4-2-0.125-7.75-0.125-7.75 1-10z" fill="#34454B"/>
<path transform="translate(1396,413)" d="m0 0c1.48 0.99 1.48 0.99 3 2 0.293 2.16 0.293 2.16 0.188 4.62-0.0271 0.817-0.0541 1.63-0.082 2.48-0.0348 0.626-0.0696 1.25-0.105 1.9h-3c-1-1-1-1-1.13-3.03 0.00258-0.815 0.00516-1.63 0.00781-2.47-0.00258-0.815-0.00516-1.63-0.00781-2.47 0.133-2.03 0.133-2.03 1.13-3.03z" fill="#34454B"/>
<path transform="translate(408,169)" d="m0 0c4.12 3.72 6.47 7.3 8.81 12.3 0.311 0.645 0.623 1.29 0.943 1.96 0.757 1.57 1.5 3.15 2.24 4.73-0.99-0.33-1.98-0.66-3-1-1.19-3.06-1.19-3.06-2-6h-2c-0.99-2.97-1.98-5.94-3-9h-2v-3z" fill="#050B0D"/>
<path transform="translate(359,116)" d="m0 0c6.09 3.69 10.6 7.38 15 13-3.48-1.22-5.43-2.43-8-5-1.03-0.454-2.06-0.907-3.12-1.38-0.949-0.536-1.9-1.07-2.88-1.62-0.68-2.6-0.68-2.6-1-5z" fill="#050B0D"/>
<path transform="translate(1483,446)" d="m0 0h1v5h2v2h2v-2h2c-0.33 1.65-0.66 3.3-1 5-1.66 0.382-3.32 0.714-5 1-1-1-1-1-1.1-3.29 0.0116-0.917 0.0232-1.83 0.0352-2.78 0.00902-0.919 0.018-1.84 0.0273-2.79 0.0116-0.71 0.0232-1.42 0.0352-2.15z" fill="#050C0D"/>
<path transform="translate(374,129)" d="m0 0c2.93 1.32 4.99 2.75 7.23 5.04 0.86 0.87 0.86 0.87 1.74 1.76 0.587 0.603 1.17 1.21 1.78 1.83 0.602 0.611 1.2 1.22 1.82 1.85 1.48 1.5 2.95 3.01 4.43 4.52-0.33 0.99-0.66 1.98-1 3-0.447-0.519-0.895-1.04-1.36-1.57-5.99-7.06-5.99-7.06-13-13.1-0.557-0.433-1.11-0.866-1.69-1.31v-2z" fill="#030809"/>
<path transform="translate(1339,338)" d="m0 0c2.5 1.38 2.5 1.38 5 3v2c2.97 0.33 5.94 0.66 9 1v2c-8.03 0.463-8.03 0.463-11.5-1.19-1.85-2.23-2.19-3.96-2.5-6.81z" fill="#060C0D"/>
<path transform="translate(172,238)" d="m0 0c0.66 0.33 1.32 0.66 2 1v5c-1.98 0.99-3.96 1.98-6 3-1.12-4.75-1.12-4.75 0-7 1.94-1.19 1.94-1.19 4-2z" fill="#060D0F"/>
<path transform="translate(718,422)" d="m0 0c0.99 0.33 1.98 0.66 3 1 1.62 3.76 2.24 6.92 2 11-2.5-2.06-2.5-2.06-5-5-0.312-3.81-0.312-3.81 0-7z" fill="#151F23"/>
<path transform="translate(243,323)" d="m0 0c0.33 1.65 0.66 3.3 1 5-3.3-0.66-6.6-1.32-10-2v-3c3.07-1.53 5.7-0.55 9 0z" fill="#040A0C"/>
<path transform="translate(1396,424)" d="m0 0h4c0.125 6.62 0.125 6.62-1 10h-3c-0.749-3.66-1.24-6.42 0-10z" fill="#050C0E"/>
<path transform="translate(198,290)" d="m0 0c-2.45 2.45-3.6 2.58-7 3-2.27-0.0826-4.55-0.231-6.81-0.438-1.16-0.102-2.32-0.204-3.52-0.309-0.88-0.0838-1.76-0.168-2.67-0.254v-1c6.7-0.798 13.3-1.13 20-1z" fill="#030708"/>
<path transform="translate(774,186)" d="m0 0h35v1h-35v-1z" fill="#34454B"/>
<path transform="translate(69,102)" d="m0 0 2 1c-1.12 1.34-2.24 2.67-3.38 4-0.94 1.11-0.94 1.11-1.9 2.25-0.855 0.866-0.855 0.866-1.73 1.75h-2c-0.268 0.598-0.536 1.2-0.812 1.81-1.17 2.16-2.38 3.55-4.19 5.19-0.66-0.33-1.32-0.66-2-1 3.51-4.18 7.08-8.19 11-12 0.598-0.598 1.2-1.2 1.81-1.81l1.19-1.19z" fill="#060D0F"/>
<path transform="translate(325,471)" d="m0 0c-2.18 0.973-4.36 1.94-6.54 2.91-1.51 0.672-3.01 1.36-4.51 2.06-4.63 2.14-4.63 2.14-7.95 1.03h2v-2c2.08-0.868 4.16-1.72 6.25-2.56 1.16-0.476 2.32-0.951 3.52-1.44 3.1-0.954 4.31-1.21 7.23 0.00391z" fill="#040A0B"/>
<path transform="translate(1478,423)" d="m0 0 4 1-2 1c0.959 0.155 0.959 0.155 1.94 0.312 0.681 0.227 1.36 0.454 2.06 0.688 0.33 0.99 0.66 1.98 1 3-2.31 0.688-2.31 0.688-5 1-1.88-1.19-1.88-1.19-3-3 0.312-2.19 0.312-2.19 1-4z" fill="#050C0E"/>
<path transform="translate(905,416)" d="m0 0c0.99 0.33 1.98 0.66 3 1 0.333 1.33 0.667 2.67 1 4 0.99 0.33 1.98 0.66 3 1v3c-5.75-1.75-5.75-1.75-8-4 0.375-2.62 0.375-2.62 1-5z" fill="#060D0F"/>
<path transform="translate(1024,445)" d="m0 0c0.66 0.33 1.32 0.66 2 1 0.414 2.72 0.414 2.72 0.625 6.06 0.0748 1.1 0.15 2.21 0.227 3.35 0.049 0.855 0.098 1.71 0.148 2.59h-3c-1.07-3.2-0.948-4.89-0.562-8.19 0.102-0.901 0.204-1.8 0.309-2.73 0.0838-0.687 0.168-1.37 0.254-2.08z" fill="#34454B"/>
<path transform="translate(1423,436)" d="m0 0c2.64 0.99 5.28 1.98 8 3v5c-1.34-0.757-2.67-1.53-4-2.31-1.11-0.644-1.11-0.644-2.25-1.3-0.578-0.458-1.15-0.915-1.75-1.39v-3z" fill="#060D0F"/>
<path transform="translate(228,262)" d="m0 0c0.955 2.17 1.14 3.56 0.398 5.82-0.757 1.74-1.57 3.46-2.4 5.18h-2c-0.268 0.619-0.536 1.24-0.812 1.88-1.19 2.12-1.19 2.12-4.19 4.12 1.34-2.78 2.82-5.35 4.5-7.94 1.86-2.94 3.36-5.76 4.5-9.06z" fill="#040A0C"/>
<path transform="translate(1361,414)" d="m0 0c2.43 3.64 2.16 5.71 2 10-1.32-0.33-2.64-0.66-4-1 0.875-7.88 0.875-7.88 2-9z" fill="#34454B"/>
<path transform="translate(795,407)" d="m0 0c0.99 0.33 1.98 0.66 3 1 0.33 3.3 0.66 6.6 1 10-0.66-1.32-1.32-2.64-2-4h-2v-7z" fill="#34454B"/>
<path transform="translate(568,277)" d="m0 0c4.62 0.66 9.24 1.32 14 2v1c-1.58 0.223-3.17 0.428-4.75 0.625-1.32 0.174-1.32 0.174-2.67 0.352-2.81 0.0255-4.21-0.528-6.58-1.98v-2z" fill="#182226"/>
<path transform="translate(868,143)" d="m0 0c8.12-0.624 8.12-0.624 11.6 1.81 1.44 2.19 1.44 2.19 1.44 5.19h-3c-0.619-1.21-0.619-1.21-1.25-2.44-1.6-2.97-1.6-2.97-5.44-3.38-1.64-0.0928-1.64-0.0928-3.31-0.188v-1z" fill="#050C0D"/>
<path transform="translate(439,265)" d="m0 0h1v22h-1v-22z" fill="#34454B"/>
<path transform="translate(1488,179)" d="m0 0h22v1h-22v-1z" fill="#34454B"/>
<path transform="translate(1066,146)" d="m0 0h1v22h-1v-22z" fill="#34454B"/>
<path transform="translate(1006,119)" d="m0 0h1v21h-1v-21z" fill="#34454B"/>
<path transform="translate(1e3 374)" d="m0 0h18v1h-18v-1z" fill="#34454B"/>
<path transform="translate(579,311)" d="m0 0h18v1h-18v-1z" fill="#34454B"/>
<path transform="translate(1530,160)" d="m0 0h1v18h-1v-18z" fill="#34454B"/>
<path transform="translate(1473,374)" d="m0 0h11v1h-11v-1z" fill="#34454B"/>
<path transform="translate(1484,373)" d="m0 0h10v1h-10v-1z" fill="#34454B"/>
<path transform="translate(1530,145)" d="m0 0h1v9h-1v-9z" fill="#34454B"/>
<path transform="translate(636,269)" d="m0 0h1v6h-1v-6z" fill="#34454B"/>
<path transform="translate(1529,154)" d="m0 0h1v6h-1v-6z" fill="#34454B"/>
<path transform="translate(364,430)" d="m0 0v3z" fill="#34454B"/>
<path transform="translate(711,260)" d="m0 0 1 4z" fill="#28373C"/>
<path transform="translate(369,374)" d="m0 0c3 1 3 1 3 1z" fill="#34454B"/>
<path transform="translate(363,374)" d="m0 0c3 1 3 1 3 1z" fill="#34454B"/>
<path transform="translate(714,287)" d="m0 0h2c-0.33 0.66-0.66 1.32-1 2-0.33-0.66-0.66-1.32-1-2z" fill="#060D0F"/>
<path transform="translate(1280,368)" d="m0 0 2 1z" fill="#34454B"/>
</svg>
