<?xml version="1.0" encoding="UTF-8"?>
<svg version="1.1" viewBox="0 0 1600 1168" width="1280" height="1280" xmlns="http://www.w3.org/2000/svg">
<path transform="translate(184,513)" d="m0 0c39.1-0.0165 78.2-0.0323 117-0.0476 0.765-2.99e-4 1.53-5.99e-4 2.32-9.07e-4 82-0.0321 164-0.0597 246-0.0785 1.82-4.18e-4 3.64-8.37e-4 5.46-0.00126 38.2-0.00877 76.4-0.0169 115-0.0244 19.2-0.00374 38.4-0.00759 57.6-0.0116 2.9-5.98e-4 5.79-0.00119 8.69-0.00179 44.6-0.00918 89.2-0.0209 134-0.04 0.96-4.11e-4 1.92-8.21e-4 2.91-0.00124 15.5-0.00664 30.9-0.0135 46.4-0.0204 44.5-0.0198 89.1-0.038 134-0.0458 0.916-1.61e-4 1.83-3.21e-4 2.77-4.87e-4 20.1-0.0035 40.2-0.00618 60.3-0.0081 8.08-7.85e-4 16.2-0.00169 24.3-0.00263 1.33-1.5e-4 1.33-1.5e-4 2.68-3.04e-4 28.5-0.00329 57.1-0.0161 85.6-0.0339 28.7-0.0179 57.5-0.0265 86.2-0.022 3.97 6.09e-4 7.93 0.00111 11.9 0.00155 1.17 1.34e-4 1.17 1.34e-4 2.36 2.72e-4 12.3 0.00114 24.7-0.00783 37-0.021 12.1-0.0127 24.2-0.0148 36.3-0.00547 6.49 0.00456 13 0.00422 19.5-0.00915 5.89-0.012 11.8-0.0105 17.7 0.00223 2.13 0.00216 4.26-8.17e-4 6.39-0.00929 2.87-0.0107 5.74-0.00323 8.61 0.00911 0.836-0.00753 1.67-0.0151 2.53-0.0228 5.62 0.0522 5.62 0.0522 7.75 1.78 1.79 2.24 1.66 3.74 1.66 6.59 0.00659 1.03 0.0132 2.07 0.02 3.13-0.0121 1.71-0.0121 1.71-0.0244 3.45 0.00327 1.21 0.00654 2.41 0.00991 3.66 0.00604 3.36-0.00144 6.71-0.0145 10.1-0.0109 3.62-0.00449 7.24-2.16e-4 10.9 0.00564 7.09-0.0047 14.2-0.0203 21.3-0.0175 8.25-0.019 16.5-0.0196 24.8-0.00169 14.7-0.0175 29.5-0.0415 44.2-0.0232 14.3-0.0374 28.6-0.041 42.9-3.34e-4 1.32-3.34e-4 1.32-6.75e-4 2.67-4.43e-4 1.77-8.85e-4 3.55-0.00133 5.32-3.29e-4 1.31-3.29e-4 1.31-6.65e-4 2.65-2.16e-4 0.872-4.32e-4 1.74-6.55e-4 2.64-0.0037 13.6-0.0151 27.2-0.0275 40.9-0.00443 4.94-0.00787 9.87-0.0106 14.8-0.00444 7.83-0.0122 15.7-0.0268 23.5-0.0066 3.58-0.0117 7.16-0.0125 10.7-9.33e-4 3.88-0.00963 7.76-0.0191 11.6 0.0013 1.7 0.0013 1.7 0.00263 3.43-0.00384 1.04-0.00768 2.08-0.0116 3.16-0.00125 0.895-0.00249 1.79-0.00378 2.71-0.14 2.9-0.65 5.77-1.13 8.64h-1281c-0.995-2.98-1.13-4.93-1.13-8.05-0.00261-1.05-0.00522-2.1-0.0079-3.18 0.00223-1.16 0.00446-2.31 0.00676-3.51-0.00156-1.23-0.00312-2.45-0.00473-3.72-0.00331-3.41-0.00211-6.82 9.86e-4 -10.2 0.00226-3.67-0.00123-7.35-0.00398-11-0.00445-7.2-0.00348-14.4-5.87e-4 -21.6 0.00226-5.85 0.00257-11.7 0.00148-17.6-1.53e-4 -0.832-3.06e-4 -1.66-4.64e-4 -2.52-3.2e-4 -1.69-6.44e-4 -3.38-9.73e-4 -5.07-0.00285-15.9 4.3e-4 -31.7 0.0058-47.6 0.00447-13.6 0.00369-27.2-9.19e-4 -40.8-0.00535-15.8-0.00746-31.6-0.00439-47.4 3.19e-4 -1.68 6.33e-4 -3.37 9.43e-4 -5.05 1.54e-4 -0.828 3.09e-4 -1.66 4.68e-4 -2.51 8.65e-4 -5.85-5.97e-4 -11.7-0.00295-17.5-0.0028-7.12-0.00206-14.2 0.00328-21.4 0.00264-3.64 0.00364-7.27 3.51e-4 -10.9-0.00351-3.93 6.69e-4 -7.87 0.00568-11.8-0.00223-1.16-0.00446-2.32-0.00676-3.51 0.00261-1.05 0.00522-2.09 0.0079-3.17 1.62e-4 -0.909 3.25e-4 -1.82 4.92e-4 -2.75 0.125-2.17 0.125-2.17 1.13-4.17zm371 84v2c-1.08 0.34-1.08 0.34-2.19 0.688-4.81 2.24-7.61 5.57-9.81 10.3-0.66 0.33-1.32 0.66-2 1-1.1 2.2-1.1 2.2-2.06 4.81-0.512 1.31-0.512 1.31-1.04 2.64-2.01 5.66-2.15 10.8-2.21 16.8-0.029 0.917-0.058 1.83-0.0879 2.78-0.0634 6.84 1.06 12.5 5.91 17.6 0.492 0.469 0.983 0.938 1.49 1.42 0.66 0.743 1.32 1.48 2 2.25 13.2 13 33 17.2 50.4 21.6 23.1 5.9 23.1 5.9 28.9 15.1 1.6 4.19 1.28 8.63 0.773 13-2.6 5.31-7.64 7.15-13 9-11.1 2.97-24.9 2.37-35.4-2.38-6.44-3.94-10.4-9.49-12.6-16.6-0.125-3.38-0.125-3.38 0-6-1.11-1.34-1.11-1.34-3.96-1.11-1.94 0.00786-1.94 0.00786-3.92 0.0159-0.687 0.00141-1.37 0.00283-2.08 0.00429-2.2 0.00561-4.4 0.0182-6.6 0.0309-1.49 0.00501-2.98 0.00958-4.47 0.0137-3.66 0.011-7.31 0.0283-11 0.0488-2.74 5.47-1.32 14 0.203 19.8 4.42 12.4 14.3 20.1 25.7 26.1 15.2 7.09 29.6 8.51 46.1 8.12 0.88-0.00516 1.76-0.0103 2.67-0.0156 14.8-0.643 31.1-6.5 41.5-17.2 7.78-9.39 10.1-18.6 10.1-30.5 0.0206-1.06 0.0412-2.13 0.0625-3.22 0.0523-10.6-2.63-17.9-9.88-25.9-2.31-2.37-2.31-2.37-5.44-3.19v-2c-10.9-6.73-22.4-9.91-34.7-12.9-0.695-0.169-1.39-0.337-2.1-0.511-3.51-0.852-7.03-1.69-10.6-2.49-20.6-4.82-20.6-4.82-25.4-11.7-1.32-2.75-1.41-4.04-0.932-7.02 0.108-0.744 0.217-1.49 0.328-2.25 0.833-4.31 0.833-4.31 1.42-6.18 1.75-1.06 1.75-1.06 4-2 0.784-0.516 1.57-1.03 2.38-1.56 8.27-4.53 20.8-3.34 29.7-1.02 2.66 0.804 5.3 1.64 7.91 2.58 0.0825 0.681 0.165 1.36 0.25 2.06 0.812 3.18 2.09 5.44 3.77 8.23 1.24 2.15 2.1 4.4 2.98 6.71 1.1 1.33 1.1 1.33 3.87 1.11 1.25-0.00524 2.5-0.0105 3.79-0.0159 0.664-0.00141 1.33-0.00283 2.01-0.00429 2.13-0.00561 4.26-0.0182 6.39-0.0309 1.44-0.00501 2.88-0.00958 4.32-0.0137 3.54-0.011 7.08-0.0283 10.6-0.0488 0.244-12.2-1-22.9-9.12-32.5-16.4-14.2-35.8-19.2-57.2-17.8-11 1.17-22.1 4.53-31.6 10.3zm568 17.3c-2.07 2.77-3.55 5.49-5.05 8.6-0.486 0.999-0.972 2-1.47 3.03-0.725 1.5-0.725 1.5-1.46 3.04-0.785 1.45-0.785 1.45-1.59 2.93-1.57 3.41-2.28 6.57-2.98 10.3-1.22 6.49-1.22 6.49-3.44 9.81-0.569 4.39-0.606 8.83-0.75 13.2-0.0831 1.82-0.0831 1.82-0.168 3.68-0.221 6.15-0.264 11.3 1.92 17.1 1.92 6.65 1.92 6.65 2.58 9.5 2.19 9.02 6.01 17.6 12.4 24.5 0.66 0.33 1.32 0.66 2 1 0.441 0.92 0.441 0.92 0.891 1.86 5.12 9.87 21.7 16.6 31.9 20.1 5.45 1.67 10.5 2.94 16.2 3.06 1.76 0.0406 1.76 0.0406 3.56 0.082 3.82 0.0417 7.62 0.00183 11.4-0.082 1.17-0.00773 1.17-0.00773 2.37-0.0156 12.2-0.667 25-6.81 34.6-14 0.652-0.459 1.3-0.918 1.98-1.39 5.43-4.16 8.66-9.73 12-15.6l1.45-2.51c4.91-9.13 6.42-18.2 7.55-28.5h-32c-2.77 6.71-2.77 6.71-4.88 13.6-2.13 6.38-6.51 11.7-12.1 15.4-10.5 5.08-20.9 5.16-32.1 2.03-10.7-3.86-17.3-12.1-22-22.1-0.272-0.634-0.544-1.27-0.824-1.92-0.34-0.772-0.681-1.54-1.03-2.34-5.38-14.8-3.85-35.5 2.39-49.8 1.43-2.73 2.96-5.32 4.64-7.89 0.379-0.594 0.758-1.19 1.15-1.8 4.66-6.39 12.7-10.6 20.4-12 11.8-1.17 21.7-0.307 31.5 6.75h2c0.115 0.579 0.229 1.16 0.348 1.75 0.704 2.43 1.69 4.09 3.09 6.18 1.9 2.94 3.42 5.74 4.56 9.06h2v2h31c-0.684-7.71-0.684-7.71-2.06-15.1-0.309-1.28-0.619-2.56-0.938-3.88h-2c-0.0619-0.66-0.124-1.32-0.188-2-1.77-6.52-6.28-12.1-10.8-17h-2c-0.495-1.49-0.495-1.49-1-3-2.5-1.22-2.5-1.22-5-2v-2c-35.1-17.5-73.6-14.4-100 16.3zm-873-23.3c-0.0233 19.5-0.041 39.1-0.0518 58.6-0.00516 9.07-0.0122 18.1-0.0236 27.2-0.00995 7.9-0.0164 15.8-0.0186 23.7-0.00131 4.19-0.00439 8.38-0.0116 12.6-0.00676 3.94-0.00889 7.87-0.00738 11.8-2.76e-4 1.45-0.00228 2.9-0.0061 4.35-0.00493 1.97-0.00319 3.94-0.00105 5.91-9.22e-4 1.11-0.00184 2.21-0.00279 3.35-0.156 2.41-0.156 2.41 1.12 3.47 2.38 0.0884 4.72 0.115 7.1 0.0977 0.709-0.00141 1.42-0.00283 2.15-0.00429 2.27-0.00561 4.54-0.0182 6.82-0.0309 1.54-0.00501 3.07-0.00958 4.61-0.0137 3.78-0.011 7.55-0.0283 11.3-0.0488 0.0103-0.699 0.0206-1.4 0.0312-2.12 0.0978-6.58 0.2-13.2 0.308-19.7 0.0553-3.38 0.109-6.76 0.158-10.1 0.0567-3.88 0.121-7.77 0.186-11.7 0.0251-1.83 0.0251-1.83 0.0506-3.7 0.0199-1.12 0.0399-2.24 0.0604-3.4 0.0155-0.993 0.0311-1.99 0.0471-3.01 0.158-2.25 0.158-2.25 1.16-3.25 2.86-0.114 5.7-0.164 8.57-0.168 1.3-0.00499 1.3-0.00499 2.63-0.0101 1.84-0.00508 3.69-0.00741 5.53-0.00725 2.8-0.00217 5.6-0.0203 8.4-0.0393 1.79-0.00294 3.58-0.00492 5.38-0.00586 1.25-0.0108 1.25-0.0108 2.52-0.0218 5.31 0.0205 9.9 0.652 15 2.25 1.31 1.81 1.31 1.81 2 4 0.476 0.733 0.951 1.47 1.44 2.22 1.76 3.13 2.45 5.9 3.18 9.4 0.682 3.2 1.34 6.27 2.38 9.38 0.262 2.11 0.484 4.23 0.684 6.35 0.185 1.87 0.185 1.87 0.373 3.77 0.254 2.63 0.504 5.27 0.75 7.9 0.124 1.24 0.249 2.49 0.377 3.77 0.109 1.14 0.218 2.29 0.33 3.47 0.24 2.88 0.24 2.88 2.49 4.75 2.44 0.175 4.76 0.232 7.2 0.195 1.06-0.00424 1.06-0.00424 2.14-0.00858 2.26-0.0112 4.52-0.0363 6.79-0.0617 1.53-0.01 3.07-0.0192 4.6-0.0273 3.76-0.0221 7.52-0.0566 11.3-0.0977 1.23-1.91 1.23-1.91 0.512-3.71-0.272-0.695-0.544-1.39-0.824-2.11-2.68-7.73-3.51-15.7-4.15-23.8-0.0798-1-0.16-2-0.242-3.03-0.153-1.99-0.295-3.98-0.424-5.97-0.817-10.9-3.06-20.2-11.5-27.8-2.36-2.17-2.36-2.17-5.38-2.62-0.33-0.66-0.66-1.32-1-2 0.66-0.516 1.32-1.03 2-1.56 0.99-0.804 1.98-1.61 3-2.44 0.959-0.729 0.959-0.729 1.94-1.47 5.51-4.41 8.46-9 11.1-15.5 0.365-0.873 0.73-1.75 1.11-2.64 2.84-10.6 2.62-25-2.43-34.8-7.68-11.7-17.2-18.3-30.7-21.5-3.21-0.366-6.36-0.383-9.58-0.341-1.35-6.57e-4 -1.35-6.57e-4 -2.72-0.00133-2.93 0.00207-5.86 0.0253-8.8 0.0489-2.05 0.0056-4.1 0.00987-6.15 0.0129-5.36 0.0114-10.7 0.0408-16.1 0.0741-5.48 0.0308-11 0.0444-16.5 0.0595-10.7 0.0321-21.5 0.0832-32.2 0.146zm153 1c-0.0988 1.92-0.126 3.85-0.127 5.77-0.00282 1.25-0.00564 2.51-0.00854 3.8 0.00194 1.4 0.00399 2.8 0.00613 4.21-0.00135 1.47-0.00313 2.93-0.00531 4.4-0.00457 3.99-0.00278 7.99 3.79e-4 12 0.00252 4.17 1.86e-4 8.34-0.00139 12.5-0.00182 7 5.85e-4 14 0.00534 21 0.00544 8.11 0.00368 16.2-0.00183 24.3-0.00453 6.95-0.00518 13.9-0.00256 20.9 0.00156 4.16 0.00176 8.31-0.00154 12.5-0.00288 3.91-9.03e-4 7.81 0.00489 11.7 0.00133 1.44 9.33e-4 2.88-0.00126 4.31-0.00271 1.95 0.00128 3.91 0.00568 5.86 3.77e-4 1.1 7.54e-4 2.19 0.00114 3.32-0.151 2.39-0.151 2.39 1.13 3.45 1.48 0.0957 2.96 0.122 4.45 0.12 1.44 0.00206 1.44 0.00206 2.91 0.00417 1.06-0.0036 2.12-0.00719 3.22-0.0109 1.11 1.46e-4 2.22 2.92e-4 3.37 4.43e-4 3.7-7e-4 7.39-0.00849 11.1-0.0163 2.55-0.00186 5.11-0.00329 7.66-0.00429 6.05-0.00344 12.1-0.0113 18.1-0.0213 6.89-0.0112 13.8-0.0167 20.7-0.0217 14.2-0.0105 28.3-0.0281 42.5-0.0503-0.00524-0.711-0.0105-1.42-0.0159-2.16-0.0208-3.22-0.0338-6.44-0.0466-9.66-0.00838-1.12-0.0168-2.24-0.0254-3.39-0.00322-1.07-0.00645-2.15-0.00977-3.25-0.00524-0.99-0.0105-1.98-0.0159-3 0.114-2.54 0.114-2.54 1.11-5.54-26.7-0.33-53.5-0.66-81-1-3.8-11.4-1-24-1-36h72c0.33-8.91 0.66-17.8 1-27h-73v-32h79v-26c0.33-0.66 0.66-1.32 1-2-14.7-0.0233-29.4-0.041-44.1-0.0518-6.83-0.00516-13.7-0.0122-20.5-0.0236-6.59-0.011-13.2-0.0168-19.8-0.0194-2.52-0.00185-5.04-0.00548-7.56-0.0109-3.52-0.00721-7.03-0.00826-10.5-0.0078-1.05-0.0036-2.11-0.00719-3.19-0.0109-0.952 0.00137-1.9 0.00275-2.89 0.00417-0.832-9.22e-4 -1.66-0.00184-2.52-0.00279-1.9-0.0846-1.9-0.0846-2.89 1.12zm276-1c-7.27 10.9-3.18 34.8-3.2 47.5-0.00296 2.1-0.00707 4.2-0.0115 6.3-0.0136 6.59-0.0233 13.2-0.0272 19.8-0.00451 7.58-0.0222 15.2-0.051 22.7-0.0216 5.89-0.0317 11.8-0.033 17.7-0.00105 3.51-0.00694 7.02-0.0248 10.5-0.0195 3.89-0.0152 7.79-0.00869 11.7-0.00921 1.16-0.0184 2.32-0.0279 3.51 0.00557 1.06 0.0111 2.11 0.0169 3.2-0.00147 0.919-0.00293 1.84-0.00444 2.79 0.208 2.36 0.208 2.36 1.6 4.12 2.28 1.55 3.67 1.57 6.42 1.56 0.955 0.00412 1.91 0.00825 2.89 0.0125 1.57-0.0162 1.57-0.0162 3.17-0.0327 1.65 6.57e-4 1.65 6.57e-4 3.34 0.00133 3.65-0.00209 7.3-0.0255 11-0.0489 2.53-0.00559 5.06-0.00986 7.59-0.0129 5.98-0.0103 12-0.0339 17.9-0.064 6.81-0.0335 13.6-0.05 20.4-0.0651 14-0.0314 28-0.0864 42-0.151 0.33-8.91 0.66-17.8 1-27-26.4-0.33-52.8-0.66-80-1-3.8-11.4-1-24-1-36h72c1.21-12.5 1.21-12.5 1-27h-73v-32h79v-26c0.33-0.66 0.66-1.32 1-2-14.7-0.07-29.4-0.123-44.1-0.155-6.82-0.0155-13.6-0.0366-20.5-0.0709-6.58-0.033-13.2-0.0505-19.7-0.0583-2.52-0.00556-5.03-0.0164-7.55-0.0326-3.51-0.0216-7.03-0.0248-10.5-0.0234-1.57-0.0162-1.57-0.0162-3.18-0.0327-0.954 0.00412-1.91 0.00825-2.89 0.0125-0.831-0.00277-1.66-0.00553-2.52-0.00838-0.664 0.122-1.33 0.244-2.01 0.369zm178 0c-3.08 6.77-5.82 13-8 20-1.88 5.86-3.98 11.4-6.64 17-2.87 6.45-5.14 13.2-7.54 19.8-1.25 3.43-2.53 6.84-3.82 10.2-0.29 0.777-0.58 1.55-0.879 2.36-1.01 2.71-2.02 5.41-3.12 8.08-0.912 2.34-1.68 4.67-2.44 7.06-0.859 2.64-1.64 4.63-3.12 7-1.78 3.1-2.29 6.02-2.91 9.51-0.527 1.99-0.527 1.99-2.53 3.99-0.563 1.98-1.05 3.99-1.5 6-1.28 5.78-1.28 5.78-3.5 8-0.661 1.96-1.26 3.94-1.81 5.94-1.33 4.53-2.85 8.74-4.88 13-1.75 3.7-3.1 6.91-3.31 11.1 0.33 0.66 0.66 1.32 1 2h32c3.42-9.08 6.8-18.2 10-27.3 0.98-2.7 0.98-2.7 1.98-4.7 7.64-0.101 15.3-0.171 22.9-0.22 2.6-0.0201 5.2-0.0475 7.8-0.082 3.73-0.0484 7.46-0.0712 11.2-0.0889 1.17-0.0206 2.33-0.0413 3.53-0.0626 1.08-3.02e-4 2.16-6.04e-4 3.28-9.16e-4 1.43-0.0133 1.43-0.0133 2.89-0.0269 2.41 0.481 2.41 0.481 4.18 2.3 1.72 3.05 2.42 6.1 3.24 9.5 1.26 5.21 2.81 9.82 5 14.7 0.351 0.949 0.701 1.9 1.06 2.88 0.742 2.29 0.742 2.29 2.94 3.12 2.48 0.0865 4.93 0.116 7.41 0.0977 1.09-0.00212 1.09-0.00212 2.21-0.00429 2.33-0.0056 4.67-0.0182 7-0.0309 1.58-0.00501 3.16-0.00958 4.74-0.0137 3.88-0.011 7.76-0.0283 11.6-0.0488-0.52-4.2-1.17-8-2.68-11.9-0.346-0.916-0.693-1.83-1.05-2.78-0.378-0.977-0.756-1.95-1.15-2.96-0.395-1.04-0.79-2.08-1.2-3.15-3.58-9.37-7.29-18.7-11-28-2.94-7.46-5.71-15-8.31-22.5-2.48-7.22-5.11-14.4-7.76-21.5-0.408-1.1-0.816-2.2-1.24-3.34-3.43-9.22-6.88-18.4-10.6-27.5-1.79-4.46-3.5-8.94-5.19-13.4-0.254-0.674-0.508-1.35-0.769-2.04-1.45-3.88-2.79-7.77-4.11-11.7h-35zm104 0c-2.01 3.35-2.25 5.88-2.25 9.76-0.00419 1.17-0.00839 2.35-0.0127 3.56 0.00562 1.29 0.0112 2.57 0.017 3.89-0.00107 1.37-0.00301 2.74-0.00575 4.11-0.00485 3.72 0.00281 7.44 0.013 11.2 0.00879 3.89 0.00702 7.79 0.00664 11.7 9.37e-4 6.54 0.00962 13.1 0.0233 19.6 0.0157 7.56 0.021 15.1 0.0203 22.7-6.76e-4 8.05 0.00627 16.1 0.0154 24.2 0.00213 2.32 0.00284 4.63 0.00324 6.95 0.00101 3.65 0.00713 7.29 0.0172 10.9 0.0043 1.97 0.00375 3.94 0.00306 5.92 0.00426 1.18 0.00853 2.36 0.0129 3.58 0.00168 1.02 0.00335 2.04 0.00508 3.1 0.135 3.06 0.442 5.92 1.13 8.91 2.97 1.49 5.66 1.11 8.98 1.1 0.685-0.00141 1.37-0.00283 2.08-0.00429 2.19-0.0056 4.38-0.0182 6.57-0.0309 1.48-0.00501 2.97-0.00958 4.45-0.0137 3.64-0.011 7.28-0.0283 10.9-0.0488 0.0103-0.64 0.0206-1.28 0.0312-1.94 0.108-6.67 0.223-13.3 0.341-20 0.0433-2.49 0.085-4.98 0.125-7.46 0.0578-3.58 0.121-7.15 0.186-10.7 0.0167-1.11 0.0334-2.22 0.0506-3.37 0.0199-1.04 0.0399-2.08 0.0604-3.15 0.0155-0.913 0.0311-1.83 0.0471-2.77 0.16-2.6 0.586-5.03 1.16-7.58 5.73-0.0248 11.5-0.0429 17.2-0.0549 1.95-0.00502 3.9-0.0118 5.84-0.0205 2.81-0.0122 5.61-0.0178 8.42-0.0222 1.3-0.00774 1.3-0.00774 2.62-0.0156 4.4-4.05e-4 8.64 0.0353 12.9 1.11 0.33 0.66 0.66 1.32 1 2 1.18 1.24 1.18 1.24 2.38 2.5 3.92 4.62 5.04 10.4 6.14 16.2 0.262 2.21 0.262 2.21 1.48 3.25 0.204 1.7 0.348 3.4 0.465 5.1 0.078 1.05 0.156 2.1 0.236 3.18 0.156 2.21 0.31 4.42 0.461 6.62 0.185 9.13 0.185 9.13 3.84 17.1 2.38 0.0884 4.72 0.115 7.1 0.0977 0.709-0.00141 1.42-0.00283 2.15-0.00429 2.27-0.00561 4.54-0.0182 6.82-0.0309 1.54-0.00501 3.07-0.00958 4.61-0.0137 3.78-0.011 7.55-0.0283 11.3-0.0488-0.465-3.02-0.899-5.74-2-8.6-1.52-5.2-1.61-10.4-1.93-15.8-1.37-21.8-1.37-21.8-11-41.1-2.54-1.85-5.08-2.57-8.06-3.5-0.33-0.66-0.66-1.32-1-2 1-1 1-1 3.07-2.31 8.74-5.64 14.3-12.5 16.9-22.7 0.439-3.97 0.465-7.89 0.438-11.9 0.02-1.02 0.04-2.05 0.0605-3.11-0.00631-9.94-3.15-19.2-9.5-27-4.09-3.75-8.14-6.36-13.1-8.75-0.607-0.303-1.21-0.606-1.84-0.918-6.18-3.03-11.1-3.47-17.9-3.45-0.898-1.46e-4 -1.8-2.92e-4 -2.72-4.43e-4 -2.97 6.96e-4 -5.93 0.00847-8.9 0.0163-2.06 0.00187-4.11 0.00329-6.17 0.00429-5.41 0.00382-10.8 0.0136-16.2 0.0247-5.52 0.0102-11 0.0148-16.6 0.0198-10.8 0.0107-21.7 0.0278-32.5 0.0488zm310 0c-1.8 4.49-2.25 6.45-2.25 11.1-0.00564 1.22-0.0113 2.43-0.0171 3.68 0.00389 1.34 0.00798 2.68 0.0123 4.02-0.00271 1.42-0.00627 2.83-0.0106 4.25-0.00911 3.84-0.00559 7.68 7.58e-4 11.5 0.00507 4.02 3.67e-4 8.03-0.00277 12-0.00364 6.74 0.00115 13.5 0.0107 20.2 0.0109 7.8 0.00735 15.6-0.00365 23.4-0.00907 6.69-0.0104 13.4-0.00512 20.1 0.00312 4 0.00352 8-0.00307 12-0.00576 3.76-0.0018 7.51 0.00979 11.3 0.00265 1.38 0.00187 2.76-0.00253 4.14-0.00544 1.88 0.00258 3.76 0.0114 5.64 7.54e-4 1.05 0.00151 2.11 0.00229 3.19 0.00537 2.66 0.00537 2.66 2.25 4.48 2.51 0.175 4.91 0.232 7.41 0.195 0.97-0.00302 0.97-0.00302 1.96-0.0061 2.42-0.0105 4.83-0.0384 7.25-0.0642l16.4-0.125 1-64c14.3 0.186 14.3 0.186 28.9 0.375 3.01 0.034 6.02 0.068 9.12 0.103 2.37 0.0352 4.75 0.0711 7.12 0.108 1.24 0.0114 2.48 0.0227 3.76 0.0344 1.18 0.0201 2.35 0.0401 3.57 0.0608 1.54 0.02 1.54 0.02 3.11 0.0404 2.44 0.278 2.44 0.278 4.44 2.28 0.241 2.52 0.241 2.52 0.227 5.73-1.51e-4 1.2-3.02e-4 2.4-4.58e-4 3.64-0.0103 1.3-0.0206 2.6-0.0313 3.95-0.00373 1.34-0.00658 2.68-0.00858 4.03-0.00764 3.53-0.0273 7.07-0.0494 10.6-0.0205 3.61-0.0296 7.21-0.0397 10.8-0.0215 7.08-0.0556 14.2-0.0977 21.2 2.96 1.48 5.95 1.12 9.2 1.1 0.707-0.00141 1.41-0.00283 2.14-0.00429 2.26-0.0056 4.52-0.0182 6.79-0.0309 1.53-0.00501 3.07-0.00958 4.6-0.0137 3.76-0.011 7.52-0.0283 11.3-0.0488 0.879-3.78 1.12-7.27 1.12-11.1 0.00137-1.24 0.00275-2.47 0.00417-3.74-0.00354-1.36-0.00717-2.72-0.0109-4.08-2.82e-4 -1.44-1.23e-4 -2.88 4.43e-4 -4.32 2.87e-4 -3.9-0.00559-7.8-0.0126-11.7-0.00626-4.08-0.00684-8.16-0.00803-12.2-0.00311-7.72-0.0113-15.4-0.0213-23.2-0.0112-8.79-0.0167-17.6-0.0217-26.4-0.0105-18.1-0.0288-36.2-0.0503-54.2h-34c-0.289 8.8-0.289 8.8-0.568 17.6-0.0381 1.09-0.0762 2.18-0.115 3.31-0.0367 1.12-0.0733 2.24-0.111 3.4-0.205 2.71-0.205 2.71-1.21 4.71-0.287 4.15-0.12 8.21 0.5 12.3 0.703 5.18 0.5 10.5 0.5 15.7h-59c-1.29-2.57-1.12-4.4-1.11-7.28 7.55e-5 -1.1 1.51e-4 -2.2 2.29e-4 -3.34 0.00516-1.19 0.0103-2.39 0.0156-3.61 0.00141-1.22 0.00283-2.44 0.00429-3.69 0.00561-3.9 0.0182-7.81 0.0309-11.7 0.00501-2.64 0.00958-5.28 0.0137-7.92 0.0102-6.48 0.0298-13 0.0488-19.5h-34zm-896 124 1 3z" fill="#FBFCFE"/>
<path transform="translate(436,212)" d="m0 0c20.2-0.0703 40.5-0.123 60.7-0.155 9.39-0.0154 18.8-0.0365 28.2-0.0709 8.19-0.03 16.4-0.0493 24.6-0.0559 4.33-0.00389 8.67-0.013 13-0.0349 4.09-0.0206 8.18-0.0266 12.3-0.0221 1.49-8.17e-4 2.98-0.00667 4.47-0.0183 17.6-0.131 36.5 3.31 50.8 14.4v2c0.804 0.268 1.61 0.536 2.44 0.812 0.846 0.392 1.69 0.784 2.56 1.19 0.33 0.99 0.66 1.98 1 3h2c1.69 1.96 3.26 3.93 4.81 6 0.451 0.597 0.901 1.19 1.37 1.81 14 18.7 18.5 39.2 15.2 62.3-1.73 10-4.79 18.3-10.3 26.9-0.976 1.55-0.976 1.55-1.97 3.13-1.84 2.6-3.54 4.47-5.96 6.5-0.696 0.585-1.39 1.17-2.11 1.77-0.645 0.529-1.29 1.06-1.95 1.6-0.887 0.742-1.77 1.48-2.69 2.25-4.49 3.4-9.13 5.62-14.3 7.75v2c0.664 0.231 1.33 0.461 2.01 0.699 5.48 2.02 9.14 3.76 13 8.3 0.723 0.781 1.45 1.56 2.19 2.37 5.09 5.51 9.1 10.5 11.8 17.5 1.1 2.84 2.21 5.56 3.55 8.3 1.97 4.56 2.21 9.23 2.57 14.1 0.145 1.79 0.293 3.58 0.445 5.36 0.0595 0.783 0.119 1.57 0.18 2.37 0.15 2.03 0.15 2.03 1.25 3.95 0.13 1.57 0.202 3.14 0.246 4.71 0.0315 0.97 0.063 1.94 0.0955 2.94 0.0317 1.05 0.0633 2.09 0.0959 3.17 0.304 8.35 0.742 16.7 1.5 25 0.0747 0.882 0.149 1.76 0.226 2.67 0.0787 0.816 0.157 1.63 0.239 2.47 0.1 1.07 0.1 1.07 0.203 2.16 0.34 2.21 0.34 2.21 2.39 4.89 0.605 2.36 1.14 4.74 1.62 7.12 0.26 1.26 0.521 2.52 0.789 3.82 0.586 3.05 0.586 3.05 0.586 4.05h-56c-3.46-9-5.77-15.2-6.51-24.4-0.0992-1.02-0.198-2.04-0.3-3.09-0.309-3.21-0.593-6.43-0.875-9.65-0.297-3.22-0.6-6.45-0.907-9.67-0.188-1.99-0.37-3.98-0.544-5.97-0.519-5.69-1.33-11.2-2.42-16.9-0.375-2.03-0.633-4.07-0.866-6.12-0.682-3.87-2.01-6.87-3.76-10.4-0.571-1.18-1.14-2.36-1.73-3.57-4.57-7.25-11.9-11.4-20.1-13.5-16-2.92-32.7-1.93-48.9-1.88-8.93 0.0206-17.9 0.0412-27.1 0.0625v105h-59c-1.18-2.36-1.13-3.75-1.13-6.38-0.00261-0.926-0.00522-1.85-0.0079-2.81 0.00223-1.02 0.00446-2.05 0.00676-3.1-0.00156-1.08-0.00312-2.16-0.00473-3.28-0.00401-3.65-8.2e-4 -7.3 0.00232-11-0.00135-2.61-0.00313-5.22-0.00531-7.82-0.00446-6.36-0.00348-12.7-5.87e-4 -19.1 0.00225-5.17 0.00257-10.3 0.00148-15.5-1.53e-4 -0.735-3.06e-4 -1.47-4.64e-4 -2.23-3.2e-4 -1.49-6.44e-4 -2.98-9.73e-4 -4.48-0.00285-14 4.31e-4 -28 0.0058-42 0.00447-12 0.00369-24.1-9.19e-4 -36.1-0.00535-14-0.00746-27.9-0.00439-41.9 3.19e-4 -1.49 6.33e-4 -2.97 9.43e-4 -4.46 1.54e-4 -0.732 3.09e-4 -1.46 4.68e-4 -2.22 8.65e-4 -5.17-5.97e-4 -10.3-0.00295-15.5-0.00309-6.95-9.03e-4 -13.9 0.00489-20.8 0.00133-2.56 9.34e-4 -5.11-0.00126-7.67-0.00271-3.48 6.7e-4 -6.95 0.00568-10.4-0.00223-1.02-0.00446-2.05-0.00676-3.1 0.00261-0.926 0.00522-1.85 0.0079-2.81 1.62e-4 -0.803 3.25e-4 -1.61 4.92e-4 -2.43 0.125-1.95 0.125-1.95 1.13-3.95zm59 46c-0.0231 9.76-0.0409 19.5-0.0518 29.3-0.00523 4.53-0.0123 9.06-0.0236 13.6-0.0108 4.37-0.0168 8.74-0.0194 13.1-0.00185 1.67-0.00547 3.34-0.0109 5.01-0.00721 2.33-0.00826 4.66-0.0078 7-0.0036 0.698-0.00719 1.4-0.0109 2.11-0.266 3.22-0.266 3.22 1.12 5.88 2.24 0.11 4.49 0.149 6.73 0.161 0.704 0.00496 1.41 0.00993 2.13 0.015 2.34 0.0147 4.69 0.0214 7.03 0.0269 1.63 0.00575 3.26 0.0115 4.89 0.0173 3.43 0.0105 6.86 0.0164 10.3 0.0198 4.37 0.00545 8.74 0.0294 13.1 0.058 3.38 0.0188 6.75 0.0238 10.1 0.0254 1.61 0.00301 3.22 0.011 4.83 0.0242 12.6 0.0958 26.2-0.454 36-9.29 8.23-8.6 9.34-16.9 9.21-28.5 0.0116-1.07 0.0232-2.14 0.0352-3.24-0.0364-9.92-1.64-18.8-8.41-26.3-8.77-8.52-19.8-9.13-31.3-9.35-1.11-0.0232-2.22-0.0463-3.37-0.0702-2.36-0.0476-4.72-0.0928-7.08-0.136-3.52-0.066-7.04-0.144-10.6-0.224-14.9-0.303-29.8-0.0444-44.7 0.781z" fill="#FBFCFE"/>
<path transform="translate(1079 205)" d="m0 0c1.97-0.00216 3.95-0.0206 5.92-0.0393 7.34-0.0112 14 0.546 21.1 2.22 1.86 0.344 3.73 0.68 5.59 1.01 16.7 3.1 36.5 7.81 48.4 21 1.36 1.3 1.36 1.3 2.75 2.62 2.25 2.38 2.25 2.38 2.25 4.38 0.99 0.33 1.98 0.66 3 1 12.6 12.8 20.2 30.8 20.1 48.8 0.00258 1.14 0.00516 2.28 0.00781 3.46-0.133 2.73-0.133 2.73-1.13 3.73-1.67 0.114-3.35 0.16-5.02 0.177-1.61 0.0193-1.61 0.0193-3.25 0.0389-1.75 0.0111-1.75 0.0111-3.54 0.0224-1.79 0.0121-1.79 0.0121-3.61 0.0245-2.52 0.0139-5.05 0.0246-7.57 0.0324-3.87 0.0172-7.74 0.0611-11.6 0.105-2.45 0.0101-4.89 0.0186-7.34 0.0254-1.16 0.0175-2.33 0.035-3.52 0.0531-1.62-0.00439-1.62-0.00439-3.27-0.00887-0.95 0.00587-1.9 0.0117-2.88 0.0178-2.4-0.488-2.4-0.488-4.2-2.39-1.24-2.14-1.74-3.73-2.14-6.16-1.35-6.81-2.93-14.1-8.06-18.9v-2c-0.99-0.33-1.98-0.66-3-1-0.33-0.66-0.66-1.32-1-2-5.56-3.03-11-5.1-17.2-6.56-5.61-1.33-5.61-1.33-7.81-2.44-10.8-0.88-21.8-0.744-32 3-1.31 0.342-2.62 0.676-3.94 1-2.96 0.967-4.65 2.1-7.06 4h-3c-0.66 1.32-1.32 2.64-2 4h-2c-0.289 0.949-0.578 1.9-0.875 2.88-1.12 3.12-1.12 3.12-3.12 5.12-0.45 3.25-0.324 6.53-0.312 9.81-0.0161 0.903-0.0322 1.81-0.0488 2.74-0.00363 4.94 0.0644 8.49 3.36 12.5 2.07 1.33 2.07 1.33 4 2v2c0.875 0.284 1.75 0.567 2.65 0.859 3.03 1.03 5.95 2.18 8.91 3.39 9.28 3.58 18.8 6.13 28.4 8.75 1.06 0.292 2.12 0.584 3.22 0.885 10.6 2.91 21.1 5.8 31.8 8.24 14.1 3.24 27 7.35 39.9 13.9v2c0.897 0.155 0.897 0.155 1.81 0.312 2.55 0.8 3.32 1.82 5.19 3.69l3.12 1.5c2.88 1.5 2.88 1.5 3.88 4.5 1.11 0.872 1.11 0.872 2.25 1.76 3.29 2.67 5.42 5.59 7.82 9.05 0.421 0.591 0.842 1.18 1.28 1.79 7.76 11 7.76 11 8.79 17 0.428 2.42 0.884 4.4 1.88 6.65 1.29 3.54 1.54 7 1.74 10.7 0.0402 0.754 0.0804 1.51 0.122 2.28 0.274 6.78-0.437 13.1-1.87 19.7-0.246 1.29-0.492 2.58-0.746 3.9-2.01 9.75-5.56 16.9-11.3 25.1-0.701 1.11-1.4 2.22-2.12 3.37-0.928 1.3-0.928 1.3-1.88 2.63h-2c-0.268 0.639-0.536 1.28-0.812 1.94-1.19 2.06-1.19 2.06-4.19 3.06-0.682 1.33-1.35 2.66-2 4-2.45 2.29-5.23 4.12-8 6-0.71 0.486-1.42 0.972-2.15 1.47-13.1 8.41-27.6 12.8-42.8 15.5-1.19 0.226-2.38 0.451-3.6 0.684-29.3 4.63-63.1 2.25-90.4-9.68-0.953-0.411-1.91-0.822-2.89-1.25-5.35-2.5-10.1-5.67-14.9-9.14-2.36-1.74-2.36-1.74-5.43-3.55-5.04-3.69-9.21-8.35-11.8-14.1h-2c-11-13.3-17.2-32.2-17.1-49.4-0.00258-1.04-0.00516-2.08-0.00781-3.15 0.133-2.48 0.133-2.48 1.13-3.48 1.68-0.0987 3.36-0.128 5.04-0.129 1.61-0.00473 1.61-0.00473 3.26-0.00955 1.17 0.00202 2.34 0.00405 3.54 0.00613 1.19-9.57e-4 2.38-0.00191 3.61-0.0029 2.53-6.82e-4 5.06 0.00117 7.58 0.00534 3.88 0.00534 7.76 5.84e-5 11.6-0.00635 2.45 6.61e-4 4.9 0.00194 7.35 0.00391 1.17-0.00202 2.34-0.00405 3.54-0.00613 1.62 0.00473 1.62 0.00473 3.27 0.00955 0.952 7.96e-4 1.9 0.00159 2.88 0.00241 2.28 0.127 2.28 0.127 4.28 1.13 0.598 2.77 0.598 2.77 1.06 6.25 0.881 6.44 1.62 11.6 4.75 17.4 0.501 0.941 1 1.88 1.52 2.85 1.68 2.55 3.2 3.79 5.67 5.52 0.66 0.99 1.32 1.98 2 3 2.31 1.44 4.6 2.73 7 4 0.665 0.405 1.33 0.81 2.02 1.23 18.6 10.6 42.8 9.68 63 4.77 9.64-2.82 18-8.01 23.1-16.9 1.64-3.81 1.29-7.79 1.29-11.9 0.0245-0.869 0.049-1.74 0.0742-2.63 0.0248-5.49-0.796-9.28-3.59-14-0.862-1.58-0.862-1.58-0.862-3.58-0.681-0.248-1.36-0.495-2.06-0.75-3.51-1.49-6.65-3.33-9.94-5.25-0.66-0.33-1.32-0.66-2-1v-2c-1.52-0.155-1.52-0.155-3.06-0.312-3.35-0.586-5.85-1.45-8.91-2.86-5.74-2.35-11.9-3.65-18-4.83-1.48-0.306-2.96-0.619-4.44-0.938-0.721-0.153-1.44-0.307-2.18-0.465-2.38-0.598-2.38-0.598-4.99-1.49-4.66-1.52-9.39-2.66-14.1-3.86-9.56-2.45-18.9-5.27-28.2-8.55-1.44-0.494-2.88-0.968-4.33-1.43-9.26-2.94-17.3-7.87-24.9-13.9-1.86-1.46-1.86-1.46-4.27-2.73-10.5-6.72-19.4-21.9-22-33.9-0.173-0.902-0.345-1.8-0.523-2.73-0.321-1.42-0.321-1.42-0.648-2.86-3.35-16.4 0.958-32.1 7.65-47.1h2c0.247-0.887 0.495-1.77 0.75-2.69 1.34-3.55 2.75-5.48 5.25-8.31 0.53-0.632 1.06-1.26 1.61-1.91 3.53-4.17 7.09-7.72 11.4-11.1 1.21-1.02 1.21-1.02 2.44-2.06 15.6-11.8 33.6-16.4 52.5-19.5 5.51-1.11 10.2-1.6 16.1-1.6z" fill="#FBFCFE"/>
<path transform="translate(713 212)" d="m0 0c1.11-0.0063 2.23-0.0126 3.38-0.0191 1.21 0.00405 2.42 0.0081 3.66 0.0123 1.85-0.00287 1.85-0.00287 3.74-0.0058 3.29-0.00171 6.57 0.00636 9.86 0.0175 2.02 0.0039 4.04 1.45e-5 6.05-0.00684 3.86-0.0123 7.73-0.0109 11.6-0.00488 1.21-0.00405 2.42-0.0081 3.66-0.0123 1.11 0.0063 2.23 0.0126 3.38 0.0191 1.48 0.00239 1.48 0.00239 2.98 0.00482 2.35 0.254 2.35 0.254 4.35 2.25 0.238 2.89 0.238 2.89 0.22 6.66-4.08e-4 0.693-8.16e-4 1.39-0.00124 2.1-0.00375 2.33-0.0218 4.67-0.0396 7-0.00547 1.67-0.01 3.34-0.0137 5.01-0.00973 3.6-0.0256 7.21-0.046 10.8-0.0318 5.72-0.0473 11.4-0.0601 17.2-0.0366 15.2-0.0953 30.5-0.163 45.7-0.0441 10-0.0791 20-0.098 30-0.00955 4.74-0.025 9.48-0.0551 14.2-2.5 31.8-2.5 31.8 6.26 60.3 0.688 3.25 0.688 3.25 1 6 0.99 0.33 1.98 0.66 3 1 1.23 1.52 2.45 3.03 3.66 4.57 1.84 1.97 3.78 2.7 6.34 3.43v2c1.14 0.371 1.14 0.371 2.31 0.75 4.01 1.36 7.95 2.84 11.9 4.35 16.2 5.26 39.6 3.46 55-3.57 10.1-5.54 15.5-13.6 18.7-24.6 2.25-9.79 2.53-19.1 2.5-29.1 0.00576-1.78 0.0128-3.56 0.0211-5.34 0.015-3.8 0.0209-7.61 0.0195-11.4-0.00205-6.01 0.0176-12 0.0402-18 0.0408-11.7 0.0596-23.3 0.0762-35 0.0224-14.9 0.0558-29.8 0.107-44.7 0.0199-5.98 0.0295-12 0.031-17.9 0.00274-3.71 0.0136-7.42 0.0265-11.1 0.00429-1.72 0.00513-3.45 0.00233-5.17-0.00339-2.35 0.00535-4.69 0.0171-7.04 0.00163-1.31 0.00327-2.63 0.00495-3.98 0.253-3.16 0.253-3.16 2.25-6.16 2.32-0.374 2.32-0.374 5.24-0.372 1.64-0.00934 1.64-0.00934 3.32-0.0189 1.78 0.0138 1.78 0.0138 3.6 0.0279 1.21-4.99e-4 2.43-9.97e-4 3.68-0.00151 2.57 0.00234 5.14 0.0121 7.71 0.0286 3.94 0.0236 7.89 0.0206 11.8 0.0139 2.49 0.00558 4.98 0.0127 7.47 0.0215 1.19-9.11e-4 2.37-0.00182 3.6-0.00276 1.64 0.0143 1.64 0.0143 3.32 0.0289 0.967 0.00461 1.93 0.00921 2.93 0.014 2.32 0.261 2.32 0.261 4.32 2.26 0.197 2.43 0.269 4.74 0.254 7.17 0.00468 1.12 0.00468 1.12 0.00945 2.26 0.00801 2.52 0.00164 5.04-0.00463 7.55 0.00271 1.8 0.00627 3.6 0.0106 5.4 0.00915 4.9 0.00557 9.81-7.58e-4 14.7-0.00506 5.14-3.69e-4 10.3 0.00277 15.4 0.00364 8.64-0.00117 17.3-0.0107 25.9-0.0108 9.96-0.00739 19.9 0.00365 29.9 0.00911 8.56 0.0103 17.1 0.00512 25.7-0.00311 5.11-0.00357 10.2 0.00307 15.3 0.00582 4.82 0.00169 9.63-0.00979 14.4-0.00262 1.76-0.00192 3.52 0.00253 5.27 0.0562 24.5 0.0562 24.5-4.27 35-0.34 1.92-0.34 1.92-0.688 3.88-1.47 7.14-5.11 13.6-8.31 20.1h-2c-0.124 0.598-0.247 1.2-0.375 1.81-0.625 2.19-0.625 2.19-2.62 5.19h-2c-0.262 0.748-0.523 1.5-0.793 2.27-5.46 12.4-22.5 20.5-34.2 25.7-1.42 0.661-1.42 0.661-2.87 1.34-31.3 13.4-76.3 13-108 1.92-6.52-2.73-12.8-5.87-19-9.25-0.991-0.534-1.98-1.07-3-1.62-10.9-6.38-20.9-16.3-27-27.4-0.839-1.47-0.839-1.47-1.7-2.96-6.94-12.9-11.3-26.6-12.5-41.2-0.0811-1.01-0.162-2.02-0.246-3.07-1.11-15.8-0.894-31.6-0.871-47.4 0.00514-4.69 3.49e-4 -9.39-0.00277-14.1-0.00361-7.85 0.00109-15.7 0.0107-23.6 0.011-9.08 0.00729-18.2-0.00365-27.2-0.00906-7.83-0.0104-15.7-0.00512-23.5 0.00312-4.66 0.00354-9.32-0.00307-14-0.00576-4.36-0.00181-8.72 0.00979-13.1 0.00265-1.6 0.00187-3.2-0.00253-4.81-0.00543-2.18 0.00135-4.36 0.0114-6.54 7.54e-4 -1.22 0.00151-2.44 0.00229-3.7 0.463-5.21 3.02-5.09 7.59-5.09z" fill="#FBFCFE"/>
<path transform="translate(1313 212)" d="m0 0c1.15-0.00961 2.3-0.0192 3.49-0.0291 1.87-0.00637 1.87-0.00637 3.78-0.0129 1.92-0.00855 1.92-0.00855 3.87-0.0173 2.71-0.00946 5.41-0.0164 8.12-0.0198 3.47-0.00549 6.94-0.0295 10.4-0.058 3.31-0.0231 6.61-0.0251 9.92-0.0299 1.25-0.0123 2.49-0.0247 3.78-0.0374 1.15 3e-3 2.31 6e-3 3.5 0.00909 1.02-0.00365 2.04-0.00729 3.08-0.011 2.55 0.367 2.55 0.367 4.35 1.73 1.67 2.27 2.13 4.47 2.77 7.2 0.888 4.17 0.888 4.17 3.44 7.44 0.836 2.96 1.47 5.95 2.12 8.96 0.897 3.11 2.17 5.32 3.88 8.04 0.809 2.11 0.809 2.11 1.44 4.19 1.79 5.64 3.73 11.4 6.53 16.6 1.5 3.18 2.45 6.52 3.47 9.88 0.444 1.44 0.888 2.87 1.33 4.31 0.709 2.3 1.41 4.61 2.12 6.91 1.28 4.21 1.28 4.21 3.58 7.91 1.99 2.83 2.61 5.52 3.47 8.87 1.33 4.89 2.83 9.35 5 13.9 1.87 4.22 3.31 8.61 4.84 13 1.35 3.78 2.82 7.49 4.32 11.2 2.29 5.67 4.31 11.4 6.22 17.2 0.805 2.38 1.73 4.7 2.68 7.02 0.715 1.92 1.43 3.84 2.14 5.75 0.941 2.47 1.93 4.92 2.92 7.37 1.45 3.59 2.71 7.2 3.94 10.9 0.696 1.59 1.39 3.18 2.09 4.77 1.68 4.11 3.1 8.33 4.58 12.5 1.28 3.57 2.64 7.11 4.02 10.6 1.28 3.29 2.52 6.53 3.44 9.94 0.801 2.86 1.83 5.49 3.03 8.2 4.69 10.7 8.52 21.7 12.2 32.8 1.03 3.13 2.09 6.24 3.14 9.36 0.551 1.75 0.551 1.75 0.551 2.75h-60v-3h-2c-0.983-2.89-1.96-5.79-2.94-8.69-0.417-1.22-0.417-1.22-0.842-2.47-1.32-3.94-2.4-7.76-3.22-11.8-0.657-1.34-1.32-2.67-2-4-0.493-1.72-0.949-3.45-1.38-5.19-1.38-5.23-3.31-9.94-5.62-14.8-1.59-3.57-2-4.98-2-9-50 0.495-50 0.495-101 1-2.6 5.2-2.6 5.2-4.5 10.5-0.843 2.65-1.68 4.84-3 7.31-1.88 3.99-2.78 8-3.75 12.3-0.713 2.77-1.64 5.27-2.75 7.9-0.654 1.75-1.3 3.5-1.94 5.25-0.318 0.871-0.637 1.74-0.965 2.64-1.42 4.02-2.75 8.07-4.1 12.1h-59c-1-3-1-3-0.18-5.17 0.646-1.28 0.646-1.28 1.3-2.58 2.76-5.77 4.74-11.6 6.66-17.7 0.984-2.91 2.09-5.68 3.32-8.49 2.06-4.85 3.88-9.8 5.76-14.7 0.852-2.22 1.7-4.44 2.55-6.66 0.632-1.65 0.632-1.65 1.28-3.34 0.882-2.3 1.77-4.6 2.66-6.89 0.439-1.13 0.878-2.27 1.33-3.44 0.395-1.02 0.789-2.03 1.2-3.08 1.12-2.99 2.13-5.99 3.11-9.03 1.66-5.08 3.62-9.96 5.71-14.9 3.13-7.44 5.93-15 8.6-22.6 2.09-5.92 4.39-11.7 6.75-17.6 2.58-6.38 4.99-12.8 7.09-19.3 1.08-3.27 2.35-6.44 3.66-9.62 4.12-10.2 8.02-20.4 11.9-30.7 1.41-3.78 2.84-7.55 4.28-11.3 3.48-9.07 6.92-18.1 10.1-27.3 1.25-3.61 2.63-7.12 4.16-10.6 1-2.38 1.9-4.79 2.8-7.22 0.342-0.92 0.684-1.84 1.04-2.79 0.71-1.92 1.42-3.84 2.12-5.76 0.341-0.913 0.682-1.83 1.03-2.77 0.458-1.24 0.458-1.24 0.926-2.52 1.76-3.72 4.7-3.07 8.42-3.09zm22.5 67.2c-2.46 5.28-4.42 10.4-6 16-0.961 2.53-1.98 5.03-3 7.54-2.63 6.45-4.88 13-7.04 19.6-1.3 3.82-2.81 7.49-4.46 11.2-2.01 4.9-3.18 9.9-4.44 15-1.02 3.49-2.42 6.39-4.06 9.62-0.572 1.9-1.1 3.82-1.56 5.75-1.22 5.03-1.22 5.03-3.44 7.25-0.25 2.54-0.25 2.54 0 5 1.08 1.3 1.08 1.3 3.66 1.12 1.19-0.00222 2.38-0.00444 3.6-0.00673 0.654 1.46e-4 1.31 2.92e-4 1.98 4.43e-4 2.17-6.99e-4 4.34-0.00849 6.51-0.0163 1.5-0.00186 3-0.00329 4.5-0.00429 3.96-0.00383 7.91-0.0137 11.9-0.0247 4.04-0.0102 8.07-0.0148 12.1-0.0198 7.92-0.0107 15.8-0.0278 23.8-0.0488-0.142-1.44-0.29-2.88-0.439-4.31-0.0815-0.801-0.163-1.6-0.247-2.43-0.387-2.79-1.23-5.13-2.38-7.7-1.94-4.41-1.94-4.41-1.94-6.56h-2c0.495-1.48 0.495-1.48 1-3-0.927-2.39-1.93-4.67-3-7-2.62-6.09-4.63-12.1-6.28-18.5-0.691-2.64-0.691-2.64-2.28-5.59-1.91-3.82-2.65-7.7-3.44-11.9h-2c0.495-1.49 0.495-1.49 1-3h-2c-2-10-2-10-2.5-12.6-0.478-2.49-0.478-2.49-1.5-5.36h-2c-0.66-3.3-1.32-6.6-2-10h-2z" fill="#FBFCFE"/>
<path transform="translate(185,212)" d="m0 0c17.7-0.0468 35.3-0.082 53-0.104 8.2-0.0103 16.4-0.0243 24.6-0.0473 7.15-0.02 14.3-0.0329 21.5-0.0373 3.78-0.00259 7.56-0.00864 11.3-0.0233 3.57-0.0137 7.14-0.0177 10.7-0.0148 1.92-8.02e-4 3.83-0.0115 5.75-0.0226 19 0.0446 35.6 5.28 52.2 14.2v2c0.723 0.235 1.45 0.469 2.19 0.711 7.61 3.49 14.5 12.2 18.8 19.3v2c0.66 0.33 1.32 0.66 2 1 4.37 8 7.89 15.9 9 25 0.99 1.49 0.99 1.49 2 3 1.33 6.3 1.15 12.6 1.12 19.1 0.00387 1.06 0.00773 2.13 0.0117 3.22-0.00627 5.02-0.0746 9.79-1.14 14.7-0.226 1.16-0.451 2.32-0.684 3.51-0.249 1.19-0.498 2.39-0.754 3.62-0.246 1.2-0.492 2.4-0.746 3.63-0.692 2.75-1.45 4.79-2.82 7.24-0.433 1.05-0.866 2.1-1.31 3.19-1.88 4.46-4.28 8.62-6.69 12.8h-2c-0.112 0.601-0.225 1.2-0.341 1.82-1.07 3.53-3.82 5.69-6.41 8.18-0.526 0.521-1.05 1.04-1.59 1.58-5.1 5-10.1 8.82-16.5 12-1.17 0.579-2.35 1.16-3.55 1.75-6.1 2.88-12 5.2-18.6 6.68-0.94 0.243-1.88 0.486-2.85 0.736-9.94 2.41-19.4 2.74-29.6 2.78-1.53 0.0155-3.07 0.0323-4.6 0.0504-5.61 0.0573-11.2 0.0899-16.8 0.125-18.9 0.155-18.9 0.155-38.1 0.312-0.33 31.4-0.66 62.7-1 95h-58c-0.944-2.83-1.13-4.55-1.13-7.49-0.00391-1.39-0.00391-1.39-0.0079-2.8 0.00223-1.02 0.00446-2.03 0.00676-3.08-0.00234-1.62-0.00234-1.62-0.00473-3.27-4e-3 -3.63-8.22e-4 -7.27 0.00232-10.9-0.00135-2.6-0.00313-5.2-0.00531-7.79-0.00445-6.33-0.00348-12.7-5.87e-4 -19 0.00226-5.15 0.00257-10.3 0.00148-15.4-1.53e-4 -0.732-3.06e-4 -1.46-4.64e-4 -2.22-3.2e-4 -1.49-6.44e-4 -2.97-9.73e-4 -4.46-0.00285-13.9 4.3e-4 -27.9 0.0058-41.8 0.00447-12 0.00369-24-9.19e-4 -35.9-0.00535-13.9-0.00746-27.8-0.00439-41.7 3.19e-4 -1.48 6.33e-4 -2.96 9.43e-4 -4.44 1.54e-4 -0.729 3.09e-4 -1.46 4.68e-4 -2.21 8.65e-4 -5.14-5.97e-4 -10.3-0.00295-15.4-0.00309-6.92-9.03e-4 -13.8 0.00489-20.8 0.00133-2.55 9.34e-4 -5.09-0.00126-7.64-0.00271-3.46 6.7e-4 -6.92 0.00568-10.4-0.00223-1.02-0.00446-2.04-0.00676-3.09 0.00261-0.922 0.00522-1.84 0.0079-2.79 1.62e-4 -0.8 3.25e-4 -1.6 4.92e-4 -2.42 0.125-1.94 0.125-1.94 1.13-3.94zm63.2 45.5c-1.46 0.137-1.46 0.137-2.95 0.278-0.733 0.0706-1.47 0.141-2.22 0.214-0.0231 10.4-0.0409 20.8-0.0518 31.2-0.00523 4.83-0.0123 9.67-0.0236 14.5-0.0108 4.66-0.0168 9.32-0.0194 14-0.00185 1.78-0.00547 3.57-0.0109 5.35-0.00721 2.49-0.00826 4.98-0.0078 7.46-0.00539 1.12-0.00539 1.12-0.0109 2.26-0.295 3.39-0.295 3.39 1.12 6.2 1.77 0.109 3.54 0.149 5.31 0.161 1.14 0.00961 2.27 0.0192 3.44 0.0291 1.24 0.00425 2.48 0.0085 3.76 0.0129 1.27 0.0057 2.55 0.0114 3.86 0.0173 2.71 0.0105 5.43 0.0164 8.14 0.0198 3.44 0.00542 6.87 0.0293 10.3 0.058 3.31 0.0234 6.63 0.0251 9.94 0.0299 1.82 0.0185 1.82 0.0185 3.68 0.0374 14.3-0.0364 29.6-2.51 40.6-12.4 7.19-7.79 8.5-17.3 8.88-27.5 0.0593-0.981 0.119-1.96 0.18-2.97 0.502-11.8-3.55-20.2-11.2-29-1.85-1.71-1.85-1.71-4.81-2.5-0.495-0.99-0.495-0.99-1-2-2.05-0.769-4.15-1.44-6.25-2.06-1.14-0.342-2.28-0.683-3.45-1.04-4.82-1.32-9.28-2.04-14.3-2.22-1.17-0.0421-2.34-0.0841-3.55-0.127-1.25-0.0392-2.49-0.0783-3.78-0.119-1.29-0.0417-2.57-0.0835-3.9-0.126-8.31-0.251-16.6-0.414-24.9-0.436-0.939-0.00459-1.88-0.00918-2.84-0.0139-4.65 0.0104-9.23 0.207-13.9 0.647z" fill="#FBFCFE"/>
<path transform="translate(1017,852)" d="m0 0c7.56-0.0935 15.1-0.164 22.7-0.207 3.51-0.0207 7.03-0.0487 10.5-0.0945 35.5-0.45 35.5-0.45 46.8 7.3 0.633 1.98 0.633 1.98 1 4 1.37 1.76 2.88 3.32 4.43 4.93 4.29 5.67 5.1 11 5.01 17.9-0.0083 0.792-0.0166 1.58-0.0251 2.4-0.205 7.13-1.22 13.2-6.1 18.7-2.98 2.74-5.3 4.32-9.32 5.11v2c0.804 0.289 1.61 0.577 2.44 0.875 2.56 1.12 2.56 1.12 3.56 3.12 0.516 0.495 1.03 0.99 1.56 1.5 1.44 1.5 1.44 1.5 1.44 3.5 0.308 0.764 0.616 1.53 0.934 2.32 3.61 9.08 3.4 19.3 3.64 28.9 0.153 4.95 0.504 9.1 2.43 13.7-3.94 0.145-7.87 0.234-11.8 0.312-1.12 0.0419-2.24 0.0838-3.39 0.127-1.61 0.0242-1.61 0.0242-3.25 0.0488-0.99 0.0262-1.98 0.0524-3 0.0793-2.54-0.568-2.54-0.568-4.35-2.94-3.32-7.3-2.52-16-2.71-23.9-0.11-7.63-0.11-7.63-2.48-14.8-4.1-3.15-7.4-3.41-12.5-3.51-1.05-0.0269-1.05-0.0269-2.13-0.0544-2.23-0.0539-4.46-0.0879-6.69-0.121-1.52-0.0332-3.04-0.0677-4.56-0.104-3.71-0.0847-7.42-0.152-11.1-0.209-0.914 3.89-1.13 7.51-1.13 11.5-0.00129 1.23-0.00258 2.47-0.00391 3.74 0.0058 1.92 0.0058 1.92 0.0117 3.88-0.00387 1.29-0.00773 2.58-0.0117 3.9 0.00129 1.23 0.00258 2.46 0.00391 3.73 0.00113 1.13 0.00226 2.25 0.00342 3.41 0.00406 2.91 0.00406 2.91 1.13 5.83-0.121 2.26-0.121 2.26-0.438 4.69-0.102 0.808-0.204 1.62-0.309 2.45-0.0838 0.615-0.168 1.23-0.254 1.86-3.62 0.0868-7.25 0.14-10.9 0.188-1.03 0.0251-2.07 0.0503-3.13 0.0762-1.48 0.0145-1.48 0.0145-2.99 0.0293-0.911 0.0157-1.82 0.0314-2.76 0.0476-0.741-0.112-1.48-0.225-2.25-0.341-2.09-3.14-2.25-3.85-2.25-7.43-0.00564-0.906-0.0113-1.81-0.0171-2.74 0.00405-0.991 0.0081-1.98 0.0123-3-0.0035-1.05-0.00701-2.09-0.0106-3.17-0.00882-3.47-0.00297-6.93 0.00378-10.4-0.00135-2.41-0.00329-4.81-0.0058-7.22-0.00295-5.05 0.00135-10.1 0.0107-15.1 0.0114-6.47 0.00484-12.9-0.00714-19.4-0.00723-4.97-0.00493-9.94 2.56e-4 -14.9 0.00133-2.39-3.05e-4 -4.77-0.00496-7.16-0.00508-3.33 0.00266-6.67 0.0138-10-0.00405-0.987-0.0081-1.97-0.0123-2.99 0.0283-4.57 0.0669-8.3 2.27-12.4zm23 21c-2.23 4.46-1.18 10.6-1.19 15.5-0.0122 1.26-0.0245 2.52-0.0371 3.82-0.00193 1.2-0.00387 2.41-0.00586 3.64-0.00411 1.11-0.00822 2.22-0.0125 3.36-0.0308 2.83-0.0308 2.83 2.24 4.67 4.33 0.401 8.67 0.329 13 0.316 2.15-0.00314 4.3 0.0202 6.45 0.0457 1.38 0.00228 2.76 0.00298 4.14 0.00195 1.25 0.00298 2.5 0.00596 3.79 0.00903 4.78-0.493 8.73-1.81 12.5-4.93 2.57-3.28 2.32-6.1 2.38-10.2 0.0387-1.82 0.0387-1.82 0.0781-3.67-0.364-3.97-1.14-6.25-3.33-9.58-4.19-3.29-8.01-3.4-13.1-3.29-0.77 0.00424-1.54 0.00849-2.33 0.0129-2.45 0.0167-4.89 0.0544-7.34 0.0926-1.66 0.0151-3.33 0.0287-4.99 0.041-4.07 0.033-8.13 0.0847-12.2 0.146z" fill="#F6F7F9"/>
<path transform="translate(512,859)" d="m0 0v2c0.639 0.268 1.28 0.536 1.94 0.812 2.06 1.19 2.06 1.19 3.06 4.19 0.66 0.33 1.32 0.66 2 1 2.53 3.84 4.57 7.95 6.62 12.1 0.312 0.612 0.624 1.22 0.945 1.85 3.27 6.53 3.69 11.9 4.15 19.2 0.1 2.84 0.1 2.84 1.28 4.9 1.06 17.7-0.995 34.8-12.8 48.8-8.38 9.37-18.6 15.6-31.2 17.2-17.6 0.946-33.2 0.187-47.6-11.1-12.3-11.2-18.9-28.3-19.7-44.8-0.448-17.8 2.56-35.4 14.5-49.3 19-19.9 54.3-24.3 76.8-6.88zm-55 17c-11 11.6-13.2 26.7-13.3 42 0.0436 3.15 0.0436 3.15 2.27 5.97 0.597 2.05 1.13 4.11 1.62 6.19 0.26 1.09 0.521 2.17 0.789 3.29 0.193 0.831 0.387 1.66 0.586 2.52h2c0.0838 0.588 0.168 1.18 0.254 1.78 1.71 5.09 7.66 8.05 12.1 10.6 8.13 3.7 16.5 4.08 24.9 1.04 8.06-3.76 13.8-9.12 17.4-17.4 2.2-6.66 1.96-13.7 1.95-20.7 0.00104-0.674 0.00207-1.35 0.00314-2.04-0.0441-12.2-1.36-23.9-10.3-32.9-12.3-9.34-27.9-9.59-40.3-0.312z" fill="#F5F6F8"/>
<path transform="translate(660,852)" d="m0 0h82c2.22 6.65 1 14 1 21h-60v23c1.69 1.69 3.84 1.17 6.16 1.21 1.1 0.0199 2.2 0.0399 3.34 0.0604 1.2 0.0167 2.4 0.0334 3.63 0.0506 1.22 0.0208 2.44 0.0416 3.7 0.063 3.91 0.0656 7.83 0.124 11.7 0.183 2.65 0.0432 5.29 0.0868 7.94 0.131 6.5 0.107 13 0.209 19.5 0.307-0.33 6.27-0.66 12.5-1 19h-55c-0.769 6.92-0.922 9.75 0 16v14h63c1.2 3.6 0.918 6.16 0.625 9.94-0.0902 1.23-0.18 2.45-0.273 3.71-0.272 2.59-0.684 4.85-1.35 7.35-11 0.0694-22.1 0.123-33.1 0.155-5.13 0.0157-10.3 0.037-15.4 0.0709-4.95 0.0325-9.89 0.0505-14.8 0.0583-1.89 0.00556-3.78 0.0164-5.67 0.0326-2.64 0.0217-5.28 0.0248-7.92 0.0234-0.788 0.0108-1.58 0.0216-2.39 0.0327-2.18-0.0125-2.18-0.0125-5.64-0.373-2.09-3.13-2.25-3.82-2.25-7.38-0.00564-0.896-0.0113-1.79-0.0171-2.71 0.00405-0.98 0.0081-1.96 0.0123-2.97-0.0035-1.03-0.00701-2.07-0.0106-3.13-0.00882-3.43-0.00297-6.86 0.00378-10.3-0.00135-2.38-0.00329-4.76-0.0058-7.14-0.00295-4.99 0.00135-9.99 0.0107-15 0.0114-6.4 0.00485-12.8-0.00714-19.2-0.00723-4.92-0.00492-9.84 2.56e-4 -14.8 0.00133-2.36-3.01e-4 -4.72-0.00496-7.08-0.00509-3.3 0.00267-6.6 0.0138-9.9-0.00405-0.974-0.0081-1.95-0.0123-2.95 0.00564-0.904 0.0113-1.81 0.0171-2.74 7.54e-4 -0.78 0.00151-1.56 0.00229-2.36 0.252-2.4 0.252-2.4 2.25-8.4zm21 81v12h1v-12h-1z" fill="#F3F4F6"/>
<path transform="translate(1320 857)" d="m0 0c2.67 2.11 3.82 3.94 5.43 6.91 0.886 1.22 0.886 1.22 1.79 2.47 4.95 6.99 6.11 12 6.21 20.5h-22c-1.32-2.97-2.64-5.94-4-9-3.78-4.96-8.02-6.81-14-8-7.09-0.737-12.5 0.05-19 3-1.01 0.412-1.01 0.412-2.04 0.832-2.48 1.48-3.41 2.98-4.83 5.48-0.677 1.14-0.677 1.14-1.37 2.3-0.99 2.39-0.99 2.39-0.123 4.84 2.89 5.37 9.71 7.39 15.3 9.15 4.84 1.36 9.74 2.44 14.6 3.52 26.5 5.92 26.5 5.92 34.4 13.9 0.66 0.33 1.32 0.66 2 1 0.124 0.701 0.247 1.4 0.375 2.12 0.581 2.67 1.25 4.14 2.62 6.44 3.46 5.95 3.66 11.6 3 18.4-1.62 5.86-4.23 11.2-8 16h-2c-0.236 0.597-0.472 1.19-0.715 1.81-3.47 5.92-11.9 8.7-18.2 10.6-16.3 4.2-36 2.94-50.5-5.66-7.1-4.95-12.4-10.7-15.6-18.8 0.495-0.99 0.495-0.99 1-2h-2c-0.222-1.46-0.427-2.92-0.625-4.38-0.116-0.812-0.232-1.62-0.352-2.46-0.00773-0.714-0.0155-1.43-0.0234-2.16 2-2 2-2 4.15-2.23 1.3 0.0157 1.3 0.0157 2.63 0.0317 0.941 0.00645 1.88 0.0129 2.85 0.0195 0.985 0.0168 1.97 0.0335 2.98 0.0508 1.49 0.0135 1.49 0.0135 3.01 0.0273 2.46 0.0236 4.91 0.0565 7.37 0.0977 0.218 0.907 0.218 0.907 0.441 1.83 0.648 2.51 1.47 4.81 2.56 7.17 0.66 0.33 1.32 0.66 2 1 0.33 0.99 0.66 1.98 1 3 9.45 6.16 19.8 7.34 30.8 5.25 4.43-1.09 7.99-2.99 11.2-6.25 0.482-4.71 0.562-9.29 0-14-5.74-6.32-17.6-7.69-25.7-9.44-3.77-0.846-7.54-1.7-11.3-2.56-0.731-0.166-1.46-0.332-2.22-0.503-9.98-2.33-18.5-5.86-24.9-14.2-1.88-3.31-1.88-3.31-1.88-7.31h-2c-1.42-12.9-1.31-21.5 6.61-32.2 16.3-19.8 48.4-18.9 69-6.75zm-5.57 75.9v7h1v-7h-1z" fill="#F2F3F5"/>
<path transform="translate(625,859)" d="m0 0c6.52 7.34 11.1 16.2 12 26l-1 2h-22c-0.99-2.97-1.98-5.94-3-9-4.87-5.34-10.7-7.55-17.7-8.29-6.17-0.197-10.6 0.816-16.3 3.29-1.06 0.22-1.06 0.22-2.15 0.445-0.611 0.183-1.22 0.366-1.85 0.555-1.25 2.41-1.25 2.41-2 5-0.33 0.66-0.66 1.32-1 2-0.5 3.42-0.5 3.42 0 7 7.26 8.77 23.9 10 34.6 12.3 10.9 2.4 21.7 5.23 30.4 12.7 0.369 1.66 0.696 3.33 1 5 0.945 1.78 1.98 3.46 3.06 5.16 3.18 6.25 2.92 15 1.22 21.6-1.95 5.21-4.35 9.27-8.28 13.2h-2c-0.195 0.585-0.389 1.17-0.59 1.77-1.98 3.13-4.73 4.3-7.97 5.85-1.77 0.886-1.77 0.886-3.57 1.79-7.49 3.3-15 3.95-23.1 3.9-0.921-0.00564-1.84-0.0113-2.79-0.0171-12.8-0.226-26.6-2.92-36.2-12-1.75-2.25-1.75-2.25-1.75-4.25-0.99-0.33-1.98-0.66-3-1-4.76-6.94-6.18-13.7-5-22h21c0.99 2.97 1.98 5.94 3 9 6.83 6.96 13.6 9.92 23.3 10.2 7.71-0.104 15-1.75 21.3-6.41 1.97-2.58 1.68-4.58 1.6-7.78-0.0232-1.58-0.0232-1.58-0.0469-3.19-0.0925-2.89-0.0925-2.89-1.2-5.81-8.9-3.59-18.5-5.43-27.8-7.68-3.04-0.739-6.07-1.49-9.11-2.25-0.959-0.229-1.92-0.457-2.9-0.693-8.61-2.17-16.4-5.44-22.2-12.4v-2h-2c-3.46-7.85-4.73-14.4-4-23 0.0593-0.782 0.119-1.56 0.18-2.37 1.31-8.99 7.6-16.3 14.7-21.6 18.1-11.7 46.2-9.85 63.1 3z" fill="#F2F3F5"/>
<path transform="translate(1135 852)" d="m0 0c0.911 0.0105 1.82 0.0209 2.76 0.0317 0.986 0.00645 1.97 0.0129 2.99 0.0195 1.55 0.0251 1.55 0.0251 3.13 0.0508 1.04 0.00902 2.08 0.018 3.15 0.0273 2.57 0.0236 5.15 0.0566 7.72 0.0977 1.21 3.63 1.12 6.92 1.08 10.7-0.00307 0.782-0.00613 1.56-0.00929 2.37-0.00715 1.7-0.0165 3.4-0.0279 5.1-0.0174 2.69-0.0277 5.38-0.0359 8.07-0.0245 7.65-0.06 15.3-0.105 22.9-0.0268 4.68-0.0438 9.36-0.0549 14-0.0062 1.78-0.0162 3.56-0.0301 5.35-0.0192 2.49-0.0261 4.99-0.0303 7.48-0.00876 0.735-0.0175 1.47-0.0266 2.23 0.00922 4.84 0.501 8.64 3.65 12.4 6.21 5.38 13 7.99 21.3 7.65 5.96-0.886 10.9-2.69 14.9-7.22 2.45-5.34 2.56-10.5 2.54-16.3-0.00146-0.69-0.00292-1.38-0.00443-2.09-0.00379-1.49-0.00988-2.98-0.0181-4.47-0.0128-2.36-0.0193-4.73-0.0241-7.09-0.0133-5.87-0.0375-11.7-0.0614-17.6-0.0198-4.96-0.0354-9.93-0.0456-14.9-0.00644-2.32-0.0189-4.63-0.0317-6.95-0.00364-1.44-0.00699-2.87-0.01-4.31-0.00524-1.24-0.0105-2.49-0.0159-3.77 0.338-10.9 0.338-10.9 3.11-13.7 2.34-0.227 2.34-0.227 5.23-0.195 1.55 0.00967 1.55 0.00967 3.12 0.0195 1.62 0.0251 1.62 0.0251 3.27 0.0508 1.09 0.00902 2.18 0.018 3.3 0.0273 2.69 0.0236 5.39 0.0566 8.08 0.0977v4c0.0113 1.93 0.023 3.86 0.0352 5.79 0.0093 2.28 0.0184 4.56 0.0273 6.84 0.00838 1.16 0.0168 2.32 0.0254 3.51 0.00322 1.1 0.00645 2.21 0.00977 3.34 0.00524 1.01 0.0105 2.02 0.0159 3.06-0.114 2.46-0.114 2.46-1.11 4.46-0.0956 1.66-0.13 3.33-0.125 5-0.00258 0.887-0.00516 1.77-0.00781 2.69-0.0185 2.34-0.0185 2.34 1.13 4.31 0.0289 2.99-0.00353 5.96-0.0859 8.95-0.0212 0.893-0.0425 1.79-0.0644 2.71-0.0463 1.89-0.0952 3.79-0.147 5.68-0.0774 2.89-0.145 5.77-0.211 8.66-0.0463 1.84-0.0931 3.68-0.141 5.52-0.0198 0.86-0.0397 1.72-0.0602 2.6-0.125 4.39-0.453 8.56-1.29 12.9-0.0838 0.727-0.168 1.45-0.254 2.2-1.36 9.02-7.64 15.5-14.7 20.8-8.69 5.51-18.4 6.36-28.4 6.25-1.38-0.0134-1.38-0.0134-2.79-0.0271-13.1-0.224-23.8-2.19-33.4-11.9-14.5-17.1-12.8-38.2-12.6-59.4 0.019-2.7 0.0231-5.41 0.0267-8.11 0.00521-3.29 0.0197-6.57 0.0344-9.86 0.00425-1.19 0.0085-2.38 0.0129-3.61 0.218-26 0.218-26 5.44-26.6z" fill="#F7F8FA"/>
<path transform="translate(1392 852)" d="m0 0c1.08 0.0105 2.16 0.0209 3.27 0.0317 1.75 0.00967 1.75 0.00967 3.54 0.0195 1.22 0.0168 2.45 0.0335 3.71 0.0508 1.23 0.00902 2.46 0.018 3.73 0.0273 3.05 0.0236 6.1 0.0566 9.14 0.0977 0.582 2.31 1.14 4.62 1.68 6.95 0.249 1.05 0.498 2.1 0.754 3.18 0.246 1.05 0.492 2.11 0.746 3.2 0.624 2.8 0.624 2.8 2.82 4.68 0.542 1.71 1.01 3.44 1.44 5.19 0.938 3.83 2.17 7.3 3.77 10.9 1.47 3.52 2.57 7.16 3.73 10.8 1.8 5.53 3.71 10.9 6.2 16.1 1.34 3.09 2.22 6.29 3.15 9.52 1.42 4.93 2.83 9.8 5.21 14.4 1.78 3.71 2.72 7.42 3.75 11.4 1.01 3.69 2.37 7.16 3.75 10.7 0.99 2.97 1.98 5.94 3 9h-25v-3h-2c-0.197-0.847-0.197-0.847-0.398-1.71-0.83-3.16-1.97-6.2-3.08-9.27-0.523-2.02-0.523-2.02 0.477-4.02h-2c-0.33-1.65-0.66-3.3-1-5h-43c-0.99 3.96-1.98 7.92-3 12-2.8 9.8-2.8 9.8-4 11-1.78 0.0873-3.56 0.107-5.35 0.0977-1.08-0.00322-2.16-0.00645-3.27-0.00977-1.14-0.00838-2.27-0.0168-3.44-0.0254-1.14-0.00451-2.28-0.00902-3.46-0.0137-2.83-0.0118-5.65-0.0283-8.48-0.0488 0.132-1.43 0.271-2.85 0.414-4.28 0.0769-0.794 0.154-1.59 0.233-2.41 0.518-3.4 1.89-6.22 3.35-9.32 2.31-5.83 4.17-11.7 5.94-17.8 0.937-2.86 2.04-5.57 3.25-8.32 1.58-3.76 2.86-7.63 4.18-11.5 0.617-1.78 1.23-3.56 1.85-5.34 0.301-0.867 0.601-1.73 0.911-2.63 1.18-3.39 2.4-6.78 3.61-10.2 1.31-3.65 2.6-7.31 3.81-11 1.7-5.15 3.56-10.2 5.44-15.3 0.507-1.4 1.01-2.79 1.52-4.19 0.535-1.46 1.07-2.92 1.61-4.38 0.254-0.703 0.507-1.41 0.769-2.13 2.66-7.18 2.66-7.18 6.72-7.53zm9.39 28.2c-4.06 9.49-7.46 18.9-10.3 28.8-0.746 2.16-0.746 2.16-2.75 5.16-0.491 2.24-0.491 2.24-0.688 4.62-0.0864 0.797-0.173 1.59-0.262 2.41-0.0168 0.647-0.0335 1.29-0.0508 1.96 1.08 1.31 1.08 1.31 3.68 1.11 1.75-0.00786 1.75-0.00786 3.54-0.0159 1.26-0.00322 2.52-0.00645 3.82-0.00977 1.34-0.00836 2.68-0.0168 4.02-0.0254 1.34-0.00501 2.69-0.00958 4.03-0.0137 3.3-0.0118 6.6-0.0283 9.9-0.0488-0.599-2.35-1.27-4.69-2-7-0.66-0.33-1.32-0.66-2-1-0.371-2.01-0.647-4.03-0.875-6.06-0.685-5-1.69-8.57-4.18-12.9-1.55-3.35-1.94-6.89-2.45-10.5-0.487-2.49-1.25-4.32-2.49-6.52h-1z" fill="#F9FAFC"/>
<path transform="translate(910,852)" d="m0 0c7.25-0.103 14.5-0.172 21.8-0.22 2.46-0.02 4.92-0.0471 7.38-0.082 33-0.456 33-0.456 44.2 6.74 2.65 2.59 3.5 4.11 4.62 7.56 0.641 0.754 1.28 1.51 1.94 2.29 6.05 7.98 5.78 20.1 5.06 29.7l-1 1c0.0412 1.03 0.0825 2.06 0.125 3.12-0.204 6.34-2.66 11.4-7.12 15.9-12.8 8.96-25.5 9.16-40.6 9.06-1.94-0.00677-1.94-0.00677-3.92-0.0137-3.17-0.0117-6.34-0.0281-9.51-0.0488-1.11 4.45-1.13 8.8-1.1 13.4 0.00212 1.19 0.00212 1.19 0.00429 2.4 0.00557 2.52 0.0181 5.03 0.0309 7.55 0.00502 1.71 0.00958 3.42 0.0137 5.13 0.011 4.18 0.0282 8.37 0.0488 12.6-3.62 0.0868-7.25 0.14-10.9 0.188-1.03 0.0251-2.07 0.0503-3.13 0.0762-1.48 0.0145-1.48 0.0145-2.99 0.0293-0.911 0.0157-1.82 0.0314-2.76 0.0476-0.741-0.112-1.48-0.225-2.25-0.341-2.1-3.15-2.25-3.88-2.25-7.47-0.00564-0.915-0.0113-1.83-0.0171-2.77 0.00405-1 0.0081-2 0.0123-3.04-0.0035-1.06-0.00701-2.11-0.0106-3.2-0.00882-3.5-0.00297-7.01 0.00378-10.5-0.00135-2.43-0.00329-4.86-0.0058-7.29-0.00295-5.1 0.00135-10.2 0.0107-15.3 0.0114-6.54 0.00484-13.1-0.00714-19.6-0.00722-5.02-0.00493-10 2.56e-4 -15.1 0.00134-2.41-3.09e-4 -4.82-0.00496-7.23-0.00507-3.37 0.00265-6.74 0.0138-10.1-0.00405-1-0.0081-2-0.0123-3.03 0.00846-1.38 0.00846-1.38 0.0171-2.78 7.54e-4 -0.796 0.00151-1.59 0.00229-2.41 0.281-2.44 1.04-4.07 2.25-6.19zm23 21c-3.16 5.24-2.33 11.1-2.31 17.1-0.0161 1.2-0.0322 2.39-0.0488 3.63-6.45e-4 1.15-0.00129 2.29-0.00195 3.47-0.00298 1.05-0.00596 2.1-0.00903 3.18 0.187 2.64 0.187 2.64 1.51 4.5 4.39 2.74 10.7 1.63 15.7 1.6 1.27 0.02 2.54 0.04 3.85 0.0605 8.37-0.00438 12.2-0.495 18.2-6.29 2.81-5.4 1.81-13.8 0.68-19.6-1.13-3.12-2.4-4.49-5.22-6.22-3.69-1.5-6.28-1.69-10.2-1.64-1.93 0.0145-1.93 0.0145-3.91 0.0293-1.35 0.0251-2.69 0.0505-4.04 0.0762-1.37 0.0151-2.74 0.0288-4.11 0.041-3.34 0.0353-6.68 0.0846-10 0.146z" fill="#F6F7F9"/>
<path transform="translate(766,852)" d="m0 0c2.63-0.286 5.03-0.378 7.66-0.341 1.19-6.57e-4 1.19-6.57e-4 2.39-0.00133 2.62 0.00209 5.24 0.0255 7.86 0.0489 1.81 0.00559 3.63 0.00986 5.44 0.0129 4.78 0.0115 9.55 0.0409 14.3 0.0741 4.87 0.0307 9.75 0.0444 14.6 0.0595 9.57 0.0322 19.1 0.0834 28.7 0.146 0.958 2.88 1.07 4.29 0.879 7.23-0.0483 0.802-0.0967 1.6-0.146 2.43-0.0841 1.25-0.0841 1.25-0.17 2.53-0.0522 0.845-0.104 1.69-0.158 2.56-0.13 2.08-0.266 4.17-0.404 6.25-0.712 0.0103-1.42 0.0206-2.16 0.0312-6.7 0.0978-13.4 0.2-20.1 0.308-3.44 0.0553-6.89 0.109-10.3 0.158-3.95 0.0567-7.91 0.121-11.9 0.186-1.24 0.0167-2.48 0.0334-3.76 0.0506-1.71 0.0299-1.71 0.0299-3.46 0.0604-1.01 0.0155-2.02 0.0311-3.06 0.0471-2.25-0.0953-2.25-0.0953-3.28 1.16-0.409 3.44-0.517 6.91-0.688 10.4-0.0599 0.972-0.12 1.94-0.182 2.95-0.0706 1.4-0.0706 1.4-0.143 2.83-0.046 0.858-0.092 1.72-0.139 2.6-0.0174 2.54-0.0174 2.54 2.15 5.25 2.26 0.476 2.26 0.476 4.91 0.432 1.53 0.0297 1.53 0.0297 3.09 0.06 1.11 0.00639 2.21 0.0128 3.35 0.0194 1.13 0.018 2.26 0.0359 3.42 0.0544 3.62 0.0543 7.23 0.0881 10.9 0.121 2.45 0.0332 4.9 0.0676 7.34 0.104 6.01 0.0852 12 0.153 18 0.209-0.108 1.03-0.108 1.03-0.219 2.09-0.0928 0.94-0.186 1.88-0.281 2.85-0.0928 0.917-0.186 1.83-0.281 2.78-0.272 4.09-0.219 8.19-0.219 12.3h-51c-0.853 11.4-0.853 11.4-1.1 22.8 0.00212 1.1 0.00212 1.1 0.00429 2.23 0.00547 2.28 0.018 4.56 0.0309 6.84 0.00503 1.57 0.00959 3.15 0.0137 4.72 0.0109 3.8 0.028 7.6 0.0488 11.4-3.62 0.0868-7.25 0.14-10.9 0.188-1.03 0.0251-2.07 0.0503-3.13 0.0762-1.48 0.0145-1.48 0.0145-2.99 0.0293-0.911 0.0157-1.82 0.0314-2.76 0.0476-0.741-0.112-1.48-0.225-2.25-0.341-2.11-3.16-2.25-3.91-2.25-7.52-0.00564-0.925-0.0113-1.85-0.0171-2.8 0.00405-1.01 0.0081-2.03 0.0123-3.07-0.0035-1.07-0.00701-2.14-0.0106-3.24-0.00882-3.54-0.00297-7.08 0.00378-10.6-0.00135-2.45-0.00329-4.91-0.0058-7.36-0.00295-5.15 0.00135-10.3 0.0107-15.4 0.0114-6.61 0.00484-13.2-0.00714-19.8-0.00722-5.07-0.00493-10.1 2.56e-4 -15.2 0.00134-2.44-3.12e-4 -4.87-0.00496-7.31-0.00506-3.4 0.00264-6.8 0.0138-10.2-0.00405-1.01-0.0081-2.03-0.0123-3.07 0.00846-1.39 0.00846-1.39 0.0171-2.8 7.54e-4 -0.805 0.00151-1.61 0.00229-2.44 0.252-2.08 0.252-2.08 2.25-5.08z" fill="#F4F5F7"/>
<path transform="translate(377,852)" d="m0 0h22c1.25 3.74 1.16 7.24 1.16 11.1 0.00745 1.24 0.00745 1.24 0.015 2.51 0.0146 2.75 0.0214 5.5 0.0269 8.25 0.00575 1.92 0.0115 3.84 0.0173 5.75 0.0105 4.03 0.0164 8.06 0.0198 12.1 0.00546 5.13 0.0294 10.3 0.058 15.4 0.0187 3.97 0.0238 7.93 0.0254 11.9 0.00301 1.89 0.011 3.78 0.0242 5.67 0.183 28.2 0.183 28.2-8.35 37.3-10.9 8.8-21.3 9.89-35 9-9.07-1.26-15.8-3.96-21.7-11.1-4.43-6.44-5.6-13.1-6.74-20.7-0.194-3.09-0.194-3.09-1.54-4.25-0.261-4.62-0.113-6.77 2-11h21v4c0.268 3.2 0.695 6.38 1.12 9.56 0.139 1.29 0.139 1.29 0.281 2.62 0.338 2.42 0.715 4.54 1.59 6.82 4.39 3.23 8.37 3.52 13.7 3.36 3.37-0.517 5.11-1.83 7.34-4.36 1.28-3.84 1.17-7.48 1.19-11.5 0.00829-0.865 0.0166-1.73 0.0251-2.62 0.0174-1.88 0.0326-3.76 0.0458-5.64 0.021-2.97 0.048-5.94 0.0767-8.91 0.0699-7.38 0.129-14.8 0.189-22.1 0.0509-6.23 0.106-12.5 0.166-18.7 0.0266-2.93 0.0474-5.87 0.068-8.8 0.0166-1.79 0.0335-3.58 0.0507-5.37 0.00418-0.82 0.00837-1.64 0.0127-2.49 0.0629-5.64 0.0629-5.64 1.18-7.86z" fill="#F7F8FA"/>
<path transform="translate(181,893)" d="m0 0c4.36-0.42 8.62-0.129 13 0v25c2.54-1.53 5.09-3.06 7.56-4.69 6.08-2.32 13.3-2.45 19.4-0.125 5.88 3.55 7.75 8.19 10.1 14.4 0.851 2.37 0.851 2.37 2.02 4.33 2.79 6.37 1.37 14.7-0.844 21-2.9 6.95-6.27 12.7-13.2 16.1-6.32 1.59-11.9 1.2-18-1-2.31-2.06-2.31-2.06-4-4-1.49-0.495-1.49-0.495-3-1v5h-14c-1.14-3.41-1.13-6.03-1.15-9.63-0.00336-0.669-0.00672-1.34-0.0102-2.03-0.0095-2.21-0.0115-4.42-0.0125-6.63-0.00321-1.54-0.00658-3.07-0.0101-4.61-0.00599-3.22-0.00784-6.44-0.00725-9.65 1.02e-4 -4.13-0.0136-8.25-0.0308-12.4-0.0111-3.17-0.0131-6.34-0.0126-9.51-0.00118-1.52-0.00561-3.04-0.0133-4.56-0.00978-2.13-0.00693-4.25-8.95e-4 -6.38-0.00143-1.21-0.00285-2.42-0.00432-3.67 0.247-2.96 0.247-2.96 2.25-5.96zm16 35c-4.23 6.28-3.48 13.7-3 21 1.24 3.72 2.89 4.72 6 7 3.7 1.85 7.96 1.48 12 1 2.93-1.8 4.47-2.94 6-6 0.318-3.24 0.324-6.49 0.375-9.75 0.0374-0.895 0.0748-1.79 0.113-2.71 0.058-4.37 0.00411-7.57-2.74-11.1-3.39-3-5.1-3.47-9.47-3.66-3.83 0.38-6.47 1.62-9.28 4.23z" fill="#F4F5F7"/>
<path transform="translate(995,617)" d="m0 0c5.69-0.0497 11.4-0.0859 17.1-0.11 1.93-0.01 3.87-0.0236 5.8-0.041 2.79-0.0244 5.58-0.0356 8.37-0.0444 1.28-0.0155 1.28-0.0155 2.59-0.0313 6.41-0.00118 12.3 0.487 17.9 3.91 5.69 5.84 7.04 11 7.41 19-0.274 5.78-1.67 10.9-5.88 15-4.13 3.08-7.65 4.43-12.7 4.47-0.894 0.00961-1.79 0.0192-2.71 0.0291-0.963 0.00425-1.93 0.0085-2.92 0.0129-0.99 0.0057-1.98 0.0114-3 0.0173-2.09 0.00944-4.18 0.016-6.28 0.0198-3.21 0.00974-6.42 0.0408-9.63 0.0723-2.03 0.00653-4.06 0.0118-6.09 0.0156-0.965 0.0123-1.93 0.0247-2.92 0.0374-0.891-3e-3 -1.78-6e-3 -2.7-0.00909-0.786 0.00365-1.57 0.00729-2.38 0.011-0.636-0.121-1.27-0.243-1.93-0.367-2.47-3.7-2.29-6.53-2.27-10.8-0.00191-0.763-0.00383-1.53-0.0058-2.31-0.00136-1.61 0.00232-3.23 0.0107-4.84 0.0107-2.46 1.07e-4 -4.93-0.0127-7.39 0.00132-1.57 0.00388-3.14 0.00781-4.71-0.00405-0.736-0.0081-1.47-0.0123-2.23 0.034-3.73 0.208-6.55 2.28-9.71z" fill="#FBFCFE"/>
<path transform="translate(284,617)" d="m0 0c5.8-0.0747 11.6-0.129 17.4-0.165 1.97-0.015 3.94-0.0354 5.91-0.0615 2.84-0.0368 5.69-0.0535 8.53-0.0667 0.867-0.0155 1.73-0.031 2.63-0.0469 6.13-0.00165 11.9 0.805 17.5 3.34 2.5 2.94 2.5 2.94 4 6 0.588 1.05 0.588 1.05 1.19 2.12 2.85 6.59 2.85 14 0.25 20.7-2.27 4.59-5.05 6.63-9.44 9.19-2.83 0.943-4.54 1.12-7.47 1.11-1.35-1.13e-4 -1.35-1.13e-4 -2.73-2.29e-4 -0.969-0.00516-1.94-0.0103-2.94-0.0156-1.49-0.00212-1.49-0.00212-3.01-0.00429-3.18-0.0056-6.36-0.0182-9.54-0.0309-2.15-0.00501-4.31-0.00958-6.46-0.0137-5.28-0.011-10.6-0.0278-15.8-0.0488-1.27-3.8-1.14-7.36-1.13-11.3-9.57e-4 -0.812-0.00191-1.62-0.0029-2.46-6.8e-4 -1.72 0.00116-3.43 0.00534-5.15 0.00536-2.63 4.56e-5 -5.26-0.00635-7.89 6.61e-4 -1.67 0.00194-3.33 0.00391-5-0.00202-0.79-0.00405-1.58-0.00613-2.39 0.024-5.56 0.024-5.56 1.14-7.79z" fill="#FBFCFE"/>
<path transform="translate(239,913)" d="m0 0h16c0.268 1.86 0.536 3.71 0.812 5.62 0.77 4.7 2.02 8.13 4.19 12.4 0.353 2.39 0.558 4.74 0.691 7.14 0.102 0.612 0.204 1.22 0.309 1.86 0.66 0.33 1.32 0.66 2 1 0.599 2.31 0.957 4.62 1.34 6.97 0.218 0.67 0.436 1.34 0.66 2.03 1.49 0.495 1.49 0.495 3 1 0.238-1.31 0.238-1.31 0.48-2.65 1.41-7.41 3.04-14.7 5.02-22 0.201-0.757 0.403-1.51 0.61-2.29 2.28-8.18 2.28-8.18 4.89-11.1 3.36-0.488 3.36-0.488 7.19-0.312 1.27 0.0451 2.54 0.0902 3.86 0.137 0.976 0.058 1.95 0.116 2.96 0.176-2.54 10.3-2.54 10.3-4.88 15.1-2.02 4.3-3.33 8.7-4.62 13.2-1.9 6.66-4.03 13.1-6.5 19.6-0.482 1.3-0.962 2.61-1.44 3.91-1.49 4.04-3.01 8.07-4.56 12.1-0.362 0.951-0.724 1.9-1.1 2.88-1.86 4.57-3.49 7.53-7.9 10.1-4.75 1.63-10 1.09-15 1-0.196-1.44-0.381-2.87-0.562-4.31-0.104-0.801-0.209-1.6-0.316-2.43-0.121-2.26-0.121-2.26 0.879-5.26 1.64-0.217 1.64-0.217 3.31-0.438 3.62-0.445 3.62-0.445 6.69-1.56 0.859-9.35-1.65-16.4-5-25-0.907-2.61-1.77-5.24-2.62-7.88-1.44-4.35-2.91-8.67-4.55-12.9-1.2-3.17-2.36-6.36-3.51-9.55-0.437-1.2-0.874-2.41-1.32-3.65-0.988-2.98-0.988-2.98-0.988-4.98z" fill="#F4F5F7"/>
<path transform="translate(873,630)" d="m0 0h2c1 3 1 3 1 5 0.93 3.65 2.02 7.04 3.5 10.5 1.49 3.47 2.5 6.86 3.5 10.5 1.23 3.87 2.49 7.73 4 11.5 0.928 2.32 1.8 4.64 2.62 7 0.26 0.732 0.521 1.46 0.789 2.22 0.586 2.28 0.586 2.28 0.586 7.28h-35c-1.06-5.31-0.734-6.65 1.12-11.5 0.231-0.614 0.462-1.23 0.699-1.86 0.712-1.89 1.44-3.76 2.18-5.64 0.409-1.06 0.817-2.12 1.24-3.21 0.809-2.09 1.62-4.19 2.43-6.28 1.84-4.87 3.56-9.77 5.27-14.7 1.27-3.64 2.58-7.25 4.05-10.8z" fill="#F9FAFC"/>
<path transform="translate(936,219)" d="m0 0h1v167h-1v-167z" fill="#000102"/>
<path transform="translate(1270,596)" d="m0 0h1v144h-1v-144z" fill="#000102"/>
<path transform="translate(766,245)" d="m0 0h1v142h-1v-142z" fill="#000102"/>
<path transform="translate(960,595)" d="m0 0h1v140h-1v-140z" fill="#000102"/>
<path transform="translate(677,674)" d="m0 0h1c0.795 4.2 1.13 8.17 1.13 12.4 0.00129 1.23 0.00258 2.45 0.00391 3.71-0.00387 1.27-0.00773 2.54-0.0117 3.85 0.00387 1.24 0.00773 2.48 0.0117 3.75-0.00883 8.47-0.424 16.8-1.14 25.2h-1v-49z" fill="#000102"/>
<path transform="translate(400,862)" d="m0 0h1v35h-1v-35z" fill="#000102"/>
<path transform="translate(932,932)" d="m0 0h1v34h-1v-34z" fill="#000102"/>
<path transform="translate(788,934)" d="m0 0h1v32h-1v-32z" fill="#000102"/>
<path transform="translate(932,877)" d="m0 0h1v26h-1v-26z" fill="#000102"/>
<path transform="translate(677,614)" d="m0 0h1c0.226 3.27 0.428 6.54 0.625 9.81 0.0645 0.929 0.129 1.86 0.195 2.81 0.0516 0.893 0.103 1.79 0.156 2.71 0.0524 0.822 0.105 1.64 0.159 2.49-0.135 2.18-0.135 2.18-2.14 5.18v-23z" fill="#000102"/>
<path transform="translate(400,924)" d="m0 0h1v16h-1v-16z" fill="#000102"/>
<path transform="translate(1398,720)" d="m0 0h1v12h-1v-12z" fill="#FCFDFF"/>
<path transform="translate(531,893)" d="m0 0h1v10h-1v-10z" fill="#000002"/>
<path transform="translate(1223,883)" d="m0 0h1v10h-1v-10z" fill="#000102"/>
<path transform="translate(788,887)" d="m0 0h1v9h-1v-9z" fill="#000102"/>
<path transform="translate(677,648)" d="m0 0h1v9h-1v-9z" fill="#000102"/>
<path transform="translate(1365,620)" d="m0 0h1v9h-1v-9z" fill="#000102"/>
<path transform="translate(656,408)" d="m0 0h1v8h-1v-8z" fill="#000102"/>
<path transform="translate(1108,963)" d="m0 0 2 1c-0.33 1.32-0.66 2.64-1 4-0.33-1.65-0.66-3.3-1-5z" fill="#000002"/>
<path transform="translate(445,917)" d="m0 0c0.66 0.66 1.32 1.32 2 2-0.33 0.99-0.66 1.98-1 3-0.33-1.65-0.66-3.3-1-5z" fill="#000102"/>
<path transform="translate(1398,644)" d="m0 0h1v7h-1v-7z" fill="#FCFDFF"/>
<path transform="translate(1398,630)" d="m0 0h1v7h-1v-7z" fill="#FCFDFF"/>
<path transform="translate(399,297)" d="m0 0h1v7h-1v-7z" fill="#000102"/>
<path transform="translate(1157,936)" d="m0 0c0.99 1.49 0.99 1.49 2 3-0.33 0.66-0.66 1.32-1 2-0.33-1.65-0.66-3.3-1-5z" fill="#000102"/>
<path transform="translate(682,920)" d="m0 0h1v6h-1v-6z" fill="#000102"/>
<path transform="translate(994,876)" d="m0 0h1v6h-1v-6z" fill="#000002"/>
<path transform="translate(1398,685)" d="m0 0h1v6h-1v-6z" fill="#FCFDFF"/>
<path transform="translate(637,918)" d="m0 0c0.66 1.32 1.32 2.64 2 4-0.66-0.33-1.32-0.66-2-1v-3z" fill="#000002"/>
<path transform="translate(341,702)" d="m0 0h1v5h-1v-5z" fill="#000102"/>
<path transform="translate(891,680)" d="m0 0 2 1c-0.33 0.99-0.66 1.98-1 3-0.33-1.32-0.66-2.64-1-4z" fill="#000102"/>
<path transform="translate(1108,679)" d="m0 0h1v5h-1v-5z" fill="#000102"/>
<path transform="translate(1398,594)" d="m0 0h1v5h-1v-5z" fill="#FCFDFF"/>
<path transform="translate(666,478)" d="m0 0c0.66 0.99 1.32 1.98 2 3-0.99-0.33-1.98-0.66-3-1 0.33-0.66 0.66-1.32 1-2z" fill="#000102"/>
<path transform="translate(766,221)" d="m0 0h1v5h-1v-5z" fill="#000102"/>
<path transform="translate(1039,952)" d="m0 0 1 4z" fill="#000102"/>
<path transform="translate(1156,932)" d="m0 0 1 4z" fill="#000102"/>
<path transform="translate(994,899)" d="m0 0 1 4z" fill="#000102"/>
<path transform="translate(988,864)" d="m0 0 2 1c-0.33 0.66-0.66 1.32-1 2-0.33-0.99-0.66-1.98-1-3z" fill="#000002"/>
<path transform="translate(677,735)" d="m0 0 1 4z" fill="#000102"/>
<path transform="translate(1398,672)" d="m0 0 1 4z" fill="#FCFDFF"/>
<path transform="translate(1398,662)" d="m0 0 1 4z" fill="#FCFDFF"/>
<path transform="translate(677,642)" d="m0 0c0.99 1.49 0.99 1.49 2 3h-2v-3z" fill="#000102"/>
<path transform="translate(567,933)" d="m0 0h2c-0.33 0.66-0.66 1.32-1 2-0.33-0.66-0.66-1.32-1-2z" fill="#000002"/>
<path transform="translate(1433,906)" d="m0 0h2c-0.33 0.66-0.66 1.32-1 2-0.33-0.66-0.66-1.32-1-2z" fill="#000102"/>
<path transform="translate(1102,866)" d="m0 0c0.66 0.66 1.32 1.32 2 2h-2v-2z" fill="#000002"/>
<path transform="translate(769,408)" d="m0 0h2c-0.33 0.66-0.66 1.32-1 2-0.33-0.66-0.66-1.32-1-2z" fill="#000102"/>
<path transform="translate(935,212)" d="m0 0h2c-0.33 0.66-0.66 1.32-1 2-0.33-0.66-0.66-1.32-1-2z" fill="#000002"/>
<path transform="translate(1364,678)" d="m0 0 2 1z" fill="#000102"/>
</svg>
