<?xml version="1.0" encoding="UTF-8"?>
<svg version="1.1" viewBox="0 0 1600 1168" width="1280" height="1280" xmlns="http://www.w3.org/2000/svg">
<path transform="translate(184,513)" d="m0 0h1281v305c-149 0.0201-149 0.0201-190 0.0251-2.4 2.88e-4 -4.81 5.76e-4 -7.21 8.65e-4 -56.2 0.00674-112 0.0121-168 0.0164-1.82 1.39e-4 -3.65 2.79e-4 -5.47 4.18e-4 -38.3 0.00292-76.5 0.00564-115 0.00812-19.2 0.00125-38.4 0.00253-57.6 0.00385-2.9 1.99e-4 -5.8 3.97e-4 -8.7 5.95e-4 -44.7 0.00306-89.3 0.00697-134 0.0133-0.961 1.37e-4 -1.92 2.74e-4 -2.91 4.15e-4 -15.5 0.00221-31 0.0045-46.5 0.00679-44.6 0.0066-89.2 0.0127-134 0.0153-0.916 5.35e-5 -1.83 1.07e-4 -2.78 1.62e-4 -20.1 0.00117-40.2 0.00206-60.3 0.0027-8.09 2.62e-4 -16.2 5.62e-4 -24.3 8.76e-4 -0.886 3.34e-5 -1.77 6.69e-5 -2.68 1.01e-4 -28.6 0.0011-57.1 0.00537-85.7 0.0113-28.8 0.00596-57.5 0.00882-86.3 0.00734-3.97-2.03e-4 -7.94-3.7e-4 -11.9-5.16e-4 -0.778-2.99e-5 -1.56-5.98e-5 -2.36-9.05e-5 -12.4-3.82e-4 -24.7 0.00261-37.1 0.00699-12.1 0.00423-24.3 0.00494-36.4 0.00182-6.5-0.00152-13-0.0014-19.5 0.00305-5.89 0.00401-11.8 0.00352-17.7-7.43e-4 -2.13-7.21e-4 -4.27 2.77e-4 -6.4 0.0031-2.87 0.00356-5.74 0.00109-8.61-0.00304-0.841 0.00251-1.68 0.00502-2.55 0.0076-5.67-0.0176-5.67-0.0176-6.78-1.13v-304zm362 92.2c-7.87 9.31-10.6 20.9-9.69 32.8 1.45 10.8 6.27 19.5 14.9 26.4 8.5 5.61 17.4 8.87 27.1 11.6 1.18 0.344 2.37 0.688 3.59 1.04 6.06 1.75 12.1 3.43 18.2 5.04 19.7 5.27 19.7 5.27 25.2 13.9 1.54 4.83 0.869 8.33-1 13-4.32 5.28-9.3 8-16 9-25.5 1.67-25.5 1.67-35.4-5.81-5.29-5.17-6.86-10.4-8.04-17.6-0.188-0.866-0.376-1.73-0.57-2.62-2.92-1.46-5.5-1.11-8.76-1.1-0.663 0.00141-1.33 0.00283-2.01 0.00429-2.12 0.0056-4.24 0.0182-6.36 0.0309-1.44 0.00501-2.87 0.00958-4.31 0.0137-3.52 0.011-7.04 0.0283-10.6 0.0488-1.96 12.8 1.47 23.2 8.9 33.7 10.9 13.3 27.8 19.1 44.4 21.1 1.56 0.0906 3.12 0.152 4.69 0.188 1.47 0.058 1.47 0.058 2.96 0.117 17.9 0.39 35.2-2.81 50-13.1 0.887-0.578 1.77-1.15 2.69-1.75 9-8.76 13.6-20 14.3-32.5-0.134-11.9-3.8-22.1-12-30.9-9-8.14-20.1-12.7-31.8-15.5-1.83-0.465-3.67-0.931-5.5-1.4-2.84-0.712-5.69-1.42-8.54-2.13-25.9-6.44-25.9-6.44-31.3-11.9-1.15-4.74-1.2-9.05-0.188-13.8 3.3-4.81 6.56-6.7 12.2-8.19 10.7-1.35 23-1.37 31.9 5.44 3.33 3.36 4.61 6.76 5.77 11.3 0.256 0.985 0.512 1.97 0.775 2.99 0.281 1.12 0.281 1.12 0.568 2.27 4.4 0.0247 8.79 0.0428 13.2 0.0549 1.5 0.00504 2.99 0.0119 4.49 0.0205 2.15 0.0121 4.29 0.0178 6.44 0.0222 1.29 0.00524 2.59 0.0105 3.92 0.0159 2.85 0.226 2.85 0.226 3.96-1.11 1.3-12.3-3.23-22.6-10.7-32.2-10.3-11.5-27.9-16.9-42.8-17.7-1.23-0.0464-1.23-0.0464-2.49-0.0938-1.03-0.0773-1.03-0.0773-2.08-0.156-18.5-0.851-37.3 6.01-50.2 19.3zm581 3.81c-15.5 19.4-22.3 43.4-19.8 68.2 2.6 20.2 10.1 39.1 25.9 52.6 1.93 1.49 3.9 2.86 5.93 4.22 0.566 0.428 1.13 0.856 1.71 1.3 14.7 10.4 36.3 12.2 53.6 10.1 12.1-2.1 23.1-6.63 32.7-14.4 1.05-0.763 2.1-1.53 3.19-2.31 10.9-10.4 16.8-24.9 18.8-39.7v-6h-32c-1.34 3.36-2.36 6.25-3.25 9.69-2.62 8.72-6.5 15.5-14.5 20.2-9 4.42-20.5 4.47-30.1 1.93-10.7-3.99-18.3-11.5-23.1-21.8-5.92-16.8-6.16-37 0.328-53.6 4.95-10.2 11.1-17 21.8-21.3 11.8-3.08 23.1-1.51 33.8 3.92 7.52 4.61 10.6 13.2 14 21h30c2.29-4.59 1.85-6.75 0.625-11.4-0.179-0.704-0.358-1.41-0.543-2.13-4.01-14.4-13.7-25.5-26.1-33.4-10.6-5.89-21.9-9.29-34-10-0.731-0.0529-1.46-0.106-2.21-0.16-20.9-0.8-42.5 7.89-56.8 23.2zm-878-18c-0.0988 1.93-0.126 3.87-0.127 5.81-0.00282 1.26-0.00564 2.52-0.00854 3.82 0.00194 1.41 0.00399 2.82 0.00613 4.23-0.00135 1.48-0.00313 2.95-0.00531 4.43-0.00457 4.02-0.00278 8.04 3.79e-4 12.1 0.00252 4.2 1.86e-4 8.4-0.00139 12.6-0.00182 7.05 5.85e-4 14.1 0.00534 21.2 0.00544 8.16 0.00368 16.3-0.00183 24.5-0.00453 7-0.00518 14-0.00256 21 0.00156 4.18 0.00176 8.37-0.00154 12.6-0.00288 3.93-9.03e-4 7.87 0.00489 11.8 0.00133 1.45 9.33e-4 2.9-0.00126 4.34-0.00271 1.97 0.00128 3.94 0.00568 5.9 3.77e-4 1.1 7.54e-4 2.21 0.00114 3.35-0.153 2.41-0.153 2.41 1.13 3.46 2.52 0.0885 5.01 0.115 7.54 0.0977 0.667-0.00101 1.33-0.00201 2.02-0.00305 2.5-0.00525 5-0.0192 7.51-0.0321 5.59-0.0206 11.2-0.0412 16.9-0.0625v-58c9.84 0.155 9.84 0.155 19.9 0.312 2.05 0.0249 4.1 0.0498 6.21 0.0754 1.66 0.0323 3.31 0.0657 4.97 0.1 1.25 0.00937 1.25 0.00937 2.53 0.0189 5.95 0.143 12 0.773 17.4 3.49 6 9.55 6.92 22 8.12 32.9 0.233 2.06 0.47 4.12 0.714 6.19 0.218 1.85 0.425 3.7 0.631 5.56 0.52 3.83 0.52 3.83 2.53 9.32h34c-1.98-7.92-1.98-7.92-4-16-0.47-4.27-0.848-8.41-1.06-12.7-1.26-20.1-1.26-20.1-11.5-36.9-1.41-1.2-2.91-2.3-4.42-3.38-1.34-0.998-2.67-2-4-3 0.568-0.34 1.14-0.681 1.72-1.03 10.1-6.36 16-13.6 18.9-25.3 2.04-12.9 0.462-24.6-6.49-35.7-7.92-10.6-18.2-15.8-31.1-17.9-6.85-0.532-13.7-0.375-20.6-0.328-1.98 0.00306-3.95 0.00493-5.93 0.00568-4.11 0.00458-8.23 0.0189-12.3 0.0412-5.28 0.0285-10.6 0.0392-15.9 0.0437-4.07 0.00414-8.13 0.0139-12.2 0.0259-1.95 0.00571-3.9 0.0105-5.85 0.0143-2.71 0.00683-5.42 0.0204-8.13 0.0363-1.21 0.00168-1.21 0.00168-2.45 0.00339-3.62-0.31-3.62-0.31-6.64 1.16zm154 0c-0.0966 1.95-0.122 3.9-0.12 5.85-0.00137 1.27-0.00275 2.54-0.00417 3.85 0.00354 1.42 0.00717 2.85 0.0109 4.27 2.82e-4 1.49 1.24e-4 2.98-4.43e-4 4.46-2.88e-4 4.05 0.00561 8.1 0.0126 12.2 0.00623 4.23 0.00684 8.46 0.00803 12.7 0.00311 8.01 0.0113 16 0.0213 24 0.0132 10.8 0.0187 21.7 0.0245 32.5 0.00942 17.1 0.0293 34.1 0.0475 51.2h116v-27c-1.73-1.73-3.96-1.12-6.26-1.12-0.754 0.0036-1.51 0.00719-2.28 0.0109-0.79-1.46e-4 -1.58-2.92e-4 -2.39-4.43e-4 -2.62 6.99e-4 -5.25 0.00849-7.87 0.0163-1.81 0.00186-3.63 0.00329-5.44 0.00429-4.79 0.00383-9.57 0.0137-14.4 0.0247-5.74 0.012-11.5 0.0166-17.2 0.0225-8.72 0.00971-17.4 0.0289-26.2 0.0462v-36l15.9 0.0352c3.32 0.00511 6.64 0.00992 9.97 0.0137 5.28 0.00599 10.6 0.0131 15.8 0.0266 4.25 0.0108 8.51 0.0168 12.8 0.0194 1.63 0.00185 3.25 0.00547 4.88 0.0109 2.27 0.00721 4.54 0.00826 6.81 0.0078 1.29 0.00222 2.59 0.00444 3.92 0.00673 2.79 0.211 2.79 0.211 3.89-1.12 0.0996-1.84 0.131-3.69 0.133-5.53 0.00129-1.12 0.00258-2.24 0.00391-3.39-0.00387-1.18-0.00773-2.36-0.0117-3.57 0.00387-1.18 0.00773-2.36 0.0117-3.57-0.00129-1.12-0.00258-2.24-0.00391-3.39-0.00169-1.55-0.00169-1.55-0.00342-3.14 0.14-2.35 0.14-2.35-1.13-3.39-2.24-0.124-4.48-0.178-6.72-0.205-0.702-0.0099-1.4-0.0198-2.13-0.03-2.33-0.0317-4.66-0.0564-7-0.0811-1.61-0.0206-3.23-0.0416-4.84-0.063-4.25-0.0553-8.51-0.105-12.8-0.153-4.34-0.0502-8.67-0.106-13-0.161-8.51-0.108-17-0.209-25.5-0.307v-30c39.1-0.495 39.1-0.495 79-1v-28c-1.58-1.58-3.17-1.13-5.37-1.13-0.942-0.00282-1.88-0.00564-2.86-0.00854-1.04 0.00202-2.08 0.00405-3.16 0.00613-1.09-0.00175-2.18-0.0035-3.31-0.00531-3.63-0.00442-7.25-0.00148-10.9 0.00189-2.51-6.73e-4 -5.01-0.00164-7.52-0.0029-5.26-0.00148-10.5 5.84e-4 -15.8 0.00534-6.09 0.00544-12.2 0.00368-18.3-0.00183-5.85-0.00508-11.7-0.00455-17.6-0.00162-2.49 6.7e-4 -4.99-1.6e-4 -7.48-0.00248-3.48-0.00253-6.96 0.00131-10.4 0.0069-1.56-0.00304-1.56-0.00304-3.16-0.00613-1.41 0.00423-1.41 0.00423-2.86 0.00854-0.824 3.77e-4 -1.65 7.54e-4 -2.5 0.00114-1.88-0.0791-1.88-0.0791-2.87 1.13zm275 0c-0.0966 1.95-0.122 3.9-0.12 5.85-0.00137 1.27-0.00275 2.54-0.00417 3.85 0.00354 1.42 0.00717 2.85 0.0109 4.27 2.82e-4 1.49 1.24e-4 2.98-4.43e-4 4.46-2.88e-4 4.05 0.00561 8.1 0.0126 12.2 0.00623 4.23 0.00684 8.46 0.00803 12.7 0.00311 8.01 0.0113 16 0.0213 24 0.0132 10.8 0.0187 21.7 0.0245 32.5 0.00942 17.1 0.0293 34.1 0.0475 51.2h116v-27c-1.73-1.73-3.96-1.12-6.26-1.12-0.754 0.0036-1.51 0.00719-2.28 0.0109-0.79-1.46e-4 -1.58-2.92e-4 -2.39-4.43e-4 -2.62 6.99e-4 -5.25 0.00849-7.87 0.0163-1.81 0.00186-3.63 0.00329-5.44 0.00429-4.79 0.00383-9.57 0.0137-14.4 0.0247-5.74 0.012-11.5 0.0166-17.2 0.0225-8.72 0.00971-17.4 0.0289-26.2 0.0462v-36l15.9 0.0352c3.32 0.00511 6.64 0.00992 9.97 0.0137 5.28 0.00599 10.6 0.0131 15.8 0.0266 4.25 0.0108 8.51 0.0168 12.8 0.0194 1.63 0.00185 3.25 0.00547 4.88 0.0109 2.27 0.00721 4.54 0.00826 6.81 0.0078 1.29 0.00222 2.59 0.00444 3.92 0.00673 2.79 0.211 2.79 0.211 3.89-1.12 0.0996-1.84 0.131-3.69 0.133-5.53 0.00129-1.12 0.00258-2.24 0.00391-3.39-0.00387-1.18-0.00773-2.36-0.0117-3.57 0.00387-1.18 0.00773-2.36 0.0117-3.57-0.00129-1.12-0.00258-2.24-0.00391-3.39-0.00169-1.55-0.00169-1.55-0.00342-3.14 0.14-2.35 0.14-2.35-1.13-3.39-2.24-0.124-4.48-0.178-6.72-0.205-0.702-0.0099-1.4-0.0198-2.13-0.03-2.33-0.0317-4.66-0.0564-7-0.0811-1.61-0.0206-3.23-0.0416-4.84-0.063-4.25-0.0553-8.51-0.105-12.8-0.153-4.34-0.0502-8.67-0.106-13-0.161-8.51-0.108-17-0.209-25.5-0.307v-30c39.1-0.495 39.1-0.495 79-1v-28c-1.58-1.58-3.17-1.13-5.37-1.13-0.942-0.00282-1.88-0.00564-2.86-0.00854-1.04 0.00202-2.08 0.00405-3.16 0.00613-1.09-0.00175-2.18-0.0035-3.31-0.00531-3.63-0.00442-7.25-0.00148-10.9 0.00189-2.51-6.73e-4 -5.01-0.00164-7.52-0.0029-5.26-0.00148-10.5 5.84e-4 -15.8 0.00534-6.09 0.00544-12.2 0.00368-18.3-0.00183-5.85-0.00508-11.7-0.00455-17.6-0.00162-2.49 6.7e-4 -4.99-1.6e-4 -7.48-0.00248-3.48-0.00253-6.96 0.00131-10.4 0.0069-1.56-0.00304-1.56-0.00304-3.16-0.00613-1.41 0.00423-1.41 0.00423-2.86 0.00854-0.824 3.77e-4 -1.65 7.54e-4 -2.5 0.00114-1.88-0.0791-1.88-0.0791-2.87 1.13zm178 1.08c-0.602 1.45-0.602 1.45-1.22 2.92-0.47 1.12-0.939 2.25-1.42 3.4-0.494 1.29-0.983 2.59-1.47 3.89-0.265 0.699-0.531 1.4-0.804 2.12-0.856 2.26-1.71 4.52-2.55 6.78-0.589 1.56-1.18 3.11-1.77 4.67-0.872 2.3-1.74 4.6-2.61 6.9-2.07 5.47-4.17 10.9-6.31 16.4-4.43 11.4-8.66 22.8-12.8 34.2-6.65 18.2-13.4 36.4-20.5 54.4-0.332 0.847-0.665 1.69-1.01 2.57-0.603 1.53-1.21 3.06-1.82 4.59-1.44 3.44-1.44 3.44-1.93 7.1h34c4.7-11.6 4.7-11.6 8.81-23.3 2.11-6.53 2.11-6.53 3.19-8.69h56c4.94 14.9 4.94 14.9 6.49 19.6 0.404 1.21 0.807 2.43 1.22 3.68 0.621 1.87 0.621 1.87 1.25 3.78 0.918 2.86 0.918 2.86 2.03 4.98h35c-0.8-4-1.76-7.34-3.15-11.1-0.663-1.81-0.663-1.81-1.34-3.65-0.482-1.3-0.964-2.6-1.45-3.9-0.497-1.35-0.993-2.69-1.49-4.04-3.61-9.78-7.33-19.5-11.1-29.2-2.89-7.47-5.69-15-8.44-22.5-2.8-7.65-5.64-15.3-8.48-22.9-0.284-0.765-0.568-1.53-0.86-2.32-3.67-9.88-7.37-19.8-11.2-29.6-2.31-6.02-4.47-12.1-6.54-18.2-0.863-2.64-0.863-2.64-3.01-4.52-2.47-0.236-4.83-0.352-7.31-0.371-0.723-0.00903-1.45-0.0181-2.19-0.0274-1.53-0.0145-3.06-0.0234-4.59-0.0271-2.34-0.0119-4.68-0.0611-7.02-0.112-1.49-0.00946-2.97-0.0167-4.46-0.0215-0.7-0.0195-1.4-0.0391-2.12-0.0592-3.33 0.031-4.89 0.111-7.1 2.7zm105-2.08v152h34v-58c6.41 0.103 12.8 0.206 19.4 0.312 3.01 0.0373 3.01 0.0373 6.08 0.0754 1.62 0.0323 3.24 0.0657 4.85 0.1 0.818 0.00624 1.64 0.0125 2.48 0.0189 7.07 0.174 13.6 1.26 19 5.99 5.57 7.79 5.82 18.9 6.69 28.1 0.253 12.4 0.253 12.4 4.44 23.4 2.45 0.0884 4.87 0.115 7.32 0.0977 0.731-0.00141 1.46-0.00283 2.22-0.00429 2.34-0.00561 4.69-0.0182 7.03-0.0309 1.59-0.00501 3.17-0.00958 4.76-0.0137 3.89-0.011 7.79-0.0283 11.7-0.0488-0.2-0.681-0.4-1.36-0.606-2.06-2.53-9.23-3.32-18.4-3.98-27.9-1.34-19-1.34-19-11.1-34.6-1.19-1.03-2.39-2.04-3.61-3.03-1.67-1.38-3.18-2.84-4.68-4.39 0.652-0.401 1.3-0.802 1.98-1.21 9.98-6.49 14.9-14.3 18-25.8 2.71-13.6-0.398-25.6-8-37-7.19-9.33-17.6-14.2-29-16-6.87-0.507-13.8-0.351-20.6-0.293-1.76 0.00442-3.51 0.00748-5.27 0.00916-6.45 0.0156-12.9 0.0575-19.3 0.0963-14.4 0.0619-28.9 0.124-43.8 0.188zm310 1c-0.0966 1.95-0.122 3.9-0.12 5.85-0.00137 1.27-0.00275 2.54-0.00417 3.85 0.00354 1.42 0.00717 2.85 0.0109 4.27 2.82e-4 1.49 1.24e-4 2.98-4.43e-4 4.46-2.88e-4 4.05 0.00561 8.1 0.0126 12.2 0.00623 4.23 0.00684 8.46 0.00803 12.7 0.00311 8.01 0.0113 16 0.0213 24 0.0112 9.12 0.0167 18.2 0.0217 27.4 0.0105 18.8 0.0288 37.5 0.0503 56.3h34c1.37-2.74 1.08-4.85 1.02-7.92-0.0201-1.24-0.0402-2.48-0.0609-3.76-0.0272-1.36-0.0545-2.72-0.0819-4.08-0.0243-1.39-0.0481-2.77-0.0715-4.16-0.0629-3.65-0.132-7.31-0.202-11-0.0707-3.73-0.136-7.45-0.201-11.2-0.128-7.31-0.267-14.6-0.404-21.9h61v64h34v-152h-34v58c-29.7-0.495-29.7-0.495-60-1 0.0625-27.4 0.0625-27.4 0.0901-36 0.00292-2.25 0.00547-4.5 0.00757-6.75 0.00512-1.18 0.0102-2.35 0.0155-3.57 1.21e-4 -1.12 2.42e-4 -2.23 3.66e-4 -3.38 0.00222-0.973 0.00444-1.95 0.00673-2.95 0.0343-2.35 0.0343-2.35-1.12-4.33-4.68-0.0247-9.36-0.0428-14-0.0549-1.59-0.00504-3.19-0.0119-4.78-0.0205-2.29-0.0121-4.57-0.0178-6.86-0.0222-0.717-0.00516-1.43-0.0103-2.17-0.0156-3.36-0.299-3.36-0.299-6.14 1.11z" fill="#000100"/>
<path transform="translate(436,212)" d="m0 0c25.6-0.0619 51.2-0.124 77.6-0.188 8.07-0.0273 16.1-0.0546 24.5-0.0828 9.9-0.0135 9.9-0.0135 14.5-0.0161 3.22-0.00278 6.45-0.014 9.67-0.0304 4.13-0.0208 8.25-0.0267 12.4-0.0225 1.51-8.81e-4 3.01-0.00672 4.52-0.0184 23.2-0.172 43.8 6.62 60.7 22.8 15.7 16.6 20.7 35.4 20.4 57.7-0.63 18.9-7.35 35.8-21.3 48.8-5.13 4.53-14 12-21 12v2c0.909 0.203 0.909 0.203 1.84 0.41 11.6 2.98 20.7 10 26.8 20.3 8.71 16.5 10.5 33.8 11.4 52.1 0.764 21.3 0.764 21.3 5.56 42l0.67 2.02c0.576 1.73 1.17 3.45 1.77 5.17 0.33 0.99 0.66 1.98 1 3h-58c-4.5-14.6-4.5-14.6-5.12-21.2-0.108-1.06-0.108-1.06-0.218-2.14-0.151-1.49-0.297-2.99-0.438-4.48-0.377-3.97-0.811-7.93-1.23-11.9-0.167-1.59-0.335-3.17-0.502-4.76-2.06-28.3-2.06-28.3-16.5-51.8-11.1-6.97-24.9-7.35-37.7-7.36-1.35-0.0141-2.71-0.0298-4.06-0.0474-4.93-0.0519-9.85-0.0708-14.8-0.0933-11.1-0.0825-22.1-0.165-33.5-0.25v104h-59v-268zm59 46c-0.0949 2.37-0.126 4.72-0.114 7.09-1.46e-4 0.741-2.92e-4 1.48-4.43e-4 2.25 6.99e-4 2.46 0.00849 4.92 0.0163 7.39 0.00186 1.7 0.00329 3.41 0.00429 5.11 0.00383 4.49 0.0137 8.98 0.0247 13.5 0.0102 4.58 0.0148 9.16 0.0198 13.7 0.0107 8.99 0.0278 18 0.0488 27 9.59 0.0698 19.2 0.123 28.8 0.155 4.45 0.0156 8.91 0.0367 13.4 0.0709 4.31 0.0328 8.61 0.0506 12.9 0.0583 1.63 0.0055 3.27 0.0162 4.9 0.0326 12.6 0.121 26.4-0.318 36.2-9.29 9.47-10 10.3-20.9 10.1-34.1-0.34-8.74-2.41-17.2-8.73-23.5-13.1-11.5-31.3-10.5-47.7-10.5-1.42-6.75e-4 -2.83-0.00165-4.25-0.0029-2.94-0.00146-5.87 6.28e-4 -8.81 0.00534-3.77 0.00575-7.54 0.00237-11.3-0.00357-2.91-0.0036-5.82-0.00247-8.73 1.28e-4 -1.39 6.68e-4 -2.78-1.54e-4 -4.18-0.00248-1.93-0.00252-3.86 2e-3 -5.79 0.0069-1.65 0.00119-1.65 0.00119-3.33 0.00241-2.41-0.152-2.41-0.152-3.47 1.13z" fill="#000100"/>
<path transform="translate(1113,208)" d="m0 0c0.758 0.139 1.52 0.278 2.3 0.422 25.1 4.8 46.8 16.5 61.6 37.9 9.33 14.5 11.1 28.8 11.1 45.7h-56c-1.36-4.07-2.39-7.68-3.25-11.8-2.2-8.8-6.58-15.2-13.9-20.6-14.9-8.26-35.1-10.2-51.6-6.32-10.1 3.04-17.7 7.65-23.3 16.8-2.93 5.88-2.42 12.6-1.98 19 2.28 6.73 6.77 10.5 12.9 13.9 17.2 8.24 37 12.2 55.4 16.7 3.16 0.769 6.33 1.54 9.49 2.32 2.32 0.565 4.64 1.12 6.96 1.67 29.5 7.14 52.1 19.7 68.6 45.6 8.61 15.3 7.91 38.4 3.62 54.9-4.04 13.7-10.8 24-21 34-0.838 0.862-1.68 1.72-2.54 2.61-21.1 20.4-55.2 26-83.3 26.6-35.8-0.853-71.1-7.91-96.7-34.8-15.7-17.2-20.4-37.5-20.4-60.5h57c0.66 4.62 1.32 9.24 2 14 2.22 6.66 4.82 11.4 9 17v2c0.99 0.33 1.98 0.66 3 1 0.596 0.608 1.19 1.22 1.8 1.84 10.8 10.6 29.2 13.5 43.8 13.6 15.8-0.203 32.2-2.58 44.4-13.4 6.73-7.1 7.62-13.7 7.41-23.3-0.766-6.91-3.35-11.6-8.16-16.6-16-10.8-34.4-15-52.9-19.6-68.6-17.1-68.6-17.1-88.3-44.6-0.471-0.598-0.941-1.2-1.43-1.81-10-13.9-10.6-33.5-8.19-49.8 3.94-20.7 17.6-37.6 34.7-49.5 29.2-18.6 64.6-21 97.9-14.8z" fill="#000100"/>
<path transform="translate(713 212)" d="m0 0c1.14-0.00315 2.28-0.0063 3.45-0.00955 1.24 0.00202 2.48 0.00405 3.75 0.00613 1.26-9.57e-4 2.52-0.00191 3.82-0.0029 2.67-6.82e-4 5.35 6.76e-4 8.02 0.00534 3.43 0.0057 6.87 0.00242 10.3-0.00357 3.26-0.00447 6.53-0.00135 9.79 0.00113 1.24-0.00202 2.48-0.00405 3.75-0.00613 1.14 0.00315 2.28 0.0063 3.45 0.00955 1.01 7.96e-4 2.01 0.00159 3.05 0.00241 2.28 0.127 2.28 0.127 3.28 1.13 0.105 2.19 0.138 4.39 0.145 6.58 0.00529 1.04 0.00529 1.04 0.0107 2.11 0.0107 2.35 0.0144 4.7 0.0181 7.05 0.0063 1.68 0.0131 3.36 0.0203 5.04 0.0147 3.63 0.0264 7.25 0.0359 10.9 0.0154 5.75 0.0394 11.5 0.0649 17.2 0.0712 16.3 0.131 32.7 0.182 49 0.0284 9.02 0.0639 18 0.107 27.1 0.0266 5.7 0.0446 11.4 0.056 17.1 0.00922 3.57 0.0266 7.14 0.0462 10.7 0.00739 1.64 0.0116 3.28 0.012 4.92 0.00944 19.3 0.798 38.8 14.4 53.9 12.8 12.1 29.7 12.9 46.3 12.6 14.5-0.472 28.3-3.89 38.9-14.5 7.7-12.1 10.8-25 10.9-39.3 0.00423-0.732 0.00846-1.46 0.0128-2.22 0.0129-2.44 0.019-4.87 0.0251-7.31 0.00795-1.75 0.0163-3.51 0.0251-5.26 0.018-3.77 0.033-7.53 0.0458-11.3 0.0203-5.95 0.0479-11.9 0.0767-17.8 0.0651-13.7 0.121-27.4 0.176-41.1 0.0508-12.6 0.104-25.1 0.165-37.7 0.0284-5.92 0.052-11.8 0.0719-17.8 0.0133-3.67 0.0308-7.34 0.0493-11 0.00778-1.71 0.0138-3.42 0.0181-5.13 0.00601-2.32 0.018-4.64 0.0316-6.97 0.00515-1.3 0.0103-2.61 0.0156-3.95 0.136-2.88 0.136-2.88 1.14-3.88 1.81-0.0938 3.62-0.117 5.44-0.114 1.16 7.55e-5 2.32 1.51e-4 3.52 2.29e-4 1.9 0.00774 1.9 0.00774 3.83 0.0156 1.93 0.00212 1.93 0.00212 3.9 0.00429 3.42 0.00382 6.85 0.0137 10.3 0.0247 3.49 0.0102 6.98 0.0148 10.5 0.0198 6.86 0.0107 13.7 0.0278 20.6 0.0488 0.0939 23.2 0.164 46.4 0.207 69.6 0.0205 10.8 0.0485 21.5 0.0945 32.3 0.0401 9.4 0.0657 18.8 0.0746 28.2 0.00517 4.97 0.0171 9.93 0.0466 14.9 0.211 37-0.601 72.7-27.9 101-22.8 22.6-56.6 28.8-87.6 29.2-33.2-0.127-67.1-8.29-91.1-32.4-22.5-23.6-24-57.4-23.9-88.3-0.00136-1.69-0.00314-3.37-0.00531-5.06-0.00451-4.53-0.00281-9.05 3.79e-4 -13.6 0.00255-4.75 1.79e-4 -9.5-0.00139-14.2-0.00181-7.96 5.61e-4 -15.9 0.00534-23.9 0.00547-9.21 0.00366-18.4-0.00183-27.6-0.00453-7.92-0.00518-15.8-0.00256-23.8 0.00156-4.72 0.00176-9.45-0.00154-14.2-0.00288-4.43-9.08e-4 -8.85 0.00489-13.3 0.00133-1.63 9.33e-4 -3.26-0.00126-4.88-0.00271-2.21 6.67e-4 -4.42 0.00568-6.64 3.77e-4 -1.24 7.54e-4 -2.48 0.00114-3.76 0.218-4.77 2.19-3.88 6.46-3.88z" fill="#000100"/>
<path transform="translate(1309 212)" d="m0 0c1.06 0.00222 2.13 0.00444 3.22 0.00673 1.8 1.13e-4 1.8 1.13e-4 3.64 2.29e-4 1.31 0.00516 2.61 0.0103 3.96 0.0156 1.34 0.00186 2.69 0.00329 4.03 0.00429 3.54 0.00382 7.09 0.0137 10.6 0.0247 3.61 0.0102 7.23 0.0148 10.8 0.0198 7.09 0.0107 14.2 0.0278 21.3 0.0488 4.58 12 9.13 24 13.6 36 0.818 2.21 1.64 4.42 2.46 6.63 2.39 6.46 4.79 12.9 7.17 19.4 0.687 1.86 1.37 3.72 2.06 5.58 0.826 2.24 1.65 4.48 2.48 6.72 0.371 1.01 0.743 2.01 1.13 3.05 0.315 0.856 0.631 1.71 0.955 2.59 0.997 2.62 2.03 5.21 3.07 7.81 1.98 4.94 3.86 9.91 5.7 14.9 0.331 0.89 0.661 1.78 1 2.7 1.05 2.82 2.09 5.65 3.14 8.47 4.46 12.1 8.95 24.1 13.5 36.1 2 5.23 3.96 10.5 5.89 15.7 0.305 0.831 0.611 1.66 0.926 2.52 0.26 0.711 0.521 1.42 0.789 2.15 2.77 7.53 5.56 15.1 8.35 22.6 0.281 0.756 0.561 1.51 0.85 2.29 3.82 10.3 7.68 20.6 11.6 30.8 3.7 9.74 7.37 19.5 11 29.2 0.435 1.17 0.869 2.34 1.32 3.54 0.591 1.6 0.591 1.6 1.19 3.23 0.523 1.41 0.523 1.41 1.06 2.85 0.743 2.13 0.743 2.13 0.743 3.13h-61c-8.31-24.5-8.31-24.5-10.9-32.2-0.69-2.03-1.38-4.06-2.07-6.09-0.528-1.56-0.528-1.56-1.07-3.15-0.345-1.01-0.69-2.03-1.04-3.07-0.295-0.87-0.591-1.74-0.895-2.64-1.28-3.64-2.65-7.25-4.01-10.9h-101c-4.6 12.1-9.17 24.1-13.3 36.3-0.828 2.43-1.66 4.87-2.49 7.3-0.352 1.04-0.705 2.08-1.07 3.15-1.32 3.77-2.73 7.5-4.13 11.2h-59c0.768-4.61 1.45-7.47 3.26-11.6 2.72-6.33 5.19-12.7 7.62-19.2 0.472-1.25 0.943-2.5 1.42-3.74 3.36-8.89 6.69-17.8 10-26.7 0.624-1.67 1.25-3.33 1.87-5 0.469-1.25 0.469-1.25 0.948-2.53 10.6-28.3 21.4-56.5 32.3-84.7 3.78-9.74 7.53-19.5 11.2-29.3 2.56-6.73 5.14-13.5 7.73-20.2 5.32-13.8 10.6-27.6 15.8-41.4 8.93-23.7 8.93-23.7 12.2-23.8zm25.6 66.1c-0.231 0.639-0.463 1.28-0.701 1.94-1.86 5.14-3.74 10.3-5.64 15.4-6.64 18-13.1 36-19.4 54.1-1.31 3.76-2.64 7.52-3.97 11.3-0.412 1.16-0.412 1.16-0.832 2.34-0.524 1.47-1.05 2.95-1.58 4.42-1.12 3.16-2.09 6.24-2.91 9.5h71c-1.86-6.19-3.73-12.3-5.83-18.4-0.266-0.78-0.532-1.56-0.806-2.36-0.87-2.55-1.74-5.09-2.62-7.64-0.3-0.878-0.601-1.76-0.911-2.66-4.98-14.6-10-29.1-15.1-43.7-0.326-0.935-0.651-1.87-0.987-2.83-0.925-2.65-1.85-5.31-2.78-7.96-0.273-0.785-0.547-1.57-0.828-2.38-1.31-3.73-2.65-7.42-4.16-11.1h-2z" fill="#000100"/>
<path transform="translate(185,212)" d="m0 0c22.3-0.0619 44.6-0.124 67.6-0.188 10.5-0.041 10.5-0.041 21.3-0.0828 8.63-0.0135 8.63-0.0135 12.7-0.0161 2.8-0.00277 5.61-0.0139 8.41-0.0304 3.59-0.0208 7.19-0.0267 10.8-0.0225 1.92-0.00129 3.83-0.0172 5.75-0.0341 24.5 0.0863 48.1 8.18 65.7 25.5 16.3 17.6 23.5 40.5 23.1 64.3-0.912 21.1-8.45 40.7-22.3 56.6-0.519 0.615-1.04 1.23-1.57 1.86-16.4 18-42.2 24-65.6 25.2-4.94 0.153-9.89 0.121-14.8 0.0842-1.37-0.00295-2.75-0.00499-4.12-0.0061-4.99-0.0103-9.98-0.0382-15-0.0642-16.8-0.0619-16.8-0.0619-33.9-0.125v95h-58v-268zm58 46c-0.0231 10.4-0.0409 20.8-0.0518 31.2-0.00523 4.83-0.0123 9.67-0.0236 14.5-0.0108 4.66-0.0168 9.32-0.0194 14-0.00185 1.78-0.00547 3.57-0.0109 5.35-0.00721 2.49-0.00826 4.98-0.0078 7.46-0.00539 1.12-0.00539 1.12-0.0109 2.26-0.295 3.39-0.295 3.39 1.12 6.2 1.62 0.109 3.25 0.149 4.88 0.161 1.04 0.00961 2.09 0.0192 3.16 0.0291 1.71 0.00637 1.71 0.00637 3.46 0.0129 1.77 0.00855 1.77 0.00855 3.57 0.0173 2.51 0.00948 5.02 0.016 7.52 0.0198 3.78 0.00958 7.55 0.0405 11.3 0.0723 28.8 0.508 28.8 0.508 54.1-11.9 0.66-0.804 1.32-1.61 2-2.44 0.681-0.722 1.36-1.44 2.06-2.19 7.7-11.2 8.06-23.9 5.69-36.8-2.29-9.13-7.06-16.3-14.9-21.4-13.1-7.26-29-7.73-43.7-7.7-1.64-0.00144-1.64-0.00144-3.31-0.0029-2.29-6.76e-4 -4.57 0.00114-6.86 0.00534-3.51 0.0054-7.02 1.42e-5 -10.5-0.00635-2.23 6.6e-4 -4.45 0.00194-6.68 0.00391-1.58-0.00304-1.58-0.00304-3.19-0.00613-0.969 0.00315-1.94 0.0063-2.94 0.00955-0.854 7.96e-4 -1.71 0.00159-2.59 0.00241-2.13-0.0049-2.13-0.0049-4.07 1.13z" fill="#000100"/>
<path transform="translate(1022 852)" d="m0 0c1.16-0.00961 2.32-0.0192 3.51-0.0291 1.27-0.00425 2.53-0.0085 3.84-0.0129 1.3-0.0057 2.6-0.0114 3.94-0.0173 2.76-0.0105 5.53-0.0164 8.29-0.0198 3.51-0.00543 7.01-0.0293 10.5-0.058 3.38-0.0234 6.75-0.0251 10.1-0.0299 1.24-0.0123 2.48-0.0247 3.76-0.0374 10.9 0.0274 23 0.854 31.6 8.37 6.51 6.66 10.1 15.3 10.4 24.6-0.35 8.46-2.6 16.9-8.92 22.8-2.4 2.05-4.89 3.85-7.52 5.6 0.887 0.536 1.77 1.07 2.69 1.62 5.05 3.44 8.21 6.75 9.43 12.8 1.33 7.2 1.28 14.5 1.37 21.8 0.0396 1.6 0.0396 1.6 0.0801 3.23 0.0202 1.44 0.0202 1.44 0.0408 2.9 0.471 3.18 1.68 5.02 3.4 7.7 0.688 2.31 0.688 2.31 1 4-4.29 0.0868-8.58 0.14-12.9 0.188-1.22 0.0251-2.45 0.0503-3.71 0.0762-1.17 0.00967-2.33 0.0193-3.54 0.0293-1.08 0.0157-2.16 0.0314-3.27 0.0476-0.863-0.112-1.73-0.225-2.61-0.341-4.41-6.61-3.29-15.6-3.43-23.3-0.17-9.26-0.17-9.26-3.57-17.7-6.47-4.65-16-3.34-23.6-3.19-1.94 0.0203-1.94 0.0203-3.92 0.041-3.17 0.0351-6.34 0.0843-9.51 0.146-0.0103 0.549-0.0206 1.1-0.0312 1.66-0.108 5.69-0.222 11.4-0.341 17.1-0.0434 2.13-0.0851 4.25-0.125 6.38-0.0575 3.05-0.121 6.1-0.186 9.15-0.0251 1.44-0.0251 1.44-0.0506 2.9-0.0199 0.881-0.0399 1.76-0.0604 2.67-0.0155 0.779-0.0311 1.56-0.0471 2.36-0.158 1.79-0.158 1.79-1.16 2.79-3.31 0.25-6.62 0.185-9.94 0.188-0.933 0.0122-1.87 0.0245-2.83 0.0371-1.34 0.0029-1.34 0.0029-2.7 0.00586-0.821 0.00411-1.64 0.00822-2.49 0.0125-2.05-0.243-2.05-0.243-4.05-2.24-0.249-2.01-0.249-2.01-0.247-4.52-0.00419-0.952-0.00839-1.9-0.0127-2.89 0.00562-1.05 0.0112-2.1 0.017-3.18-0.0019-1.1-0.0038-2.2-0.00575-3.34-0.00372-3.65 0.00701-7.31 0.0182-11 0.00119-2.53 0.00165-5.06 0.00139-7.58 0.00157-5.3 0.00963-10.6 0.0233-15.9 0.0157-6.14 0.021-12.3 0.0203-18.4-6.09e-4 -5.9 0.0046-11.8 0.0128-17.7 0.00319-2.51 0.00516-5.03 0.00589-7.54 0.00216-3.51 0.0109-7.01 0.0216-10.5-4.53e-4 -1.05-9.06e-4 -2.1-0.00137-3.18 0.00426-0.949 0.00853-1.9 0.0129-2.88 0.00168-0.83 0.00335-1.66 0.00508-2.51 0.273-4 3.18-3.02 6.54-3.04zm16.6 21.2c-0.218 4.12-0.186 8.23-0.185 12.4-0.00218 2.07-0.0203 4.14-0.0393 6.21-0.00193 1.3-0.00387 2.59-0.00586 3.93-0.00616 1.8-0.00616 1.8-0.0125 3.63-0.0572 3-0.0572 3 2.24 4.87 4.01 0.401 8.02 0.329 12 0.316 1.98-0.00312 3.97 0.021 5.95 0.0457 11.6 0.191 11.6 0.191 21.7-4.84 3.6-4.09 3.77-8.72 3.66-14-0.494-3.97-1.82-7.43-4.32-10.6-5.07-3.32-11.2-3.13-17.1-3.13-0.655-9.57e-4 -1.31-0.00191-1.98-0.0029-1.37-6.76e-4 -2.74 0.00114-4.12 0.00534-2.11 0.0054-4.22 1.35e-5 -6.33-0.00635-1.34 6.6e-4 -2.67 0.00194-4.01 0.00391-1.82 0.00169-1.82 0.00169-3.68 0.00342-2.68-0.187-2.68-0.187-3.77 1.13z" fill="#000100"/>
<path transform="translate(512 859)" d="m0 0c11.2 9.7 17.5 21 20 35.7 1.21 18.6 1.83 38.4-10 54-0.354 0.575-0.709 1.15-1.07 1.74-6.51 10.3-17.2 15.9-28.6 19-16.6 3.54-33.9 1.52-48.3-7.75-1.49-0.99-1.49-0.99-3-2v-2c-0.899-0.387-0.899-0.387-1.82-0.781-8.11-4.53-12.6-16.4-15-24.9-4.94-19.2-4.15-41.9 5.77-59.4 7.27-11.2 16.8-19.3 29.8-22.7 17.9-3.52 37.4-2.37 52.2 9.05zm-56 16.7c-9.23 10.6-11.6 25-10.7 38.7 1.04 12.7 4.57 22.1 13.4 31.2 6.95 4.68 15 6.29 23.2 5.19 7.59-1.78 14.1-4.83 19-11 8.12-13.7 9.93-28.9 6.68-44.3-2.42-9.44-6.43-17.6-14.8-23.1-12-6.21-26.3-5.27-36.8 3.41z" fill="#000100"/>
<path transform="translate(659,852)" d="m0 0c10.8-0.0463 21.6-0.0818 32.4-0.104 5.01-0.0105 10-0.0246 15-0.0473 4.83-0.0217 9.66-0.0337 14.5-0.0389 1.85-0.00371 3.69-0.0109 5.54-0.0217 2.58-0.0144 5.16-0.0165 7.74-0.0156 1.15-0.0108 1.15-0.0108 2.33-0.0218 5.29 0.0207 5.29 0.0207 7.52 2.25 0.243 1.86 0.243 1.86 0.23 4.1-0.00193 0.801-0.00387 1.6-0.00586 2.43-0.0122 0.837-0.0245 1.67-0.0371 2.54-9.67e-4 1.26-9.67e-4 1.26-0.00195 2.55-0.0453 6.25-0.0453 6.25-1.19 7.39-1.87 0.0939-3.75 0.117-5.62 0.114-1.2-7.55e-5 -2.4-1.51e-4 -3.64-2.29e-4 -1.31-0.00516-2.61-0.0103-3.96-0.0156-1.34-0.00186-2.69-0.00329-4.03-0.00429-3.54-0.00382-7.09-0.0137-10.6-0.0247-3.61-0.0102-7.23-0.0148-10.8-0.0198-7.09-0.0107-14.2-0.0283-21.3-0.0488v25h56v17c-2 2-2 2-4.29 2.24-0.955-0.00444-1.91-0.00888-2.89-0.0135-1.08-1.51e-4 -2.16-3.02e-4 -3.28-4.58e-4 -1.17-0.0103-2.34-0.0206-3.55-0.0313-1.79-0.00424-1.79-0.00424-3.62-0.00858-3.83-0.0112-7.66-0.0363-11.5-0.0617-2.59-0.01-5.18-0.0192-7.78-0.0273-6.37-0.0204-12.7-0.0595-19.1-0.0977v30h63v20c-1.76 1.76-4.09 1.13-6.43 1.15-1.17-6.8e-4 -1.17-6.8e-4 -2.36-0.00137-0.816 0.00336-1.63 0.00672-2.47 0.0102-2.71 0.00954-5.42 0.0115-8.14 0.0125-1.88 0.00321-3.75 0.00657-5.63 0.0101-3.94 6e-3 -7.88 0.00784-11.8 0.00725-5.06-1.02e-4 -10.1 0.0136-15.2 0.0308-3.88 0.0111-7.76 0.0131-11.6 0.0126-1.87 0.00118-3.73 0.00563-5.6 0.0133-2.61 0.00975-5.21 0.00694-7.82 8.95e-4 -0.777 0.00562-1.55 0.0112-2.35 0.017-5.34-0.0316-5.34-0.0316-7.57-2.26-0.246-2.03-0.246-2.03-0.241-4.57-0.00275-0.962-0.0055-1.92-0.00833-2.92 0.00719-1.06 0.0144-2.12 0.0218-3.21-4.38e-4 -1.67-4.38e-4 -1.67-8.85e-4 -3.37 0.0014-3.69 0.017-7.38 0.0326-11.1 0.00373-2.55 0.00658-5.11 0.00858-7.66 0.00687-6.04 0.0226-12.1 0.0427-18.1 0.0223-6.88 0.0333-13.8 0.0434-20.6 0.0209-14.1 0.0561-28.3 0.101-42.4z" fill="#000100"/>
<path transform="translate(625,859)" d="m0 0c5.93 5.36 10.4 12.1 12 20 0.0791 2.33 0.088 4.67 0 7-1 1-1 1-3.04 1.11-1.31-0.00786-1.31-0.00786-2.65-0.0159-0.944-0.00322-1.89-0.00645-2.86-0.00977-0.993-0.00838-1.99-0.0168-3.01-0.0254-0.997-0.00451-1.99-0.00902-3.02-0.0137-2.47-0.0118-4.94-0.0283-7.42-0.0488-0.255-0.727-0.511-1.45-0.774-2.2-2.48-6.92-4.7-10-11.4-13.4-4.11-1.73-7.88-1.93-12.3-1.87-1.12 0.00918-1.12 0.00918-2.27 0.0186-5.72 0.162-9.57 1.02-14.3 4.42-2.72 2.98-3.43 4.98-3.44 9-0.0193 0.846-0.0387 1.69-0.0586 2.56 0.662 3.25 2.01 4.28 4.5 6.44 7.46 3.69 15.9 5.27 23.9 7 26.8 5.78 26.8 5.78 36.4 15.3 0.557 0.887 1.11 1.77 1.69 2.69 0.37 0.589 0.74 1.18 1.12 1.79 4.18 7.73 4.05 16.6 2.29 25.1-3.31 9.67-11 17.1-19.8 22-14.7 6.63-32.8 7.08-48 2.07-5.29-2.13-10.1-4.49-14.6-7.89-0.99-0.66-1.98-1.32-3-2v-2h-2c-4.11-7.41-7.47-14.4-8-23 2.36-2.36 8.27-1.19 11.4-1.19 1.47-0.0184 1.47-0.0184 2.97-0.0371 0.937-0.00193 1.87-0.00387 2.84-0.00586 0.863-0.00411 1.73-0.00822 2.61-0.0125 2.14 0.243 2.14 0.243 4.14 2.24 0.48 1.26 0.913 2.53 1.31 3.81 1.93 5.3 4.72 8.16 9.75 10.8 4.52 1.86 8.91 1.93 13.8 1.89 1.33-0.00641 1.33-0.00641 2.68-0.0129 6.7-0.175 12.2-1.12 17.5-5.49 2.64-2.87 3.2-5.21 3.5-9-0.158-3.11-0.522-4.03-2.31-6.75-8.32-5.87-19.1-7.57-28.8-9.81-26.6-6.14-26.6-6.14-34.8-16.5-4.84-9.11-4.95-20-2.95-30 3.09-8.67 9.11-15 17.1-19.4 18.6-8.39 42.8-6.77 59.2 5.44z" fill="#000100"/>
<path transform="translate(1323 860)" d="m0 0c5.46 4.94 8.85 10.9 10.2 18.2v9h-21c-0.557-1.57-1.11-3.13-1.69-4.75-2.35-5.82-4.85-8.02-10.5-10.8-4.11-1.73-7.88-1.93-12.3-1.87-1.12 0.0103-1.12 0.0103-2.27 0.0208-7.14 0.208-11.4 1.79-16.8 6.67-2.02 3.71-2.42 6.62-1.5 10.8 5.67 8.6 19.4 9.94 28.8 11.9 30.8 6.89 30.8 6.89 37.8 17.5 4.3 8.38 5.7 17.7 3.25 26.9-3.1 8.63-8.39 16.6-16.5 21.2-16.2 7.6-34.3 8.74-51.6 3.56-9.22-3.52-17.9-9-22.8-17.8-2.75-6.3-4.33-11.4-2.96-18.2h21c1.4 2.99 2.8 5.99 4.2 8.98 2.49 4.17 5.1 6.25 9.5 8.24 10 2.37 22.5 2.56 31.5-2.74 2.69-2.24 4.5-4.19 5.25-7.67 0.0558-4.03-0.0625-6.21-2.34-9.63-9.35-6.54-20.9-8.12-31.9-10.5-11.6-2.57-24-5.43-31.5-15.4-5.08-8.13-5.93-17.3-4.14-26.6 2.69-10.2 7.54-16.6 16.4-22.2 18.6-10.3 45.2-7.78 61.7 5.25z" fill="#000100"/>
<path transform="translate(1135 852)" d="m0 0c1.36 0.00616 1.36 0.00616 2.74 0.0125 0.982 0.00193 1.96 0.00387 2.97 0.00586 1.03 0.0122 2.06 0.0245 3.12 0.0371 1.03 6.45e-4 2.06 0.00129 3.13 0.00195 7.67 0.0454 7.67 0.0454 8.81 1.19 0.109 2.45 0.154 4.87 0.158 7.31 0.00762 1.15 0.00762 1.15 0.0154 2.32 0.0107 1.67 0.0193 3.34 0.0261 5.01 0.0118 2.65 0.0312 5.3 0.0531 7.95 0.0617 7.53 0.116 15.1 0.149 22.6 0.021 4.6 0.0564 9.21 0.101 13.8 0.0141 1.75 0.0229 3.5 0.0261 5.25-0.328 14.7-0.328 14.7 5.85 27.7 5.83 4.58 12.8 5.55 20.1 4.82 4.91-0.937 8.79-2.34 12.6-5.75 4.06-7.17 4.11-15.7 4.19-23.8 0.00829-0.731 0.0166-1.46 0.0251-2.22 0.0173-1.57 0.0325-3.14 0.0458-4.71 0.0212-2.48 0.0482-4.97 0.0767-7.45 0.0695-6.16 0.129-12.3 0.189-18.5 0.0509-5.22 0.106-10.4 0.166-15.7 0.0266-2.45 0.0474-4.9 0.068-7.35 0.0166-1.49 0.0335-2.98 0.0507-4.47 0.0188-1.96 0.0188-1.96 0.038-3.96 0.151-2.91 0.151-2.91 1.15-3.91 1.71-0.0871 3.42-0.107 5.13-0.0977 1.55 0.00483 1.55 0.00483 3.13 0.00977 1.09 0.00838 2.18 0.0168 3.3 0.0254 1.64 0.00677 1.64 0.00677 3.31 0.0137 2.71 0.0118 5.42 0.0283 8.13 0.0488 0.07 10 0.123 20 0.155 30 0.0155 4.65 0.0366 9.3 0.0709 13.9 0.033 4.5 0.0506 9 0.0583 13.5 0.00547 1.7 0.0162 3.4 0.0326 5.11 0.0805 8.71-0.179 17.2-1.66 25.8-0.119 0.69-0.237 1.38-0.36 2.09-1.59 8.27-5.59 15.1-12.3 20.3-14.2 9.13-31 10-47.2 7-9.76-2.43-18.5-7.86-24.8-15.7-7.77-13.4-7.16-28.9-7.17-43.9-0.00322-1.62-0.00658-3.24-0.0101-4.85-0.00595-3.37-0.00784-6.74-0.00725-10.1 1.02e-4 -4.32-0.0136-8.64-0.0308-13-0.0111-3.33-0.0131-6.66-0.0126-9.99-0.00118-1.59-0.00561-3.19-0.0133-4.78-0.00975-2.22-0.00694-4.44-8.95e-4 -6.66-0.00143-1.26-0.00285-2.52-0.00432-3.82 0.297-3.53 0.832-4.79 4.48-5.19z" fill="#000100"/>
<path transform="translate(1392 852)" d="m0 0c1.08 0.00524 2.17 0.0105 3.28 0.0159 1.17 0.00322 2.34 0.00645 3.54 0.00977 1.23 0.00838 2.46 0.0168 3.73 0.0254 1.85 0.00677 1.85 0.00677 3.74 0.0137 3.06 0.0118 6.13 0.0283 9.19 0.0488 0.357 0.991 0.714 1.98 1.08 3 1.36 3.77 2.72 7.53 4.07 11.3 0.604 1.67 1.21 3.35 1.81 5.02 3.29 9.11 6.59 18.2 9.97 27.3 2.36 6.35 4.54 12.7 6.65 19.2 2.21 6.69 4.58 13.3 6.97 19.9 0.386 1.07 0.773 2.14 1.17 3.25 1.64 4.53 3.28 9.05 4.95 13.6 0.454 1.24 0.908 2.47 1.38 3.75 0.383 1.03 0.766 2.05 1.16 3.11 0.777 2.57 0.777 2.57 0.777 6.57h-24c-4.55-11.4-4.55-11.4-6.25-16.5-0.335-1-0.67-2-1.02-3.03-0.734-2.47-0.734-2.47-0.734-4.47h-44c-0.33 1.98-0.66 3.96-1 6-0.418 1.44-0.874 2.86-1.38 4.27-0.263 0.743-0.526 1.49-0.797 2.25-0.273 0.756-0.547 1.51-0.828 2.29-0.273 0.775-0.547 1.55-0.828 2.35-2.04 5.7-2.04 5.7-3.17 6.84-1.71 0.0871-3.42 0.107-5.13 0.0977-1.55-0.00483-1.55-0.00483-3.13-0.00977-1.09-0.00838-2.18-0.0168-3.3-0.0254-1.64-0.00677-1.64-0.00677-3.31-0.0137-2.71-0.0118-5.42-0.0283-8.13-0.0488 0.648-4.86 2.01-9.31 3.66-13.9 0.398-1.13 0.398-1.13 0.804-2.28 0.861-2.44 1.73-4.88 2.6-7.31 0.599-1.69 1.2-3.38 1.8-5.08 3.36-9.5 6.78-19 10.3-28.4 2.74-7.48 5.31-15 7.89-22.5 3.06-8.95 6.2-17.9 9.56-26.7 0.502-1.32 0.502-1.32 1.01-2.67 2.72-7.05 2.72-7.05 5.92-7.19zm9.5 27.1c-3.76 8.53-6.83 17.2-9.65 26-0.674 2.12-1.36 4.23-2.04 6.35-2.31 6.19-2.31 6.19-3.31 12.6h30c-1.27-6.36-2.55-12.3-4.53-18.4-0.355-1.11-0.355-1.11-0.717-2.24-0.495-1.54-0.992-3.07-1.49-4.61-0.767-2.36-1.52-4.72-2.27-7.09-0.485-1.5-0.97-3-1.46-4.5-0.224-0.707-0.448-1.41-0.679-2.14-0.56-1.7-1.2-3.37-1.85-5.04-0.66-0.33-1.32-0.66-2-1z" fill="#000100"/>
<path transform="translate(915 852)" d="m0 0c1.54-0.00957 1.54-0.00957 3.11-0.0193 1.12-0.00111 2.24-0.00223 3.39-0.00337 1.15-0.00333 2.3-0.00666 3.48-0.0101 2.44-0.00508 4.89-0.00741 7.33-0.00725 3.71-0.00217 7.42-0.0203 11.1-0.0393 2.37-0.00294 4.75-0.00492 7.12-0.00586 1.65-0.0108 1.65-0.0108 3.33-0.0218 11.8 0.0343 23.4 1.2 32.6 9.26 8.1 8.47 9.69 17.5 9.7 29-0.444 10.9-2.01 20.4-10.1 28.3-7.8 6.16-17.9 7.77-27.6 8-1.09 0.0312-1.09 0.0312-2.2 0.063-2.3 0.065-4.6 0.124-6.91 0.183-1.57 0.0432-3.13 0.0868-4.7 0.131-3.83 0.107-7.66 0.208-11.5 0.307-0.0251 1.21-0.0501 2.41-0.0759 3.66-0.0939 4.46-0.194 8.92-0.296 13.4-0.0434 1.93-0.0851 3.87-0.125 5.8-0.0575 2.77-0.121 5.55-0.186 8.32-0.0251 1.3-0.0251 1.3-0.0506 2.64-0.152 6.1-0.152 6.1-1.27 7.21-1.55 0.099-3.1 0.131-4.66 0.133-1.41 0.00193-1.41 0.00193-2.85 0.00391-1.48-0.0058-1.48-0.0058-3-0.0117-0.989 0.00387-1.98 0.00773-3 0.0117-0.94-0.00129-1.88-0.00258-2.85-0.00391-0.868-0.00113-1.74-0.00226-2.63-0.00342-2.03-0.129-2.03-0.129-3.03-1.13-0.0978-1.48-0.126-2.96-0.127-4.44-0.00282-0.959-0.00564-1.92-0.00854-2.91 0.00202-1.06 0.00405-2.12 0.00613-3.21-0.00175-1.11-0.0035-2.22-0.00531-3.36-0.00442-3.69-0.00148-7.38 0.00189-11.1-6.73e-4 -2.55-0.00164-5.1-0.0029-7.66-0.00148-5.36 5.84e-4 -10.7 0.00534-16.1 0.00544-6.2 0.00368-12.4-0.00183-18.6-0.00508-5.95-0.00455-11.9-0.00162-17.9 6.7e-4 -2.54-1.6e-4 -5.08-0.00248-7.62-0.00252-3.54 0.00131-7.08 0.0069-10.6-0.00202-1.06-0.00405-2.12-0.00613-3.21 0.00282-0.959 0.00564-1.92 0.00854-2.91 3.77e-4 -0.838 7.54e-4 -1.68 0.00114-2.54 0.253-3.82 2.65-3.03 5.93-3.05zm18.2 20.1c-1.48 2.96-1.13 5.64-1.13 8.94-0.00144 1.02-0.00144 1.02-0.0029 2.07-6.81e-4 1.44 0.00117 2.89 0.00534 4.33 0.00536 2.22 4.67e-5 4.43-0.00635 6.65 6.61e-4 1.4 0.00194 2.8 0.00391 4.2 0.00113 1.28 0.00226 2.56 0.00342 3.88-0.206 2.82-0.206 2.82 1.13 3.93 4.56 0.284 9.12 0.232 13.7 0.25 1.28 0.0206 2.56 0.0412 3.88 0.0625 1.86 0.00773 1.86 0.00773 3.76 0.0156 1.14 0.00935 2.27 0.0187 3.44 0.0283 4.91-0.541 8.16-2.23 11.5-5.79 3.66-5.56 3.49-12.5 2.23-18.9-1.2-3.81-2.03-5.33-5.41-7.61-4.79-1.63-9.03-2.19-14.1-2.16-1.11 0.00322-2.22 0.00645-3.37 0.00977-1.15 0.00838-2.3 0.0168-3.49 0.0254-1.17 0.00451-2.34 0.00902-3.54 0.0137-2.88 0.0118-5.76 0.0282-8.64 0.0488z" fill="#000100"/>
<path transform="translate(766,852)" d="m0 0h82v21h-59v26c3.67-0.0116 7.34-0.0232 11.1-0.0352 3.54-0.00779 7.08-0.0139 10.6-0.0198 2.47-0.00504 4.93-0.0119 7.4-0.0205 3.54-0.0121 7.07-0.0178 10.6-0.0222 1.11-0.00516 2.22-0.0103 3.36-0.0156 1.53-1.13e-4 1.53-1.13e-4 3.09-2.29e-4 0.904-0.00222 1.81-0.00444 2.74-0.00673 2.06 0.12 2.06 0.12 3.06 1.12 0.0984 1.33 0.131 2.67 0.133 4 0.00129 0.804 0.00258 1.61 0.00391 2.44-0.00387 0.846-0.00773 1.69-0.0117 2.56 0.00387 0.846 0.00773 1.69 0.0117 2.56-0.00129 0.804-0.00258 1.61-0.00391 2.44-0.00113 0.742-0.00226 1.49-0.00342 2.25-0.129 1.75-0.129 1.75-1.13 2.75-1.6 0.0933-3.2 0.117-4.8 0.114-1.02-7.55e-5 -2.04-1.51e-4 -3.09-2.29e-4 -1.11-0.00516-2.22-0.0103-3.36-0.0156-1.13-0.00141-2.26-0.00283-3.43-0.00429-3.63-0.00562-7.26-0.0182-10.9-0.0309-2.45-0.00501-4.9-0.00958-7.36-0.0137-6.03-0.0111-12.1-0.0278-18.1-0.0488 0.00222 0.599 0.00444 1.2 0.00673 1.82 0.0221 6.21 0.0372 12.4 0.0482 18.6 0.00504 2.32 0.0119 4.64 0.0205 6.96 0.0121 3.33 0.0178 6.66 0.0222 9.99 0.00516 1.04 0.0103 2.09 0.0156 3.17 1.13e-4 1.44 1.13e-4 1.44 2.29e-4 2.91 0.00222 0.85 0.00444 1.7 0.00673 2.58-0.12 1.94-0.12 1.94-1.12 2.94-3.47 0.251-6.96 0.185-10.4 0.188-1.47 0.0184-1.47 0.0184-2.97 0.0371-0.937 0.00193-1.87 0.00387-2.84 0.00586-0.863 0.00411-1.73 0.00822-2.61 0.0125-2.14-0.243-2.14-0.243-4.14-2.24-0.249-1.99-0.249-1.99-0.247-4.48-0.00419-0.942-0.00839-1.88-0.0127-2.86 0.00562-1.04 0.0112-2.07 0.017-3.14-0.0019-1.09-0.0038-2.18-0.00575-3.3-0.00372-3.62 0.00701-7.23 0.0182-10.8 0.00119-2.5 0.00165-5.01 0.00139-7.51 0.00157-5.25 0.00963-10.5 0.0233-15.8 0.0157-6.08 0.021-12.2 0.0203-18.2-6.1e-4 -5.84 0.0046-11.7 0.0128-17.5 0.00319-2.49 0.00516-4.98 0.00589-7.46 0.00216-3.47 0.0109-6.94 0.0216-10.4-4.53e-4 -1.04-9.06e-4 -2.07-0.00137-3.14 0.00426-0.942 0.00853-1.88 0.0129-2.86 0.00168-0.821 0.00335-1.64 0.00508-2.49 0.129-1.99 0.129-1.99 1.13-3.99z" fill="#000100"/>
<path transform="translate(377,852)" d="m0 0c3.62-0.0579 7.25-0.0936 10.9-0.125 1.03-0.0168 2.07-0.0335 3.13-0.0508 0.986-0.00645 1.97-0.0129 2.99-0.0195 1.37-0.0157 1.37-0.0157 2.76-0.0317 2.25 0.227 2.25 0.227 4.25 2.23 0.204 2.58 0.283 5.05 0.275 7.62 0.00511 0.787 0.0102 1.57 0.0155 2.39 0.014 2.62 0.0129 5.23 0.0106 7.85 0.00389 1.82 0.00822 3.65 0.013 5.47 0.00748 3.84 0.00716 7.67 0.00191 11.5-0.00575 4.88 0.011 9.76 0.0343 14.6 0.0149 3.78 0.0156 7.55 0.0125 11.3 5.09e-4 1.8 0.00566 3.59 0.0158 5.39 0.144 29.1 0.144 29.1-8.38 39.8-7.5 7.46-15.6 10.3-26.1 10.5-0.93-0.00999-1.86-0.02-2.82-0.0303-1.45-0.00918-1.45-0.00918-2.93-0.0186-6.99-0.153-13-0.949-19.2-4.42-0.928-0.516-1.86-1.03-2.81-1.56-10.1-11.3-11-25-11.2-39.4 1-1 1-1 3.04-1.11 0.875 0.00524 1.75 0.0105 2.65 0.0159 0.944 0.00322 1.89 0.00645 2.86 0.00977 0.993 0.00838 1.99 0.0168 3.01 0.0254 0.997 0.00451 1.99 0.00902 3.02 0.0137 2.47 0.0118 4.94 0.0283 7.42 0.0488 0.105 0.651 0.211 1.3 0.32 1.97 0.485 2.95 0.989 5.89 1.49 8.84 0.166 1.02 0.331 2.05 0.502 3.1 0.171 0.983 0.342 1.97 0.518 2.98 0.152 0.906 0.304 1.81 0.46 2.75 0.786 2.62 1.6 3.67 3.71 5.36 3.72 1.86 7.94 1.43 12 1 3.15-1.23 3.15-1.23 5-4 1.9-5.84 2.3-11.7 2.32-17.8 0.0151-1.25 0.0151-1.25 0.0304-2.52 0.0306-2.71 0.0478-5.42 0.0648-8.13 0.0187-1.89 0.0383-3.79 0.0587-5.68 0.0511-4.96 0.0909-9.91 0.128-14.9 0.0402-5.07 0.0912-10.1 0.141-15.2 0.0965-9.93 0.181-19.9 0.258-29.8z" fill="#000100"/>
<path transform="translate(995,617)" d="m0 0c9.84-0.0928 9.84-0.0928 19.9-0.188 2.05-0.0273 4.1-0.0546 6.21-0.0828 1.66-0.00878 3.31-0.0164 4.97-0.0227 0.834-0.0153 1.67-0.0307 2.53-0.0465 7.3-0.00318 14.3 1.12 20.4 5.46 4.08 5.69 5.8 11.9 5.06 18.9-2.28 10.6-2.28 10.6-7 14-6.92 4.06-13.5 4.15-21.3 4.1-0.78-0.00101-1.56-0.00201-2.36-0.00305-2.89-0.0052-5.78-0.0192-8.67-0.0321-6.48-0.0206-13-0.0412-19.6-0.0625v-42z" fill="#000100"/>
<path transform="translate(294 617)" d="m0 0c0.887-0.0057 1.77-0.0114 2.69-0.0173 1.89-0.00947 3.77-0.016 5.66-0.0198 2.86-0.00963 5.72-0.0406 8.59-0.0723 1.83-0.00654 3.67-0.0118 5.5-0.0156 1.27-0.0185 1.27-0.0185 2.57-0.0374 7.15 0.0263 13.5 1.17 19.2 5.74 4.47 5.69 5.43 12.1 4.85 19.2-0.938 5.88-2.37 9.38-6.79 13.4-7.13 3.69-13.4 4.15-21.2 4.1-0.881-0.00141-1.76-0.00283-2.67-0.00429-2.8-0.00558-5.6-0.0181-8.41-0.0309-1.9-0.00502-3.81-0.00958-5.71-0.0137-4.66-0.011-9.32-0.0283-14-0.0488-0.0246-5.82-0.0428-11.6-0.0549-17.5-0.00504-1.98-0.0119-3.96-0.0205-5.95-0.0121-2.84-0.0178-5.68-0.0222-8.53-0.00516-0.892-0.0103-1.78-0.0156-2.7-1.95e-4 -2.12 0.0512-4.24 0.113-6.36 2.12-2.12 6.82-1.19 9.75-1.2z" fill="#000100"/>
<path transform="translate(181,893)" d="m0 0h13v26c2.31-1.98 4.62-3.96 7-6 5.87-1.96 13.3-2.08 19.3-0.316 5.56 2.97 9.88 8.23 12.1 14.1 2.86 11.2 2.05 22.7-3.8 32.7-3.02 4.37-6.71 7.46-11.6 9.5-8.43 0.904-14.1-0.0221-20.9-5.19-0.701-0.598-1.4-1.2-2.12-1.81v6h-13v-75zm15 35c-3.45 6.21-3.5 13.2-1.8 19.9 1.5 3.93 3.98 7.21 7.8 9.12 4.66 0.503 8.68 0.645 12.9-1.44 3.65-4.53 4.84-9.4 5.44-15.1-0.611-5.6-2.26-9.76-5.38-14.4-6.01-4.01-14.2-3.73-19 2z" fill="#000100"/>
<path transform="translate(240,913)" d="m0 0h15c0.447 1.57 0.447 1.57 0.902 3.17 1.1 3.87 2.21 7.75 3.32 11.6 0.478 1.68 0.957 3.35 1.43 5.03 0.687 2.41 1.37 4.82 2.06 7.23 0.32 1.13 0.32 1.13 0.647 2.27 0.832 2.91 1.68 5.8 2.64 8.68 0.66 0.33 1.32 0.66 2 1 0.103-0.65 0.206-1.3 0.312-1.97 1.24-7.34 3.1-14.4 5.25-21.5 0.627-2.1 1.25-4.21 1.88-6.31 0.275-0.915 0.551-1.83 0.834-2.77 0.626-2.15 1.18-4.31 1.72-6.48h14c-0.606 6.48-2.64 12.2-4.82 18.3-0.384 1.09-0.768 2.18-1.16 3.3-0.813 2.3-1.63 4.6-2.45 6.9-1.24 3.48-2.46 6.95-3.69 10.4-11.3 31.9-11.3 31.9-15.4 36.4-5.64 2.62-11.4 2-17.5 1.62v-11c4.95-0.99 4.95-0.99 10-2 2.17-5.69 1.88-9.02-0.438-14.7-0.573-1.5-1.14-3.01-1.71-4.51-0.456-1.17-0.456-1.17-0.921-2.37-1.57-4.11-2.99-8.27-4.43-12.4-1.74-4.99-3.48-9.97-5.28-14.9-0.28-0.779-0.559-1.56-0.848-2.36-0.529-1.47-1.06-2.94-1.6-4.41-1.04-2.91-1.78-5.18-1.78-8.29z" fill="#000100"/>
<path transform="translate(873,631)" d="m0 0c3 1 3 1 4.01 3.01 0.295 0.883 0.591 1.77 0.895 2.68 0.34 0.998 0.68 2 1.03 3.02 0.356 1.09 0.713 2.17 1.08 3.29 0.56 1.66 0.56 1.66 1.13 3.35 1.19 3.55 2.37 7.1 3.55 10.6 0.804 2.4 1.61 4.79 2.42 7.19 1.47 4.37 2.93 8.75 4.38 13.1 0.293 0.883 0.586 1.77 0.888 2.68 0.625 2.01 0.625 2.01 0.625 3.01h-38c0.692-3.46 1.39-6.4 2.53-9.68 0.312-0.9 0.624-1.8 0.945-2.73 0.338-0.96 0.675-1.92 1.02-2.91 0.348-0.996 0.696-1.99 1.05-3.02 3.97-11.3 8.19-22.5 12.4-33.7z" fill="#000100"/>
</svg>
